<svg xmlns="http://www.w3.org/2000/svg" xmlns:xlink="http://www.w3.org/1999/xlink" width="159" height="68.36" viewBox="0 0 159 68.36"><defs><style>.a{fill:#fff;stroke:#707070;}.b{clip-path:url(#a);}.c,.f,.j,.l,.n,.s,.t,.x,.y,.z{isolation:isolate;}.d{fill:url(#b);}.e{fill:url(#c);}.f,.n,.s,.y,.z{mix-blend-mode:color-dodge;}.f{fill:url(#d);}.g{fill:url(#e);}.h{fill:url(#f);}.i{fill:url(#g);}.j,.l,.t{mix-blend-mode:multiply;}.j{fill:url(#h);}.k{fill:url(#i);}.l{fill:url(#j);}.m{fill:url(#k);}.n{fill:url(#l);}.o{fill:url(#m);}.p{fill:url(#n);}.q{fill:url(#p);}.r{fill:url(#q);}.s{fill:url(#r);}.t{fill:url(#s);}.u{fill:url(#t);}.v{fill:url(#u);}.w{fill:url(#v);}.x{mix-blend-mode:screen;fill:url(#w);}.y{fill:url(#x);}.z{fill:url(#y);}</style><clipPath id="a"><path class="a" d="M0,34H159V88H122.979l-21.361,14.36L77.953,88H0Z" transform="translate(0 -34)"/></clipPath><linearGradient id="b" x1="0.87" y1="0.072" x2="0.02" y2="0.846" gradientUnits="objectBoundingBox"><stop offset="0.045" stop-color="#8566bd"/><stop offset="0.611" stop-color="#8969c3"/><stop offset="0.711" stop-color="#8c6bc3"/><stop offset="0.808" stop-color="#9874c6"/><stop offset="0.904" stop-color="#ac83cb"/><stop offset="0.919" stop-color="#b086cc"/><stop offset="0.952" stop-color="#ad84cb"/><stop offset="0.973" stop-color="#a47dc9"/><stop offset="0.991" stop-color="#9572c6"/><stop offset="1" stop-color="#8b6bc4"/></linearGradient><linearGradient id="c" x1="-0.095" y1="0.86" x2="0.992" y2="0.201" gradientUnits="objectBoundingBox"><stop offset="0.056" stop-color="#d1b4e3"/><stop offset="0.083" stop-color="#cfb1e1"/><stop offset="0.423" stop-color="#be99d5"/><stop offset="0.738" stop-color="#b38bce"/><stop offset="1" stop-color="#b086cc"/></linearGradient><radialGradient id="d" cx="-0.73" cy="0.671" r="0.373" gradientTransform="matrix(-2.983, 0, 0, 1, -5.348, 0)" gradientUnits="objectBoundingBox"><stop offset="0" stop-color="#fff"/><stop offset="1"/></radialGradient><linearGradient id="e" x1="1.076" y1="0.543" x2="-2.82" y2="0.254" gradientUnits="objectBoundingBox"><stop offset="0.035" stop-color="#6b24d6"/><stop offset="0.294" stop-color="#7733dc"/><stop offset="0.794" stop-color="#965bec"/><stop offset="1" stop-color="#a56ef4"/></linearGradient><linearGradient id="f" x1="2.396" y1="0.712" x2="-1.478" y2="0.279" xlink:href="#e"/><linearGradient id="g" x1="0.265" y1="-0.275" x2="0.534" y2="0.61" xlink:href="#e"/><radialGradient id="h" cx="0.588" cy="0.158" r="0.377" gradientTransform="matrix(-2.69, 0, 0, 1, 2.318, 0)" gradientUnits="objectBoundingBox"><stop offset="0" stop-color="#8770b8"/><stop offset="1" stop-color="#fff"/></radialGradient><linearGradient id="i" x1="0.732" y1="0.069" x2="0.207" y2="0.872" gradientUnits="objectBoundingBox"><stop offset="0" stop-color="#5c1ccc"/><stop offset="0.027" stop-color="#6223cf"/><stop offset="0.067" stop-color="#7437d9"/><stop offset="0.115" stop-color="#9258e9"/><stop offset="0.141" stop-color="#a56ef4"/><stop offset="0.227" stop-color="#c994ff"/><stop offset="0.284" stop-color="#ae79ef"/><stop offset="0.379" stop-color="#7945d1"/><stop offset="0.54" stop-color="#4916a1"/><stop offset="0.623" stop-color="#4b16a4"/><stop offset="0.695" stop-color="#5219af"/><stop offset="0.762" stop-color="#5d1ec0"/><stop offset="0.818" stop-color="#6b24d6"/><stop offset="0.943" stop-color="#5b1dbc"/><stop offset="1" stop-color="#531ab0"/></linearGradient><radialGradient id="j" cx="0.698" cy="0.605" r="0.731" gradientTransform="matrix(-1.132, 0, 0, 1, 1.514, 0)" gradientUnits="objectBoundingBox"><stop offset="0.581" stop-color="#fff"/><stop offset="0.641" stop-color="#faf9fc"/><stop offset="0.714" stop-color="#eeebf5"/><stop offset="0.792" stop-color="#dad2e9"/><stop offset="0.875" stop-color="#bdb1d8"/><stop offset="0.961" stop-color="#9985c2"/><stop offset="1" stop-color="#8770b8"/></radialGradient><linearGradient id="k" x1="1" y1="0.5" x2="0" y2="0.5" gradientUnits="objectBoundingBox"><stop offset="0.035" stop-color="#a56ef4"/><stop offset="0.364" stop-color="#c994ff"/><stop offset="0.538" stop-color="#b279f5"/><stop offset="0.912" stop-color="#7935dc"/><stop offset="1" stop-color="#6b24d6"/></linearGradient><radialGradient id="l" cx="0.5" cy="0.5" r="0.424" gradientTransform="matrix(-1.514, 0, 0, 1, 1.257, 0)" xlink:href="#d"/><linearGradient id="m" x1="0.597" y1="0.103" x2="0.264" y2="0.699" gradientUnits="objectBoundingBox"><stop offset="0.01" stop-color="#c1a1d5"/><stop offset="0.049" stop-color="#c7abd9"/><stop offset="0.115" stop-color="#d9c6e5"/><stop offset="0.2" stop-color="#f6f2f9"/><stop offset="0.222" stop-color="#fff"/><stop offset="0.251" stop-color="#f9f5fb"/><stop offset="0.3" stop-color="#e9dbf1"/><stop offset="0.359" stop-color="#d1b4e3"/><stop offset="0.426" stop-color="#b294d5"/><stop offset="0.495" stop-color="#9b7ccb"/><stop offset="0.558" stop-color="#8d6ec5"/><stop offset="0.611" stop-color="#8969c3"/><stop offset="0.755" stop-color="#9371c5"/><stop offset="1" stop-color="#b086cc"/></linearGradient><linearGradient id="n" x1="0.822" y1="-0.004" x2="0.091" y2="0.94" xlink:href="#i"/><linearGradient id="p" x1="0.159" y1="0.959" x2="0.86" y2="0.015" xlink:href="#m"/><linearGradient id="q" x1="0.19" y1="1.035" x2="0.987" y2="0.093" gradientUnits="objectBoundingBox"><stop offset="0" stop-color="#5c1ccc"/><stop offset="0.227" stop-color="#ba85ff"/><stop offset="0.379" stop-color="#7945d1"/><stop offset="0.54" stop-color="#4916a1"/><stop offset="0.614" stop-color="#4b16a4"/><stop offset="0.678" stop-color="#5219af"/><stop offset="0.738" stop-color="#5d1ec0"/><stop offset="0.788" stop-color="#6b24d6"/><stop offset="0.934" stop-color="#5b1dbc"/><stop offset="1" stop-color="#531ab0"/></linearGradient><radialGradient id="r" cx="0.5" cy="0.5" r="0.423" gradientTransform="matrix(-1.523, 0, 0, 1, 1.262, 0)" xlink:href="#d"/><radialGradient id="s" cx="-0.006" cy="0.303" r="0.644" gradientTransform="matrix(-1.285, 0, 0, 1, -0.159, 0)" xlink:href="#h"/><linearGradient id="t" x1="0.253" y1="0.925" x2="0.749" y2="0.258" gradientUnits="objectBoundingBox"><stop offset="0.035" stop-color="#1e1f21"/><stop offset="0.239" stop-color="#101011"/><stop offset="0.268" stop-color="#0e0e0f"/><stop offset="0.345" stop-color="#131314"/><stop offset="0.448" stop-color="#222325"/><stop offset="0.564" stop-color="#3b3d41"/><stop offset="0.687" stop-color="#5d6066"/><stop offset="1" stop-color="#37383c"/></linearGradient><linearGradient id="u" x1="1" y1="0.5" x2="0" y2="0.5" gradientUnits="objectBoundingBox"><stop offset="0.035" stop-color="#1e1f21"/><stop offset="0.31" stop-color="#2c2d30"/><stop offset="0.84" stop-color="#505358"/><stop offset="1" stop-color="#5d6066"/></linearGradient><linearGradient id="v" x1="1" y1="0.5" x2="0" y2="0.5" xlink:href="#c"/><radialGradient id="w" cx="0.5" cy="0.5" r="0.424" gradientTransform="matrix(-1.514, 0, 0, 1, 1.257, 0)" xlink:href="#d"/><radialGradient id="x" cx="0.5" cy="0.5" r="0.309" gradientTransform="matrix(0.256, -0.898, -1.597, -1.345, -132.365, 878.846)" gradientUnits="objectBoundingBox"><stop offset="0" stop-color="#972a74"/><stop offset="0.041" stop-color="#8a266a"/><stop offset="0.194" stop-color="#601a49"/><stop offset="0.35" stop-color="#3d112f"/><stop offset="0.507" stop-color="#22091a"/><stop offset="0.667" stop-color="#0f040b"/><stop offset="0.829" stop-color="#030102"/><stop offset="1"/></radialGradient><radialGradient id="y" cx="0.5" cy="0.5" r="0.306" gradientTransform="matrix(-0.53, -0.784, -1.548, 1.436, -66.322, 24.106)" xlink:href="#x"/></defs><g class="b"><g class="c" transform="translate(19.805 10.594) rotate(-21)"><g transform="translate(14.439 33.411)"><path class="d" d="M0,29.058l.036-.282C.808,22.719,3.553,18.091,3.553,12.41V5.6L13.25,0l5.215,3.106s-7.172,13.736-6.376,18.972A6.85,6.85,0,0,1,8.98,27.441L8.9,27.49,8,35.119,1.153,31.164A2.025,2.025,0,0,1,0,29.058Z"/><path class="e" d="M3.109,32.1l5.871-3.39a6.853,6.853,0,0,0,3.109-5.363h0a110.055,110.055,0,0,1-1.2-16.532V0L1.2,5.6v6.811A139.775,139.775,0,0,1,.036,30.043L0,30.325C0,32.3,1.391,33.089,3.109,32.1Z" transform="translate(7.572 3.106)"/><path class="f" d="M.036,30.043A139.687,139.687,0,0,0,1.2,12.409V5.6l9.7-5.6V.49l-9.183,5.3V12.6A139.614,139.614,0,0,1,.551,30.236l-.036.282A2.176,2.176,0,0,0,1.4,32.5c-.841-.154-1.4-.927-1.4-2.17Z" transform="translate(7.314 2.977)"/><g transform="translate(11.025 12.105)"><path class="g" d="M.979.591l.829,6.727L0,6.274V0Z" transform="translate(0 2.023)"/><path class="h" d="M0,2.036.829,8.763l3.542-2L3.542,0Z" transform="translate(0.974 0.578)"/><path class="i" d="M4.515.578.974,2.614,0,2.023,3.55,0Z"/></g><path class="j" d="M3.109,32.1l5.871-3.39a6.853,6.853,0,0,0,3.109-5.363h0a110.055,110.055,0,0,1-1.2-16.532V0L1.2,5.6v6.811A139.775,139.775,0,0,1,.036,30.043L0,30.325C0,32.3,1.391,33.089,3.109,32.1Z" transform="translate(7.572 3.106)"/></g><g transform="translate(0 0)"><path class="k" d="M0,23.585c0,3.921,1.353,6.7,3.552,8.042.067.041,11.489,6.769,11.556,6.806,2.289,1.28.825-1.624,4.3-3.631,7-4.039,12.666-13.82,12.666-21.846,0-3.969,3.669-4,1.421-5.326C33.435,7.594,21.571.8,21.507.762c-2.283-1.236-5.4-1.008-8.842.978C5.67,5.778,0,15.559,0,23.585Z"/><path class="l" d="M0,23.585c0,3.921,1.353,6.7,3.552,8.042.067.041,11.489,6.769,11.556,6.806,2.289,1.28.825-1.624,4.3-3.631,7-4.039,12.666-13.82,12.666-21.846,0-3.969,3.669-4,1.421-5.326C33.435,7.594,21.571.8,21.507.762c-2.283-1.236-5.4-1.008-8.842.978C5.67,5.778,0,15.559,0,23.585Z"/><path class="m" d="M0,23.586c0,8.026,5.67,11.26,12.665,7.221S25.331,16.987,25.331,8.961,19.66-2.3,12.665,1.739,0,15.559,0,23.586Z" transform="translate(11.875 6.907)"/><path class="n" d="M12.666,1.737C16.019-.2,19.065-.46,21.331.673,19.219.082,16.6.523,13.76,2.162,6.764,6.2,1.094,15.982,1.094,24.008c0,4.179,1.539,7.054,4,8.285C2,31.429,0,28.352,0,23.583,0,15.556,5.67,5.775,12.666,1.737Z" transform="translate(11.267 6.606)"/></g><g transform="translate(13.838 8.399)"><path class="o" d="M0,22.912c0,3.809,1.314,6.507,3.451,7.813l4.862,2.822A64.68,64.68,0,0,1,35.132,63.4c.017.036.025.055.026.056,3.757,2.1,33.879-48.4,30.188-50.572h-.015A65.831,65.831,0,0,1,27.444,4.5L20.893.74c-2.218-1.2-5.249-.979-8.59.95C5.508,5.613,0,15.115,0,22.912Z"/></g><g transform="translate(46.078 20.774)"><path class="p" d="M0,41.055c0,6.825,2.356,11.659,6.184,14,.115.07,3.678,2.331,3.8,2.4,3.983,2.227,1.436-2.827,7.486-6.32C29.642,44.1,39.513,27.076,39.513,13.1c0-6.908,6.387-6.965,2.475-9.271-.109-.064-4.44-2.446-4.551-2.506-3.973-2.152-9.4-1.755-15.39,1.7C9.871,10.058,0,27.083,0,41.055Z"/><path class="m" d="M0,41.055c0,13.972,9.871,19.6,22.047,12.57S44.093,29.57,44.093,15.6,34.222-4,22.047,3.028,0,27.083,0,41.055Z" transform="translate(4.351 2.574)"/><path class="q" d="M0,38.381C0,51.443,9.228,56.7,20.611,50.132s20.61-22.488,20.61-35.55S31.993-3.742,20.611,2.831,0,25.319,0,38.381Z" transform="translate(5.787 4.419)"/><path class="r" d="M11.363,48.24c11.383-6.572,20.61-22.489,20.61-35.55,0-6.021-1.964-10.379-5.193-12.69,5.571,1.017,9.247,6.149,9.247,14.39,0,13.062-9.228,28.978-20.61,35.55C9.282,53.483,3.775,53.581,0,50.88,3.258,51.475,7.163,50.666,11.363,48.24Z" transform="translate(10.98 4.61)"/><path class="s" d="M22.046,2.723C27.884-.647,33.923-.421,36.72.9,33.044-.127,27.847.494,22.905,3.348,10.729,10.378.859,27.4.859,41.375c0,7.274,3.314,12.426,7.6,14.568C3.963,54.28,0,49.051,0,40.75,0,26.778,9.871,9.753,22.046,2.723Z" transform="translate(3.703 2.32)"/><path class="t" d="M0,38.381C0,51.443,9.228,56.7,20.611,50.132s20.61-22.488,20.61-35.55S31.993-3.742,20.611,2.831,0,25.319,0,38.381Z" transform="translate(5.787 4.419)"/></g><g transform="translate(54.282 38.762)"><path class="u" d="M6.637,0C7.929,1.052,16.672,8.212,16.688,8.222c.621.367-.394.376-.394,1.473a7.719,7.719,0,0,1-3.5,6.043c-.961.555-.557,1.358-1.19,1C11.586,16.733,2.478,13.253,0,12.3A49.9,49.9,0,0,1,6.637,0Z"/><path class="v" d="M0,6.524c0,2.22,1.569,3.114,3.5,2a7.721,7.721,0,0,0,3.5-6.043c0-2.22-1.569-3.114-3.5-2A7.719,7.719,0,0,0,0,6.524Z" transform="translate(10.708 8.022)"/><path class="w" d="M0,4.482c0,1.526,1.078,2.14,2.407,1.372A5.3,5.3,0,0,0,4.814,1.7C4.814.177,3.737-.437,2.407.331A5.3,5.3,0,0,0,0,4.482Z" transform="translate(11.804 9.43)"/><path class="x" d="M3.5.48A2.531,2.531,0,0,1,5.9.186,2.759,2.759,0,0,0,3.806.6,7.72,7.72,0,0,0,.3,6.641,2.38,2.38,0,0,0,1.409,8.932C.554,8.693,0,7.842,0,6.523A7.722,7.722,0,0,1,3.5.48Z" transform="translate(10.54 7.938)"/></g><path class="y" d="M10.5,2.343C5.556-.077.907-.728.115.888S2.69,5.777,7.635,8.2s9.593,3.072,10.384,1.455S15.444,4.763,10.5,2.343Z" transform="translate(11.539 3.035)"/><path class="z" d="M7.829,5.146C1.781,9.934-1.443,15.935.627,18.55s8.651.852,14.7-3.936,9.273-10.79,7.2-13.4S13.877.358,7.829,5.146Z" transform="translate(61.737 58.768)"/></g></g></svg>