<svg xmlns="http://www.w3.org/2000/svg" xmlns:xlink="http://www.w3.org/1999/xlink" width="320" height="624.09" viewBox="0 0 320 624.09"><defs><style>.a{fill:#2549c0;}.b{fill:#eaeefb;}.c{fill:#6985e2;}.d{fill:#94a8ea;}.e{fill:#e8306e;}.f{fill:#1d3996;opacity:0.4;}.g{fill:#2944bf;}.h{fill:none;stroke:#ed5e8e;stroke-miterlimit:10;stroke-width:2px;}.i{filter:url(#a);}</style><filter id="a" x="63.56" y="0" width="192.105" height="574.632" filterUnits="userSpaceOnUse"><feOffset input="SourceAlpha"/><feGaussianBlur stdDeviation="6" result="b"/><feFlood flood-color="#132973" flood-opacity="0.302"/><feComposite operator="in" in2="b"/><feComposite in="SourceGraphic"/></filter></defs><g transform="translate(-832.37 -3000.424)"><g transform="translate(832.37 3534.934)"><g transform="translate(0 0.643)"><path class="a" d="M319.937,57.8a7.859,7.859,0,0,0,0-1.679V47.006h-5.157c-.36-.36-.72-.66-1.139-1.019C293.43,28.595,226.563,17.5,159.935,17.5S26.5,28.595,6.291,45.986c-.3.24-.6.54-.9.78h-5.4l.06,9.116a11.235,11.235,0,0,0,0,2.459h0C2.633,77.89,63.323,95.942,160,95.942c97.392-.06,158.2-18.351,159.942-38.141Z" transform="translate(0.015 -7.005)"/><path class="b" d="M164.807,1.9C101.178,1.9,37.249,12.455,18,29.067-8.148,51.616,53.142,76.743,164.807,76.743S337.822,51.556,311.615,29.067C292.364,12.455,228.436,1.9,164.807,1.9Z" transform="translate(-4.796 -0.761)"/><g transform="translate(0.022)"><path class="c" d="M160.01,0C93.382,0,26.515,11.095,6.305,28.486-21.1,52.054,43.127,78.442,160.01,78.442s181.111-26.327,153.7-49.955C293.564,11.095,226.637,0,160.01,0Zm0,59.611c-84.978,0-137.093-17.391-120.781-34.183C52.063,12.174,105.137,3.358,160.01,3.358S267.957,12.174,280.79,25.428C297.1,42.219,244.988,59.611,160.01,59.611Z" transform="translate(-0.02)"/><path class="d" d="M205.739,11.8c-42.939,0-82.879,7.077-90.256,17.272-8.816,12.174,30.885,23.868,90.256,23.868s99.071-11.694,90.256-23.868C288.618,18.877,248.678,11.8,205.739,11.8Zm0,33.164c-42.1,0-72.564-8.036-68.486-16.912,3.6-7.976,34.123-13.853,68.486-13.853s64.888,5.877,68.486,13.853c4.078,8.876-26.387,16.912-68.486,16.912Z" transform="translate(-45.75 -4.723)"/><path class="e" d="M280.039,29.656c1.2,5.038-16.672,9.355-39.94,9.355s-41.2-4.318-39.94-9.355C201.3,24.918,219.169,21.2,240.1,21.2S278.9,24.858,280.039,29.656Z" transform="translate(-80.109 -8.486)"/></g></g><g transform="translate(130.235 0)"><path class="f" d="M10.738-3.441-17.679-4.7-47.16-3.441s23.834,20.416,29.786,20.423S10.738-3.441,10.738-3.441Z" transform="translate(47.16 4.7)"/></g></g><g transform="translate(913.929 3018.424)"><g transform="translate(0 0)"><g class="i" transform="matrix(1, 0, 0, 1, -81.56, -18)"><path class="g" d="M73.406,536.859,44.679,497.937A9.016,9.016,0,0,1,40.6,490.56H65.845L49.415,197.407,8.684,162.517,0,11.875A14.147,14.147,0,0,1,1.441,5.52C4.318,0,10.556-1.677,15.354,1.86L72.806,44.081A8.477,8.477,0,0,0,83.42,44.02L140.753,1.86A9.37,9.37,0,0,1,146.209,0c5.577,0,10.017,5.339,9.894,11.875l-3.3,150.642L106.3,197.407,91.444,490.56h24.18a8.866,8.866,0,0,1-4.017,7.377L82.882,536.859a6.472,6.472,0,0,1-4.6,1.773A7.36,7.36,0,0,1,73.406,536.859Z" transform="translate(81.56 18)"/></g></g><g transform="translate(21.839 5.744)"><g transform="translate(0)"><path class="h" d="M94.5,559.558l1.8-361.143,9.6-13.493V161.354h6.237V77.995H94.5V66.9" transform="translate(-37.828 -26.78)"/><path class="h" d="M94.5,547.069l3.538-361.143L117.229,164.1v-40.84H98.818V82.537h24.108V35.7" transform="translate(-37.828 -14.291)"/><path class="h" d="M94.5,532.779l5.277-361.143L128.5,142.67V124.439h5.457V85.218h17.212V0" transform="translate(-37.828)"/><path class="h" d="M89.3,557.077l8.816-361.143,47.916-43.958V127.987H120.6V85.108H81.5V60.7" transform="translate(-32.624 -24.298)"/><path class="h" d="M56.672,555.475,47.916,194.332,0,149.714V127.045H35.023V96.52H67.947V56.7" transform="translate(0 -22.697)"/><path class="h" d="M75.446,546.909V129.334H46.9V35.3" transform="translate(-18.774 -14.13)"/><path class="h" d="M56.672,532.779,54.933,171.636l-9.6-13.913v-72.2H0V0"/><path class="h" d="M94.5,542.826l7.077-361.143L139.9,145.221v-40.6h4.618V74.036H131.2V25.1" transform="translate(-37.828 -10.047)"/><path class="h" d="M61.276,554.595,56.058,193.452,27.272,164.546V139.478H18.636v-19.79H11.5V89.883H48.382V54.5" transform="translate(-4.603 -21.816)"/><path class="h" d="M61.316,536.621,57.837,175.479,38.647,154.009V133.8H30.191V95.178H20V55.9H11.6V9.6" transform="translate(-4.643 -3.843)"/><path class="h" d="M64.238,539.143,57.221,178,18.9,141.538V129H47.326V44.026H20.4V15.9" transform="translate(-7.566 -6.365)"/></g></g></g></g></svg>