<svg xmlns="http://www.w3.org/2000/svg" xmlns:xlink="http://www.w3.org/1999/xlink" width="533.595" height="1028.646" viewBox="0 0 533.595 1028.646"><defs><style>.a{opacity:0.3;isolation:isolate;}.b{fill:url(#a);}.c{fill:url(#k);}.d{fill:#203fa2;}.e{fill:#eaeefb;}.f{fill:#6985e2;}.g{fill:#94a8ea;}.h{fill:#e8306e;}.i{fill:#1d3996;opacity:0.4;}.j{fill:url(#u);}.k{fill:none;stroke:#ed5e8e;stroke-miterlimit:10;stroke-width:2px;}.l{filter:url(#v);}</style><linearGradient id="a" x1="1.248" y1="0.294" x2="0" y2="0.273" gradientUnits="objectBoundingBox"><stop offset="0" stop-color="#e38dd3"/><stop offset="1" stop-color="#ed5e8e"/></linearGradient><linearGradient id="k" x1="-0.248" y1="0.294" x2="1" y2="0.273" xlink:href="#a"/><linearGradient id="u" x1="0.5" x2="0.5" y2="1" gradientUnits="objectBoundingBox"><stop offset="0" stop-color="#6e00b3"/><stop offset="1" stop-color="#2549c0"/></linearGradient><filter id="v" x="117.998" y="0" width="296.303" height="934.161" filterUnits="userSpaceOnUse"><feOffset input="SourceAlpha"/><feGaussianBlur stdDeviation="6" result="w"/><feFlood flood-color="#132973" flood-opacity="0.302"/><feComposite operator="in" in2="w"/><feComposite in="SourceGraphic"/></filter></defs><g transform="translate(-416 -3402)"><g transform="translate(-369.139 70)"><g class="a" transform="matrix(1, 0.017, -0.017, 1, 1099.883, 3677.84)"><path class="b" d="M-944.692,99.582c.1.282.228.458.329.46l51.416.185.135,133.477a3.3,3.3,0,0,0,.2,1.043c.124.34.276.572.4.611l57.618,17.433-.493-2.331-56.929-17.015-.136-133.7a2.559,2.559,0,0,0-.4-1.357.3.3,0,0,0-.2-.139l-51.781,0" transform="translate(944.886 102.206)"/><path class="b" d="M-943.944,76.38c.1.31.227.519.327.549l26.406,8.06c.112.032.18-.131.178-.428l-.457-54.686,60.544,14.694.251,123.883.912,1.446-.256-125.648a3.046,3.046,0,0,0-.461-1.538.447.447,0,0,0-.22-.185l-61.314-14.643c-.114-.031-.185.135-.182.433l.455,54.619-26.023-7.841" transform="translate(944.593 258.73)"/><path class="b" d="M-944.632,15.559c.1.3.23.489.332.5l12.593.836.012,122.546a3.258,3.258,0,0,0,.342,1.379.419.419,0,0,0,.175.193l27.464,9.962.109,48.322,24.735,10.864v-.949l-24.064-11.028-.018-47.41a3.348,3.348,0,0,0-.385-1.468.461.461,0,0,0-.194-.2l-27.48-9.86-.012-122.743a2.71,2.71,0,0,0-.345-1.3c-.062-.092-.124-.143-.177-.146l-12.928-.806" transform="translate(944.863 233.597)"/><path class="b" d="M-944.249,184.042c.1.273.227.436.328.427l25.723-2.522-.293,91.044a2.989,2.989,0,0,0,.18.966c.113.307.252.5.364.518L-855.155,281l-.47-2.174-62.141-6.22.295-91.185a2.723,2.723,0,0,0-.185-.944c-.114-.29-.254-.461-.365-.448l-26.072,2.66" transform="translate(944.713 -13.734)"/><path class="b" d="M-945.012,63.239c.1.308.233.507.335.515l6.108.491.44,35.642a2.975,2.975,0,0,0,.341,1.316c.059.093.116.146.166.158l26.04,5.638.226,36.906a3.4,3.4,0,0,0,.188,1.013c.116.336.258.569.374.61L-888.94,153l.516,17.712.808,1.2-.558-19.2a3.254,3.254,0,0,0-.433-1.49.419.419,0,0,0-.178-.166l-21.836-7.386-.226-36.981a3.06,3.06,0,0,0-.381-1.4.366.366,0,0,0-.185-.171l-26.067-5.546-.44-35.722a2.8,2.8,0,0,0-.34-1.288c-.061-.092-.12-.142-.171-.145l-6.427-.491" transform="translate(945.012 218.952)"/><path class="b" d="M-944.812,351.025c.1.252.225.389.326.362l87.411-24.13-.07,60.382a2.593,2.593,0,0,0,.228,1.021c.142.305.316.48.457.46l17.693-2.466-.487-2.1-16.977,2.424.07-60.487a2.034,2.034,0,0,0-.455-1.324.257.257,0,0,0-.23-.084l-87.806,24.567" transform="translate(944.933 -275.755)"/><path class="b" d="M-944.8,275.932c.1.282.218.458.316.46l40.336,1.242c.112,0,.182-.174.184-.466l.04-65.327,37.483-1.072-.308,81.857a2.771,2.771,0,0,0,.425,1.453c.068.09.135,0,.2.011l58.2,3.076-.468-2.028-57.488-2.847.309-82.068a2.451,2.451,0,0,0-.426-1.391.3.3,0,0,0-.214-.129l-38.263,1.235c-.117.006-.189.194-.191.494l-.039,65.25-39.936-1.069" transform="translate(944.928 -60.715)"/><path class="b" d="M-944.747,138.786c.1.266.23.419.332.4l12.587-2.782.012,122.525a2.927,2.927,0,0,0,.172.93c.107.3.238.483.345.493l27.454,2.065.125,72.941.768,1.152-.131-74.514a2.956,2.956,0,0,0-.193-.985c-.12-.312-.267-.509-.386-.519l-27.469-1.963-.012-122.716a2.184,2.184,0,0,0-.342-1.2c-.064-.077-.126-.11-.181-.1l-12.924,2.909" transform="translate(944.908 -18.65)"/><path class="b" d="M-944.368,389.359c.1.247.229.377.331.339l25.725-9.922.356,54.807a2.048,2.048,0,0,0,.369,1.2.2.2,0,0,0,.179.081l37.784-9.692a.249.249,0,0,0,.149-.171,1.157,1.157,0,0,0,.055-.395l-.556-76.272-.835-.689.552,75.651-36.984,9.626-.357-54.885a2.353,2.353,0,0,0-.188-.882c-.113-.253-.251-.382-.362-.338l-26.063,10.15" transform="translate(944.759 -348.646)"/><path class="b" d="M-944.867,220.337c.1.258.227.4.327.379l6.531-1.541.023,35.023a2.229,2.229,0,0,0,.333,1.19c.062.078.123.113.175.1l26.051-4.84.23,36.827a2.773,2.773,0,0,0,.188.939c.115.286.256.457.37.449l26.892-1.793.134,59.548.825,1.055-.137-61.157a2.415,2.415,0,0,0-.416-1.35.283.283,0,0,0-.208-.124l-26.913,1.9-.228-36.9a2.225,2.225,0,0,0-.38-1.25c-.066-.073-.129-.108-.185-.1l-26.06,4.937-.029-35.065a2.512,2.512,0,0,0-.17-.878c-.105-.258-.233-.4-.337-.382l-6.862,1.646" transform="translate(944.955 -119.275)"/></g><g class="a" transform="matrix(1, -0.017, 0.017, 1, 868.139, 3680.231)"><path class="c" d="M-834.592,99.582c-.1.282-.228.458-.329.46l-51.416.185-.135,133.477a3.3,3.3,0,0,1-.2,1.043c-.124.34-.276.572-.4.611l-57.618,17.433.493-2.331,56.929-17.015.136-133.7a2.559,2.559,0,0,1,.4-1.357.3.3,0,0,1,.2-.139l51.781,0" transform="translate(971.398 102.206)"/><path class="c" d="M-855.782,76.38c-.1.31-.227.519-.327.549l-26.406,8.06c-.112.032-.18-.131-.178-.428l.457-54.686-60.544,14.694-.251,123.883-.912,1.446.256-125.648a3.046,3.046,0,0,1,.461-1.538.447.447,0,0,1,.22-.185l61.314-14.643c.114-.031.185.135.182.433l-.455,54.619,26.023-7.841" transform="translate(992.133 258.73)"/><path class="c" d="M-878.869,15.559c-.1.3-.23.489-.332.5l-12.593.836-.012,122.546a3.258,3.258,0,0,1-.342,1.379.419.419,0,0,1-.175.193l-27.464,9.962-.109,48.322-24.735,10.864v-.949l24.064-11.028.018-47.41a3.348,3.348,0,0,1,.385-1.468.461.461,0,0,1,.194-.2l27.48-9.86.012-122.743a2.71,2.71,0,0,1,.345-1.3c.063-.092.124-.143.177-.146l12.928-.806" transform="translate(1015.639 233.597)"/><path class="c" d="M-855.155,184.042c-.1.273-.227.436-.328.427l-25.723-2.522.293,91.044a2.989,2.989,0,0,1-.18.966c-.113.307-.252.5-.364.518L-944.249,281l.47-2.174,62.141-6.22-.295-91.185a2.723,2.723,0,0,1,.185-.944c.114-.29.254-.461.365-.448l26.072,2.66" transform="translate(991.691 -13.734)"/><path class="c" d="M-887.616,63.239c-.1.308-.233.507-.335.515l-6.108.491-.44,35.642a2.975,2.975,0,0,1-.341,1.316c-.059.093-.116.146-.166.158L-921.046,107l-.226,36.906a3.4,3.4,0,0,1-.188,1.013c-.116.336-.258.569-.374.61L-943.688,153l-.516,17.712-.808,1.2.558-19.2a3.254,3.254,0,0,1,.433-1.49.419.419,0,0,1,.178-.166l21.836-7.386.226-36.981a3.06,3.06,0,0,1,.381-1.4.366.366,0,0,1,.185-.171l26.067-5.546.44-35.722a2.8,2.8,0,0,1,.34-1.288c.061-.092.12-.142.171-.145l6.427-.491" transform="translate(1024.616 218.952)"/><path class="c" d="M-838.767,351.025c-.1.252-.225.389-.326.362l-87.411-24.13.07,60.382a2.593,2.593,0,0,1-.228,1.021c-.142.305-.316.48-.457.46l-17.693-2.466.487-2.1,16.977,2.424-.07-60.487a2.034,2.034,0,0,1,.455-1.324.257.257,0,0,1,.23-.084l87.806,24.567" transform="translate(975.646 -275.755)"/><path class="c" d="M-807.928,275.932c-.1.282-.218.458-.316.46l-40.336,1.242c-.112,0-.182-.174-.184-.466l-.04-65.327-37.483-1.072.308,81.857a2.771,2.771,0,0,1-.425,1.453c-.068.09-.135,0-.2.011l-58.2,3.076.468-2.028,57.488-2.847-.309-82.068a2.451,2.451,0,0,1,.426-1.391.3.3,0,0,1,.214-.129l38.263,1.235c.117.006.189.194.191.494l.039,65.25,39.936-1.069" transform="translate(944.798 -60.715)"/><path class="c" d="M-902.951,138.786c-.1.266-.23.419-.332.4l-12.587-2.782-.012,122.525a2.927,2.927,0,0,1-.172.93c-.107.3-.238.483-.345.493l-27.454,2.065-.125,72.941-.768,1.152.131-74.514a2.956,2.956,0,0,1,.193-.985c.12-.312.267-.509.386-.519l27.469-1.963.012-122.716a2.184,2.184,0,0,1,.342-1.2c.064-.077.126-.11.181-.1l12.924,2.909" transform="translate(1039.79 -18.65)"/><path class="c" d="M-879.419,389.359c-.1.247-.229.377-.331.339l-25.725-9.922-.356,54.807a2.048,2.048,0,0,1-.369,1.2.2.2,0,0,1-.179.081l-37.784-9.692a.249.249,0,0,1-.149-.171,1.157,1.157,0,0,1-.055-.395l.556-76.272.835-.689-.552,75.651,36.984,9.626.357-54.885a2.353,2.353,0,0,1,.188-.882c.113-.253.251-.382.362-.338l26.063,10.15" transform="translate(1016.028 -348.646)"/><path class="c" d="M-882.788,220.337c-.1.258-.227.4-.327.379l-6.531-1.541-.023,35.023a2.229,2.229,0,0,1-.333,1.19c-.062.078-.123.113-.175.1l-26.051-4.84-.23,36.827a2.773,2.773,0,0,1-.188.939c-.115.286-.256.457-.37.449l-26.892-1.793-.134,59.548-.825,1.055.137-61.157a2.415,2.415,0,0,1,.416-1.35.283.283,0,0,1,.208-.124l26.913,1.9.228-36.9a2.225,2.225,0,0,1,.38-1.25c.066-.073.129-.108.185-.1l26.06,4.937.029-35.065a2.512,2.512,0,0,1,.17-.878c.105-.258.233-.4.337-.382l6.862,1.646" transform="translate(1019.7 -119.275)"/></g></g><g transform="translate(-416.369 401.576)"><g transform="translate(228.245 3532.845)"><g transform="translate(604.14 347.925)"><path class="d" d="M533.5,84.7a13.107,13.107,0,0,0,0-2.8V66.7h-8.6c-.6-.6-1.2-1.1-1.9-1.7C489.3,36,377.8,17.5,266.7,17.5S44.2,36,10.5,65c-.5.4-1,.9-1.5,1.3H0L.1,81.5a18.734,18.734,0,0,0,0,4.1h0c4.3,32.6,105.5,62.7,266.7,62.7,162.4-.1,263.8-30.6,266.7-63.6Z"/><path class="e" d="M266.8,1.9C160.7,1.9,54.1,19.5,22,47.2c-43.6,37.6,58.6,79.5,244.8,79.5s288.5-42,244.8-79.5C479.5,19.5,372.9,1.9,266.8,1.9Z"/><path class="f" d="M266.8,0C155.7,0,44.2,18.5,10.5,47.5c-45.7,39.3,61.4,83.3,256.3,83.3s302-43.9,256.3-83.3C489.5,18.5,377.9,0,266.8,0Zm0,99.4c-141.7,0-228.6-29-201.4-57C86.8,20.3,175.3,5.6,266.8,5.6s180,14.7,201.4,36.8C495.4,70.4,408.5,99.4,266.8,99.4Z"/><path class="g" d="M266.8,11.8c-71.6,0-138.2,11.8-150.5,28.8-14.7,20.3,51.5,39.8,150.5,39.8S432,60.9,417.3,40.6C405,23.6,338.4,11.8,266.8,11.8Zm0,55.3c-70.2,0-121-13.4-114.2-28.2,6-13.3,56.9-23.1,114.2-23.1S375,25.6,381,38.9c6.8,14.8-44,28.2-114.2,28.2Z"/><path class="h" d="M333.4,35.3c2,8.4-27.8,15.6-66.6,15.6s-68.7-7.2-66.6-15.6c1.9-7.9,31.7-14.1,66.6-14.1S331.5,27.3,333.4,35.3Z"/></g><g transform="translate(868.45 351.552)"><path class="i" d="M49.385-2.6,2-4.7-47.16-2.6S-7.418,31.444,2.508,31.455,49.385-2.6,49.385-2.6Z"/></g></g><g transform="translate(461.518 -338.144)"><g transform="translate(370.87 3338.57)"><g class="l" transform="matrix(1, 0, 0, 1, -0.02, 0)"><path class="j" d="M19204.463,4319.2l-47.9-64.9a15.033,15.033,0,0,1-6.8-12.3h42.1l-27.4-488.828-67.918-58.179-14.48-251.193a23.6,23.6,0,0,1,2.4-10.6c4.8-9.2,15.2-12,23.2-6.1l95.8,70.4a14.136,14.136,0,0,0,17.7-.1l95.6-70.3a15.619,15.619,0,0,1,9.1-3.1c9.3,0,16.7,8.9,16.5,19.8l-5.5,251.193-77.549,58.179L19234.541,4242h40.32a14.786,14.786,0,0,1-6.7,12.3l-47.9,64.9a10.79,10.79,0,0,1-7.67,2.957A12.275,12.275,0,0,1,19204.463,4319.2Z" transform="translate(-18946.06 -3406)"/></g></g><g transform="translate(506.868 3366.145)"><g transform="translate(36.399)"><path class="k" d="M94.5,888.4l3-602.2,16-22.5V224.4h10.4V85.4H94.5V66.9"/><path class="k" d="M94.5,888.4l5.9-602.2,32-36.4V181.7H101.7V113.8h40.2V35.7"/><path class="k" d="M94.5,888.4l8.8-602.2,47.9-48.3V207.5h9.1V142.1H189V0"/><path class="k" d="M94.5,888.4l14.7-602.2,79.9-73.3v-40H146.7V101.4H81.5V60.7"/><path class="k" d="M94.5,888.4,79.9,286.2,0,211.8V174H58.4V123.1h54.9V56.7"/><path class="k" d="M94.5,888.4V192.1H46.9V35.3"/><path class="k" d="M94.5,888.4,91.6,286.2,75.6,263V142.6H0V0"/><path class="k" d="M94.5,888.4l11.8-602.2,63.9-60.8V157.7h7.7v-51H155.7V25.1"/><path class="k" d="M94.5,888.4,85.8,286.2,37.8,238V196.2H23.4v-33H11.5V113.5H73v-59"/><path class="k" d="M94.5,888.4,88.7,286.2l-32-35.8V216.7H42.6V152.3h-17V86.8h-14V9.6"/><path class="k" d="M94.5,888.4,82.8,286.2,18.9,225.4V204.5H66.3V62.8H21.4V15.9"/></g></g></g></g></g></svg>