<svg xmlns="http://www.w3.org/2000/svg" xmlns:xlink="http://www.w3.org/1999/xlink" width="202.927" height="360" viewBox="0 0 202.927 360">
  <defs>
    <radialGradient id="radial-gradient" cx="0" cy="0.021" r="1.398" gradientTransform="matrix(1, -0.015, -0.015, -1, 0, 0.042)" gradientUnits="objectBoundingBox">
      <stop offset="0" stop-color="#c5ede7"/>
      <stop offset="1" stop-color="#fff" stop-opacity="0"/>
    </radialGradient>
  </defs>
  <g id="Group_5516" data-name="Group 5516" transform="translate(0)" opacity="0.8" style="mix-blend-mode: screen;isolation: isolate">
    <path id="Path_2166" data-name="Path 2166" d="M-944.692,99.33a.716.716,0,0,0,.488.374l76.159.15.2,108.284a1.668,1.668,0,0,0,.3.846,1.076,1.076,0,0,0,.592.5l85.345,14.143-.73-1.891-84.324-13.8-.2-108.468a1.515,1.515,0,0,0-.593-1.1.548.548,0,0,0-.3-.112l-76.7,0" transform="translate(944.98 64.373)" fill="url(#radial-gradient)"/>
    <path id="Path_2167" data-name="Path 2167" d="M-943.944,67.226a.875.875,0,0,0,.485.445l39.113,6.538c.166.026.266-.106.264-.347l-.677-44.365,89.679,11.92.373,100.5,1.351,1.173-.38-101.933a1.8,1.8,0,0,0-.682-1.247.729.729,0,0,0-.326-.15l-90.819-11.879c-.169-.025-.274.11-.27.351l.674,44.311L-943.7,66.183" transform="translate(944.905 204.636)" fill="url(#radial-gradient)"/>
    <path id="Path_2168" data-name="Path 2168" d="M-944.632,15.311a.751.751,0,0,0,.491.4l18.653.679.018,99.417a1.785,1.785,0,0,0,.506,1.119.562.562,0,0,0,.259.157l40.681,8.082.161,39.2,36.638,8.813v-.77l-35.645-8.946L-882.895,125a1.871,1.871,0,0,0-.57-1.191.64.64,0,0,0-.287-.166l-40.7-8-.018-99.577a1.534,1.534,0,0,0-.51-1.052.468.468,0,0,0-.263-.119l-19.149-.654" transform="translate(944.974 186.819)" fill="url(#radial-gradient)"/>
    <path id="Path_2169" data-name="Path 2169" d="M-944.249,183.285a.66.66,0,0,0,.486.346l38.1-2.046-.435,73.86a1.5,1.5,0,0,0,.266.784.851.851,0,0,0,.539.42l93.01,5.3-.7-1.764-92.044-5.046.436-73.975a1.384,1.384,0,0,0-.274-.766.723.723,0,0,0-.541-.364l-38.618,2.158" transform="translate(944.936 -45.121)" fill="url(#radial-gradient)"/>
    <path id="Path_2170" data-name="Path 2170" d="M-945.012,62.99c.154.25.346.411.5.418l9.048.4.652,28.915a1.659,1.659,0,0,0,.5,1.067.488.488,0,0,0,.246.128l38.571,4.574.334,29.94a1.705,1.705,0,0,0,.279.822,1.041,1.041,0,0,0,.554.495l32.371,6.06.764,14.369,1.2.974-.826-15.575a1.9,1.9,0,0,0-.642-1.209.636.636,0,0,0-.265-.135l-32.343-5.992-.335-30a1.737,1.737,0,0,0-.564-1.138.559.559,0,0,0-.274-.139l-38.611-4.5-.652-28.98a1.582,1.582,0,0,0-.5-1.045.444.444,0,0,0-.253-.118l-9.519-.4" transform="translate(945.012 165.94)" fill="url(#radial-gradient)"/>
    <path id="Path_2171" data-name="Path 2171" d="M-944.812,346.128a.574.574,0,0,0,.482.293l129.475-19.576-.1,48.985a1.37,1.37,0,0,0,.338.828.9.9,0,0,0,.678.374l26.207-2-.722-1.7-25.147,1.966.1-49.071a1.313,1.313,0,0,0-.674-1.074.592.592,0,0,0-.34-.068l-130.06,19.93" transform="translate(944.992 -285.064)" fill="url(#radial-gradient)"/>
    <path id="Path_2172" data-name="Path 2172" d="M-944.8,263.243a.688.688,0,0,0,.468.373l59.746,1.008c.167,0,.269-.141.272-.378l.059-53,55.52-.869-.457,66.407a1.63,1.63,0,0,0,.629,1.179c.1.073.2,0,.289.009l86.207,2.5-.693-1.645-85.152-2.309.458-66.578a1.48,1.48,0,0,0-.63-1.129.589.589,0,0,0-.317-.1l-56.676,1c-.173,0-.281.158-.282.4l-.058,52.934-59.153-.868" transform="translate(944.991 -88.646)" fill="url(#radial-gradient)"/>
    <path id="Path_2173" data-name="Path 2173" d="M-944.747,137.979a.618.618,0,0,0,.492.323l18.644-2.257.018,99.4a1.467,1.467,0,0,0,.255.754.786.786,0,0,0,.51.4l40.666,1.675.186,59.174,1.137.934-.193-60.45a1.5,1.5,0,0,0-.285-.8.876.876,0,0,0-.572-.421l-40.688-1.592-.018-99.554a1.283,1.283,0,0,0-.507-.972.408.408,0,0,0-.267-.079l-19.144,2.36" transform="translate(944.985 -40.517)" fill="url(#radial-gradient)"/>
    <path id="Path_2174" data-name="Path 2174" d="M-944.368,381.675a.551.551,0,0,0,.49.275l38.1-8.05.527,44.463a1.248,1.248,0,0,0,.546.974.427.427,0,0,0,.266.066l55.967-7.862a.318.318,0,0,0,.221-.139.56.56,0,0,0,.081-.32l-.824-61.877-1.237-.559.818,61.373-54.781,7.809-.529-44.526a1.226,1.226,0,0,0-.278-.715.6.6,0,0,0-.536-.274l-38.605,8.234" transform="translate(944.948 -348.646)" fill="url(#radial-gradient)"/>
    <path id="Path_2175" data-name="Path 2175" d="M-944.867,219.766a.592.592,0,0,0,.484.308l9.673-1.25.034,28.413a1.3,1.3,0,0,0,.492.966.4.4,0,0,0,.26.084l38.588-3.927.341,29.876a1.419,1.419,0,0,0,.278.761.754.754,0,0,0,.548.365l39.832-1.454.2,48.309,1.222.856-.2-49.614a1.462,1.462,0,0,0-.616-1.1.56.56,0,0,0-.309-.1l-39.864,1.544-.338-29.936a1.342,1.342,0,0,0-.562-1.014.456.456,0,0,0-.274-.079l-38.6,4-.043-28.447a1.276,1.276,0,0,0-.252-.712.621.621,0,0,0-.5-.31l-10.164,1.336" transform="translate(944.997 -137.778)" fill="url(#radial-gradient)"/>
  </g>
</svg>
