<svg xmlns="http://www.w3.org/2000/svg" xmlns:xlink="http://www.w3.org/1999/xlink" width="202.926" height="359.999" viewBox="0 0 202.926 359.999">
  <defs>
    <radialGradient id="radial-gradient" cx="1" cy="0.979" r="1.052" gradientTransform="matrix(-1, 0.005, 0.008, 1.578, 1.992, -0.571)" gradientUnits="objectBoundingBox">
      <stop offset="0" stop-color="#c5ede7"/>
      <stop offset="1" stop-color="#fff" stop-opacity="0"/>
    </radialGradient>
    <radialGradient id="radial-gradient-2" cx="1" cy="0.979" r="1.182" gradientTransform="matrix(-0.873, -0.488, -0.712, 1.274, 2.57, 0.22)" xlink:href="#radial-gradient"/>
    <radialGradient id="radial-gradient-6" cx="1" cy="0.979" r="1.748" gradientTransform="matrix(-0.232, -0.973, -0.527, 0.126, 1.748, 1.828)" xlink:href="#radial-gradient"/>
    <radialGradient id="radial-gradient-9" cx="1" cy="0.104" r="1.134" gradientTransform="matrix(-0.988, 0.157, 0.236, 1.479, 1.963, -0.207)" xlink:href="#radial-gradient"/>
  </defs>
  <g id="Group_5516" data-name="Group 5516" opacity="0.8" style="mix-blend-mode: screen;isolation: isolate">
    <path id="Path_2166" data-name="Path 2166" d="M-781.611,222.539a.716.716,0,0,0-.488-.374l-76.159-.15-.2-108.284a1.668,1.668,0,0,0-.3-.846,1.076,1.076,0,0,0-.592-.5l-85.345-14.143.73,1.891,84.323,13.8.2,108.468a1.515,1.515,0,0,0,.593,1.1.548.548,0,0,0,.3.113l76.7,0" transform="translate(984.249 -26.242)" fill="url(#radial-gradient)"/>
    <path id="Path_2167" data-name="Path 2167" d="M-813.357,103.746a.875.875,0,0,0-.485-.446l-39.113-6.538c-.167-.026-.266.106-.264.347l.677,44.364-89.678-11.92-.373-100.5-1.351-1.173.38,101.933a1.8,1.8,0,0,0,.682,1.247.729.729,0,0,0,.326.15l90.819,11.879c.169.025.274-.11.27-.351l-.674-44.311,38.545,6.361" transform="translate(1015.322 -15.609)" fill="url(#radial-gradient-2)"/>
    <path id="Path_2168" data-name="Path 2168" d="M-847.224,172.115a.751.751,0,0,0-.491-.4l-18.653-.679-.018-99.416a1.785,1.785,0,0,0-.506-1.119.562.562,0,0,0-.259-.157l-40.681-8.082-.161-39.2-36.638-8.813v.77l35.645,8.946.026,38.461a1.871,1.871,0,0,0,.57,1.191.64.64,0,0,0,.287.166l40.7,8,.018,99.577a1.534,1.534,0,0,0,.51,1.052.468.468,0,0,0,.263.119l19.149.654" transform="translate(1049.808 -14.245)" fill="url(#radial-gradient)"/>
    <path id="Path_2169" data-name="Path 2169" d="M-812.282,258.694a.66.66,0,0,0-.486-.346l-38.1,2.046.435-73.86a1.5,1.5,0,0,0-.266-.784.851.851,0,0,0-.539-.42l-93.009-5.3.7,1.764,92.043,5.046-.436,73.974a1.383,1.383,0,0,0,.274.766.723.723,0,0,0,.541.364l38.618-2.158" transform="translate(1014.521 -36.859)" fill="url(#radial-gradient)"/>
    <path id="Path_2170" data-name="Path 2170" d="M-860,150.082c-.154-.25-.346-.411-.5-.418l-9.048-.4-.652-28.915a1.659,1.659,0,0,0-.5-1.067.487.487,0,0,0-.246-.128l-38.571-4.574-.334-29.94a1.705,1.705,0,0,0-.279-.822,1.042,1.042,0,0,0-.554-.495l-32.371-6.06-.764-14.369-1.2-.974.826,15.574a1.9,1.9,0,0,0,.642,1.209.637.637,0,0,0,.265.135l32.343,5.992.335,30a1.737,1.737,0,0,0,.564,1.138.559.559,0,0,0,.274.139l38.611,4.5.653,28.98a1.582,1.582,0,0,0,.5,1.045.444.444,0,0,0,.253.118l9.519.4" transform="translate(1062.922 -19.013)" fill="url(#radial-gradient)"/>
    <path id="Path_2171" data-name="Path 2171" d="M-787.738,355.985a.574.574,0,0,0-.482-.293l-129.474,19.576.1-48.985a1.37,1.37,0,0,0-.338-.828.9.9,0,0,0-.678-.374l-26.207,2,.722,1.7,25.147-1.966-.1,49.071a1.313,1.313,0,0,0,.674,1.074.591.591,0,0,0,.34.068l130.059-19.93" transform="translate(990.483 -57.05)" fill="url(#radial-gradient-6)"/>
    <path id="Path_2172" data-name="Path 2172" d="M-742.065,225.933a.688.688,0,0,0-.468-.373l-59.746-1.008c-.166,0-.269.141-.272.378l-.059,53-55.52.869.457-66.407a1.629,1.629,0,0,0-.629-1.179c-.1-.073-.2,0-.289-.009l-86.207-2.5.693,1.645,85.152,2.309-.458,66.578a1.48,1.48,0,0,0,.63,1.129.589.589,0,0,0,.317.1l56.675-1c.173,0,.281-.157.282-.4l.057-52.934,59.153.868" transform="translate(944.798 -40.53)" fill="url(#radial-gradient)"/>
    <path id="Path_2173" data-name="Path 2173" d="M-882.839,294.913a.618.618,0,0,0-.492-.323l-18.644,2.257-.018-99.4a1.467,1.467,0,0,0-.255-.754.786.786,0,0,0-.51-.4l-40.665-1.675-.186-59.174-1.137-.934.193,60.45a1.5,1.5,0,0,0,.285.8.876.876,0,0,0,.572.421l40.688,1.592.018,99.554a1.283,1.283,0,0,0,.507.972.408.408,0,0,0,.267.079l19.144-2.36" transform="translate(1085.526 -32.376)" fill="url(#radial-gradient)"/>
    <path id="Path_2174" data-name="Path 2174" d="M-848.165,386.377a.551.551,0,0,0-.49-.275l-38.1,8.05-.527-44.463a1.248,1.248,0,0,0-.546-.974.427.427,0,0,0-.266-.066l-55.966,7.862a.319.319,0,0,0-.221.139.56.56,0,0,0-.081.32l.824,61.877,1.237.559-.818-61.373,54.781-7.809.529,44.526a1.226,1.226,0,0,0,.278.715.6.6,0,0,0,.536.274l38.605-8.234" transform="translate(1050.511 -59.407)" fill="url(#radial-gradient-9)"/>
    <path id="Path_2175" data-name="Path 2175" d="M-852.915,320.617a.592.592,0,0,0-.484-.308l-9.673,1.25-.034-28.413a1.3,1.3,0,0,0-.492-.966.4.4,0,0,0-.26-.084l-38.587,3.927-.341-29.876a1.418,1.418,0,0,0-.278-.761.754.754,0,0,0-.548-.365l-39.832,1.454-.2-48.309-1.222-.856.2,49.614a1.463,1.463,0,0,0,.616,1.1.561.561,0,0,0,.309.1l39.864-1.544.337,29.936a1.342,1.342,0,0,0,.563,1.014.455.455,0,0,0,.275.079l38.6-4,.043,28.447a1.276,1.276,0,0,0,.252.712.621.621,0,0,0,.5.31l10.164-1.336" transform="translate(1055.711 -42.606)" fill="url(#radial-gradient)"/>
  </g>
</svg>
