<svg xmlns="http://www.w3.org/2000/svg" xmlns:xlink="http://www.w3.org/1999/xlink" width="443" height="649.167" viewBox="0 0 443 649.167">
  <defs>
    <radialGradient id="radial-gradient" cx="-0.096" cy="0.986" r="0.875" gradientTransform="matrix(0, -1, 2.14, 0, -2.206, 0.89)" gradientUnits="objectBoundingBox">
      <stop offset="0" stop-color="#e38dd3" stop-opacity="0"/>
      <stop offset="0.452" stop-color="#e595d6"/>
      <stop offset="1" stop-color="#fff" stop-opacity="0"/>
    </radialGradient>
    <radialGradient id="radial-gradient-11" cx="-0.167" cy="1.09" r="1.163" gradientTransform="matrix(0.042, -0.999, 3, 0.127, -3.437, 0.891)" gradientUnits="objectBoundingBox">
      <stop offset="0" stop-color="#8c3dc3"/>
      <stop offset="1" stop-color="#fff" stop-opacity="0"/>
    </radialGradient>
  </defs>
  <g id="Group_10199" data-name="Group 10199" transform="translate(-784 -104)">
    <g id="Group_4050" data-name="Group 4050" transform="translate(799 -40.255)" style="isolation: isolate">
      <g id="Group_4047" data-name="Group 4047" transform="translate(15.423 144.255)" style="isolation: isolate">
        <path id="Path_2166" data-name="Path 2166" d="M663.8,465.274l-.687-1.192,88.088-51.1-93.075-54.008a.686.686,0,0,1,.009-1.192l100.43-56.273V225.235a.688.688,0,0,1,.346-.6.678.678,0,0,1,.691.006l58.212,34.241V159.093L801.922,148.8a.678.678,0,0,1-.321-.579V119.864h1.372v27.981l15.889,10.285a.688.688,0,0,1,.322.582V260.085a.687.687,0,0,1-1.035.593l-58.214-34.244v75.474a.69.69,0,0,1-.352.6l-99.73,55.878,93.059,54a.685.685,0,0,1,.342.595.693.693,0,0,1-.343.595Z" transform="translate(-493.352 -61.607)" fill="url(#radial-gradient)"/>
        <path id="Path_2167" data-name="Path 2167" d="M747.09,466.889l-81.677-47.6a.689.689,0,0,1,0-1.187l103.211-60.489a.677.677,0,0,1,.7,0l39.156,23.608,52.743-29.811V320.068l-26.371-14.9a.686.686,0,0,1-.349-.6V244.353a.687.687,0,0,1,1.015-.6l19.317,10.484V149.749a.687.687,0,0,1,1.04-.588l31.946,19.168-.705,1.178-30.908-18.545V255.391a.686.686,0,0,1-1.012.6L835.877,245.51v58.656l26.37,14.9a.683.683,0,0,1,.351.6v32.148a.688.688,0,0,1-.351.6l-53.44,30.205a.694.694,0,0,1-.693-.011L768.966,359l-101.841,59.69,80.66,47.008Z" transform="translate(-490.293 -49.36)" fill="url(#radial-gradient)"/>
        <path id="Path_2168" data-name="Path 2168" d="M844.768,470.568l-67.55-39.444a.687.687,0,0,1,.01-1.194l52.967-29.613L737.719,346.9a.688.688,0,0,1,.017-1.2l27.523-14.905V181.953a.687.687,0,0,1,1.038-.59l37.3,22.048v-97.99h1.375v99.2a.688.688,0,0,1-1.037.59l-37.3-22.051V331.2a.682.682,0,0,1-.358.6l-26.8,14.516,92.457,53.409a.686.686,0,0,1-.009,1.2l-52.971,29.618,66.513,38.84Z" transform="translate(-459.968 -67.664)" fill="url(#radial-gradient)"/>
        <path id="Path_2169" data-name="Path 2169" d="M644.507,433.279l-.668-1.2,107.076-59.522-67.479-38.313a.687.687,0,0,1-.346-.6.679.679,0,0,1,.356-.6l53.666-29.429v-37.83a.685.685,0,0,1,1.032-.593l42.029,24.522V182.584l-31.1-18.062a.684.684,0,0,1-.344-.593V78.821H750.1v84.711l31.1,18.062a.687.687,0,0,1,.342.593V290.908a.687.687,0,0,1-1.034.593l-42.026-24.521v37.041a.688.688,0,0,1-.356.6l-52.943,29.033,67.472,38.31a.682.682,0,0,1,.348.6.7.7,0,0,1-.353.6Z" transform="translate(-499.2 -78.821)" fill="url(#radial-gradient)"/>
        <path id="Path_2170" data-name="Path 2170" d="M750.29,405.264l-12.2-8.132a.689.689,0,0,1,.044-1.172l39.05-22.071L750.9,358.232a.689.689,0,0,1,.026-1.2l52.4-28.477-26.291-16.224a.684.684,0,0,1,.044-1.194l14.152-7.358V252.829a.69.69,0,0,1,1.039-.59l65.178,38.879V205.1a.686.686,0,0,1,.987-.617l13.942,6.739-.6,1.233L858.82,206.2V292.33a.69.69,0,0,1-.349.6.681.681,0,0,1-.691-.009L792.6,254.038V304.2a.683.683,0,0,1-.369.607L778.783,311.8l26.271,16.211a.685.685,0,0,1-.034,1.187l-52.38,28.466,26.265,15.646a.685.685,0,0,1,.335.6.693.693,0,0,1-.349.592l-39.108,22.1,11.269,7.513Z" transform="translate(-459.796 -26.143)" fill="url(#radial-gradient)"/>
        <path id="Path_2171" data-name="Path 2171" d="M557.848,360.717l-.683-1.2,24.846-14.33-39.625-22.752a.688.688,0,0,1,0-1.2l159.005-89.6V155.374a.688.688,0,0,1,1.028-.6l51.246,29.253V140.489h1.374v44.726a.686.686,0,0,1-.345.593.678.678,0,0,1-.684.006l-51.244-29.256V232.05a.685.685,0,0,1-.349.6l-158.3,89.2,39.62,22.752a.687.687,0,0,1,.345.6.7.7,0,0,1-.348.6Z" transform="translate(-541.896 -52.956)" fill="url(#radial-gradient)"/>
        <path id="Path_2172" data-name="Path 2172" d="M582.853,455.529l-.762-1.143L659,403.07,604.206,372a.686.686,0,0,1-.014-1.187l64.815-38.571a.691.691,0,0,1,.691-.006l46.608,26.827,81.455-45.844V266.981l-33.8-18.115a.689.689,0,0,1-.362-.6V202.951a.685.685,0,0,1,1.013-.6l19.317,10.485V107.645a.693.693,0,0,1,.349-.6.684.684,0,0,1,.691.011l19.282,11.574V101.837h1.377v18.007a.688.688,0,0,1-1.039.59L785.3,108.859V213.991a.681.681,0,0,1-1.012.6l-19.315-10.481v43.738l33.8,18.115a.688.688,0,0,1,.363.608v47.051a.687.687,0,0,1-.351.6L716.64,360.453a.691.691,0,0,1-.68,0l-46.6-26.817L605.91,371.388l54.741,31.037a.685.685,0,0,1,.041,1.168Z" transform="translate(-525.098 -69.168)" fill="url(#radial-gradient)"/>
        <path id="Path_2173" data-name="Path 2173" d="M755.6,404.175l-52.858-30.787a.68.68,0,0,1-.342-.6.69.69,0,0,1,.353-.595l52.964-29.613-92.473-53.417a.687.687,0,0,1,.016-1.2l27.523-14.907V97.138h1.374V273.467a.691.691,0,0,1-.361.6L665,288.588,757.454,342a.685.685,0,0,1,.342.6.692.692,0,0,1-.351.6l-52.971,29.616,51.819,30.181Z" transform="translate(-491.205 -71.138)" fill="url(#radial-gradient)"/>
        <path id="Path_2174" data-name="Path 2174" d="M593.512,318.469a.691.691,0,0,1-.351-.1l-51.223-30.631.7-1.181,50.883,30.428L660.1,280l-39.647-23.672a.693.693,0,0,1-.335-.6.68.68,0,0,1,.355-.59l53.664-29.429v-30.96a.686.686,0,0,1,1.036-.59l38.462,22.624V150.2l-53.677-30.37.676-1.2,54.027,30.57a.684.684,0,0,1,.348.6v68.188a.687.687,0,0,1-1.033.59L675.511,195.95v30.166a.693.693,0,0,1-.356.6l-52.969,29.046,39.64,23.67a.689.689,0,0,1-.017,1.192l-67.962,37.755A.706.706,0,0,1,593.512,318.469Z" transform="translate(-541.939 -62.124)" fill="url(#radial-gradient)"/>
        <path id="Path_2175" data-name="Path 2175" d="M669.175,376.531l-41.72-24.349a.688.688,0,0,1,.008-1.192l47.775-26.864L648.96,308.468a.688.688,0,0,1,.024-1.2l52.364-28.458-26.715-15.483a.685.685,0,0,1-.344-.6.7.7,0,0,1,.355-.593l14.64-8.106V223.652a.685.685,0,0,1,1.038-.591l40.371,24.052V119.36h1.373V248.323a.685.685,0,0,1-1.039.591l-40.368-24.052v29.575a.684.684,0,0,1-.353.6l-13.933,7.716L703.1,278.239a.686.686,0,0,1-.017,1.2L650.7,307.9l26.264,15.651a.69.69,0,0,1,.336.6.682.682,0,0,1-.349.588L629.183,351.6l40.683,23.746Z" transform="translate(-506.214 -61.818)" fill="url(#radial-gradient)"/>
      </g>
      <g id="Group_4049" data-name="Group 4049" transform="translate(397.577 793.422) rotate(180)" style="isolation: isolate">
        <path id="Path_2166-2" data-name="Path 2166" d="M6.015,345.41l-.687-1.192,88.088-51.1L.342,239.107a.686.686,0,0,1,.009-1.192l100.43-56.273V105.371a.688.688,0,0,1,.346-.6.678.678,0,0,1,.691.006l58.212,34.241V39.229L144.141,28.941a.679.679,0,0,1-.321-.579V0h1.373V27.981l15.889,10.285a.688.688,0,0,1,.322.582V140.221a.687.687,0,0,1-1.035.593L102.156,106.57v75.474a.69.69,0,0,1-.352.6L2.074,238.524l93.059,54a.685.685,0,0,1,.342.595.693.693,0,0,1-.343.595Z" transform="translate(164.429 58.257)" fill="url(#radial-gradient-11)"/>
        <path id="Path_2167-2" data-name="Path 2167" d="M82.016,317.826.339,270.224a.689.689,0,0,1,0-1.187L103.55,208.549a.677.677,0,0,1,.7,0l39.156,23.608,52.743-29.811V171.005l-26.371-14.9a.686.686,0,0,1-.349-.6V95.29a.687.687,0,0,1,1.015-.6l19.317,10.484V.686A.687.687,0,0,1,190.8.1l31.946,19.168-.705,1.178L191.132,1.9V106.328a.686.686,0,0,1-1.012.6L170.8,96.447V155.1l26.37,14.9a.683.683,0,0,1,.351.6v32.148a.688.688,0,0,1-.351.6l-53.44,30.205a.694.694,0,0,1-.693-.011l-39.149-23.6L2.051,269.631l80.66,47.008Z" transform="translate(174.781 99.703)" fill="url(#radial-gradient-11)"/>
        <path id="Path_2168-2" data-name="Path 2168" d="M107.391,365.147,39.84,325.7a.687.687,0,0,1,.01-1.194L92.818,294.9.342,241.477a.688.688,0,0,1,.017-1.2l27.523-14.905V76.532a.687.687,0,0,1,1.038-.59l37.3,22.048V0h1.375V99.2a.688.688,0,0,1-1.038.59l-37.3-22.051V225.779a.682.682,0,0,1-.358.6L2.094,240.9l92.457,53.409a.686.686,0,0,1-.009,1.2L41.571,325.122l66.513,38.84Z" transform="translate(277.409 37.757)" fill="url(#radial-gradient-11)"/>
        <path id="Path_2169-2" data-name="Path 2169" d="M.669,354.458,0,353.258l107.076-59.522L39.6,255.422a.687.687,0,0,1-.346-.6.68.68,0,0,1,.356-.6l53.666-29.429v-37.83a.685.685,0,0,1,1.032-.593l42.029,24.522V103.763L105.23,85.7a.684.684,0,0,1-.344-.593V0h1.377V84.711l31.1,18.062a.687.687,0,0,1,.342.593V212.087a.687.687,0,0,1-1.034.593L94.646,188.16V225.2a.688.688,0,0,1-.356.6L41.346,254.835l67.472,38.31a.682.682,0,0,1,.348.6.7.7,0,0,1-.353.6Z" transform="translate(144.639)" fill="url(#radial-gradient-11)"/>
        <path id="Path_2170-2" data-name="Path 2170" d="M12.5,200.846l-12.2-8.132a.689.689,0,0,1,.044-1.172L39.4,169.471,13.113,153.815a.689.689,0,0,1,.026-1.2l52.4-28.476L39.246,107.919a.684.684,0,0,1,.044-1.194l14.152-7.358V48.411a.69.69,0,0,1,1.039-.59L119.659,86.7V.686A.69.69,0,0,1,119.98.1a.694.694,0,0,1,.666-.035l13.942,6.739-.6,1.233-12.955-6.26V87.912a.69.69,0,0,1-.349.6.681.681,0,0,1-.691-.009L54.814,49.62V99.784a.682.682,0,0,1-.369.607L41,107.385,67.268,123.6a.685.685,0,0,1-.034,1.187L14.855,153.25,41.12,168.9a.685.685,0,0,1,.335.6.693.693,0,0,1-.349.592L2,192.19,13.266,199.7Z" transform="translate(277.989 178.275)" fill="url(#radial-gradient-11)"/>
        <path id="Path_2171-2" data-name="Path 2171" d="M15.807,220.228l-.683-1.2L39.97,204.7.345,181.95a.688.688,0,0,1,0-1.2l159.005-89.6V14.885a.688.688,0,0,1,1.028-.6l51.246,29.253V0H213V44.726a.686.686,0,0,1-.345.593.678.678,0,0,1-.684.006L160.728,16.069V91.561a.685.685,0,0,1-.349.6l-158.3,89.2L41.7,204.109a.687.687,0,0,1,.345.6.7.7,0,0,1-.348.6Z" transform="translate(0.145 87.533)" fill="url(#radial-gradient-11)"/>
        <path id="Path_2172-2" data-name="Path 2172" d="M.762,353.692,0,352.549l76.911-51.316-54.8-31.068a.686.686,0,0,1-.014-1.187l64.815-38.571a.691.691,0,0,1,.691-.006l46.608,26.827,81.455-45.844V165.144l-33.8-18.115a.689.689,0,0,1-.362-.6V101.114a.685.685,0,0,1,1.013-.6L201.835,111V5.808a.693.693,0,0,1,.349-.6.684.684,0,0,1,.691.011l19.282,11.574V0h1.377V18.007a.688.688,0,0,1-1.039.59L203.207,7.022V112.154a.681.681,0,0,1-1.012.6L182.88,102.274v43.738l33.8,18.115a.688.688,0,0,1,.364.608v47.051a.687.687,0,0,1-.351.6l-82.146,46.235a.691.691,0,0,1-.68,0L87.272,231.8,23.819,269.551l54.741,31.037a.685.685,0,0,1,.041,1.168Z" transform="translate(56.993 32.669)" fill="url(#radial-gradient-11)"/>
        <path id="Path_2173-2" data-name="Path 2173" d="M92.7,307.037,39.842,276.25a.681.681,0,0,1-.342-.6.691.691,0,0,1,.353-.595l52.964-29.613L.345,192.027a.687.687,0,0,1,.016-1.2l27.523-14.907V0h1.374V176.329a.691.691,0,0,1-.361.6L2.1,191.45l92.458,53.409a.685.685,0,0,1,.342.6.692.692,0,0,1-.351.6L41.574,275.669,93.392,305.85Z" transform="translate(171.696 26)" fill="url(#radial-gradient-11)"/>
        <path id="Path_2174-2" data-name="Path 2174" d="M51.573,199.839a.691.691,0,0,1-.351-.1L0,169.111l.7-1.181,50.883,30.428,66.577-36.986L78.514,137.7a.692.692,0,0,1-.335-.6.68.68,0,0,1,.355-.59L132.2,107.077V76.117a.686.686,0,0,1,1.036-.59L171.7,98.15V31.568L118.019,1.2l.676-1.2,54.028,30.57a.684.684,0,0,1,.348.6V99.354a.687.687,0,0,1-1.033.59L133.572,77.32v30.166a.693.693,0,0,1-.356.6L80.247,137.135l39.64,23.67A.689.689,0,0,1,119.87,162L51.908,199.753A.705.705,0,0,1,51.573,199.839Z" transform="translate(0 56.506)" fill="url(#radial-gradient-11)"/>
        <path id="Path_2175-2" data-name="Path 2175" d="M42.06,257.171.341,232.822a.688.688,0,0,1,.009-1.192l47.775-26.864L21.845,189.108a.688.688,0,0,1,.024-1.2l52.364-28.458L47.518,143.972a.686.686,0,0,1-.344-.6.7.7,0,0,1,.355-.593l14.64-8.106V104.292a.685.685,0,0,1,1.038-.59l40.371,24.052V0h1.373V128.963a.685.685,0,0,1-1.039.591L63.543,105.5v29.575a.684.684,0,0,1-.353.6l-13.933,7.716L75.98,158.879a.686.686,0,0,1-.017,1.2l-52.38,28.465,26.264,15.651a.69.69,0,0,1,.336.6.682.682,0,0,1-.349.588L2.068,232.24l40.683,23.745Z" transform="translate(120.901 57.542)" fill="url(#radial-gradient-11)"/>
      </g>
    </g>
  </g>
</svg>
