<svg xmlns="http://www.w3.org/2000/svg" xmlns:xlink="http://www.w3.org/1999/xlink" width="173.426" height="158.056" viewBox="0 0 173.426 158.056"><defs><style>.a{fill:url(#a);}.ac,.ah,.an,.ay,.b,.k,.u{mix-blend-mode:multiply;}.aa,.ab,.ac,.ad,.ah,.ai,.aj,.am,.an,.ao,.ap,.as,.at,.av,.ax,.ay,.az,.b,.ba,.be,.bf,.bg,.h,.j,.k,.l,.o,.r,.t,.u,.v,.x{isolation:isolate;}.c{fill:url(#b);}.d{fill:url(#c);}.e{fill:url(#d);}.f{fill:#fdd65b;}.g{fill:url(#e);}.aa,.ab,.am,.as,.ax,.h,.j,.r,.t{mix-blend-mode:screen;}.h{fill:url(#f);}.i{fill:url(#g);}.j{fill:url(#h);}.k{fill:url(#i);}.ad,.ai,.aj,.ao,.ap,.at,.av,.az,.ba,.be,.bf,.bg,.l,.o,.v,.x{mix-blend-mode:color-dodge;}.l{fill:url(#j);}.m{fill:url(#k);}.n{fill:url(#l);}.o{fill:url(#m);}.p{fill:url(#o);}.q{fill:url(#q);}.r{fill:url(#s);}.s{fill:url(#t);}.t{fill:url(#u);}.u{fill:url(#v);}.v{fill:url(#w);}.w{fill:url(#y);}.x{fill:url(#z);}.y{fill:url(#ab);}.z{fill:url(#ad);}.aa{fill:url(#af);}.ab{fill:url(#ah);}.ac{fill:url(#ai);}.ad{fill:url(#aj);}.ae{fill:url(#al);}.af{fill:url(#ao);}.ag{fill:url(#aq);}.ah{fill:url(#av);}.ai{fill:url(#aw);}.aj{fill:url(#ax);}.ak{fill:url(#bc);}.al{fill:url(#be);}.am{fill:url(#bi);}.an{fill:url(#bj);}.ao{fill:url(#bk);}.ap{fill:url(#bn);}.aq{fill:url(#bp);}.ar{fill:url(#br);}.as{fill:url(#bv);}.at{fill:url(#bx);}.au{fill:url(#bz);}.av{fill:url(#ca);}.aw{fill:url(#cd);}.ax{fill:url(#ci);}.ay{fill:url(#cj);}.az{fill:url(#ck);}.ba{fill:url(#cl);}.bb{fill:url(#cm);}.bc{fill:url(#cq);}.bd{fill:url(#cs);}.be{fill:url(#cy);}.bf{fill:url(#cz);}.bg{fill:url(#dc);}</style><linearGradient id="a" x1="0.005" y1="0.5" x2="0.989" y2="0.5" gradientUnits="objectBoundingBox"><stop offset="0" stop-color="#ffbb96"/><stop offset="0.227" stop-color="#fffbc9"/><stop offset="0.54" stop-color="#f9b673"/><stop offset="0.639" stop-color="#f9b876"/><stop offset="0.725" stop-color="#fabe81"/><stop offset="0.806" stop-color="#fcc892"/><stop offset="0.859" stop-color="#fed2a3"/><stop offset="0.97" stop-color="#ffc28c"/></linearGradient><linearGradient id="b" x1="-0.099" y1="0.504" x2="1.058" y2="0.504" xlink:href="#a"/><linearGradient id="c" x1="0.005" y1="0.5" x2="0.989" y2="0.5" xlink:href="#a"/><linearGradient id="d" x1="0.006" y1="0.504" x2="1.111" y2="0.504" xlink:href="#a"/><linearGradient id="e" x1="1.424" y1="-1.097" x2="0.446" y2="0.594" gradientUnits="objectBoundingBox"><stop offset="0.035" stop-color="#ffba78"/><stop offset="0.395" stop-color="#fec986"/><stop offset="1" stop-color="#feeca8"/></linearGradient><radialGradient id="f" cx="0.285" cy="0.703" r="2.086" gradientTransform="translate(0.349) scale(0.301 1)" gradientUnits="objectBoundingBox"><stop offset="0" stop-color="#fff"/><stop offset="1"/></radialGradient><linearGradient id="g" x1="1.037" y1="-0.429" x2="0.059" y2="1.261" xlink:href="#e"/><radialGradient id="h" cx="0.719" cy="-0.037" r="1.205" gradientTransform="translate(0.347) scale(0.307 1)" xlink:href="#f"/><linearGradient id="i" x1="1.217" y1="-1.509" x2="0.295" y2="1.519" xlink:href="#a"/><radialGradient id="j" cx="0.5" cy="0.5" r="0.435" gradientTransform="matrix(0.191, -0.947, 1.132, 0.65, 2661.387, 743.327)" gradientUnits="objectBoundingBox"><stop offset="0" stop-color="#f49587"/><stop offset="0.116" stop-color="#bc7368"/><stop offset="0.236" stop-color="#8b544c"/><stop offset="0.359" stop-color="#603a35"/><stop offset="0.483" stop-color="#3d2522"/><stop offset="0.609" stop-color="#221513"/><stop offset="0.735" stop-color="#0f0908"/><stop offset="0.864" stop-color="#030202"/><stop offset="1"/></radialGradient><linearGradient id="k" x1="0" y1="0.5" x2="1" y2="0.5" xlink:href="#a"/><linearGradient id="l" x1="1.48" y1="-0.322" x2="0.627" y2="0.385" xlink:href="#e"/><radialGradient id="m" cx="-0.184" cy="0.6" r="1.361" gradientTransform="translate(0.171) scale(0.658 1)" xlink:href="#j"/><linearGradient id="o" x1="-0.099" y1="0.497" x2="1.058" y2="0.497" xlink:href="#a"/><linearGradient id="q" x1="0.006" y1="0.497" x2="1.111" y2="0.497" xlink:href="#a"/><radialGradient id="s" cx="0.285" cy="0.703" r="2.086" xlink:href="#f"/><linearGradient id="t" x1="1.037" y1="-0.429" x2="0.059" y2="1.261" xlink:href="#e"/><radialGradient id="u" cx="0.719" cy="-0.036" r="1.206" gradientTransform="translate(0.347) scale(0.307 1)" xlink:href="#f"/><linearGradient id="v" x1="1.217" y1="-1.509" x2="0.295" y2="1.519" xlink:href="#a"/><radialGradient id="w" cx="0.5" cy="0.5" r="0.435" gradientTransform="matrix(0.191, -0.947, 1.132, 0.65, 2663.402, 745.565)" xlink:href="#j"/><linearGradient id="y" x1="1.48" y1="-0.322" x2="0.627" y2="0.385" xlink:href="#e"/><radialGradient id="z" cx="-0.184" cy="0.6" r="1.361" gradientTransform="translate(0.171) scale(0.658 1)" xlink:href="#j"/><linearGradient id="ab" x1="-0.099" y1="0.5" x2="1.058" y2="0.5" xlink:href="#a"/><linearGradient id="ad" x1="0.006" y1="0.5" x2="1.111" y2="0.5" xlink:href="#a"/><radialGradient id="af" cx="0.285" cy="0.703" r="2.086" xlink:href="#f"/><radialGradient id="ah" cx="0.719" cy="-0.036" r="1.205" gradientTransform="translate(0.347) scale(0.307 1)" xlink:href="#f"/><linearGradient id="ai" x1="1.217" y1="-1.509" x2="0.295" y2="1.519" xlink:href="#a"/><radialGradient id="aj" cx="0.5" cy="0.5" r="0.435" gradientTransform="matrix(0.191, -0.947, 1.132, 0.65, 2665.504, 747.962)" xlink:href="#j"/><linearGradient id="al" x1="1.48" y1="-0.322" x2="0.627" y2="0.385" xlink:href="#e"/><linearGradient id="ao" x1="-0.099" y1="0.497" x2="1.058" y2="0.497" xlink:href="#a"/><linearGradient id="aq" x1="0.006" y1="0.497" x2="1.111" y2="0.497" xlink:href="#a"/><linearGradient id="av" x1="1.217" y1="-1.509" x2="0.295" y2="1.519" xlink:href="#a"/><radialGradient id="aw" cx="0.5" cy="0.5" r="0.836" gradientTransform="matrix(0.598, 0, 0, 0.598, 179.261, -431.504)" xlink:href="#j"/><radialGradient id="ax" cx="0.5" cy="0.5" r="0.435" gradientTransform="matrix(0.191, -0.947, 1.132, 0.65, 2667.628, 750.415)" xlink:href="#j"/><linearGradient id="bc" x1="0.005" y1="0.501" x2="0.947" y2="0.501" xlink:href="#a"/><linearGradient id="be" x1="0.084" y1="0.501" x2="0.991" y2="0.501" xlink:href="#a"/><radialGradient id="bi" cx="0.719" cy="-0.036" r="1.206" gradientTransform="translate(0.347) scale(0.307 1)" xlink:href="#f"/><linearGradient id="bj" x1="1.218" y1="-1.509" x2="0.295" y2="1.519" xlink:href="#a"/><radialGradient id="bk" cx="0.5" cy="0.5" r="0.435" gradientTransform="matrix(0.191, -0.947, 1.132, 0.65, 2649.096, 745.989)" xlink:href="#j"/><radialGradient id="bn" cx="-0.184" cy="0.6" r="1.361" gradientTransform="translate(0.171) scale(0.658 1)" xlink:href="#j"/><linearGradient id="bp" x1="0.005" y1="0.499" x2="0.947" y2="0.499" xlink:href="#a"/><linearGradient id="br" x1="0.084" y1="0.499" x2="0.991" y2="0.499" xlink:href="#a"/><radialGradient id="bv" cx="0.719" cy="-0.036" r="1.206" gradientTransform="translate(0.347) scale(0.307 1)" xlink:href="#f"/><radialGradient id="bx" cx="0.5" cy="0.5" r="0.435" gradientTransform="matrix(0.191, -0.947, 1.132, 0.65, 2651.111, 748.23)" xlink:href="#j"/><linearGradient id="bz" x1="1.48" y1="-0.322" x2="0.627" y2="0.385" xlink:href="#e"/><radialGradient id="ca" cx="-0.184" cy="0.6" r="1.361" gradientTransform="translate(0.171) scale(0.658 1)" xlink:href="#j"/><linearGradient id="cd" x1="0.005" y1="0.5" x2="0.989" y2="0.5" xlink:href="#a"/><radialGradient id="ci" cx="0.719" cy="-0.036" r="1.205" gradientTransform="translate(0.347) scale(0.307 1)" xlink:href="#f"/><linearGradient id="cj" x1="1.218" y1="-1.509" x2="0.295" y2="1.519" xlink:href="#a"/><radialGradient id="ck" cx="0.5" cy="0.5" r="0.502" gradientTransform="matrix(0.151, -0.994, 0.985, 0.074, 1692.704, 365.542)" xlink:href="#j"/><radialGradient id="cl" cx="0.5" cy="0.5" r="0.435" gradientTransform="matrix(0.191, -0.947, 1.132, 0.65, 2653.226, 750.6)" xlink:href="#j"/><linearGradient id="cm" x1="0" y1="0.5" x2="1" y2="0.5" xlink:href="#a"/><linearGradient id="cq" x1="-0.097" y1="0.497" x2="1.06" y2="0.497" xlink:href="#a"/><linearGradient id="cs" x1="0.008" y1="0.497" x2="1.113" y2="0.497" xlink:href="#a"/><radialGradient id="cy" cx="0.5" cy="0.5" r="0.435" gradientTransform="matrix(0.191, -0.947, 1.132, 0.65, 2655.554, 727.269)" xlink:href="#j"/><radialGradient id="cz" cx="0.5" cy="0.5" r="0.435" gradientTransform="matrix(0.191, -0.947, 1.132, 0.65, 2655.051, 737.013)" xlink:href="#j"/><radialGradient id="dc" cx="-0.184" cy="0.6" r="1.361" gradientTransform="translate(0.171) scale(0.658 1)" xlink:href="#j"/></defs><g transform="translate(5.376 46.171)"><path class="a" d="M538.685,327.106H444.961v13.221h.018c0,.126-.018.251-.018.377,0,15.07,20.983,27.289,46.862,27.289s46.862-12.219,46.862-27.289c0-.126-.014-.251-.018-.377h.018Z" transform="translate(-444.961 -298.994)"/><g class="b" transform="translate(0.004 38.792)"><path class="c" d="M444.962,330.392v.377c0-.126.01-.248.014-.377Z" transform="translate(-444.962 -329.603)"/><path class="d" d="M491.82,357.452c-25.879,0-46.858-12.215-46.858-27.286v2.541h.014c0,.129-.014.251-.014.377,0,15.07,20.979,27.289,46.858,27.289s46.859-12.219,46.859-27.289c0-.126-.01-.248-.014-.377h.014v-2.541C538.679,345.236,517.7,357.452,491.82,357.452Z" transform="translate(-444.962 -330.166)"/><path class="e" d="M471.824,330.769v-.377h-.014C471.814,330.521,471.824,330.643,471.824,330.769Z" transform="translate(-378.107 -329.603)"/></g><g class="b" transform="translate(2.345 32.754)"><path class="f" d="M462.5,363.365c.443-.084.872-.188,1.312-.279v-34.65H462.5Z" transform="translate(-403.629 -328.436)"/><path class="f" d="M464.187,361.976c.44-.126.886-.241,1.316-.37v-33.17h-1.316Z" transform="translate(-399.431 -328.436)"/><path class="f" d="M465.874,360.046c.454-.178.872-.38,1.316-.565V328.436h-1.316Z" transform="translate(-395.23 -328.436)"/><path class="f" d="M460.814,364.213c.436-.045.879-.084,1.312-.14V328.436h-1.312Z" transform="translate(-407.83 -328.436)"/><path class="f" d="M469.248,353.394c.447-.359.894-.715,1.312-1.089V328.436h-1.312Z" transform="translate(-386.828 -328.436)"/><path class="f" d="M470.934,347.042a20.571,20.571,0,0,0,1.316-2.324V328.436h-1.316Z" transform="translate(-382.63 -328.436)"/><path class="f" d="M467.561,357.282c.436-.241.89-.468,1.312-.719V328.436h-1.312Z" transform="translate(-391.029 -328.436)"/><path class="f" d="M459.127,364.6c.44-.014.88-.017,1.316-.038v-36.13h-1.316Z" transform="translate(-412.031 -328.436)"/><path class="f" d="M457.44,364.583c.436.018.876.028,1.316.038V328.436H457.44Z" transform="translate(-416.232 -328.436)"/><path class="f" d="M454.067,363.208c.44.087.869.192,1.312.272V328.436h-1.312Z" transform="translate(-424.631 -328.436)"/><path class="f" d="M455.754,364.147c.429.052.876.077,1.312.119v-35.83h-1.312Z" transform="translate(-420.43 -328.436)"/><path class="f" d="M452.38,361.77c.436.126.873.251,1.316.37v-33.7H452.38Z" transform="translate(-428.832 -328.436)"/><path class="f" d="M445.633,345.887a21.513,21.513,0,0,0,1.316,2.091V328.436h-1.316Z" transform="translate(-445.633 -328.436)"/><path class="f" d="M447.32,352.828c.415.349.873.684,1.312,1.023V328.436H447.32Z" transform="translate(-441.432 -328.436)"/><path class="f" d="M450.694,359.735c.433.178.869.349,1.312.517V328.436h-1.312Z" transform="translate(-433.03 -328.436)"/><path class="f" d="M449.007,356.9c.422.241.876.464,1.312.694V328.436h-1.312Z" transform="translate(-437.231 -328.436)"/></g><ellipse class="g" cx="46.861" cy="27.288" rx="46.861" ry="27.288" transform="translate(0.002 1.012)"/><path class="h" d="M491.82,353.563c-25.331,0-45.913-11.713-46.778-26.34-.017.318-.08.628-.08.949,0,15.07,20.979,27.286,46.858,27.286s46.862-12.215,46.862-27.286c0-.321-.066-.632-.084-.949C537.733,341.85,517.152,353.563,491.82,353.563Z" transform="translate(-444.958 -298.703)"/><path class="i" d="M518.412,341.715c0,11.266-15.685,20.4-35.03,20.4s-35.03-9.134-35.03-20.4,15.685-20.4,35.03-20.4S518.412,330.449,518.412,341.715Z" transform="translate(-436.519 -313.415)"/><path class="j" d="M483.716,323.169c18.711,0,33.952,8.551,34.933,19.3.035-.363.094-.726.094-1.1,0-11.266-15.681-20.4-35.027-20.4s-35.03,9.13-35.03,20.4c0,.37.059.733.094,1.1C449.764,331.72,465,323.169,483.716,323.169Z" transform="translate(-435.685 -314.246)"/><path class="k" d="M483.381,323.507c18.711,0,33.952,8.547,34.936,19.3.031-.366.094-.726.094-1.1,0-11.266-15.685-20.4-35.03-20.4s-35.03,9.134-35.03,20.4c0,.37.063.729.1,1.1C449.429,332.054,464.671,323.507,483.381,323.507Z" transform="translate(-436.519 -313.415)"/><path class="l" d="M481.531,321.068c10.526,3.584,17.625,10.718,15.849,15.932s-11.748,6.537-22.278,2.953-17.629-10.718-15.852-15.932S471,317.483,481.531,321.068Z" transform="translate(-410.057 -319.051)"/><g class="b" transform="translate(29.365 17.08)"><path class="m" d="M473.577,328.758q-1.3.251-2.7.621-1.21.3-2.59.754c-.918.3-1.8.635-2.639,1l2.817,1.623c.279-.112.586-.223.918-.332s.681-.23,1.033-.359q2.393-.843,4.513-1.414a25.046,25.046,0,0,1,3.986-.768,13.171,13.171,0,0,1,3.553.1,9.854,9.854,0,0,1,3.246,1.194,5.121,5.121,0,0,1,2.338,2.283,3.2,3.2,0,0,1,0,2.454,7.166,7.166,0,0,1-1.759,2.461,19.464,19.464,0,0,1-2.988,2.321l3.787,2.185-3.148,1.815-3.846-2.22a52.485,52.485,0,0,1-6.237,2.625,50.718,50.718,0,0,1-6.457,1.815l-2.042-5q1.592-.3,3.281-.74c.953-.234,2.014-.541,3.18-.911a28.777,28.777,0,0,0,3.319-1.288l-2.75-1.588q-1.471.56-3.036,1.064-2.345.78-4.265,1.218a19.9,19.9,0,0,1-3.514.513,11.128,11.128,0,0,1-2.953-.227,9.071,9.071,0,0,1-2.572-1.009,5.549,5.549,0,0,1-2.279-2.132,3.454,3.454,0,0,1-.307-2.4,5.949,5.949,0,0,1,1.351-2.513,13.592,13.592,0,0,1,2.761-2.426l-3.159-1.825,3.148-1.818,3.19,1.843q1.424-.675,2.893-1.235t2.921-1.019q1.445-.456,2.792-.817c.894-.241,1.721-.457,2.481-.656ZM463,333.784a1.982,1.982,0,0,0,1.162.213,8.6,8.6,0,0,0,1.724-.363l-2.377-1.375Q462.094,333.258,463,333.784Zm15.046,2.509a2.026,2.026,0,0,0-1.236-.171,10.312,10.312,0,0,0-1.839.391l2.314,1.337a2.664,2.664,0,0,0,1.026-.953A.458.458,0,0,0,478.044,336.293Z" transform="translate(-453.375 -323.945)"/></g><g transform="translate(29.365 15.91)"><path class="n" d="M473.577,328.426q-1.3.246-2.7.621-1.21.3-2.59.754c-.918.3-1.8.635-2.639,1l2.817,1.626c.279-.112.586-.223.918-.335s.681-.227,1.033-.356q2.393-.843,4.513-1.417a25.459,25.459,0,0,1,3.986-.764,12.908,12.908,0,0,1,3.553.1,9.774,9.774,0,0,1,3.246,1.194,5.116,5.116,0,0,1,2.338,2.279,3.205,3.205,0,0,1,0,2.457,7.2,7.2,0,0,1-1.759,2.46,19.448,19.448,0,0,1-2.988,2.318l3.787,2.185-3.148,1.818-3.846-2.223a51.884,51.884,0,0,1-6.237,2.624,50.694,50.694,0,0,1-6.457,1.815l-2.042-4.994c1.061-.206,2.153-.45,3.281-.74.953-.237,2.014-.545,3.18-.914a28.758,28.758,0,0,0,3.319-1.284l-2.75-1.592q-1.471.56-3.036,1.068c-1.564.517-2.988.925-4.265,1.214a19.917,19.917,0,0,1-3.514.513,10.982,10.982,0,0,1-2.953-.227,9.069,9.069,0,0,1-2.572-1.009,5.53,5.53,0,0,1-2.279-2.132,3.454,3.454,0,0,1-.307-2.4,5.951,5.951,0,0,1,1.351-2.513,13.7,13.7,0,0,1,2.761-2.426l-3.159-1.822,3.148-1.818,3.19,1.843q1.424-.681,2.893-1.239t2.921-1.016q1.445-.461,2.792-.82t2.481-.656ZM463,333.449a1.955,1.955,0,0,0,1.162.216,8.883,8.883,0,0,0,1.724-.367l-2.377-1.372Q462.094,332.927,463,333.449Zm15.046,2.509a2.079,2.079,0,0,0-1.236-.171,10.331,10.331,0,0,0-1.839.395l2.314,1.337a2.664,2.664,0,0,0,1.026-.953A.462.462,0,0,0,478.044,335.958Z" transform="translate(-453.375 -323.61)"/></g><path class="o" d="M473.577,328.426q-1.3.246-2.7.621-1.21.3-2.59.754c-.918.3-1.8.635-2.639,1l2.817,1.626c.279-.112.586-.223.918-.335s.681-.227,1.033-.356q2.393-.843,4.513-1.417a25.459,25.459,0,0,1,3.986-.764,12.908,12.908,0,0,1,3.553.1,9.774,9.774,0,0,1,3.246,1.194,5.116,5.116,0,0,1,2.338,2.279,3.205,3.205,0,0,1,0,2.457,7.2,7.2,0,0,1-1.759,2.46,19.448,19.448,0,0,1-2.988,2.318l3.787,2.185-3.148,1.818-3.846-2.223a51.884,51.884,0,0,1-6.237,2.624,50.694,50.694,0,0,1-6.457,1.815l-2.042-4.994c1.061-.206,2.153-.45,3.281-.74.953-.237,2.014-.545,3.18-.914a28.758,28.758,0,0,0,3.319-1.284l-2.75-1.592q-1.471.56-3.036,1.068c-1.564.517-2.988.925-4.265,1.214a19.917,19.917,0,0,1-3.514.513,10.982,10.982,0,0,1-2.953-.227,9.069,9.069,0,0,1-2.572-1.009,5.53,5.53,0,0,1-2.279-2.132,3.454,3.454,0,0,1-.307-2.4,5.951,5.951,0,0,1,1.351-2.513,13.7,13.7,0,0,1,2.761-2.426l-3.159-1.822,3.148-1.818,3.19,1.843q1.424-.681,2.893-1.239t2.921-1.016q1.445-.461,2.792-.82t2.481-.656ZM463,333.449a1.955,1.955,0,0,0,1.162.216,8.883,8.883,0,0,0,1.724-.367l-2.377-1.372Q462.094,332.927,463,333.449Zm15.046,2.509a2.079,2.079,0,0,0-1.236-.171,10.331,10.331,0,0,0-1.839.395l2.314,1.337a2.664,2.664,0,0,0,1.026-.953A.462.462,0,0,0,478.044,335.958Z" transform="translate(-424.01 -307.7)"/></g><g transform="translate(5.376 31.381)"><path class="a" d="M538.685,322.868H444.961v13.224h.018c0,.126-.018.248-.018.373,0,15.074,20.983,27.289,46.862,27.289s46.862-12.215,46.862-27.289c0-.126-.014-.248-.018-.373h.018Z" transform="translate(-444.961 -294.758)"/><g class="b" transform="translate(0.004 38.79)"><path class="p" d="M444.962,326.155v.377c0-.126.01-.251.014-.377Z" transform="translate(-444.962 -325.363)"/><path class="d" d="M491.82,353.217c-25.879,0-46.858-12.219-46.858-27.289v2.544h.014c0,.126-.014.248-.014.373,0,15.074,20.979,27.289,46.858,27.289s46.859-12.215,46.859-27.289c0-.126-.01-.248-.014-.373h.014v-2.544C538.679,341,517.7,353.217,491.82,353.217Z" transform="translate(-444.962 -325.928)"/><path class="q" d="M471.824,326.532v-.377h-.014C471.814,326.281,471.824,326.406,471.824,326.532Z" transform="translate(-378.107 -325.363)"/></g><g class="b" transform="translate(2.345 32.752)"><path class="f" d="M462.5,359.127c.443-.084.872-.188,1.312-.279V324.2H462.5Z" transform="translate(-403.629 -324.198)"/><path class="f" d="M464.187,357.738c.44-.122.886-.237,1.316-.37V324.2h-1.316Z" transform="translate(-399.431 -324.198)"/><path class="f" d="M465.874,355.808c.454-.178.872-.381,1.316-.566V324.2h-1.316Z" transform="translate(-395.23 -324.198)"/><path class="f" d="M460.814,359.975c.436-.045.879-.084,1.312-.136V324.2h-1.312Z" transform="translate(-407.83 -324.198)"/><path class="f" d="M469.248,349.156c.447-.359.894-.715,1.312-1.085V324.2h-1.312Z" transform="translate(-386.828 -324.198)"/><path class="f" d="M470.934,342.807a20.6,20.6,0,0,0,1.316-2.328V324.2h-1.316Z" transform="translate(-382.63 -324.198)"/><path class="f" d="M467.561,353.044c.436-.237.89-.468,1.312-.715V324.2h-1.312Z" transform="translate(-391.029 -324.198)"/><path class="f" d="M459.127,360.366c.44-.01.88-.017,1.316-.038V324.2h-1.316Z" transform="translate(-412.031 -324.198)"/><path class="f" d="M457.44,360.345c.436.018.876.028,1.316.039V324.2H457.44Z" transform="translate(-416.232 -324.198)"/><path class="f" d="M454.067,358.974c.44.087.869.188,1.312.269V324.2h-1.312Z" transform="translate(-424.631 -324.198)"/><path class="f" d="M455.754,359.912c.429.049.876.073,1.312.115V324.2h-1.312Z" transform="translate(-420.43 -324.198)"/><path class="f" d="M452.38,357.532c.436.129.873.251,1.316.37V324.2H452.38Z" transform="translate(-428.832 -324.198)"/><path class="f" d="M445.633,341.649a21.532,21.532,0,0,0,1.316,2.091V324.2h-1.316Z" transform="translate(-445.633 -324.198)"/><path class="f" d="M447.32,348.591c.415.352.873.684,1.312,1.023V324.2H447.32Z" transform="translate(-441.432 -324.198)"/><path class="f" d="M450.694,355.5c.433.178.869.349,1.312.52V324.2h-1.312Z" transform="translate(-433.03 -324.198)"/><path class="f" d="M449.007,352.66c.422.241.876.464,1.312.695V324.2h-1.312Z" transform="translate(-437.231 -324.198)"/></g><ellipse class="g" cx="46.861" cy="27.288" rx="46.861" ry="27.288" transform="translate(0.002 1.012)"/><path class="r" d="M491.82,349.325c-25.331,0-45.913-11.713-46.778-26.34-.017.318-.08.628-.08.949,0,15.07,20.979,27.286,46.858,27.286S538.683,339,538.683,323.934c0-.321-.066-.632-.084-.949C537.733,337.612,517.152,349.325,491.82,349.325Z" transform="translate(-444.958 -294.466)"/><ellipse class="s" cx="35.03" cy="20.399" rx="35.03" ry="20.399" transform="translate(11.833 7.901)"/><path class="t" d="M483.716,318.931c18.711,0,33.952,8.551,34.933,19.3.035-.363.094-.723.094-1.092,0-11.266-15.681-20.4-35.027-20.4s-35.03,9.134-35.03,20.4c0,.37.059.729.094,1.092C449.764,327.482,465,318.931,483.716,318.931Z" transform="translate(-435.685 -310.01)"/><path class="u" d="M483.381,319.266c18.711,0,33.952,8.551,34.936,19.3.031-.366.094-.726.094-1.1,0-11.266-15.685-20.4-35.03-20.4s-35.03,9.13-35.03,20.4c0,.37.063.73.1,1.1C449.429,327.817,464.671,319.266,483.381,319.266Z" transform="translate(-436.519 -309.175)"/><path class="v" d="M481.531,316.828c10.526,3.584,17.625,10.718,15.849,15.933s-11.748,6.537-22.278,2.953S457.474,325,459.25,319.781,471,313.248,481.531,316.828Z" transform="translate(-410.057 -314.814)"/><g class="b" transform="translate(29.365 17.078)"><path class="m" d="M473.577,324.523q-1.3.246-2.7.621-1.21.3-2.59.754c-.918.3-1.8.635-2.639,1l2.817,1.626c.279-.115.586-.223.918-.335s.681-.227,1.033-.359q2.393-.843,4.513-1.414a25.458,25.458,0,0,1,3.986-.764,12.893,12.893,0,0,1,3.553.1,9.7,9.7,0,0,1,3.246,1.194,5.1,5.1,0,0,1,2.338,2.279,3.2,3.2,0,0,1,0,2.454,7.166,7.166,0,0,1-1.759,2.461,19.253,19.253,0,0,1-2.988,2.321l3.787,2.185-3.148,1.818-3.846-2.223a51.889,51.889,0,0,1-6.237,2.625,50.707,50.707,0,0,1-6.457,1.815l-2.042-5c1.061-.2,2.153-.45,3.281-.736.953-.237,2.014-.544,3.18-.914a28.168,28.168,0,0,0,3.319-1.288l-2.75-1.588q-1.471.56-3.036,1.065-2.345.78-4.265,1.218a19.906,19.906,0,0,1-3.514.513,10.991,10.991,0,0,1-2.953-.227,9.08,9.08,0,0,1-2.572-1.009,5.551,5.551,0,0,1-2.279-2.133,3.454,3.454,0,0,1-.307-2.4,5.949,5.949,0,0,1,1.351-2.513,13.7,13.7,0,0,1,2.761-2.426l-3.159-1.825,3.148-1.815,3.19,1.839q1.424-.675,2.893-1.236t2.921-1.019q1.445-.456,2.792-.817c.894-.241,1.721-.457,2.481-.656ZM463,329.546a1.982,1.982,0,0,0,1.162.216,8.906,8.906,0,0,0,1.724-.366l-2.377-1.372Q462.094,329.024,463,329.546Zm15.046,2.509a2.05,2.05,0,0,0-1.236-.171,10.315,10.315,0,0,0-1.839.394l2.314,1.337a2.665,2.665,0,0,0,1.026-.953A.462.462,0,0,0,478.044,332.055Z" transform="translate(-453.375 -319.707)"/></g><g transform="translate(29.365 15.909)"><path class="w" d="M473.577,324.188c-.869.164-1.769.374-2.7.621q-1.21.3-2.59.754t-2.639,1l2.817,1.626c.279-.112.586-.223.918-.332s.681-.23,1.033-.359q2.393-.843,4.513-1.414a25.067,25.067,0,0,1,3.986-.768,12.9,12.9,0,0,1,3.553.1,9.858,9.858,0,0,1,3.246,1.194,5.121,5.121,0,0,1,2.338,2.283,3.2,3.2,0,0,1,0,2.453,7.163,7.163,0,0,1-1.759,2.461,19.446,19.446,0,0,1-2.988,2.317l3.787,2.188-3.148,1.815L480.1,337.9a53.037,53.037,0,0,1-6.237,2.625,51.265,51.265,0,0,1-6.457,1.811l-2.042-4.994c1.061-.206,2.153-.45,3.281-.74q1.429-.356,3.18-.915a28.144,28.144,0,0,0,3.319-1.284l-2.75-1.588q-1.471.56-3.036,1.064-2.345.78-4.265,1.218a20.578,20.578,0,0,1-3.514.513,11.119,11.119,0,0,1-2.953-.23,9.171,9.171,0,0,1-2.572-1.005,5.556,5.556,0,0,1-2.279-2.136,3.452,3.452,0,0,1-.307-2.4,5.99,5.99,0,0,1,1.351-2.513,13.808,13.808,0,0,1,2.761-2.426l-3.159-1.822,3.148-1.818,3.19,1.843q1.424-.681,2.893-1.239c.981-.37,1.954-.712,2.921-1.016s1.9-.579,2.792-.817,1.721-.461,2.481-.66ZM463,329.211a1.954,1.954,0,0,0,1.162.216,8.4,8.4,0,0,0,1.724-.366l-2.377-1.372Q462.094,328.689,463,329.211Zm15.046,2.509a2.054,2.054,0,0,0-1.236-.168,10.3,10.3,0,0,0-1.839.391l2.314,1.337a2.665,2.665,0,0,0,1.026-.953A.462.462,0,0,0,478.044,331.72Z" transform="translate(-453.375 -319.372)"/></g><path class="x" d="M473.577,324.188c-.869.164-1.769.374-2.7.621q-1.21.3-2.59.754t-2.639,1l2.817,1.626c.279-.112.586-.223.918-.332s.681-.23,1.033-.359q2.393-.843,4.513-1.414a25.067,25.067,0,0,1,3.986-.768,12.9,12.9,0,0,1,3.553.1,9.858,9.858,0,0,1,3.246,1.194,5.121,5.121,0,0,1,2.338,2.283,3.2,3.2,0,0,1,0,2.453,7.163,7.163,0,0,1-1.759,2.461,19.446,19.446,0,0,1-2.988,2.317l3.787,2.188-3.148,1.815L480.1,337.9a53.037,53.037,0,0,1-6.237,2.625,51.265,51.265,0,0,1-6.457,1.811l-2.042-4.994c1.061-.206,2.153-.45,3.281-.74q1.429-.356,3.18-.915a28.144,28.144,0,0,0,3.319-1.284l-2.75-1.588q-1.471.56-3.036,1.064-2.345.78-4.265,1.218a20.578,20.578,0,0,1-3.514.513,11.119,11.119,0,0,1-2.953-.23,9.171,9.171,0,0,1-2.572-1.005,5.556,5.556,0,0,1-2.279-2.136,3.452,3.452,0,0,1-.307-2.4,5.99,5.99,0,0,1,1.351-2.513,13.808,13.808,0,0,1,2.761-2.426l-3.159-1.822,3.148-1.818,3.19,1.843q1.424-.681,2.893-1.239c.981-.37,1.954-.712,2.921-1.016s1.9-.579,2.792-.817,1.721-.461,2.481-.66ZM463,329.211a1.954,1.954,0,0,0,1.162.216,8.4,8.4,0,0,0,1.724-.366l-2.377-1.372Q462.094,328.689,463,329.211Zm15.046,2.509a2.054,2.054,0,0,0-1.236-.168,10.3,10.3,0,0,0-1.839.391l2.314,1.337a2.665,2.665,0,0,0,1.026-.953A.462.462,0,0,0,478.044,331.72Z" transform="translate(-424.01 -303.463)"/></g><g transform="translate(5.376 15.813)"><path class="a" d="M538.685,318.408H444.961v13.221h.018c0,.126-.018.251-.018.377,0,15.071,20.983,27.286,46.862,27.286s46.862-12.215,46.862-27.286c0-.126-.014-.251-.018-.377h.018Z" transform="translate(-444.961 -290.295)"/><g class="b" transform="translate(0.004 38.789)"><path class="y" d="M444.962,321.694v.377c0-.125.01-.251.014-.377Z" transform="translate(-444.962 -320.902)"/><path class="d" d="M491.82,348.756c-25.879,0-46.858-12.219-46.858-27.289v2.544h.014c0,.126-.014.251-.014.377,0,15.071,20.979,27.286,46.858,27.286s46.859-12.215,46.859-27.286c0-.125-.01-.251-.014-.377h.014v-2.544C538.679,336.537,517.7,348.756,491.82,348.756Z" transform="translate(-444.962 -321.467)"/><path class="z" d="M471.824,322.071v-.377h-.014C471.814,321.82,471.824,321.945,471.824,322.071Z" transform="translate(-378.107 -320.902)"/></g><g class="b" transform="translate(2.345 32.751)"><path class="f" d="M462.5,354.666c.443-.084.872-.188,1.312-.279v-34.65H462.5Z" transform="translate(-403.629 -319.737)"/><path class="f" d="M464.187,353.277c.44-.122.886-.237,1.316-.366V319.737h-1.316Z" transform="translate(-399.431 -319.737)"/><path class="f" d="M465.874,351.347c.454-.175.872-.377,1.316-.565V319.737h-1.316Z" transform="translate(-395.23 -319.737)"/><path class="f" d="M460.814,355.514c.436-.045.879-.08,1.312-.136V319.737h-1.312Z" transform="translate(-407.83 -319.737)"/><path class="f" d="M469.248,344.7c.447-.359.894-.719,1.312-1.089V319.737h-1.312Z" transform="translate(-386.828 -319.737)"/><path class="f" d="M470.934,338.346a20.9,20.9,0,0,0,1.316-2.324V319.737h-1.316Z" transform="translate(-382.63 -319.737)"/><path class="f" d="M467.561,348.583c.436-.237.89-.468,1.312-.716v-28.13h-1.312Z" transform="translate(-391.029 -319.737)"/><path class="f" d="M459.127,355.909c.44-.014.88-.021,1.316-.038V319.737h-1.316Z" transform="translate(-412.031 -319.737)"/><path class="f" d="M457.44,355.888c.436.018.876.028,1.316.035V319.737H457.44Z" transform="translate(-416.232 -319.737)"/><path class="f" d="M454.067,354.513c.44.087.869.189,1.312.269V319.737h-1.312Z" transform="translate(-424.631 -319.737)"/><path class="f" d="M455.754,355.451c.429.049.876.073,1.312.115v-35.83h-1.312Z" transform="translate(-420.43 -319.737)"/><path class="f" d="M452.38,353.075c.436.126.873.248,1.316.367v-33.7H452.38Z" transform="translate(-428.832 -319.737)"/><path class="f" d="M445.633,337.188a21.519,21.519,0,0,0,1.316,2.091V319.737h-1.316Z" transform="translate(-445.633 -319.737)"/><path class="f" d="M447.32,344.13c.415.352.873.684,1.312,1.023V319.737H447.32Z" transform="translate(-441.432 -319.737)"/><path class="f" d="M450.694,351.036c.433.178.869.352,1.312.52v-31.82h-1.312Z" transform="translate(-433.03 -319.737)"/><path class="f" d="M449.007,348.2c.422.241.876.464,1.312.695V319.737h-1.312Z" transform="translate(-437.231 -319.737)"/></g><ellipse class="g" cx="46.861" cy="27.288" rx="46.861" ry="27.288" transform="translate(0.002 1.012)"/><path class="aa" d="M491.82,344.864c-25.331,0-45.913-11.709-46.778-26.34-.017.318-.08.628-.08.949,0,15.07,20.979,27.289,46.858,27.289s46.862-12.219,46.862-27.289c0-.321-.066-.632-.084-.949C537.733,333.155,517.152,344.864,491.82,344.864Z" transform="translate(-444.958 -290.006)"/><path class="s" d="M518.412,333.013c0,11.27-15.685,20.4-35.03,20.4s-35.03-9.13-35.03-20.4,15.685-20.4,35.03-20.4S518.412,321.751,518.412,333.013Z" transform="translate(-436.519 -304.715)"/><path class="ab" d="M483.716,314.474c18.711,0,33.952,8.551,34.933,19.3.035-.366.094-.726.094-1.1,0-11.266-15.681-20.4-35.027-20.4s-35.03,9.134-35.03,20.4c0,.37.059.729.094,1.1C449.764,323.025,465,314.474,483.716,314.474Z" transform="translate(-435.685 -305.55)"/><path class="ac" d="M483.381,314.805c18.711,0,33.952,8.551,34.936,19.3.031-.363.094-.726.094-1.1,0-11.263-15.685-20.4-35.03-20.4s-35.03,9.134-35.03,20.4c0,.37.063.733.1,1.1C449.429,323.356,464.671,314.805,483.381,314.805Z" transform="translate(-436.519 -304.715)"/><path class="ad" d="M481.531,312.37c10.526,3.584,17.625,10.718,15.849,15.932s-11.748,6.534-22.278,2.949-17.629-10.715-15.852-15.932S471,308.786,481.531,312.37Z" transform="translate(-410.057 -310.353)"/><g class="b" transform="translate(29.365 17.077)"><path class="m" d="M473.577,320.062c-.869.164-1.769.373-2.7.621q-1.21.3-2.59.754t-2.639,1l2.817,1.626c.279-.112.586-.223.918-.332s.681-.23,1.033-.359q2.393-.843,4.513-1.417a25.41,25.41,0,0,1,3.986-.764,12.9,12.9,0,0,1,3.553.1,9.781,9.781,0,0,1,3.246,1.194,5.117,5.117,0,0,1,2.338,2.279,3.206,3.206,0,0,1,0,2.457,7.2,7.2,0,0,1-1.759,2.461A19.448,19.448,0,0,1,483.307,332l3.787,2.185L483.946,336l-3.846-2.22a52.449,52.449,0,0,1-6.237,2.621,50.687,50.687,0,0,1-6.457,1.815l-2.042-4.994q1.592-.309,3.281-.74,1.429-.356,3.18-.915a28.1,28.1,0,0,0,3.319-1.284l-2.75-1.588q-1.471.555-3.036,1.065c-1.564.517-2.988.925-4.265,1.215a19.93,19.93,0,0,1-3.514.513,10.994,10.994,0,0,1-2.953-.227,9.172,9.172,0,0,1-2.572-1.005,5.556,5.556,0,0,1-2.279-2.136,3.454,3.454,0,0,1-.307-2.4,5.947,5.947,0,0,1,1.351-2.513,13.7,13.7,0,0,1,2.761-2.426l-3.159-1.822,3.148-1.818,3.19,1.843q1.424-.681,2.893-1.239t2.921-1.016q1.445-.461,2.792-.82t2.481-.656ZM463,325.085a1.955,1.955,0,0,0,1.162.216,8.656,8.656,0,0,0,1.724-.366l-2.377-1.372Q462.094,324.563,463,325.085Zm15.046,2.509a2.055,2.055,0,0,0-1.236-.168,9.992,9.992,0,0,0-1.839.391l2.314,1.337a2.664,2.664,0,0,0,1.026-.953A.462.462,0,0,0,478.044,327.594Z" transform="translate(-453.375 -315.246)"/></g><g transform="translate(29.365 15.911)"><path class="ae" d="M473.577,319.725q-1.3.251-2.7.621-1.21.3-2.59.754t-2.639,1l2.817,1.626c.279-.112.586-.223.918-.332s.681-.23,1.033-.36q2.393-.843,4.513-1.414a25.064,25.064,0,0,1,3.986-.768,13.028,13.028,0,0,1,3.553.1,9.783,9.783,0,0,1,3.246,1.2,5.1,5.1,0,0,1,2.338,2.279,3.2,3.2,0,0,1,0,2.453,7.164,7.164,0,0,1-1.759,2.461,19.461,19.461,0,0,1-2.988,2.321l3.787,2.185-3.148,1.815-3.846-2.22a52.449,52.449,0,0,1-6.237,2.625,51.278,51.278,0,0,1-6.457,1.815l-2.042-5q1.592-.3,3.281-.74,1.429-.356,3.18-.914a28.1,28.1,0,0,0,3.319-1.284l-2.75-1.588q-1.471.56-3.036,1.064-2.345.78-4.265,1.218a19.906,19.906,0,0,1-3.514.513,11.125,11.125,0,0,1-2.953-.227,9.179,9.179,0,0,1-2.572-1.009,5.55,5.55,0,0,1-2.279-2.132,3.456,3.456,0,0,1-.307-2.4,5.951,5.951,0,0,1,1.351-2.513,13.707,13.707,0,0,1,2.761-2.426l-3.159-1.825,3.148-1.818,3.19,1.843q1.424-.675,2.893-1.235t2.921-1.019q1.445-.456,2.792-.817t2.481-.656ZM463,324.751a1.981,1.981,0,0,0,1.162.213,8.6,8.6,0,0,0,1.724-.363l-2.377-1.372C462.565,323.892,462.394,324.4,463,324.751Zm15.046,2.509a2.026,2.026,0,0,0-1.236-.171,10.3,10.3,0,0,0-1.839.391l2.314,1.337a2.663,2.663,0,0,0,1.026-.953A.457.457,0,0,0,478.044,327.26Z" transform="translate(-453.375 -314.912)"/></g><path class="o" d="M473.577,319.725q-1.3.251-2.7.621-1.21.3-2.59.754t-2.639,1l2.817,1.626c.279-.112.586-.223.918-.332s.681-.23,1.033-.36q2.393-.843,4.513-1.414a25.064,25.064,0,0,1,3.986-.768,13.028,13.028,0,0,1,3.553.1,9.783,9.783,0,0,1,3.246,1.2,5.1,5.1,0,0,1,2.338,2.279,3.2,3.2,0,0,1,0,2.453,7.164,7.164,0,0,1-1.759,2.461,19.461,19.461,0,0,1-2.988,2.321l3.787,2.185-3.148,1.815-3.846-2.22a52.449,52.449,0,0,1-6.237,2.625,51.278,51.278,0,0,1-6.457,1.815l-2.042-5q1.592-.3,3.281-.74,1.429-.356,3.18-.914a28.1,28.1,0,0,0,3.319-1.284l-2.75-1.588q-1.471.56-3.036,1.064-2.345.78-4.265,1.218a19.906,19.906,0,0,1-3.514.513,11.125,11.125,0,0,1-2.953-.227,9.179,9.179,0,0,1-2.572-1.009,5.55,5.55,0,0,1-2.279-2.132,3.456,3.456,0,0,1-.307-2.4,5.951,5.951,0,0,1,1.351-2.513,13.707,13.707,0,0,1,2.761-2.426l-3.159-1.825,3.148-1.818,3.19,1.843q1.424-.675,2.893-1.235t2.921-1.019q1.445-.456,2.792-.817t2.481-.656ZM463,324.751a1.981,1.981,0,0,0,1.162.213,8.6,8.6,0,0,0,1.724-.363l-2.377-1.372C462.565,323.892,462.394,324.4,463,324.751Zm15.046,2.509a2.026,2.026,0,0,0-1.236-.171,10.3,10.3,0,0,0-1.839.391l2.314,1.337a2.663,2.663,0,0,0,1.026-.953A.457.457,0,0,0,478.044,327.26Z" transform="translate(-424.01 -299.001)"/></g><g transform="translate(0)"><path class="a" d="M538.685,313.877H444.961V327.1h.018c0,.126-.018.248-.018.374,0,15.074,20.983,27.289,46.862,27.289s46.862-12.215,46.862-27.289c0-.126-.014-.248-.018-.374h.018Z" transform="translate(-439.585 -285.765)"/><g class="b" transform="translate(5.379 38.792)"><path class="af" d="M444.962,317.164v.377c0-.126.01-.251.014-.377Z" transform="translate(-444.962 -316.372)"/><path class="d" d="M491.82,344.226c-25.879,0-46.858-12.219-46.858-27.289v2.544h.014c0,.126-.014.248-.014.374,0,15.07,20.979,27.289,46.858,27.289s46.859-12.219,46.859-27.289c0-.126-.01-.248-.014-.374h.014v-2.544C538.679,332.007,517.7,344.226,491.82,344.226Z" transform="translate(-444.962 -316.937)"/><path class="ag" d="M471.824,317.541v-.377h-.014C471.814,317.29,471.824,317.415,471.824,317.541Z" transform="translate(-378.107 -316.372)"/></g><g class="b" transform="translate(7.721 32.754)"><path class="f" d="M462.5,350.136c.443-.084.872-.189,1.312-.279v-34.65H462.5Z" transform="translate(-403.629 -315.207)"/><path class="f" d="M464.187,348.747c.44-.122.886-.237,1.316-.37v-33.17h-1.316Z" transform="translate(-399.431 -315.207)"/><path class="f" d="M465.874,346.817c.454-.178.872-.38,1.316-.565V315.207h-1.316Z" transform="translate(-395.23 -315.207)"/><path class="f" d="M460.814,350.984c.436-.045.879-.084,1.312-.136V315.207h-1.312Z" transform="translate(-407.83 -315.207)"/><path class="f" d="M469.248,340.165c.447-.359.894-.715,1.312-1.085V315.207h-1.312Z" transform="translate(-386.828 -315.207)"/><path class="f" d="M470.934,333.817a20.639,20.639,0,0,0,1.316-2.328V315.207h-1.316Z" transform="translate(-382.63 -315.207)"/><path class="f" d="M467.561,344.053c.436-.237.89-.468,1.312-.715V315.207h-1.312Z" transform="translate(-391.029 -315.207)"/><path class="f" d="M459.127,351.375c.44-.014.88-.018,1.316-.039v-36.13h-1.316Z" transform="translate(-412.031 -315.207)"/><path class="f" d="M457.44,351.354c.436.017.876.028,1.316.038V315.207H457.44Z" transform="translate(-416.232 -315.207)"/><path class="f" d="M454.067,349.983c.44.087.869.188,1.312.269V315.207h-1.312Z" transform="translate(-424.631 -315.207)"/><path class="f" d="M455.754,350.922c.429.049.876.073,1.312.115v-35.83h-1.312Z" transform="translate(-420.43 -315.207)"/><path class="f" d="M452.38,348.541c.436.129.873.251,1.316.37v-33.7H452.38Z" transform="translate(-428.832 -315.207)"/><path class="f" d="M445.633,332.658a21.512,21.512,0,0,0,1.316,2.091V315.207h-1.316Z" transform="translate(-445.633 -315.207)"/><path class="f" d="M447.32,339.6c.415.353.873.684,1.312,1.023V315.207H447.32Z" transform="translate(-441.432 -315.207)"/><path class="f" d="M450.694,346.507c.433.178.869.349,1.312.52v-31.82h-1.312Z" transform="translate(-433.03 -315.207)"/><path class="f" d="M449.007,343.669c.422.241.876.464,1.312.695V315.207h-1.312Z" transform="translate(-437.231 -315.207)"/></g><ellipse class="g" cx="46.861" cy="27.288" rx="46.861" ry="27.288" transform="translate(5.378 1.013)"/><path class="r" d="M491.82,340.334c-25.331,0-45.913-11.713-46.778-26.34-.017.318-.08.628-.08.949,0,15.07,20.979,27.286,46.858,27.286s46.862-12.215,46.862-27.286c0-.321-.066-.632-.084-.949C537.733,328.621,517.152,340.334,491.82,340.334Z" transform="translate(-439.583 -285.474)"/><path class="s" d="M518.412,328.483c0,11.266-15.685,20.4-35.03,20.4s-35.03-9.134-35.03-20.4,15.685-20.4,35.03-20.4S518.412,317.217,518.412,328.483Z" transform="translate(-431.144 -300.183)"/><path class="t" d="M483.716,309.94c18.711,0,33.952,8.551,34.933,19.3.035-.363.094-.722.094-1.092,0-11.266-15.681-20.4-35.027-20.4s-35.03,9.134-35.03,20.4c0,.37.059.729.094,1.092C449.764,318.491,465,309.94,483.716,309.94Z" transform="translate(-430.309 -301.017)"/><path class="ah" d="M483.381,310.278c18.711,0,33.952,8.551,34.936,19.3.031-.366.094-.726.094-1.1,0-11.266-15.685-20.4-35.03-20.4s-35.03,9.134-35.03,20.4c0,.37.063.729.1,1.1C449.429,318.829,464.671,310.278,483.381,310.278Z" transform="translate(-431.144 -300.186)"/><ellipse class="ai" cx="29.449" cy="17.611" rx="29.449" ry="17.611" transform="translate(0 80.252) rotate(-74.814)"/><path class="aj" d="M481.531,307.838c10.526,3.584,17.625,10.718,15.849,15.932s-11.748,6.537-22.278,2.953-17.629-10.718-15.852-15.932S471,304.254,481.531,307.838Z" transform="translate(-404.681 -305.822)"/><g class="b" transform="translate(34.741 17.08)"><path class="m" d="M473.577,315.532q-1.3.246-2.7.618-1.21.3-2.59.757c-.918.3-1.8.635-2.639,1l2.817,1.626c.279-.115.586-.223.918-.335s.681-.227,1.033-.36q2.393-.843,4.513-1.413a25.424,25.424,0,0,1,3.986-.764,12.9,12.9,0,0,1,3.553.1,9.7,9.7,0,0,1,3.246,1.194,5.1,5.1,0,0,1,2.338,2.279,3.2,3.2,0,0,1,0,2.454,7.163,7.163,0,0,1-1.759,2.461,19.247,19.247,0,0,1-2.988,2.321l3.787,2.185-3.148,1.818-3.846-2.223a51.924,51.924,0,0,1-6.237,2.625,50.687,50.687,0,0,1-6.457,1.815l-2.042-5c1.061-.2,2.153-.45,3.281-.736.953-.237,2.014-.544,3.18-.914a28.755,28.755,0,0,0,3.319-1.288l-2.75-1.588q-1.471.56-3.036,1.065-2.345.78-4.265,1.218a19.9,19.9,0,0,1-3.514.513,10.99,10.99,0,0,1-2.953-.227,9.075,9.075,0,0,1-2.572-1.009,5.551,5.551,0,0,1-2.279-2.133,3.454,3.454,0,0,1-.307-2.4,5.947,5.947,0,0,1,1.351-2.513,13.692,13.692,0,0,1,2.761-2.426l-3.159-1.825,3.148-1.815,3.19,1.839q1.424-.675,2.893-1.236t2.921-1.016q1.445-.461,2.792-.82c.894-.241,1.721-.457,2.481-.656ZM463,320.555a1.981,1.981,0,0,0,1.162.216,8.907,8.907,0,0,0,1.724-.366l-2.377-1.372Q462.094,320.033,463,320.555Zm15.046,2.509a2.053,2.053,0,0,0-1.236-.171,10.347,10.347,0,0,0-1.839.394l2.314,1.337a2.638,2.638,0,0,0,1.026-.956A.459.459,0,0,0,478.044,323.064Z" transform="translate(-453.375 -310.716)"/></g><g transform="translate(34.741 15.91)"><path class="w" d="M473.577,315.2c-.869.164-1.769.374-2.7.621-.806.2-1.668.454-2.59.754s-1.8.635-2.639,1l2.817,1.626c.279-.112.586-.224.918-.332s.681-.23,1.033-.359q2.393-.843,4.513-1.414a25.088,25.088,0,0,1,3.986-.768,12.9,12.9,0,0,1,3.553.1,9.853,9.853,0,0,1,3.246,1.194,5.121,5.121,0,0,1,2.338,2.282,3.2,3.2,0,0,1,0,2.454,7.165,7.165,0,0,1-1.759,2.46,19.436,19.436,0,0,1-2.988,2.318l3.787,2.188-3.148,1.815-3.846-2.22a53.058,53.058,0,0,1-6.237,2.625,51.254,51.254,0,0,1-6.457,1.811l-2.042-4.994c1.061-.206,2.153-.45,3.281-.74q1.429-.356,3.18-.914a28.15,28.15,0,0,0,3.319-1.284l-2.75-1.588c-.981.373-1.993.726-3.036,1.064q-2.345.78-4.265,1.215a20.269,20.269,0,0,1-3.514.517,11.12,11.12,0,0,1-2.953-.23,9.174,9.174,0,0,1-2.572-1.005,5.558,5.558,0,0,1-2.279-2.136,3.451,3.451,0,0,1-.307-2.4,5.99,5.99,0,0,1,1.351-2.513,13.813,13.813,0,0,1,2.761-2.426l-3.159-1.822,3.148-1.818,3.19,1.843q1.424-.681,2.893-1.239t2.921-1.016c.963-.3,1.9-.579,2.792-.82s1.721-.457,2.481-.656ZM463,320.22a1.954,1.954,0,0,0,1.162.216,8.386,8.386,0,0,0,1.724-.366l-2.377-1.372Q462.094,319.7,463,320.22Zm15.046,2.509a2.055,2.055,0,0,0-1.236-.168,9.991,9.991,0,0,0-1.839.391l2.314,1.337a2.664,2.664,0,0,0,1.026-.953A.462.462,0,0,0,478.044,322.729Z" transform="translate(-453.375 -310.381)"/></g><path class="x" d="M473.577,315.2c-.869.164-1.769.374-2.7.621-.806.2-1.668.454-2.59.754s-1.8.635-2.639,1l2.817,1.626c.279-.112.586-.224.918-.332s.681-.23,1.033-.359q2.393-.843,4.513-1.414a25.088,25.088,0,0,1,3.986-.768,12.9,12.9,0,0,1,3.553.1,9.853,9.853,0,0,1,3.246,1.194,5.121,5.121,0,0,1,2.338,2.282,3.2,3.2,0,0,1,0,2.454,7.165,7.165,0,0,1-1.759,2.46,19.436,19.436,0,0,1-2.988,2.318l3.787,2.188-3.148,1.815-3.846-2.22a53.058,53.058,0,0,1-6.237,2.625,51.254,51.254,0,0,1-6.457,1.811l-2.042-4.994c1.061-.206,2.153-.45,3.281-.74q1.429-.356,3.18-.914a28.15,28.15,0,0,0,3.319-1.284l-2.75-1.588c-.981.373-1.993.726-3.036,1.064q-2.345.78-4.265,1.215a20.269,20.269,0,0,1-3.514.517,11.12,11.12,0,0,1-2.953-.23,9.174,9.174,0,0,1-2.572-1.005,5.558,5.558,0,0,1-2.279-2.136,3.451,3.451,0,0,1-.307-2.4,5.99,5.99,0,0,1,1.351-2.513,13.813,13.813,0,0,1,2.761-2.426l-3.159-1.822,3.148-1.818,3.19,1.843q1.424-.681,2.893-1.239t2.921-1.016c.963-.3,1.9-.579,2.792-.82s1.721-.457,2.481-.656ZM463,320.22a1.954,1.954,0,0,0,1.162.216,8.386,8.386,0,0,0,1.724-.366l-2.377-1.372Q462.094,319.7,463,320.22Zm15.046,2.509a2.055,2.055,0,0,0-1.236-.168,9.991,9.991,0,0,0-1.839.391l2.314,1.337a2.664,2.664,0,0,0,1.026-.953A.462.462,0,0,0,478.044,322.729Z" transform="translate(-418.634 -294.471)"/></g><g transform="translate(79.705 65.705)"><path class="a" d="M559.979,332.7H466.258v13.224h.018c0,.126-.018.248-.018.373,0,15.07,20.979,27.289,46.859,27.289s46.862-12.219,46.862-27.289c0-.126-.014-.248-.017-.373h.017Z" transform="translate(-466.258 -304.591)"/><g class="b" transform="translate(0 38.792)"><path class="ak" d="M466.258,335.99v.373c0-.125.014-.248.018-.373Z" transform="translate(-466.258 -335.198)"/><path class="a" d="M513.12,363.052c-25.883,0-46.862-12.219-46.862-27.289v2.544h.018c0,.126-.018.248-.018.374,0,15.07,20.979,27.289,46.862,27.289s46.858-12.219,46.858-27.289c0-.126-.014-.248-.017-.374h.017v-2.544C559.979,350.833,539,363.052,513.12,363.052Z" transform="translate(-466.258 -335.763)"/><path class="al" d="M493.124,336.363v-.373h-.018C493.109,336.116,493.124,336.238,493.124,336.363Z" transform="translate(-399.403 -335.198)"/></g><g class="b" transform="translate(2.345 32.754)"><path class="f" d="M483.8,368.962c.447-.084.872-.188,1.312-.279v-34.65H483.8Z" transform="translate(-424.929 -334.033)"/><path class="f" d="M485.484,367.573c.44-.122.883-.237,1.312-.37v-33.17h-1.312Z" transform="translate(-420.728 -334.033)"/><path class="f" d="M487.171,365.643c.45-.178.873-.38,1.312-.565V334.033h-1.312Z" transform="translate(-416.527 -334.033)"/><path class="f" d="M482.11,369.81c.44-.046.883-.084,1.316-.136V334.033H482.11Z" transform="translate(-429.13 -334.033)"/><path class="f" d="M490.544,358.991c.447-.36.9-.716,1.312-1.086V334.033h-1.312Z" transform="translate(-408.128 -334.033)"/><path class="f" d="M492.231,352.639a20.2,20.2,0,0,0,1.312-2.325V334.033h-1.312Z" transform="translate(-403.927 -334.033)"/><path class="f" d="M488.857,362.879c.44-.241.893-.468,1.316-.716v-28.13h-1.316Z" transform="translate(-412.329 -334.033)"/><path class="f" d="M480.424,370.2c.436-.014.879-.018,1.312-.038v-36.13h-1.312Z" transform="translate(-433.328 -334.033)"/><path class="f" d="M478.737,370.18c.436.017.872.028,1.312.038V334.033h-1.312Z" transform="translate(-437.529 -334.033)"/><path class="f" d="M475.364,368.805c.44.091.865.192,1.312.272V334.033h-1.312Z" transform="translate(-445.928 -334.033)"/><path class="f" d="M477.05,369.748c.433.049.879.073,1.316.115v-35.83H477.05Z" transform="translate(-441.73 -334.033)"/><path class="f" d="M473.677,367.367c.433.129.869.251,1.312.37v-33.7h-1.312Z" transform="translate(-450.129 -334.033)"/><path class="f" d="M466.93,351.484a21.519,21.519,0,0,0,1.312,2.09V334.033H466.93Z" transform="translate(-466.93 -334.033)"/><path class="f" d="M468.617,358.426c.412.349.869.684,1.312,1.023V334.033h-1.312Z" transform="translate(-462.729 -334.033)"/><path class="f" d="M471.99,365.333c.433.178.869.349,1.312.516V334.033H471.99Z" transform="translate(-454.33 -334.033)"/><path class="f" d="M470.3,362.5c.426.241.876.464,1.316.694V334.033H470.3Z" transform="translate(-458.531 -334.033)"/></g><ellipse class="g" cx="46.86" cy="27.288" rx="46.86" ry="27.288" transform="translate(0 1.013)"/><path class="h" d="M513.117,359.16c-25.328,0-45.909-11.713-46.775-26.34-.021.318-.084.628-.084.949,0,15.07,20.979,27.286,46.859,27.286s46.862-12.215,46.862-27.286c0-.321-.063-.632-.084-.949C559.029,347.447,538.448,359.16,513.117,359.16Z" transform="translate(-466.258 -304.3)"/><path class="s" d="M539.705,347.309c0,11.266-15.681,20.4-35.03,20.4s-35.027-9.134-35.027-20.4,15.681-20.4,35.027-20.4S539.705,336.043,539.705,347.309Z" transform="translate(-457.816 -319.009)"/><path class="am" d="M505.012,328.766c18.711,0,33.952,8.551,34.936,19.3.032-.363.094-.722.094-1.092,0-11.266-15.685-20.4-35.031-20.4s-35.03,9.134-35.03,20.4c0,.37.063.729.1,1.092C471.06,337.317,486.3,328.766,505.012,328.766Z" transform="translate(-456.985 -319.843)"/><path class="an" d="M504.675,329.1c18.714,0,33.952,8.551,34.936,19.3.035-.367.094-.726.094-1.1,0-11.266-15.685-20.4-35.03-20.4s-35.027,9.13-35.027,20.4c0,.37.059.729.094,1.1C470.723,337.652,485.964,329.1,504.675,329.1Z" transform="translate(-457.816 -319.009)"/><path class="ao" d="M502.825,326.664c10.53,3.584,17.625,10.718,15.852,15.932s-11.751,6.537-22.281,2.953-17.625-10.718-15.849-15.932S492.3,323.08,502.825,326.664Z" transform="translate(-431.354 -324.648)"/><g class="b" transform="translate(29.362 17.079)"><path class="m" d="M494.872,334.358q-1.3.246-2.7.618-1.209.3-2.586.757c-.921.3-1.8.635-2.638,1l2.817,1.623c.276-.111.583-.22.918-.331s.677-.227,1.03-.359q2.4-.843,4.513-1.414a25.522,25.522,0,0,1,3.986-.764,13.042,13.042,0,0,1,3.553.094,9.8,9.8,0,0,1,3.249,1.2,5.09,5.09,0,0,1,2.335,2.279,3.2,3.2,0,0,1,0,2.453,7.069,7.069,0,0,1-1.759,2.461,19.263,19.263,0,0,1-2.984,2.321l3.783,2.185-3.148,1.818-3.846-2.223a52.394,52.394,0,0,1-6.234,2.624,50.871,50.871,0,0,1-6.457,1.815l-2.045-5c1.065-.2,2.157-.45,3.284-.74.953-.234,2.01-.541,3.176-.911a29.057,29.057,0,0,0,3.322-1.288l-2.754-1.588c-.981.373-1.989.729-3.033,1.064q-2.351.78-4.265,1.218a19.96,19.96,0,0,1-3.518.513,11,11,0,0,1-2.953-.227,9.056,9.056,0,0,1-2.569-1.009,5.528,5.528,0,0,1-2.279-2.132,3.456,3.456,0,0,1-.311-2.4,6.026,6.026,0,0,1,1.351-2.513,13.616,13.616,0,0,1,2.764-2.426l-3.159-1.825,3.145-1.815,3.19,1.839q1.424-.675,2.893-1.235t2.921-1.019q1.45-.455,2.792-.817c.9-.241,1.724-.457,2.482-.656ZM484.3,339.381a1.963,1.963,0,0,0,1.159.216,8.872,8.872,0,0,0,1.728-.366l-2.377-1.372C483.861,338.526,483.693,339.032,484.3,339.381Zm15.046,2.51a2.042,2.042,0,0,0-1.239-.171,10.38,10.38,0,0,0-1.839.394l2.317,1.333a2.65,2.65,0,0,0,1.023-.953C499.7,342.25,499.615,342.047,499.343,341.89Z" transform="translate(-474.671 -329.542)"/></g><g transform="translate(29.362 15.91)"><path class="n" d="M494.872,334.023q-1.3.246-2.7.621c-.806.2-1.668.454-2.586.754s-1.8.635-2.638,1l2.817,1.626c.276-.112.583-.223.918-.332s.677-.23,1.03-.36q2.4-.843,4.513-1.417a25.494,25.494,0,0,1,3.986-.764,12.9,12.9,0,0,1,3.553.1,9.87,9.87,0,0,1,3.249,1.194,5.111,5.111,0,0,1,2.335,2.283,3.2,3.2,0,0,1,0,2.454,7.072,7.072,0,0,1-1.759,2.461,19.253,19.253,0,0,1-2.984,2.317l3.783,2.185-3.148,1.818-3.846-2.22a52.986,52.986,0,0,1-6.234,2.625,51.476,51.476,0,0,1-6.457,1.811l-2.045-4.995c1.065-.206,2.157-.45,3.284-.74q1.429-.356,3.176-.914a29.054,29.054,0,0,0,3.322-1.284l-2.754-1.592c-.981.373-1.989.729-3.033,1.068q-2.351.78-4.265,1.215a20.308,20.308,0,0,1-3.518.516,11.124,11.124,0,0,1-2.953-.23,9.063,9.063,0,0,1-2.569-1.009,5.508,5.508,0,0,1-2.279-2.132,3.456,3.456,0,0,1-.311-2.4,6.048,6.048,0,0,1,1.351-2.513,13.736,13.736,0,0,1,2.764-2.426l-3.159-1.822,3.145-1.819,3.19,1.843q1.424-.681,2.893-1.239c.981-.37,1.954-.712,2.921-1.016s1.9-.579,2.792-.817,1.724-.461,2.482-.66ZM484.3,339.046a1.938,1.938,0,0,0,1.159.216,8.616,8.616,0,0,0,1.728-.367l-2.377-1.372C483.861,338.191,483.693,338.7,484.3,339.046Zm15.046,2.509a2.072,2.072,0,0,0-1.239-.168,10.056,10.056,0,0,0-1.839.391l2.317,1.337a2.675,2.675,0,0,0,1.023-.953A.457.457,0,0,0,499.343,341.555Z" transform="translate(-474.671 -329.207)"/></g><path class="ap" d="M494.872,334.023q-1.3.246-2.7.621c-.806.2-1.668.454-2.586.754s-1.8.635-2.638,1l2.817,1.626c.276-.112.583-.223.918-.332s.677-.23,1.03-.36q2.4-.843,4.513-1.417a25.494,25.494,0,0,1,3.986-.764,12.9,12.9,0,0,1,3.553.1,9.87,9.87,0,0,1,3.249,1.194,5.111,5.111,0,0,1,2.335,2.283,3.2,3.2,0,0,1,0,2.454,7.072,7.072,0,0,1-1.759,2.461,19.253,19.253,0,0,1-2.984,2.317l3.783,2.185-3.148,1.818-3.846-2.22a52.986,52.986,0,0,1-6.234,2.625,51.476,51.476,0,0,1-6.457,1.811l-2.045-4.995c1.065-.206,2.157-.45,3.284-.74q1.429-.356,3.176-.914a29.054,29.054,0,0,0,3.322-1.284l-2.754-1.592c-.981.373-1.989.729-3.033,1.068q-2.351.78-4.265,1.215a20.308,20.308,0,0,1-3.518.516,11.124,11.124,0,0,1-2.953-.23,9.063,9.063,0,0,1-2.569-1.009,5.508,5.508,0,0,1-2.279-2.132,3.456,3.456,0,0,1-.311-2.4,6.048,6.048,0,0,1,1.351-2.513,13.736,13.736,0,0,1,2.764-2.426l-3.159-1.822,3.145-1.819,3.19,1.843q1.424-.681,2.893-1.239c.981-.37,1.954-.712,2.921-1.016s1.9-.579,2.792-.817,1.724-.461,2.482-.66ZM484.3,339.046a1.938,1.938,0,0,0,1.159.216,8.616,8.616,0,0,0,1.728-.367l-2.377-1.372C483.861,338.191,483.693,338.7,484.3,339.046Zm15.046,2.509a2.072,2.072,0,0,0-1.239-.168,10.056,10.056,0,0,0-1.839.391l2.317,1.337a2.675,2.675,0,0,0,1.023-.953A.457.457,0,0,0,499.343,341.555Z" transform="translate(-445.309 -313.297)"/></g><g transform="translate(79.705 50.916)"><path class="a" d="M559.979,328.466H466.258v13.22h.018c0,.126-.018.251-.018.377,0,15.07,20.979,27.286,46.859,27.286s46.862-12.215,46.862-27.286c0-.126-.014-.251-.017-.377h.017Z" transform="translate(-466.258 -300.353)"/><g class="b" transform="translate(0 38.789)"><path class="aq" d="M466.258,331.752v.377c0-.126.014-.251.018-.377Z" transform="translate(-466.258 -330.96)"/><path class="a" d="M513.12,358.814c-25.883,0-46.862-12.219-46.862-27.289v2.544h.018c0,.126-.018.251-.018.377,0,15.07,20.979,27.286,46.862,27.286s46.858-12.215,46.858-27.286c0-.126-.014-.251-.017-.377h.017v-2.544C559.979,346.6,539,358.814,513.12,358.814Z" transform="translate(-466.258 -331.525)"/><path class="ar" d="M493.124,332.129v-.377h-.018C493.109,331.878,493.124,332,493.124,332.129Z" transform="translate(-399.403 -330.96)"/></g><g class="b" transform="translate(2.345 32.751)"><path class="f" d="M483.8,364.724c.447-.084.872-.188,1.312-.279V329.8H483.8Z" transform="translate(-424.929 -329.795)"/><path class="f" d="M485.484,363.335c.44-.122.883-.237,1.312-.37V329.8h-1.312Z" transform="translate(-420.728 -329.795)"/><path class="f" d="M487.171,361.405c.45-.178.873-.377,1.312-.565V329.8h-1.312Z" transform="translate(-416.527 -329.795)"/><path class="f" d="M482.11,365.572c.44-.045.883-.084,1.316-.136V329.8H482.11Z" transform="translate(-429.13 -329.795)"/><path class="f" d="M490.544,354.753c.447-.356.9-.716,1.312-1.086V329.8h-1.312Z" transform="translate(-408.128 -329.795)"/><path class="f" d="M492.231,348.4a20.81,20.81,0,0,0,1.312-2.325V329.8h-1.312Z" transform="translate(-403.927 -329.795)"/><path class="f" d="M488.857,358.641c.44-.237.893-.468,1.316-.715V329.8h-1.316Z" transform="translate(-412.329 -329.795)"/><path class="f" d="M480.424,365.963c.436-.01.879-.014,1.312-.038V329.8h-1.312Z" transform="translate(-433.328 -329.795)"/><path class="f" d="M478.737,365.946c.436.014.872.024,1.312.035V329.8h-1.312Z" transform="translate(-437.529 -329.795)"/><path class="f" d="M475.364,364.571c.44.087.865.188,1.312.269V329.8h-1.312Z" transform="translate(-445.928 -329.795)"/><path class="f" d="M477.05,365.51c.433.049.879.073,1.316.115V329.8H477.05Z" transform="translate(-441.73 -329.795)"/><path class="f" d="M473.677,363.133c.433.126.869.248,1.312.366V329.8h-1.312Z" transform="translate(-450.129 -329.795)"/><path class="f" d="M466.93,347.246a21.548,21.548,0,0,0,1.312,2.09V329.8H466.93Z" transform="translate(-466.93 -329.795)"/><path class="f" d="M468.617,354.188c.412.353.869.684,1.312,1.023V329.8h-1.312Z" transform="translate(-462.729 -329.795)"/><path class="f" d="M471.99,361.094c.433.178.869.349,1.312.52V329.8H471.99Z" transform="translate(-454.33 -329.795)"/><path class="f" d="M470.3,358.257c.426.241.876.464,1.316.694V329.8H470.3Z" transform="translate(-458.531 -329.795)"/></g><ellipse class="g" cx="46.86" cy="27.288" rx="46.86" ry="27.288" transform="translate(0 1.011)"/><path class="aa" d="M513.117,354.922c-25.328,0-45.909-11.713-46.775-26.34-.021.318-.084.628-.084.949,0,15.07,20.979,27.289,46.859,27.289s46.862-12.219,46.862-27.289c0-.321-.063-.632-.084-.949C559.029,343.209,538.448,354.922,513.117,354.922Z" transform="translate(-466.258 -300.064)"/><path class="s" d="M539.705,343.071c0,11.266-15.681,20.4-35.03,20.4s-35.027-9.134-35.027-20.4,15.681-20.4,35.027-20.4S539.705,331.805,539.705,343.071Z" transform="translate(-457.816 -314.773)"/><path class="as" d="M505.012,324.532c18.711,0,33.952,8.547,34.936,19.3.032-.363.094-.723.094-1.092,0-11.266-15.685-20.4-35.031-20.4s-35.03,9.134-35.03,20.4c0,.37.063.729.1,1.092C471.06,333.079,486.3,324.532,505.012,324.532Z" transform="translate(-456.985 -315.608)"/><path class="an" d="M504.675,324.863c18.714,0,33.952,8.551,34.936,19.3.035-.363.094-.726.094-1.1,0-11.266-15.685-20.4-35.03-20.4s-35.027,9.13-35.027,20.4c0,.37.059.733.094,1.1C470.723,333.414,485.964,324.863,504.675,324.863Z" transform="translate(-457.816 -314.773)"/><path class="at" d="M502.825,322.428c10.53,3.584,17.625,10.715,15.852,15.929s-11.751,6.537-22.281,2.953-17.625-10.718-15.849-15.932S492.3,318.844,502.825,322.428Z" transform="translate(-431.354 -320.411)"/><g class="b" transform="translate(29.362 17.077)"><path class="m" d="M494.872,330.12q-1.3.246-2.7.621-1.209.3-2.586.754t-2.638,1l2.817,1.626c.276-.112.583-.223.918-.332s.677-.23,1.03-.363c1.6-.558,3.1-1.033,4.513-1.413a25.528,25.528,0,0,1,3.986-.765,12.9,12.9,0,0,1,3.553.1,9.717,9.717,0,0,1,3.249,1.194,5.106,5.106,0,0,1,2.335,2.279,3.205,3.205,0,0,1,0,2.457,7.136,7.136,0,0,1-1.759,2.461,19.247,19.247,0,0,1-2.984,2.317l3.783,2.185-3.148,1.818-3.846-2.223a51.825,51.825,0,0,1-6.234,2.624,50.871,50.871,0,0,1-6.457,1.815l-2.045-4.994c1.065-.206,2.157-.45,3.284-.74.953-.237,2.01-.544,3.176-.914a29.037,29.037,0,0,0,3.322-1.284l-2.754-1.591c-.981.373-1.989.729-3.033,1.064q-2.351.78-4.265,1.218a19.947,19.947,0,0,1-3.518.513,10.989,10.989,0,0,1-2.953-.227,9.053,9.053,0,0,1-2.569-1.009,5.528,5.528,0,0,1-2.279-2.132,3.456,3.456,0,0,1-.311-2.4,6.027,6.027,0,0,1,1.351-2.513,13.62,13.62,0,0,1,2.764-2.426l-3.159-1.825,3.145-1.815,3.19,1.843q1.424-.68,2.893-1.239t2.921-1.016q1.45-.461,2.792-.82t2.482-.656ZM484.3,335.143a1.963,1.963,0,0,0,1.159.216,8.852,8.852,0,0,0,1.728-.367l-2.377-1.371C483.861,334.288,483.693,334.794,484.3,335.143Zm15.046,2.509a2.1,2.1,0,0,0-1.239-.171,10.363,10.363,0,0,0-1.839.394l2.317,1.337a2.673,2.673,0,0,0,1.023-.953A.457.457,0,0,0,499.343,337.652Z" transform="translate(-474.671 -325.304)"/></g><g transform="translate(29.362 15.911)"><path class="au" d="M494.872,329.783q-1.3.251-2.7.621-1.209.3-2.586.754t-2.638,1l2.817,1.626c.276-.112.583-.223.918-.332s.677-.23,1.03-.359q2.4-.843,4.513-1.414a25.142,25.142,0,0,1,3.986-.768,13.036,13.036,0,0,1,3.553.1,9.871,9.871,0,0,1,3.249,1.194,5.111,5.111,0,0,1,2.335,2.283,3.2,3.2,0,0,1,0,2.453,7.072,7.072,0,0,1-1.759,2.461,19.262,19.262,0,0,1-2.984,2.321l3.783,2.185-3.148,1.815L501.4,343.5a52.414,52.414,0,0,1-6.234,2.625,50.849,50.849,0,0,1-6.457,1.815l-2.045-5c1.065-.2,2.157-.45,3.284-.74q1.429-.356,3.176-.914A28.444,28.444,0,0,0,496.443,340l-2.754-1.588c-.981.374-1.989.73-3.033,1.065q-2.351.78-4.265,1.218a20.287,20.287,0,0,1-3.518.513,11.278,11.278,0,0,1-2.953-.227,9.27,9.27,0,0,1-2.569-1.009,5.513,5.513,0,0,1-2.279-2.136,3.446,3.446,0,0,1-.311-2.4,6.06,6.06,0,0,1,1.351-2.517,13.627,13.627,0,0,1,2.764-2.422l-3.159-1.825,3.145-1.818,3.19,1.843q1.424-.675,2.893-1.236c.981-.373,1.954-.715,2.921-1.019s1.9-.576,2.792-.817,1.724-.461,2.482-.656ZM484.3,334.809a1.965,1.965,0,0,0,1.159.213,8.588,8.588,0,0,0,1.728-.363l-2.377-1.375C483.861,333.95,483.693,334.46,484.3,334.809Zm15.046,2.506a2.071,2.071,0,0,0-1.239-.167,10.342,10.342,0,0,0-1.839.391l2.317,1.337a2.676,2.676,0,0,0,1.023-.953A.457.457,0,0,0,499.343,337.315Z" transform="translate(-474.671 -324.97)"/></g><path class="av" d="M494.872,329.783q-1.3.251-2.7.621-1.209.3-2.586.754t-2.638,1l2.817,1.626c.276-.112.583-.223.918-.332s.677-.23,1.03-.359q2.4-.843,4.513-1.414a25.142,25.142,0,0,1,3.986-.768,13.036,13.036,0,0,1,3.553.1,9.871,9.871,0,0,1,3.249,1.194,5.111,5.111,0,0,1,2.335,2.283,3.2,3.2,0,0,1,0,2.453,7.072,7.072,0,0,1-1.759,2.461,19.262,19.262,0,0,1-2.984,2.321l3.783,2.185-3.148,1.815L501.4,343.5a52.414,52.414,0,0,1-6.234,2.625,50.849,50.849,0,0,1-6.457,1.815l-2.045-5c1.065-.2,2.157-.45,3.284-.74q1.429-.356,3.176-.914A28.444,28.444,0,0,0,496.443,340l-2.754-1.588c-.981.374-1.989.73-3.033,1.065q-2.351.78-4.265,1.218a20.287,20.287,0,0,1-3.518.513,11.278,11.278,0,0,1-2.953-.227,9.27,9.27,0,0,1-2.569-1.009,5.513,5.513,0,0,1-2.279-2.136,3.446,3.446,0,0,1-.311-2.4,6.06,6.06,0,0,1,1.351-2.517,13.627,13.627,0,0,1,2.764-2.422l-3.159-1.825,3.145-1.818,3.19,1.843q1.424-.675,2.893-1.236c.981-.373,1.954-.715,2.921-1.019s1.9-.576,2.792-.817,1.724-.461,2.482-.656ZM484.3,334.809a1.965,1.965,0,0,0,1.159.213,8.588,8.588,0,0,0,1.728-.363l-2.377-1.375C483.861,333.95,483.693,334.46,484.3,334.809Zm15.046,2.506a2.071,2.071,0,0,0-1.239-.167,10.342,10.342,0,0,0-1.839.391l2.317,1.337a2.676,2.676,0,0,0,1.023-.953A.457.457,0,0,0,499.343,337.315Z" transform="translate(-445.309 -309.059)"/></g><g transform="translate(79.705 35.348)"><path class="a" d="M559.979,324.005H466.258v13.221h.018c0,.126-.018.251-.018.377,0,15.07,20.979,27.286,46.859,27.286s46.862-12.215,46.862-27.286c0-.126-.014-.251-.017-.377h.017Z" transform="translate(-466.258 -295.893)"/><g class="b" transform="translate(0 38.788)"><path class="ak" d="M466.258,327.291v.377c0-.126.014-.251.018-.377Z" transform="translate(-466.258 -326.499)"/><path class="aw" d="M513.12,354.353c-25.883,0-46.862-12.219-46.862-27.289v2.544h.018c0,.126-.018.251-.018.377,0,15.07,20.979,27.286,46.862,27.286s46.858-12.215,46.858-27.286c0-.126-.014-.251-.017-.377h.017v-2.544C559.979,342.134,539,354.353,513.12,354.353Z" transform="translate(-466.258 -327.064)"/><path class="al" d="M493.124,327.668v-.377h-.018C493.109,327.417,493.124,327.542,493.124,327.668Z" transform="translate(-399.403 -326.499)"/></g><g class="b" transform="translate(2.345 32.75)"><path class="f" d="M483.8,360.263c.447-.08.872-.188,1.312-.279v-34.65H483.8Z" transform="translate(-424.929 -325.334)"/><path class="f" d="M485.484,358.874c.44-.122.883-.237,1.312-.367V325.334h-1.312Z" transform="translate(-420.728 -325.334)"/><path class="f" d="M487.171,356.944c.45-.174.873-.377,1.312-.565V325.334h-1.312Z" transform="translate(-416.527 -325.334)"/><path class="f" d="M482.11,361.111c.44-.045.883-.08,1.316-.136V325.334H482.11Z" transform="translate(-429.13 -325.334)"/><path class="f" d="M490.544,350.3c.447-.359.9-.715,1.312-1.089V325.334h-1.312Z" transform="translate(-408.128 -325.334)"/><path class="f" d="M492.231,343.943a20.513,20.513,0,0,0,1.312-2.324V325.334h-1.312Z" transform="translate(-403.927 -325.334)"/><path class="f" d="M488.857,354.18c.44-.237.893-.468,1.316-.715v-28.13h-1.316Z" transform="translate(-412.329 -325.334)"/><path class="f" d="M480.424,361.506c.436-.014.879-.018,1.312-.038V325.334h-1.312Z" transform="translate(-433.328 -325.334)"/><path class="f" d="M478.737,361.485c.436.017.872.028,1.312.038V325.334h-1.312Z" transform="translate(-437.529 -325.334)"/><path class="f" d="M475.364,360.11c.44.087.865.188,1.312.269V325.334h-1.312Z" transform="translate(-445.928 -325.334)"/><path class="f" d="M477.05,361.048c.433.049.879.073,1.316.115v-35.83H477.05Z" transform="translate(-441.73 -325.334)"/><path class="f" d="M473.677,358.672c.433.126.869.248,1.312.367v-33.7h-1.312Z" transform="translate(-450.129 -325.334)"/><path class="f" d="M466.93,342.788a21.881,21.881,0,0,0,1.312,2.087V325.334H466.93Z" transform="translate(-466.93 -325.334)"/><path class="f" d="M468.617,349.727c.412.352.869.684,1.312,1.026V325.334h-1.312Z" transform="translate(-462.729 -325.334)"/><path class="f" d="M471.99,356.633c.433.178.869.353,1.312.52V325.334H471.99Z" transform="translate(-454.33 -325.334)"/><path class="f" d="M470.3,353.8c.426.241.876.464,1.316.694V325.334H470.3Z" transform="translate(-458.531 -325.334)"/></g><ellipse class="g" cx="46.86" cy="27.288" rx="46.86" ry="27.288" transform="translate(0 1.011)"/><path class="aa" d="M513.117,350.461c-25.328,0-45.909-11.71-46.775-26.34-.021.318-.084.628-.084.95,0,15.07,20.979,27.289,46.859,27.289s46.862-12.219,46.862-27.289c0-.321-.063-.632-.084-.95C559.029,338.752,538.448,350.461,513.117,350.461Z" transform="translate(-466.258 -295.604)"/><ellipse class="s" cx="35.029" cy="20.399" rx="35.029" ry="20.399" transform="translate(11.831 7.9)"/><path class="ax" d="M505.012,320.071c18.711,0,33.952,8.551,34.936,19.3.032-.366.094-.726.094-1.1,0-11.266-15.685-20.4-35.031-20.4s-35.03,9.134-35.03,20.4c0,.37.063.729.1,1.1C471.06,328.622,486.3,320.071,505.012,320.071Z" transform="translate(-456.985 -311.148)"/><path class="ay" d="M504.675,320.4c18.714,0,33.952,8.551,34.936,19.3.035-.363.094-.722.094-1.092,0-11.266-15.685-20.4-35.03-20.4s-35.027,9.134-35.027,20.4c0,.37.059.729.094,1.092C470.723,328.953,485.964,320.4,504.675,320.4Z" transform="translate(-457.816 -310.314)"/><path class="az" d="M486.219,326.843c8.98.96,15.147,12.2,13.772,25.1s-9.776,22.595-18.756,21.635-15.151-12.2-13.776-25.1S477.236,325.886,486.219,326.843Z" transform="translate(-463.743 -288.99)"/><path class="ba" d="M502.825,317.967c10.53,3.584,17.625,10.718,15.852,15.932s-11.751,6.533-22.281,2.949-17.625-10.714-15.849-15.929S492.3,314.382,502.825,317.967Z" transform="translate(-431.354 -315.95)"/><g class="b" transform="translate(29.362 17.076)"><path class="bb" d="M494.872,325.659c-.869.164-1.77.374-2.7.621q-1.209.3-2.586.754t-2.638,1l2.817,1.626c.276-.112.583-.223.918-.332s.677-.23,1.03-.359q2.4-.843,4.513-1.417a25.515,25.515,0,0,1,3.986-.764,12.9,12.9,0,0,1,3.553.1,9.871,9.871,0,0,1,3.249,1.194,5.111,5.111,0,0,1,2.335,2.283,3.2,3.2,0,0,1,0,2.454,7.071,7.071,0,0,1-1.759,2.46,19.249,19.249,0,0,1-2.984,2.318l3.783,2.188-3.148,1.815-3.846-2.22A52.97,52.97,0,0,1,495.162,342a51.415,51.415,0,0,1-6.457,1.811l-2.045-4.994c1.065-.206,2.157-.45,3.284-.74q1.429-.356,3.176-.914a28.417,28.417,0,0,0,3.322-1.284l-2.754-1.588c-.981.374-1.989.726-3.033,1.065q-2.351.78-4.265,1.215a20.318,20.318,0,0,1-3.518.517,11.128,11.128,0,0,1-2.953-.23,9.146,9.146,0,0,1-2.569-1.005,5.534,5.534,0,0,1-2.279-2.136,3.446,3.446,0,0,1-.311-2.4,6.037,6.037,0,0,1,1.351-2.516,13.727,13.727,0,0,1,2.764-2.426l-3.159-1.822,3.145-1.818,3.19,1.843q1.424-.681,2.893-1.239c.981-.37,1.954-.712,2.921-1.016s1.9-.579,2.792-.82,1.724-.457,2.482-.656ZM484.3,330.682a1.936,1.936,0,0,0,1.159.217,8.378,8.378,0,0,0,1.728-.366l-2.377-1.372C483.861,329.827,483.693,330.333,484.3,330.682Zm15.046,2.51a2.07,2.07,0,0,0-1.239-.168,10.037,10.037,0,0,0-1.839.391l2.317,1.337a2.675,2.675,0,0,0,1.023-.953A.457.457,0,0,0,499.343,333.191Z" transform="translate(-474.671 -320.843)"/></g><g transform="translate(29.362 15.91)"><path class="ae" d="M494.872,325.325q-1.3.246-2.7.618-1.209.3-2.586.754t-2.638,1l2.817,1.623c.276-.112.583-.223.918-.332s.677-.227,1.03-.36q2.4-.843,4.513-1.413a25.52,25.52,0,0,1,3.986-.768,13.175,13.175,0,0,1,3.553.1,9.805,9.805,0,0,1,3.249,1.2,5.09,5.09,0,0,1,2.335,2.279,3.2,3.2,0,0,1,0,2.453,7.071,7.071,0,0,1-1.759,2.461,19.272,19.272,0,0,1-2.984,2.321l3.783,2.185-3.148,1.815-3.846-2.22a52.43,52.43,0,0,1-6.234,2.625,50.92,50.92,0,0,1-6.457,1.815l-2.045-5c1.065-.2,2.157-.45,3.284-.74.953-.234,2.01-.541,3.176-.911a29.142,29.142,0,0,0,3.322-1.288l-2.754-1.588c-.981.373-1.989.729-3.033,1.064q-2.351.78-4.265,1.218a19.954,19.954,0,0,1-3.518.513,11.135,11.135,0,0,1-2.953-.227,9.057,9.057,0,0,1-2.569-1.009,5.527,5.527,0,0,1-2.279-2.132,3.456,3.456,0,0,1-.311-2.4,6.027,6.027,0,0,1,1.351-2.513,13.621,13.621,0,0,1,2.764-2.426l-3.159-1.825,3.145-1.818,3.19,1.843q1.424-.675,2.893-1.236t2.921-1.019q1.45-.456,2.792-.817c.9-.241,1.724-.457,2.482-.656ZM484.3,330.348a1.966,1.966,0,0,0,1.159.213,8.588,8.588,0,0,0,1.728-.363l-2.377-1.372C483.861,329.493,483.693,330,484.3,330.348Zm15.046,2.509a2.042,2.042,0,0,0-1.239-.171,10.109,10.109,0,0,0-1.839.394l2.317,1.337a2.705,2.705,0,0,0,1.023-.956C499.7,333.213,499.615,333.014,499.343,332.857Z" transform="translate(-474.671 -320.509)"/></g><path class="ap" d="M494.872,325.325q-1.3.246-2.7.618-1.209.3-2.586.754t-2.638,1l2.817,1.623c.276-.112.583-.223.918-.332s.677-.227,1.03-.36q2.4-.843,4.513-1.413a25.52,25.52,0,0,1,3.986-.768,13.175,13.175,0,0,1,3.553.1,9.805,9.805,0,0,1,3.249,1.2,5.09,5.09,0,0,1,2.335,2.279,3.2,3.2,0,0,1,0,2.453,7.071,7.071,0,0,1-1.759,2.461,19.272,19.272,0,0,1-2.984,2.321l3.783,2.185-3.148,1.815-3.846-2.22a52.43,52.43,0,0,1-6.234,2.625,50.92,50.92,0,0,1-6.457,1.815l-2.045-5c1.065-.2,2.157-.45,3.284-.74.953-.234,2.01-.541,3.176-.911a29.142,29.142,0,0,0,3.322-1.288l-2.754-1.588c-.981.373-1.989.729-3.033,1.064q-2.351.78-4.265,1.218a19.954,19.954,0,0,1-3.518.513,11.135,11.135,0,0,1-2.953-.227,9.057,9.057,0,0,1-2.569-1.009,5.527,5.527,0,0,1-2.279-2.132,3.456,3.456,0,0,1-.311-2.4,6.027,6.027,0,0,1,1.351-2.513,13.621,13.621,0,0,1,2.764-2.426l-3.159-1.825,3.145-1.818,3.19,1.843q1.424-.675,2.893-1.236t2.921-1.019q1.45-.456,2.792-.817c.9-.241,1.724-.457,2.482-.656ZM484.3,330.348a1.966,1.966,0,0,0,1.159.213,8.588,8.588,0,0,0,1.728-.363l-2.377-1.372C483.861,329.493,483.693,330,484.3,330.348Zm15.046,2.509a2.042,2.042,0,0,0-1.239-.171,10.109,10.109,0,0,0-1.839.394l2.317,1.337a2.705,2.705,0,0,0,1.023-.956C499.7,333.213,499.615,333.014,499.343,332.857Z" transform="translate(-445.309 -304.599)"/></g><g transform="translate(9.646 89.06)"><path class="a" d="M539.906,339.394h-93.72v13.224h.014c0,.125-.014.248-.014.373,0,15.074,20.979,27.289,46.859,27.289s46.862-12.215,46.862-27.289c0-.126-.014-.248-.017-.373h.017Z" transform="translate(-446.184 -311.285)"/><g class="b" transform="translate(0.001 38.789)"><path class="bc" d="M446.185,342.681v.377c0-.126.01-.251.014-.377Z" transform="translate(-446.185 -341.889)"/><path class="d" d="M493.044,369.743c-25.879,0-46.859-12.219-46.859-27.289V345h.014c0,.125-.014.248-.014.373,0,15.074,20.979,27.289,46.859,27.289S539.9,360.446,539.9,345.372c0-.126-.01-.248-.014-.373h.014v-2.544C539.9,357.524,518.923,369.743,493.044,369.743Z" transform="translate(-446.185 -342.454)"/><path class="bd" d="M473.047,343.058v-.377h-.014C473.036,342.807,473.047,342.932,473.047,343.058Z" transform="translate(-379.33 -341.889)"/></g><g class="b" transform="translate(2.343 32.751)"><path class="f" d="M463.724,375.653c.443-.084.873-.188,1.312-.279v-34.65h-1.312Z" transform="translate(-404.852 -340.724)"/><path class="f" d="M465.41,374.264c.44-.122.886-.237,1.316-.37v-33.17H465.41Z" transform="translate(-400.654 -340.724)"/><path class="f" d="M467.1,372.334c.454-.178.872-.38,1.316-.566V340.724H467.1Z" transform="translate(-396.453 -340.724)"/><path class="f" d="M462.037,376.5c.436-.046.88-.084,1.312-.136V340.724h-1.312Z" transform="translate(-409.053 -340.724)"/><path class="f" d="M470.471,365.682c.447-.359.893-.715,1.312-1.085V340.724h-1.312Z" transform="translate(-388.051 -340.724)"/><path class="f" d="M472.157,359.333a20.6,20.6,0,0,0,1.316-2.328V340.724h-1.316Z" transform="translate(-383.853 -340.724)"/><path class="f" d="M468.784,369.57c.436-.238.89-.468,1.312-.716v-28.13h-1.312Z" transform="translate(-392.252 -340.724)"/><path class="f" d="M460.35,376.892c.44-.01.879-.017,1.316-.038v-36.13H460.35Z" transform="translate(-413.254 -340.724)"/><path class="f" d="M458.663,376.871c.436.017.876.028,1.316.039V340.724h-1.316Z" transform="translate(-417.455 -340.724)"/><path class="f" d="M455.29,375.5c.44.087.869.188,1.312.269V340.724H455.29Z" transform="translate(-425.854 -340.724)"/><path class="f" d="M456.977,376.439c.43.049.876.073,1.312.115v-35.83h-1.312Z" transform="translate(-421.653 -340.724)"/><path class="f" d="M453.6,374.058c.436.129.872.251,1.316.37v-33.7H453.6Z" transform="translate(-430.055 -340.724)"/><path class="f" d="M446.856,358.175a21.558,21.558,0,0,0,1.316,2.091V340.724h-1.316Z" transform="translate(-446.856 -340.724)"/><path class="f" d="M448.543,365.116c.415.353.873.684,1.312,1.023V340.724h-1.312Z" transform="translate(-442.655 -340.724)"/><path class="f" d="M451.917,372.023c.433.178.869.349,1.312.52v-31.82h-1.312Z" transform="translate(-434.253 -340.724)"/><path class="f" d="M450.23,369.186c.422.241.876.464,1.312.694V340.724H450.23Z" transform="translate(-438.454 -340.724)"/></g><ellipse class="g" cx="46.86" cy="27.288" rx="46.86" ry="27.288" transform="translate(0 1.011)"/><path class="r" d="M493.044,365.851c-25.331,0-45.913-11.713-46.778-26.34-.017.318-.08.628-.08.949,0,15.07,20.979,27.286,46.859,27.286s46.862-12.215,46.862-27.286c0-.321-.066-.632-.084-.949C538.956,354.138,518.375,365.851,493.044,365.851Z" transform="translate(-446.184 -310.993)"/><ellipse class="s" cx="35.029" cy="20.399" rx="35.029" ry="20.399" transform="translate(11.831 7.9)"/><path class="t" d="M484.939,335.457c18.711,0,33.952,8.551,34.933,19.3.035-.363.094-.722.094-1.092,0-11.266-15.681-20.4-35.027-20.4s-35.03,9.134-35.03,20.4c0,.37.059.729.094,1.092C450.987,344.008,466.226,335.457,484.939,335.457Z" transform="translate(-436.91 -326.537)"/><path class="u" d="M484.6,335.792c18.711,0,33.952,8.551,34.936,19.3.031-.366.094-.726.094-1.1,0-11.266-15.685-20.4-35.031-20.4s-35.031,9.13-35.031,20.4c0,.37.063.73.1,1.1C450.653,344.343,465.894,335.792,484.6,335.792Z" transform="translate(-437.744 -325.702)"/><path class="be" d="M469.455,344.9c10.53,3.584,17.625,10.718,15.852,15.929s-11.751,6.537-22.281,2.953-17.625-10.715-15.852-15.929S458.925,341.315,469.455,344.9Z" transform="translate(-444.398 -302.599)"/><path class="bf" d="M482.755,333.357c10.526,3.581,17.625,10.715,15.849,15.929s-11.748,6.537-22.278,2.953-17.629-10.718-15.852-15.933S472.225,329.773,482.755,333.357Z" transform="translate(-411.282 -331.34)"/><g class="b" transform="translate(29.363 17.077)"><path class="m" d="M474.8,341.049q-1.3.246-2.7.621-1.209.3-2.59.754c-.918.3-1.8.635-2.635,1l2.813,1.626c.279-.115.586-.223.918-.335s.681-.227,1.033-.359c1.595-.562,3.1-1.033,4.513-1.414a25.425,25.425,0,0,1,3.986-.764,12.9,12.9,0,0,1,3.553.1,9.7,9.7,0,0,1,3.246,1.194,5.1,5.1,0,0,1,2.338,2.279,3.2,3.2,0,0,1,0,2.457,7.184,7.184,0,0,1-1.759,2.457,19.245,19.245,0,0,1-2.987,2.321l3.787,2.185-3.148,1.818-3.846-2.223a51.894,51.894,0,0,1-6.237,2.625,50.756,50.756,0,0,1-6.457,1.815l-2.042-5c1.061-.2,2.153-.45,3.281-.736q1.429-.356,3.18-.914a28.174,28.174,0,0,0,3.319-1.288l-2.75-1.588q-1.471.56-3.036,1.065-2.345.78-4.265,1.218a19.92,19.92,0,0,1-3.514.513,10.989,10.989,0,0,1-2.953-.227,9.085,9.085,0,0,1-2.572-1.009A5.551,5.551,0,0,1,455,349.1a3.454,3.454,0,0,1-.307-2.4,5.95,5.95,0,0,1,1.351-2.513,13.7,13.7,0,0,1,2.761-2.426l-3.159-1.825,3.148-1.815,3.19,1.839q1.424-.675,2.893-1.236t2.921-1.016q1.445-.461,2.792-.82t2.482-.656Zm-10.579,5.022a1.981,1.981,0,0,0,1.162.216,8.91,8.91,0,0,0,1.724-.367l-2.373-1.372Q463.315,345.55,464.221,346.072Zm15.046,2.509a2.051,2.051,0,0,0-1.235-.171,10.34,10.34,0,0,0-1.839.394l2.314,1.337a2.664,2.664,0,0,0,1.026-.953A.462.462,0,0,0,479.267,348.581Z" transform="translate(-454.598 -336.233)"/></g><g transform="translate(29.363 15.908)"><path class="w" d="M474.8,340.714c-.869.164-1.77.374-2.7.621q-1.209.3-2.59.754t-2.635,1l2.813,1.626c.279-.112.586-.223.918-.331s.681-.23,1.033-.359c1.595-.562,3.1-1.033,4.513-1.414a25.059,25.059,0,0,1,3.986-.768,12.893,12.893,0,0,1,3.553.1,9.854,9.854,0,0,1,3.246,1.194,5.121,5.121,0,0,1,2.338,2.283,3.2,3.2,0,0,1,0,2.453,7.161,7.161,0,0,1-1.759,2.46,19.448,19.448,0,0,1-2.987,2.318l3.787,2.188-3.148,1.815-3.846-2.22a53.026,53.026,0,0,1-6.237,2.624,50.659,50.659,0,0,1-6.457,1.811l-2.042-4.994c1.061-.206,2.153-.45,3.281-.74q1.429-.356,3.18-.914a28.124,28.124,0,0,0,3.319-1.284l-2.75-1.588c-.981.373-1.993.726-3.036,1.065q-2.345.78-4.265,1.218a20.6,20.6,0,0,1-3.514.513,11.127,11.127,0,0,1-2.953-.23,9.171,9.171,0,0,1-2.572-1.005A5.556,5.556,0,0,1,455,348.77a3.445,3.445,0,0,1-.307-2.4,5.982,5.982,0,0,1,1.351-2.516,13.813,13.813,0,0,1,2.761-2.426l-3.159-1.822,3.148-1.818,3.19,1.843q1.424-.681,2.893-1.239c.981-.37,1.955-.712,2.921-1.016s1.9-.576,2.792-.817,1.721-.461,2.482-.659Zm-10.579,5.022a1.953,1.953,0,0,0,1.162.216,8.4,8.4,0,0,0,1.724-.366l-2.373-1.372Q463.315,345.215,464.221,345.737Zm15.046,2.509a2.055,2.055,0,0,0-1.235-.167,10.272,10.272,0,0,0-1.839.391l2.314,1.337a2.665,2.665,0,0,0,1.026-.953A.462.462,0,0,0,479.267,348.246Z" transform="translate(-454.598 -335.898)"/></g><path class="bg" d="M474.8,340.714c-.869.164-1.77.374-2.7.621q-1.209.3-2.59.754t-2.635,1l2.813,1.626c.279-.112.586-.223.918-.331s.681-.23,1.033-.359c1.595-.562,3.1-1.033,4.513-1.414a25.059,25.059,0,0,1,3.986-.768,12.893,12.893,0,0,1,3.553.1,9.854,9.854,0,0,1,3.246,1.194,5.121,5.121,0,0,1,2.338,2.283,3.2,3.2,0,0,1,0,2.453,7.161,7.161,0,0,1-1.759,2.46,19.448,19.448,0,0,1-2.987,2.318l3.787,2.188-3.148,1.815-3.846-2.22a53.026,53.026,0,0,1-6.237,2.624,50.659,50.659,0,0,1-6.457,1.811l-2.042-4.994c1.061-.206,2.153-.45,3.281-.74q1.429-.356,3.18-.914a28.124,28.124,0,0,0,3.319-1.284l-2.75-1.588c-.981.373-1.993.726-3.036,1.065q-2.345.78-4.265,1.218a20.6,20.6,0,0,1-3.514.513,11.127,11.127,0,0,1-2.953-.23,9.171,9.171,0,0,1-2.572-1.005A5.556,5.556,0,0,1,455,348.77a3.445,3.445,0,0,1-.307-2.4,5.982,5.982,0,0,1,1.351-2.516,13.813,13.813,0,0,1,2.761-2.426l-3.159-1.822,3.148-1.818,3.19,1.843q1.424-.681,2.893-1.239c.981-.37,1.955-.712,2.921-1.016s1.9-.576,2.792-.817,1.721-.461,2.482-.659Zm-10.579,5.022a1.953,1.953,0,0,0,1.162.216,8.4,8.4,0,0,0,1.724-.366l-2.373-1.372Q463.315,345.215,464.221,345.737Zm15.046,2.509a2.055,2.055,0,0,0-1.235-.167,10.272,10.272,0,0,0-1.839.391l2.314,1.337a2.665,2.665,0,0,0,1.026-.953A.462.462,0,0,0,479.267,348.246Z" transform="translate(-425.235 -319.99)"/></g></svg>