<svg xmlns="http://www.w3.org/2000/svg" xmlns:xlink="http://www.w3.org/1999/xlink" width="221.137" height="187.161" viewBox="0 0 221.137 187.161"><defs><style>.a,.d,.h,.j,.l,.q,.r,.v,.w,.x{isolation:isolate;}.b{fill:url(#a);}.c{fill:url(#b);}.d,.l,.q,.w,.x{mix-blend-mode:color-dodge;}.d{fill:url(#c);}.e{fill:url(#d);}.f{fill:url(#e);}.g{fill:url(#f);}.h,.j,.r{mix-blend-mode:multiply;}.h{fill:url(#g);}.i{fill:url(#h);}.j{fill:url(#i);}.k{fill:url(#j);}.l{fill:url(#k);}.m{fill:url(#l);}.n{fill:url(#m);}.o{fill:url(#o);}.p{fill:url(#p);}.q{fill:url(#q);}.r{fill:url(#r);}.s{fill:url(#s);}.t{fill:url(#t);}.u{fill:url(#u);}.v{mix-blend-mode:screen;fill:url(#v);}.w{fill:url(#w);}.x{fill:url(#x);}</style><linearGradient id="a" x1="0.13" y1="0.072" x2="0.98" y2="0.846" gradientUnits="objectBoundingBox"><stop offset="0.045" stop-color="#8566bd"/><stop offset="0.611" stop-color="#8969c3"/><stop offset="0.711" stop-color="#8c6bc3"/><stop offset="0.808" stop-color="#9874c6"/><stop offset="0.904" stop-color="#ac83cb"/><stop offset="0.919" stop-color="#b086cc"/><stop offset="0.952" stop-color="#ad84cb"/><stop offset="0.973" stop-color="#a47dc9"/><stop offset="0.991" stop-color="#9572c6"/><stop offset="1" stop-color="#8b6bc4"/></linearGradient><linearGradient id="b" x1="1.095" y1="0.86" x2="0.008" y2="0.201" gradientUnits="objectBoundingBox"><stop offset="0.056" stop-color="#d1b4e3"/><stop offset="0.083" stop-color="#cfb1e1"/><stop offset="0.423" stop-color="#be99d5"/><stop offset="0.738" stop-color="#b38bce"/><stop offset="1" stop-color="#b086cc"/></linearGradient><radialGradient id="c" cx="1.73" cy="0.671" r="0.373" gradientTransform="translate(-0.991) scale(2.983 1)" gradientUnits="objectBoundingBox"><stop offset="0" stop-color="#fff"/><stop offset="1"/></radialGradient><linearGradient id="d" x1="-0.076" y1="0.543" x2="3.82" y2="0.254" gradientUnits="objectBoundingBox"><stop offset="0.035" stop-color="#6b24d6"/><stop offset="0.294" stop-color="#7733dc"/><stop offset="0.794" stop-color="#965bec"/><stop offset="1" stop-color="#a56ef4"/></linearGradient><linearGradient id="e" x1="-1.396" y1="0.712" x2="2.478" y2="0.279" xlink:href="#d"/><linearGradient id="f" x1="0.735" y1="-0.275" x2="0.466" y2="0.61" xlink:href="#d"/><radialGradient id="g" cx="0.412" cy="0.158" r="0.377" gradientTransform="translate(-0.845) scale(2.69 1)" gradientUnits="objectBoundingBox"><stop offset="0" stop-color="#8770b8"/><stop offset="1" stop-color="#fff"/></radialGradient><linearGradient id="h" x1="0.268" y1="0.069" x2="0.793" y2="0.872" gradientUnits="objectBoundingBox"><stop offset="0" stop-color="#5c1ccc"/><stop offset="0.027" stop-color="#6223cf"/><stop offset="0.067" stop-color="#7437d9"/><stop offset="0.115" stop-color="#9258e9"/><stop offset="0.141" stop-color="#a56ef4"/><stop offset="0.227" stop-color="#c994ff"/><stop offset="0.284" stop-color="#ae79ef"/><stop offset="0.379" stop-color="#7945d1"/><stop offset="0.54" stop-color="#4916a1"/><stop offset="0.623" stop-color="#4b16a4"/><stop offset="0.695" stop-color="#5219af"/><stop offset="0.762" stop-color="#5d1ec0"/><stop offset="0.818" stop-color="#6b24d6"/><stop offset="0.943" stop-color="#5b1dbc"/><stop offset="1" stop-color="#531ab0"/></linearGradient><radialGradient id="i" cx="0.302" cy="0.605" r="0.731" gradientTransform="translate(-0.066) scale(1.132 1)" gradientUnits="objectBoundingBox"><stop offset="0.581" stop-color="#fff"/><stop offset="0.641" stop-color="#faf9fc"/><stop offset="0.714" stop-color="#eeebf5"/><stop offset="0.792" stop-color="#dad2e9"/><stop offset="0.875" stop-color="#bdb1d8"/><stop offset="0.961" stop-color="#9985c2"/><stop offset="1" stop-color="#8770b8"/></radialGradient><linearGradient id="j" y1="0.5" x2="1" y2="0.5" gradientUnits="objectBoundingBox"><stop offset="0.035" stop-color="#a56ef4"/><stop offset="0.364" stop-color="#c994ff"/><stop offset="0.538" stop-color="#b279f5"/><stop offset="0.912" stop-color="#7935dc"/><stop offset="1" stop-color="#6b24d6"/></linearGradient><radialGradient id="k" cx="0.5" cy="0.5" r="0.424" gradientTransform="translate(-0.257) scale(1.514 1)" xlink:href="#c"/><linearGradient id="l" x1="0.403" y1="0.103" x2="0.736" y2="0.699" gradientUnits="objectBoundingBox"><stop offset="0.01" stop-color="#c1a1d5"/><stop offset="0.049" stop-color="#c7abd9"/><stop offset="0.115" stop-color="#d9c6e5"/><stop offset="0.2" stop-color="#f6f2f9"/><stop offset="0.222" stop-color="#fff"/><stop offset="0.251" stop-color="#f9f5fb"/><stop offset="0.3" stop-color="#e9dbf1"/><stop offset="0.359" stop-color="#d1b4e3"/><stop offset="0.426" stop-color="#b294d5"/><stop offset="0.495" stop-color="#9b7ccb"/><stop offset="0.558" stop-color="#8d6ec5"/><stop offset="0.611" stop-color="#8969c3"/><stop offset="0.755" stop-color="#9371c5"/><stop offset="1" stop-color="#b086cc"/></linearGradient><linearGradient id="m" x1="0.178" y1="-0.004" x2="0.909" y2="0.94" xlink:href="#h"/><linearGradient id="o" x1="0.841" y1="0.959" x2="0.14" y2="0.015" xlink:href="#l"/><linearGradient id="p" x1="0.81" y1="1.035" x2="0.013" y2="0.093" gradientUnits="objectBoundingBox"><stop offset="0" stop-color="#5c1ccc"/><stop offset="0.227" stop-color="#ba85ff"/><stop offset="0.379" stop-color="#7945d1"/><stop offset="0.54" stop-color="#4916a1"/><stop offset="0.614" stop-color="#4b16a4"/><stop offset="0.678" stop-color="#5219af"/><stop offset="0.738" stop-color="#5d1ec0"/><stop offset="0.788" stop-color="#6b24d6"/><stop offset="0.934" stop-color="#5b1dbc"/><stop offset="1" stop-color="#531ab0"/></linearGradient><radialGradient id="q" cx="0.5" cy="0.5" r="0.423" gradientTransform="translate(-0.262) scale(1.523 1)" xlink:href="#c"/><radialGradient id="r" cx="1.006" cy="0.303" r="0.644" gradientTransform="translate(-0.142) scale(1.285 1)" xlink:href="#g"/><linearGradient id="s" x1="0.747" y1="0.925" x2="0.251" y2="0.258" gradientUnits="objectBoundingBox"><stop offset="0.035" stop-color="#1e1f21"/><stop offset="0.239" stop-color="#101011"/><stop offset="0.268" stop-color="#0e0e0f"/><stop offset="0.345" stop-color="#131314"/><stop offset="0.448" stop-color="#222325"/><stop offset="0.564" stop-color="#3b3d41"/><stop offset="0.687" stop-color="#5d6066"/><stop offset="1" stop-color="#37383c"/></linearGradient><linearGradient id="t" y1="0.5" x2="1" y2="0.5" gradientUnits="objectBoundingBox"><stop offset="0.035" stop-color="#1e1f21"/><stop offset="0.31" stop-color="#2c2d30"/><stop offset="0.84" stop-color="#505358"/><stop offset="1" stop-color="#5d6066"/></linearGradient><linearGradient id="u" x1="0" y1="0.5" x2="1" y2="0.5" xlink:href="#b"/><radialGradient id="v" cx="0.5" cy="0.5" r="0.424" gradientTransform="translate(-0.257) scale(1.514 1)" xlink:href="#c"/><radialGradient id="w" cx="0.5" cy="0.5" r="0.309" gradientTransform="matrix(-0.256, -0.898, 1.597, -1.345, 133.365, 878.846)" gradientUnits="objectBoundingBox"><stop offset="0" stop-color="#972a74"/><stop offset="0.041" stop-color="#8a266a"/><stop offset="0.194" stop-color="#601a49"/><stop offset="0.35" stop-color="#3d112f"/><stop offset="0.507" stop-color="#22091a"/><stop offset="0.667" stop-color="#0f040b"/><stop offset="0.829" stop-color="#030102"/><stop offset="1"/></radialGradient><radialGradient id="x" cx="0.5" cy="0.5" r="0.306" gradientTransform="matrix(0.53, -0.784, 1.548, 1.436, 67.322, 24.106)" xlink:href="#w"/></defs><g class="a"><g transform="translate(141.358 78.167)"><path class="b" d="M580.636,238.823l-.085-.66c-1.806-14.17-8.228-25-8.228-38.29V183.94l-22.687-13.1-12.2,7.267s16.778,32.136,14.917,44.386a16.025,16.025,0,0,0,7.274,12.547l.2.115L561.93,253l16.009-9.251C579.582,243.169,580.636,241.442,580.636,238.823Z" transform="translate(-534.637 -170.841)"/><path class="c" d="M555.914,252.507l-13.736-7.93a16.033,16.033,0,0,1-7.274-12.547h0a257.472,257.472,0,0,0,2.8-38.678V177.415l22.687,13.1v15.934A327.008,327.008,0,0,0,563.1,247.7l.084.659C563.187,252.971,559.932,254.827,555.914,252.507Z" transform="translate(-534.904 -170.148)"/><path class="d" d="M563.383,247.428a326.809,326.809,0,0,1-2.715-41.254V190.24l-22.688-13.1v1.147l21.483,12.4v15.934a326.6,326.6,0,0,0,2.714,41.254l.084.66c0,2.262-.788,3.857-2.062,4.625,1.967-.359,3.268-2.168,3.268-5.077Z" transform="translate(-534.58 -170.177)"/><g transform="translate(7.701 28.32)"><path class="e" d="M551.3,202.124l-1.94,15.738,4.229-2.442V200.743Z" transform="translate(-541.081 -196.009)"/><path class="f" d="M552.1,202.447l-1.94,15.738L541.87,213.5l1.94-15.819Z" transform="translate(-541.87 -196.331)"/><path class="g" d="M543.625,197.813l8.286,4.763,2.278-1.382-8.306-4.734Z" transform="translate(-541.685 -196.46)"/></g><path class="h" d="M555.914,252.507l-13.736-7.93a16.033,16.033,0,0,1-7.274-12.547h0a257.472,257.472,0,0,0,2.8-38.678V177.415l22.687,13.1v15.934A327.008,327.008,0,0,0,563.1,247.7l.084.659C563.187,252.971,559.932,254.827,555.914,252.507Z" transform="translate(-534.904 -170.148)"/></g><g transform="translate(134.093 0)"><path class="i" d="M614.711,155.307c0,9.173-3.166,15.67-8.311,18.815-.156.1-26.878,15.835-27.035,15.924-5.355,2.993-1.93-3.8-10.062-8.494-16.366-9.449-29.633-32.331-29.633-51.11,0-9.286-8.584-9.361-3.324-12.461.144-.086,27.9-15.988,28.048-16.07,5.34-2.891,12.638-2.359,20.686,2.287C601.445,113.646,614.711,136.528,614.711,155.307Z" transform="translate(-527.667 -100.129)"/><path class="j" d="M614.711,155.307c0,9.173-3.166,15.67-8.311,18.815-.156.1-26.878,15.835-27.035,15.924-5.355,2.993-1.93-3.8-10.062-8.494-16.366-9.449-29.633-32.331-29.633-51.11,0-9.286-8.584-9.361-3.324-12.461.144-.086,27.9-15.988,28.048-16.07,5.34-2.891,12.638-2.359,20.686,2.287C601.445,113.646,614.711,136.528,614.711,155.307Z" transform="translate(-527.667 -100.129)"/><path class="k" d="M587.595,169.927c0,18.778-13.266,26.342-29.63,16.894s-29.633-32.331-29.633-51.11,13.267-26.342,29.633-16.894S587.595,151.148,587.595,169.927Z" transform="translate(-528.332 -98.588)"/><path class="l" d="M558.357,118.173c-7.844-4.529-14.972-5.139-20.273-2.489,4.942-1.382,11.074-.349,17.714,3.484,16.366,9.449,29.631,32.331,29.631,51.11,0,9.776-3.6,16.5-9.357,19.384,7.234-2.023,11.918-9.221,11.918-20.38C587.989,150.5,574.723,127.622,558.357,118.173Z" transform="translate(-527.304 -98.655)"/></g><g transform="translate(35.154 19.649)"><path class="m" d="M592.438,171.508c0,8.912-3.074,15.223-8.074,18.278-.032.02-4.729,2.746-11.375,6.6a151.319,151.319,0,0,0-62.743,69.831c-.039.085-.059.129-.061.13-8.789,4.916-79.26-113.224-70.626-118.314l.035,0a154.013,154.013,0,0,0,88.637-19.609l15.326-8.794c5.189-2.809,12.279-2.29,20.1,2.222C579.551,131.036,592.438,153.265,592.438,171.508Z" transform="translate(-438.828 -117.904)"/></g><g transform="translate(0 48.601)"><path class="n" d="M519.206,240.143c0,15.967-5.512,27.276-14.468,32.751-.27.164-8.606,5.454-8.882,5.608-9.319,5.211-3.36-6.614-17.513-14.785-28.486-16.446-51.578-56.278-51.578-88.965,0-16.162-14.943-16.294-5.791-21.691.255-.15,10.388-5.723,10.647-5.863,9.294-5.034,22-4.107,36.006,3.98C496.113,167.625,519.206,207.456,519.206,240.143Z" transform="translate(-405.87 -144.095)"/><path class="k" d="M510.184,245.59c0,32.688-23.092,45.854-51.579,29.407s-51.578-56.277-51.578-88.964,23.093-45.854,51.578-29.408S510.184,212.9,510.184,245.59Z" transform="translate(-407.027 -143.52)"/><path class="o" d="M506.5,243.239c0,30.558-21.589,42.867-48.22,27.492s-48.218-52.611-48.218-83.17,21.589-42.868,48.218-27.492S506.5,212.681,506.5,243.239Z" transform="translate(-406.707 -143.109)"/><path class="p" d="M467.77,266.711c-26.631-15.375-48.218-52.613-48.218-83.171,0-14.086,4.594-24.282,12.149-29.688-13.034,2.38-21.634,14.385-21.634,33.667,0,30.558,21.589,67.794,48.218,83.17,14.355,8.287,27.238,8.518,36.07,2.2C486.732,274.278,477.6,272.385,467.77,266.711Z" transform="translate(-406.707 -143.066)"/><path class="q" d="M458.332,155.375c-13.656-7.884-27.786-7.357-34.33-4.261,8.6-2.407,20.759-.953,32.32,5.723C484.808,173.282,507.9,213.113,507.9,245.8c0,17.018-7.753,29.071-17.776,34.081,10.515-3.888,19.786-16.121,19.786-35.543C509.91,211.652,486.816,171.821,458.332,155.375Z" transform="translate(-405.237 -143.577)"/><path class="r" d="M506.5,243.239c0,30.558-21.589,42.867-48.22,27.492s-48.218-52.611-48.218-83.17,21.589-42.868,48.218-27.492S506.5,212.681,506.5,243.239Z" transform="translate(-406.707 -143.109)"/></g><g transform="translate(52.701 90.685)"><path class="s" d="M480.434,182.165c-3.022,2.462-23.478,19.212-23.516,19.234-1.454.858.921.879.921,3.447,0,5.194,3.668,11.523,8.195,14.137,2.248,1.3,1.3,3.177,2.783,2.349.038-.021,21.347-8.161,27.144-10.384A116.737,116.737,0,0,0,480.434,182.165Z" transform="translate(-454.518 -182.165)"/><path class="t" d="M471.094,214.4c0,5.193-3.67,7.286-8.2,4.673s-8.2-8.944-8.2-14.137,3.67-7.286,8.2-4.671S471.094,209.21,471.094,214.4Z" transform="translate(-454.702 -180.375)"/><path class="u" d="M468.285,212.609c0,3.569-2.521,5.006-5.631,3.21a12.406,12.406,0,0,1-5.632-9.712c0-3.569,2.521-5.006,5.632-3.211A12.41,12.41,0,0,1,468.285,212.609Z" transform="translate(-454.457 -180.061)"/><path class="v" d="M463.008,200.089c-2.17-1.252-4.141-1.422-5.608-.689a6.455,6.455,0,0,1,4.9.964c4.527,2.614,8.2,8.943,8.2,14.137,0,2.7-.995,4.564-2.589,5.361,2-.559,3.3-2.55,3.3-5.637C471.2,209.032,467.532,202.7,463.008,200.089Z" transform="translate(-454.418 -180.394)"/></g><path class="w" d="M562.135,112.034c11.566-5.663,22.442-7.186,24.295-3.4s-6.023,11.437-17.592,17.1-22.443,7.186-24.294,3.4S550.569,117.695,562.135,112.034Z" transform="translate(-392.558 -99.452)"/><path class="x" d="M463.265,236.545c14.148,11.2,21.692,25.242,16.849,31.36s-20.239,1.994-34.387-9.208-21.694-25.242-16.85-31.36S449.116,225.343,463.265,236.545Z" transform="translate(-404.878 -87.017)"/></g></svg>