<svg xmlns="http://www.w3.org/2000/svg" xmlns:xlink="http://www.w3.org/1999/xlink" width="491.629" height="451.75" viewBox="0 0 491.629 451.75"><defs><linearGradient id="a" y1="0.5" x2="1" y2="0.5" gradientUnits="objectBoundingBox"><stop offset="0" stop-color="#42e8e0"/><stop offset="0.106" stop-color="#36b5bf"/><stop offset="0.22" stop-color="#2c87a0"/><stop offset="0.338" stop-color="#235f86"/><stop offset="0.459" stop-color="#1b3e71"/><stop offset="0.582" stop-color="#162560"/><stop offset="0.711" stop-color="#121355"/><stop offset="0.846" stop-color="#0f084e"/><stop offset="1" stop-color="#0f054c"/></linearGradient><linearGradient id="c" x1="-8.468" y1="17.591" x2="-7.771" y2="17.591" gradientUnits="objectBoundingBox"><stop offset="0" stop-color="#c0bff6"/><stop offset="0.294" stop-color="#c4c3f6"/><stop offset="0.64" stop-color="#d2d2f9"/><stop offset="1" stop-color="#e9e9fd"/></linearGradient><linearGradient id="d" x1="-13.229" y1="0.5" x2="-12.712" y2="0.5" gradientUnits="objectBoundingBox"><stop offset="0.355" stop-color="#bcbeff"/><stop offset="0.444" stop-color="#b5b7fc"/><stop offset="0.569" stop-color="#a2a6f5"/><stop offset="0.718" stop-color="#848ae8"/><stop offset="0.881" stop-color="#5a63d8"/><stop offset="0.892" stop-color="#5761d7"/></linearGradient><linearGradient id="e" x1="-8.267" y1="17.133" x2="-7.572" y2="17.133" gradientUnits="objectBoundingBox"><stop offset="0" stop-color="#e9e9fd"/><stop offset="0.36" stop-color="#d2d2f9"/><stop offset="0.706" stop-color="#c4c3f6"/><stop offset="1" stop-color="#c0bff6"/></linearGradient><linearGradient id="f" x1="-8.681" y1="17.591" x2="-7.984" y2="17.591" xlink:href="#c"/><linearGradient id="h" x1="-8.521" y1="17.133" x2="-7.825" y2="17.133" xlink:href="#e"/><linearGradient id="i" y1="0.5" x2="1" y2="0.5" gradientUnits="objectBoundingBox"><stop offset="0" stop-color="#5761d7"/><stop offset="0.073" stop-color="#5471d8"/><stop offset="0.279" stop-color="#4d9bda"/><stop offset="0.48" stop-color="#48bddd"/><stop offset="0.672" stop-color="#44d4de"/><stop offset="0.849" stop-color="#42e3df"/><stop offset="1" stop-color="#42e8e0"/></linearGradient><linearGradient id="k" x1="0" y1="0.5" x2="1" y2="0.5" xlink:href="#i"/><linearGradient id="o" x1="0" y1="0.5" x2="1" y2="0.5" xlink:href="#i"/><linearGradient id="p" x1="0" y1="0.5" x2="1" y2="0.5" xlink:href="#i"/><clipPath id="r"><path d="M416.406,325.341l17.047,9.825,67.885-39.193V220.6l-84.931,49.035Z" transform="translate(-416.406 -220.601)" fill="none"/></clipPath></defs><g transform="translate(28.471)"><path d="M340.215,143.818l21.645,12.5c6.5,3.755,12.293,2.348,14.435-3.5L419.1,35.851c4.889-13.357,24.867-1.281,29.09,17.587l26.356,117.711c1.926,8.6,7.888,17.183,14.655,21.09l6.294,3.634c6.117,3.532,11.646,2.513,14.054-2.59l8.721-18.477c5.405-11.453,23.418-.65,28.33,16.991h0c2.264,8.137,7.943,15.924,14.275,19.581l5.5,3.173c6.668,3.85,12.568,2.266,14.578-3.913l7.944-24.42c4.484-13.784,24.521-2.306,29.117,16.678l26.375,108.97c2.074,8.565,8.064,16.969,14.772,20.724l30.455,17.05Z" transform="translate(-245.276 -29.828)" opacity="0.5" fill="url(#a)" style="mix-blend-mode:lighten;isolation:isolate"/><path d="M689.5,350.086l-30.455-17.052c-6.832-3.825-12.839-12.247-14.947-20.955L617.722,203.11c-3.117-12.883-13.478-22.176-20.825-22.46-.121,0-.242-.008-.361-.008-3.5,0-5.991,2-7.232,5.816l-7.944,24.42a8.591,8.591,0,0,1-5.01,5.7c-2.844,1.093-6.432.53-10.094-1.584l-5.5-3.175c-6.365-3.676-12.171-11.632-14.444-19.8-3.473-12.47-13.12-20.825-20.068-21.415a7.185,7.185,0,0,0-7.583,4.481l-8.721,18.479a8.132,8.132,0,0,1-4.938,4.5c-2.758.865-6.179.24-9.625-1.748l-6.294-3.634c-6.908-3.989-12.867-12.558-14.827-21.326L447.9,53.645C445.007,40.732,434.68,31.19,427.222,30.7c-3.671-.245-6.336,1.625-7.718,5.4L376.7,153.065a8.443,8.443,0,0,1-4.994,5.331c-2.827,1.025-6.362.442-9.962-1.636l-21.646-12.5.363-.63,21.646,12.5c3.411,1.97,6.731,2.533,9.35,1.582a7.743,7.743,0,0,0,4.563-4.895l42.8-116.962c1.483-4.05,4.52-6.137,8.447-5.877,7.716.5,18.378,10.283,21.34,23.508L474.964,171.2c1.889,8.445,7.845,17.021,14.483,20.853l6.292,3.634c3.273,1.889,6.488,2.485,9.045,1.686a7.43,7.43,0,0,0,4.5-4.115L518,174.779a8.006,8.006,0,0,1,8.3-4.9c7.192.611,17.152,9.174,20.707,21.945,2.226,8,7.9,15.777,14.109,19.364l5.5,3.175c3.47,2,6.835,2.55,9.472,1.535a7.9,7.9,0,0,0,4.579-5.249l7.944-24.42c1.374-4.223,4.285-6.447,8.312-6.309,7.767.3,18.261,9.619,21.5,23.015L644.8,311.909c2.064,8.524,7.93,16.76,14.6,20.493l30.455,17.05Z" transform="translate(-245.34 -29.957)" fill="#42e8e0"/><path d="M667.925,354.912,644.146,341.6c-6.832-3.823-12.839-12.247-14.948-20.957l-26.375-108.97C599.705,198.791,589.346,189.5,582,189.214c-3.648-.124-6.312,1.866-7.6,5.808l-7.944,24.42a8.6,8.6,0,0,1-5.01,5.7c-2.846,1.092-6.434.529-10.094-1.587l-5.5-3.173c-6.367-3.677-12.172-11.632-14.446-19.8-3.471-12.47-13.12-20.827-20.067-21.418a7.219,7.219,0,0,0-7.584,4.484l-8.72,18.477a8.133,8.133,0,0,1-4.937,4.5c-2.765.861-6.182.24-9.629-1.748l-6.292-3.634c-6.907-3.989-12.867-12.558-14.829-21.326L433,62.208c-2.891-12.912-13.217-22.452-20.678-22.941-3.662-.234-6.336,1.629-7.716,5.4l-42.8,116.96a8.443,8.443,0,0,1-5,5.329c-2.818,1.024-6.359.444-9.962-1.633l-21.646-12.5.364-.63,21.646,12.5c3.412,1.97,6.731,2.528,9.349,1.582a7.74,7.74,0,0,0,4.561-4.895l42.8-116.962c1.483-4.05,4.479-6.128,8.445-5.878,7.718.506,18.379,10.283,21.34,23.51l26.356,117.711c1.891,8.447,7.846,17.024,14.483,20.853l6.294,3.636c3.271,1.889,6.483,2.488,9.047,1.684a7.422,7.422,0,0,0,4.5-4.113l8.72-18.477a7.994,7.994,0,0,1,8.3-4.9c7.19.611,17.151,9.176,20.706,21.948,2.227,7.994,7.9,15.775,14.109,19.361l5.5,3.175c3.466,2,6.834,2.556,9.47,1.537a7.9,7.9,0,0,0,4.58-5.247l7.944-24.422c1.329-4.085,4.138-6.317,7.93-6.317.127,0,.254,0,.382.008,7.767.3,18.261,9.618,21.5,23.015L629.9,320.473c2.064,8.526,7.932,16.76,14.6,20.493l23.78,13.314Z" transform="translate(-253.551 -25.238)" fill="#42e8e0"/><path d="M378.7,44.6l-.363-.63,23.3-13.4.363.63Z" transform="translate(-224.27 -29.614)" fill="#42e8e0"/><rect width="27.212" height="0.727" transform="translate(252.367 154.597) rotate(-29.971)" fill="#42e8e0"/><path d="M487.9,141.781l-.36-.63,24.572-14.1.361.63Z" transform="translate(-164.104 23.541)" fill="#42e8e0"/><path d="M708.145,360.507l-49.1-27.473c-6.832-3.825-12.839-12.247-14.947-20.955L617.722,203.11c-3.118-12.883-13.478-22.176-20.825-22.46-.121,0-.242-.008-.361-.008-3.5,0-5.991,2-7.232,5.816l-7.944,24.42a8.591,8.591,0,0,1-5.01,5.7c-2.845,1.093-6.432.53-10.094-1.584l-5.5-3.175c-6.365-3.676-12.171-11.632-14.444-19.8-3.473-12.47-13.12-20.825-20.068-21.415a7.187,7.187,0,0,0-7.583,4.481l-8.721,18.479a8.132,8.132,0,0,1-4.938,4.5c-2.758.865-6.179.24-9.625-1.748l-6.294-3.634c-6.908-3.989-12.867-12.558-14.828-21.326L447.9,53.645C445.007,40.732,434.68,31.19,427.222,30.7c-3.66-.245-6.336,1.627-7.718,5.4L376.7,153.065a8.443,8.443,0,0,1-4.994,5.331c-2.827,1.025-6.362.442-9.962-1.636l-21.646-12.5.363-.63,21.646,12.5c3.411,1.97,6.731,2.533,9.349,1.582a7.743,7.743,0,0,0,4.563-4.895l42.8-116.962c1.483-4.05,4.52-6.137,8.447-5.877,7.716.5,18.378,10.283,21.34,23.508L474.964,171.2c1.889,8.445,7.845,17.021,14.483,20.853l6.292,3.634c3.273,1.889,6.488,2.485,9.045,1.686a7.43,7.43,0,0,0,4.5-4.115L518,174.779a8.006,8.006,0,0,1,8.3-4.9c7.192.611,17.152,9.174,20.707,21.945,2.226,8,7.9,15.777,14.109,19.364l5.5,3.175c3.47,2,6.835,2.55,9.472,1.535a7.9,7.9,0,0,0,4.579-5.249l7.944-24.42c1.374-4.223,4.285-6.447,8.312-6.309,7.767.3,18.261,9.619,21.5,23.015L644.8,311.909c2.064,8.524,7.93,16.76,14.6,20.493l49.1,27.473Z" transform="translate(-245.34 -29.957)" fill="#42e8e0"/><path d="M429.826,476.988a15.971,15.971,0,0,1-8.033-2.162l-140.409-81.7a4.79,4.79,0,0,1,0-8.278l47.5-27.721.366.627-47.5,27.721a4.065,4.065,0,0,0,0,7.023L422.161,474.2a15.284,15.284,0,0,0,15.293.022L622.671,367.4a15.242,15.242,0,0,1,15.057-.064l16.192,9.157a14.5,14.5,0,0,0,14.359-.076l25.6-14.827a3.7,3.7,0,0,0-.047-6.423L669.6,341.6c-6.832-3.823-12.839-12.247-14.948-20.957l-26.375-108.97c-3.117-12.881-13.477-22.176-20.824-22.458-3.648-.124-6.312,1.866-7.6,5.808l-7.944,24.42a8.6,8.6,0,0,1-5.01,5.7c-2.846,1.092-6.434.529-10.094-1.587l-5.5-3.173c-6.367-3.677-12.172-11.632-14.446-19.8-3.471-12.47-13.12-20.827-20.067-21.418a7.219,7.219,0,0,0-7.584,4.484l-8.72,18.477a8.134,8.134,0,0,1-4.937,4.5c-2.765.861-6.182.24-9.629-1.748l-6.292-3.634c-6.907-3.989-12.867-12.558-14.829-21.326L458.451,62.208C455.56,49.3,445.233,39.756,437.773,39.267c-3.662-.234-6.336,1.629-7.716,5.4l-42.8,116.96a8.443,8.443,0,0,1-5,5.329c-2.818,1.024-6.359.444-9.962-1.633l-21.646-12.5.365-.63,21.646,12.5c3.412,1.97,6.731,2.528,9.349,1.582a7.74,7.74,0,0,0,4.561-4.895l42.8-116.962c1.483-4.05,4.479-6.128,8.445-5.878,7.718.506,18.379,10.283,21.34,23.51l26.356,117.711c1.891,8.447,7.846,17.024,14.483,20.853l6.294,3.636c3.271,1.889,6.483,2.488,9.047,1.684a7.422,7.422,0,0,0,4.5-4.113l8.72-18.477a7.994,7.994,0,0,1,8.3-4.9c7.19.611,17.151,9.176,20.706,21.948,2.227,7.994,7.9,15.775,14.109,19.361l5.5,3.175c3.466,2,6.834,2.556,9.47,1.537a7.9,7.9,0,0,0,4.58-5.247l7.944-24.422c1.329-4.085,4.138-6.317,7.93-6.317.127,0,.254,0,.382.008,7.767.3,18.261,9.618,21.5,23.015l26.375,108.97c2.064,8.526,7.932,16.76,14.6,20.493l24.236,13.568a4.422,4.422,0,0,1,.056,7.685l-25.6,14.827a15.232,15.232,0,0,1-15.08.079l-16.192-9.157a14.508,14.508,0,0,0-14.337.06L437.816,474.851A15.974,15.974,0,0,1,429.826,476.988Z" transform="translate(-279.003 -25.238)" fill="#42e8e0"/><path d="M325.314,152.167l21.647,12.5c6.5,3.755,12.293,2.35,14.434-3.5L404.2,44.2c4.889-13.359,24.866-1.281,29.09,17.585L459.645,179.5c1.925,8.6,7.888,17.182,14.655,21.089l6.294,3.634c6.117,3.533,11.645,2.514,14.054-2.589l8.721-18.477c5.405-11.454,23.417-.651,28.329,16.991h0c2.266,8.137,7.944,15.923,14.277,19.58l5.5,3.175c6.668,3.85,12.566,2.266,14.576-3.915l7.944-24.42c4.485-13.784,24.523-2.306,29.117,16.679l26.376,108.968c2.074,8.565,8.063,16.969,14.772,20.724l30.455,17.05Z" transform="translate(-253.486 -25.229)" opacity="0.5" fill="url(#a)" style="mix-blend-mode:lighten;isolation:isolate"/></g><g transform="translate(0 31.357)"><g transform="translate(0.363 217.463)" opacity="0.3"><g transform="translate(3.56 10.431)"><path d="M412.158,345.579,264.552,259.856c-2.04-1.179-1.784-3.235.572-4.6l98.77-57.025c2.356-1.36,5.922-1.508,7.961-.329l147.606,85.723c2.041,1.179,1.785,3.237-.571,4.6l-98.77,57.025C417.763,346.611,414.2,346.758,412.158,345.579Z" transform="translate(-263.175 -197.109)" fill="url(#c)"/></g><path d="M525.66,274.587l-34.689-2.261L372.826,203.612c-2.1-1.214-5.774-1.061-8.2.34l-76.377,44.1-27.367-1.782V265.36l.025,0a2.407,2.407,0,0,0,1.394,2.063l151.42,87.926c2.1,1.213,5.773,1.061,8.2-.34l101.737-58.738a3.416,3.416,0,0,0,1.987-2.593h.017Z" transform="translate(-260.88 -183.546)" fill="url(#d)"/><path d="M413.719,342.941,262.3,255.016c-2.1-1.213-1.838-3.333.589-4.735l101.736-58.738c2.427-1.4,6.1-1.554,8.2-.34l151.42,87.926c2.1,1.213,1.838,3.333-.589,4.735L421.919,342.6C419.492,344,415.821,344.154,413.719,342.941Z" transform="translate(-260.88 -190.383)" fill="url(#e)"/></g><g transform="translate(0 150.398)"><path d="M417.409,327.593a7.63,7.63,0,0,1-3.743-.861v0l-151.42-87.924a2.793,2.793,0,0,1-1.6-2.371,3.731,3.731,0,0,1,2.19-2.992L364.572,174.7c2.525-1.455,6.368-1.608,8.565-.34l151.42,87.927a2.792,2.792,0,0,1,1.6,2.37,3.736,3.736,0,0,1-2.19,2.993L422.23,326.393A9.906,9.906,0,0,1,417.409,327.593Zm-3.38-1.489c2,1.152,5.515,1,7.837-.341L523.6,267.025a3.053,3.053,0,0,0,1.827-2.364,2.107,2.107,0,0,0-1.238-1.742l-151.42-87.927c-2-1.152-5.512-1-7.836.343L263.2,234.073a3.055,3.055,0,0,0-1.827,2.362,2.105,2.105,0,0,0,1.238,1.742Z" transform="translate(-260.646 -132.618)" fill="#42e8e0"/><g transform="translate(3.923 22.717)"><path d="M412.158,310.262,264.552,224.537c-2.04-1.177-1.784-3.235.572-4.6l98.77-57.024c2.356-1.362,5.922-1.509,7.961-.33l147.606,85.723c2.041,1.179,1.785,3.237-.571,4.6l-98.77,57.025C417.763,311.292,414.2,311.439,412.158,310.262Z" transform="translate(-263.175 -161.79)" fill="url(#f)"/></g><path d="M525.66,239.659l-34.689-2.26L372.826,168.684c-2.1-1.214-5.774-1.061-8.2.34l-76.377,44.1-27.367-1.782v19.094l.025,0A2.407,2.407,0,0,0,262.3,232.5l151.42,87.926c2.1,1.213,5.773,1.061,8.2-.34l101.737-58.738a3.415,3.415,0,0,0,1.987-2.595l.017,0Z" transform="translate(-260.517 -135.726)" fill="#42e8e0" opacity="0.4"/><path d="M525.66,231.347l-34.689-2.261L372.826,160.372c-2.1-1.214-5.774-1.062-8.2.34l-76.377,44.1-27.367-1.784v19.1l.025,0a2.407,2.407,0,0,0,1.394,2.063l151.42,87.926c2.1,1.213,5.773,1.061,8.2-.34l101.737-58.739a3.411,3.411,0,0,0,1.987-2.593l.017,0Z" transform="translate(-260.517 -140.306)" fill="url(#d)"/><path d="M413.719,299.7,262.3,211.776c-2.1-1.214-1.838-3.335.589-4.735L364.624,148.3c2.427-1.4,6.1-1.554,8.2-.34l151.42,87.924c2.1,1.214,1.838,3.335-.589,4.735L421.919,299.36C419.492,300.762,415.821,300.914,413.719,299.7Z" transform="translate(-260.517 -147.143)" fill="url(#h)"/><path d="M523.655,216.98,421.918,275.718c-2.427,1.4-6.1,1.554-8.2.341L262.3,188.133a2.879,2.879,0,0,1-1.205-1.228c-.5,1.076-.118,2.2,1.205,2.962l151.42,87.926c2.1,1.213,5.773,1.061,8.2-.341l101.737-58.738c1.734-1,2.342-2.364,1.794-3.507A4.246,4.246,0,0,1,523.655,216.98Z" transform="translate(-260.516 -125.235)" fill="#fff"/></g><ellipse cx="37.56" cy="21.685" rx="37.56" ry="21.685" transform="translate(72.786 173.014)" fill="#160a5b" opacity="0.2"/><g transform="translate(29.83)"><path d="M353,174.177l.132.628.168-.419s.91,3.266.192,4.9a39.148,39.148,0,0,1-3.333,5.97c-1.545,2.306-4.012,7.122-4.667,8.051a15.646,15.646,0,0,1-9.309,5.106c-4.827.561-6.066-2.537-5.672-4.212s2.969-6.083,5.765-9.664a47.979,47.979,0,0,0,4.9-8.146Z" transform="translate(-252.021 18.15)" fill="#160a5b"/><path d="M346.246,165.973a26.448,26.448,0,0,1-.141,4.727c-.31,1.382-7.288,1.816-9.77,2.168a33.651,33.651,0,0,0-8.169,3.045c-1.357.735-10.454,1.8-11.532-1.9s4.593-6.77,8.42-7.741,10.067-3.069,10.067-3.069Z" transform="translate(-259.701 12.102)" fill="#160a5b"/><path d="M365.475,132.379a93.878,93.878,0,0,1-2.14,21.111,91.413,91.413,0,0,0-2.1,21.272s3.2,14.427.757,24.394c-2.463,10.071-4.659,12.914-4.659,12.914s-5.18,7.772-12.175.8c0,0,3.75-13.86,4.1-24.752a78.128,78.128,0,0,1-4.669-14.945S343.7,184.35,343.15,188.9c0,0,.633,6.728-.982,9.46s-9.017,3.536-11.378-1.222c-2.35-4.735,1.956-2.421.631-23.966,0,0-6.689-9.056-7.6-25.494-.9-16.158-.782-22.486.078-25.584s15.263-14.126,15.263-14.126l8.211,10.939Z" transform="translate(-256.011 -18.329)" fill="#24126a"/><path d="M330.9,139.859c-2.393-3.079-3.733-12.662-3.733-12.662s3.725,8.048,6.406,10.4a20.078,20.078,0,0,1,5.509,10.207c.5,3.114,3.318,14.773,3.318,14.773s-.889,11.175-1.441,15.729c0,0,.633,6.728-.982,9.46a3.869,3.869,0,0,1-1.6,1.385c0-.13.329-15-.118-21.236S333.306,142.949,330.9,139.859Z" transform="translate(-253.822 -7.736)" fill="#160a5b"/><path d="M368.937,83.385s6.485,12.288,7.133,13.244,12.721,16.216,14.207,25.151c0,0,1.019,3.479-2.858,6.576s-23.778,16.78-25.038,16.982-8.73-3.622-9.227-12.152c0,0,15.646-7.8,18.962-11.668,0,0-6.449-10.781-9.525-13.933a7.6,7.6,0,0,1-1.529-3.938,21.091,21.091,0,0,1,6.123-18.568Z" transform="translate(-239.506 -31.876)" fill="#4846a5"/><path d="M357.2,69.55s-9.247,3.48-12.411,2.288-10.916-2.2-16.209-5.208c-5.276-3-28.293-9.022-31.708-9.233,0,0-.064.136.5.377s2.931.451,3.5,3.164a8.861,8.861,0,0,1-1.331,6.224c-.4.228-.6-.744-2.79-1.777a8.419,8.419,0,0,0-3.556-.969l-.872,1.076-.535.789s1,3.314,3.967,3.544,21.976,8.36,23.18,8.729,17.308,7.487,20.338,8.6a34.89,34.89,0,0,1,5.4,2.548s9.464-6.458,9.768-6.458S357.2,69.55,357.2,69.55Z" transform="translate(-273.318 -46.196)" fill="#24126a"/><path d="M280.78,55.678c.385.09,5.123,1.708,5.123,1.708s-1.948.99-2.162,1.861a30.162,30.162,0,0,0,.332,6.091,6.531,6.531,0,0,0,1.425,1.151c.293.181.98,1.881,1.678,1.669a1.679,1.679,0,0,0,.94-1.092s.551-.273.72-.38a11.8,11.8,0,0,1,4.721.955,7.653,7.653,0,0,0,4.793.8,21.736,21.736,0,0,0,3.026-1.32,7.247,7.247,0,0,1,1.83.53c.65.349,2.714,1.776,3.026,1.9s4.825-8.4-2.8-9.993a18.28,18.28,0,0,1-4.527-.946c-1.352-.661-5.132-3.656-6.561-3.716a9.6,9.6,0,0,0-2.9.419s-8.543-2.48-9.289-1.7S280.4,55.588,280.78,55.678Zm6.041,5.8a2.511,2.511,0,0,0,1.788-1.058,1.2,1.2,0,0,0,1.337-.1c-.006.158,1.174.385,1.174.385s.523.451,1.179.948-.292,1.968-.292,1.968a4.258,4.258,0,0,1-2.035-.577,11.749,11.749,0,0,0-1.633-.44A9.681,9.681,0,0,1,286.821,61.474Z" transform="translate(-279.879 -48.362)" fill="#fcd1c5"/><path d="M323.9,122.1c.858-3.088,15.263-14.126,15.263-14.126l4.067,5.418,3.6,14.313,18.674,6.15v0c0,.017-.8,9.974-16.061,8.821s-17.045-13.7-17.045-13.7-1.678,4.1-9.152,5.176C323.091,127.532,323.336,124.125,323.9,122.1Z" transform="translate(-256.011 -18.329)" fill="#160a5b"/><path d="M372.454,72.636l2.589,6.413s12.13,10.511,15.662,14.337c0,0-5.571,11.7-6.345,24.2,0,0-5.415,4.707-7.04,6.883s-5.677,12.338-6.975,15.7,2.719,13.638,2.719,13.638-5.058,10.337-13.535,10-14.275-5.847-15.4-15.567c-1.111-9.622-.8-11.007-.8-11.007s-3.724,11.808-9.453,11.808-14.739-10.257-14.739-10.257-6.038-5.826-5.446-8.447,14.4-24.921,15.149-28.544,3.8-16.411,3.8-16.411l12.524-20.154,7.626.366Z" transform="translate(-261.274 -41.878)" fill="#453c9e"/><g transform="translate(82.716 105.111)"><path d="M348.366,132.287c-8.095-.324-13.7-5.413-15.156-14.342.045.406.09.813.141,1.255,1.123,9.72,6.925,15.228,15.4,15.567s13.535-10,13.535-10-.293-.754-.693-1.9C360.416,124.971,355.659,132.579,348.366,132.287Z" transform="translate(-333.21 -117.945)" fill="url(#i)"/></g><path d="M359.616,70.006a22.345,22.345,0,0,1-1.267,7.622c-1.413,3.819-5.917,25.641-17,33.224L337.06,113.7l-.113-14.1s.006-8.577,1.852-13.968a40.23,40.23,0,0,0,1.708-11.864s3.068-.864,3.072-.8S359.616,70.006,359.616,70.006Z" transform="translate(-248.435 -39.248)" fill="#f0f6ff"/><path d="M346.859,90.027s-1.95.816-2.807-.489-1.75-3.927-1.535-5.132c0,0-5.2.262-6.249-2.513s.065-3.487.225-4.346a21.637,21.637,0,0,1,.971-4.737l.07-.7s-1.059-.914-.586-1.872,3.26-3.927,3.544-4.427-.113-4.163.959-5.982a43.511,43.511,0,0,1,3.142-4.33s10.748-8.495,19.484,0c8.821,8.575-3.84,24.579-3.84,24.579s-.943,5.231-3.449,7.319S346.859,90.027,346.859,90.027Z" transform="translate(-249.054 -49.32)" fill="#fcd1c5"/><path d="M351.749,69.536a2.71,2.71,0,0,1,.121-.94,4.655,4.655,0,0,0-1.86-5.43c-3.325-2.407-9.145-4.568-8.994-6.962s9.152-8.27,15.919-5.126c6.792,3.156,13.326,11.186,8.941,19.772-4.425,8.672-8.5,10.083-8.5,10.083s-1.394-.292-.178-1.742,3.392-5.092,1.494-6.233-5.093,1.325-5.512,1.874a6.869,6.869,0,0,0-.467.727.9.9,0,0,1-1.168.374l-.161-.076a.946.946,0,0,1-.49-1.159l.774-2.24a2.866,2.866,0,0,0,.154-1.044Z" transform="translate(-246.195 -50.175)" fill="#aa8383"/><path d="M345.7,78.025a13.768,13.768,0,0,1,4.02,5.28s-2.694-2.817-4.208-3.378c0,0-2.907,1.405-2.9,2.344a63.881,63.881,0,0,1-.853,9.649c-.656,3.068-.458,13.92-.458,13.92l-1.861,1.289-.938-4.782.245-10.117,1.633-9.114s.284-3.423.419-3.611S345.7,78.025,345.7,78.025Z" transform="translate(-247.577 -34.829)" fill="#c4ccd6"/><path d="M346.736,79.142s-2.865-3.079-4.293-3.141a2.352,2.352,0,0,0-2.212.9c-.026.177-1.325,5.005-1.325,5.005a62.645,62.645,0,0,0-2.254,18.471c.357,10.1.588,10.016.588,10.016l3.544-2.354a47.9,47.9,0,0,1,.816-15.5c1.835-8.213.129-9.433,1.033-10.278S347.19,80.139,346.736,79.142Z" transform="translate(-248.616 -35.946)" fill="#24126a"/><path d="M358.124,105.871c-1.63,2.181-5.588,12.323-6.885,15.69a5.513,5.513,0,0,0-.343,2.116c-.337.236-.547.382-.547.382l-1.863-1.888s1.526-6.232,4-13.891c2.452-7.6,12.678-9.292,12.678-9.292S359.749,103.7,358.124,105.871Z" transform="translate(-242.077 -23.279)" fill="#24126a"/><path d="M360.121,117.5s-3.071-4.568-4.022-5.162c0,0,.244,1.289-1.433,2.081s-10.486,4.425-10.787,4.848.034.949.6,1.073a11.436,11.436,0,0,1-2.585.65c-.755-.017-1.75,1-1.238,1.866s.938.8.938.8-.209.968.344,1.187a8,8,0,0,0,1.878.25s-.256.971.49,1.356a26.4,26.4,0,0,0,4.363.8s2.818-.318,3.623-.335,4.5.938,6.054.7a44.527,44.527,0,0,0,7.183-2.5C366.043,124.793,360.121,117.5,360.121,117.5Z" transform="translate(-246.468 -15.924)" fill="#fcd1c5"/><path d="M360.661,75.49l-.236,5.787-3.04.983L359.479,84s-7.972,19.6-18.626,25.892c0,0,10.2-3.792,19.408-25.72,0,0-1.033-1.219-1.345-1.563l2.111-.969Z" transform="translate(-246.283 -36.226)" fill="#24126a"/><path d="M337.018,75.1s-3.635,19.8-.3,35c0,0-3.947-7.344-.62-35Z" transform="translate(-249.637 -36.441)" fill="#24126a"/><path d="M282.507,57.446a6.947,6.947,0,0,1,1.948-1.453s3.867,1.605,4.527,1.922C288.982,57.915,284.968,57.49,282.507,57.446Z" transform="translate(-278.431 -46.969)" fill="#e2b1a6"/><path d="M297.391,67.249c-.16-.064-.78-.468-1.435-.9h0c2.713-3.561-.022-8.682-.033-8.7C301.649,59.917,297.683,67.362,297.391,67.249Z" transform="translate(-271.039 -46.055)" fill="#e2b1a6"/><path d="M359.011,123.393a48.27,48.27,0,0,1-5.405,2.038s-1.492-5.709-1.221-7.612,1.01-2.35,1.01-2.35c.127.186.206.3.206.3S359.522,123.067,359.011,123.393Z" transform="translate(-239.948 -14.198)" fill="#e2b1a6"/><path d="M353.213,115.494a7.017,7.017,0,0,0,1.3,5.832c2.159,2.556,2.4,2.883,2.4,2.883h2.413a28.819,28.819,0,0,0,.96-4.135C360.1,119.975,353.213,115.494,353.213,115.494Z" transform="translate(-239.564 -14.184)" fill="#4846a5"/><path d="M339.327,78.8h0s-2.126,13.618-1.579,18.666a92.348,92.348,0,0,1,.414,10.6l-.714.651-.208.138s-.231.081-.588-10.016a62.645,62.645,0,0,1,2.254-18.471S339.094,79.673,339.327,78.8Z" transform="translate(-248.616 -34.402)" fill="#24126a"/><g transform="translate(88.58 154.846)"><path d="M339.75,191.464a12.082,12.082,0,0,1-2.19-1.756s3.75-13.86,4.1-24.752a78.121,78.121,0,0,1-4.669-14.945c.332,1.388,4.316,8.941,6.173,16.727C345.036,174.588,339.75,191.463,339.75,191.464Z" transform="translate(-336.991 -150.011)" fill="#160a5b"/></g><g transform="translate(93.43 28.579)"><path d="M348.243,68.634l.006-.033Z" transform="translate(-335.642 -68.601)" fill="#e2b1a6"/><path d="M352.72,68.622c-.057.332-.924,5.075-2.77,7.308-1.917,2.32-3.394,4.563-3.394,4.563-1.216.163-2.063.223-2.063.223s-1.95.816-2.807-.489-1.75-3.927-1.535-5.132c0,0,7-.74,9.652-2.635A6.648,6.648,0,0,0,352.72,68.622Z" transform="translate(-340.118 -68.589)" fill="#e2b1a6"/></g><path d="M350.938,112.524s-.372.867-.442.935-.183-.665-.183-.665.31-.707.329-.707Z" transform="translate(-241.071 -16.061)" fill="#1b2b3a"/><path d="M339.355,98.177s-4.912,16.793-6.573,20.907l.119,4.1S339.186,102.2,339.355,98.177Z" transform="translate(-250.73 -23.726)" fill="#24126a"/><path d="M333.954,102.491a1.817,1.817,0,0,0,1.069,2.271,1.692,1.692,0,0,0,2.08-1.272,1.819,1.819,0,0,0-1.072-2.268A1.689,1.689,0,0,0,333.954,102.491Z" transform="translate(-250.128 -22.086)" fill="#24126a"/><path d="M332.332,107.17a1.835,1.835,0,0,0,1.07,2.289,1.7,1.7,0,0,0,2.089-1.283,1.829,1.829,0,0,0-1.072-2.285A1.7,1.7,0,0,0,332.332,107.17Z" transform="translate(-251.022 -19.513)" fill="#24126a"/><path d="M348.175,66.327a2.867,2.867,0,0,0,.154-1.044l-.071-1.878a2.708,2.708,0,0,1,.121-.94,5.315,5.315,0,0,0,.231-1.163s7.67,5.565,12.473,5.787c-3.893,6.565-7.2,7.713-7.2,7.713s-1.394-.292-.178-1.742,3.392-5.092,1.494-6.233-5.093,1.325-5.512,1.874a6.879,6.879,0,0,0-.467.727.9.9,0,0,1-1.168.374l-.161-.076a.945.945,0,0,1-.49-1.159Z" transform="translate(-242.703 -44.043)" fill="#936d6d"/></g><ellipse cx="37.56" cy="21.685" rx="37.56" ry="21.685" transform="translate(116.268 237.539)" fill="#160a5b" opacity="0.2"/><g transform="translate(112.309 60.899)"><g transform="translate(20.394)"><path d="M366.676,216.805a40.38,40.38,0,0,1-7.218.295c-3.519-.233-13.2.7-13.252,4.351-.054,3.67,4.507,9.436,10.691,10.883,6.2,1.45,14.4.478,18.494,1.031s7.226-3.4,5.934-7.651C380.041,221.5,366.676,216.805,366.676,216.805Z" transform="translate(-346.206 -19.261)" fill="#160a5b"/><path d="M383.919,217.752s1.174,2.336.416,3.611-2.776,4.445-8.261.6c-5.449-3.823-16.073-9.58-16.073-9.58s-6.016-4.056-5.356-8.028c.656-3.943,6.389-2.75,6.389-2.75Z" transform="translate(-341.583 -27.733)" fill="#160a5b"/><path d="M352.5,173.984s.351,26.088,4.707,36.445c4.437,10.555,4.437,29.1,5.255,32.737.824,3.659,3.826,9.115,9.107,10.772,5.3,1.66,6.461-1.967,6.367-4.23s-1.306-6.009-1.14-8.422a25.384,25.384,0,0,1,.971-4.563s6.009,2.488,7.314-2.254a14.139,14.139,0,0,1-.417-2.188c-.028-.727,1.915-18.13,2.227-20.226a91.079,91.079,0,0,0-1.216-19.355c-1.261-5.712.2-17.43.2-17.43l-17.2-4.178Z" transform="translate(-342.74 -44.449)" fill="#24126a"/><path d="M379.623,191.345c-1.259-5.712.2-17.43.2-17.43l-1.506-.366c-.192,1.622-1.349,11.921-.2,17.166a90.907,90.907,0,0,1,1.188,19.333c-.313,2.094-2.28,19.476-2.254,20.2a14.193,14.193,0,0,0,.414,2.185c-1.311,4.737-7.313,2.252-7.313,2.252a25.411,25.411,0,0,0-.976,4.558c-.169,2.41,1.038,6.161,1.128,8.411s-1.078,5.883-6.37,4.225c-.164-.053-.307-.138-.468-.2a10.85,10.85,0,0,0,2.044.9c5.3,1.66,6.46-1.967,6.367-4.23s-1.306-6.009-1.14-8.422a28.617,28.617,0,0,1,.991-4.782s5.988,2.706,7.294-2.036a14.1,14.1,0,0,1-.417-2.187c-.028-.729,1.915-18.13,2.227-20.226A91.077,91.077,0,0,0,379.623,191.345Z" transform="translate(-336.692 -43.095)" fill="url(#i)"/><path d="M372.476,175.119a19.832,19.832,0,0,1-2.313,7.26s-1.033,13.777-2.975,20.622c0,0,1.169,14.291,2.251,18.877,1.09,4.622.226,13.332.226,13.332a6.056,6.056,0,0,0,1.678.479c1,.143,2.4-17.134,1.1-20.337-1.3-3.184-1.419-16.718-.527-20.743.886-3.994,1.584-15.6,2.5-17.565a2.649,2.649,0,0,0-.71-3.209Z" transform="translate(-334.644 -42.937)" fill="#160a5b"/><path d="M367.81,114.168a12.293,12.293,0,0,0-5.532,9.467l3.783-.462S365.5,116.128,367.81,114.168Z" transform="translate(-337.35 -75.814)" fill="#160a5b"/><path d="M367.462,180.994c11.5,1.514,18.13-3.031,18.13-3.031.152-1.633.284-2.694.284-2.694l-17.2-4.178L352.5,173.984s.07,5.134.529,11.752c2.795.594,6.12-6.143,6.12-6.143l7.854,1.3S355.991,179.487,367.462,180.994Z" transform="translate(-342.74 -44.449)" fill="#160a5b"/><path d="M354.979,209.277s24.226,12.848,37.875-5.573a3.407,3.407,0,0,0,.63-1.88l.194-4.583a4.8,4.8,0,0,1,.372-1.667h0a7.275,7.275,0,0,0,.527-3.62c-.551-5.187-2.035-19.257-2.337-23.145-.368-4.735,3.519-23.147,8.279-30.818,4.69-7.556-4.436-26.308-4.436-26.308a6.9,6.9,0,0,0-7.375-3.408s4.53,3.78,1.635,7.08c-2.914,3.324-11,5.452-11,5.452s-15.114,6.224-20.81,14.964a38.517,38.517,0,0,0-2.725,10.675c-.644,6.12-1.149,20.938-1.568,22.967s-2.322,16.064-2.292,16.732S354.979,209.277,354.979,209.277Z" transform="translate(-343.041 -79.138)" fill="#453c9e"/><g transform="translate(8.909 29.018)"><path d="M377.794,111.039a3.6,3.6,0,0,0,.127-2.824,7.149,7.149,0,0,0-2.271.053A9.137,9.137,0,0,1,377.794,111.039Z" transform="translate(-338.891 -108.149)" fill="url(#k)"/><path d="M361.309,195.171s17.864-38.677,18.291-53.245c.416-14.168-23.694,26.59-23.694,26.59l-2,23.791A45.5,45.5,0,0,0,361.309,195.171Z" transform="translate(-350.874 -91.186)" fill="#24126a"/><path d="M393.938,164.686a4.739,4.739,0,0,0-.371,1.656l-.194,4.547a3.369,3.369,0,0,1-.628,1.867c-13.6,18.28-37.731,5.529-37.731,5.529s-2.161-16.109-2.821-21.309c-.154,1.238-.25,2.1-.243,2.254.028.67,3.029,23.133,3.029,23.133s24.226,12.848,37.875-5.573a3.407,3.407,0,0,0,.63-1.88l.194-4.583a4.793,4.793,0,0,1,.372-1.667,7.276,7.276,0,0,0,.527-3.62c-.057-.54-.127-1.2-.2-1.909A7.036,7.036,0,0,1,393.938,164.686Z" transform="translate(-351.95 -81.244)" fill="url(#i)"/><path d="M386.124,126.808c-4.746,7.617-8.62,25.9-8.254,30.6.034.433.084,1.007.144,1.664.492-6.691,4.014-21.9,8.237-28.706,1.317-2.12,1.517-5.151,1.158-8.389A10.109,10.109,0,0,1,386.124,126.808Z" transform="translate(-337.682 -100.53)" fill="url(#i)"/></g><path d="M360.461,152.156a64.885,64.885,0,0,0,1.653-9.684c.513-5.652,2.838-14.877,12.884-12.3,14.237,3.651,6.485,23.392,4.623,26.8-1.872,3.428-9.458,18.972-9.863,19.857-.382.834-11.969,20.07-15.924,24.572a.873.873,0,0,1-1.314.036c-1.345-1.391-4.354-4.686-4.625-6.6-.35-2.468,2.432-11,2.432-11s7.355-21.241,7.908-22.207C358.652,160.9,359.182,157.347,360.461,152.156Z" transform="translate(-345.291 -67.241)" fill="#4846a5"/><path d="M369.932,127.715a5.169,5.169,0,0,0-3.549-3.212c-2.61-.507-4.045-1.376-4.233-2.376a18.9,18.9,0,0,0-.627-3.69,26.893,26.893,0,0,1-.758-5.2c.016-.085-1.931-.865-1.957-1.753s1.256-3.933,1.162-4.185a7.987,7.987,0,0,1-.746-3.752,18.285,18.285,0,0,1,1.57-5.379c.938-1.753,7.375-12.349,21.413-5.368,14.249,7.085,2.112,18.409,2.948,26.537,0,0,1.179,1.8-1.441,4.453C381.079,126.458,374.068,126.449,369.932,127.715Z" transform="translate(-339.262 -88.883)" fill="#fcd1c5"/><path d="M382.268,116.489c2.62-2.649,1.441-4.453,1.441-4.453a11.083,11.083,0,0,1,.306-3.561l-5.841.58s-7.893-8.309-7.609-4.216c.287,4.127-1.829,4.644-1.829,4.644l1.566,2.376c.4.61.084,1.255-.329,1.849-2.75,3.953-8.529,2.165-8.541,2.165a8.458,8.458,0,0,0,3.505,1.325,5.169,5.169,0,0,1,3.549,3.212C372.622,119.144,379.633,119.154,382.268,116.489Z" transform="translate(-337.816 -81.578)" fill="#e2b1a6"/><g transform="translate(20.765)"><path d="M360.072,94.458s-1.247,2.877.288,4.27,2.931,2.711,2.931,2.711l-.307,3.767a2.838,2.838,0,0,0,.329,1.571l1.813,3.37a3.911,3.911,0,0,1,.454,2.136l-.112,1.545a.9.9,0,0,0,.707.952l.538.11a.868.868,0,0,0,1.024-.706l.4-2.126s1.219-1.627,3.443.642l2.072,1.072a2.363,2.363,0,0,1,1.188,1.47c.472,1.708,1.5,5.09,2.421,5.72,1.242.852,6.477-1.3,7.238-2.387s3.048-8.6,4.382-12.163c1.325-3.532,1.4-12.546-9.239-15.778C369.074,87.424,361.809,91.358,360.072,94.458Z" transform="translate(-359.594 -89.439)" fill="#aa8383"/><path d="M383.3,113.956c.76-1.089,3.048-8.6,4.382-12.163a26.319,26.319,0,0,1-9.9,2.758c-5.5.344-15.766-6.727-15.766-6.727l-.225,2.762a2.837,2.837,0,0,0,.329,1.571l1.813,3.37a3.911,3.911,0,0,1,.454,2.136l-.112,1.545a.9.9,0,0,0,.707.952l.538.11a.868.868,0,0,0,1.024-.706l.4-2.126s1.219-1.627,3.443.642l3,1.551s1.441,5.861,2.683,6.711S382.534,115.046,383.3,113.956Z" transform="translate(-358.393 -84.819)" fill="#936d6d"/></g><path d="M381.951,108.472s4.017,2.978,1.63,6.475c-2.4,3.522-18.195,8.721-19.026,9.629,0,0-.166-5.587,2-7.27,0,0,11.868-1.218,13.917-4.042S381.951,108.472,381.951,108.472Z" transform="translate(-336.097 -78.952)" fill="#f0f6ff"/><path d="M380.6,108.472s.561,1.982-1.477,4.793c-1.549,2.137-8.721,3.355-12.121,3.82h0s1.187.817,2.986,4.552c4.889-2.013,10.838-4.636,12.242-6.689C384.618,111.45,380.6,108.472,380.6,108.472Z" transform="translate(-334.747 -78.952)" fill="#c4ccd6"/><path d="M389.114,116.247S382,119.534,378.542,121s-7.276,3.487-7.276,3.487l-1.173-1.39-1.791,3.226s-5.467,2.665-8.116,5.062a26.412,26.412,0,0,0-5.112,6.44s7.2-7.981,12.534-10.055l1.436-.574.993-2.595,1.155,1.456S386.857,118.384,389.114,116.247Z" transform="translate(-341.319 -74.668)" fill="#24126a"/></g><g transform="translate(0 128.061)"><path d="M371.975,200.7v0l0,0a3.6,3.6,0,0,0-.8-1.59l-26.2-26.761c-.687-.7-1.439-.293-1.681.912l-5.546,27.49a4.61,4.61,0,0,0,.806,3.646l21.97,23.251-1.467,8.039,7.361-2.578,0-.016a1.712,1.712,0,0,0,.726-1.311l4.946-29.036A5.085,5.085,0,0,0,371.975,200.7Z" transform="translate(-330.519 -172.006)" fill="url(#i)"/><path d="M337.317,174.323l6.854-2.24.219-.071a.924.924,0,0,1,.776.337l26.2,26.761a3.586,3.586,0,0,1,.8,1.588l-1.049.391h0l-5.965,2.229-22.917-23.87h0Z" transform="translate(-330.71 -172.006)" fill="#453c9e"/><path d="M333.93,206l26.713,28.527c.737.786,1.526.329,1.765-1.021l5.142-29.165a4.69,4.69,0,0,0-.893-3.653l-26.085-26.876c-.682-.7-1.439-.295-1.691.915l-5.736,27.608A4.619,4.619,0,0,0,333.93,206Z" transform="translate(-333.057 -171.197)" fill="#24126a"/><path d="M362.431,232.6l5.041-29.1a4.687,4.687,0,0,0-.906-3.643l-26.142-26.815a1,1,0,0,0-.641-.341.866.866,0,0,1,.879.312l26.147,26.813a4.683,4.683,0,0,1,.906,3.645l-5.033,29.1c-.161.927-.566,1.472-1.056,1.439C362.006,233.883,362.3,233.367,362.431,232.6Z" transform="translate(-329.351 -171.637)" fill="#160a5b"/><g transform="translate(16.267 1.252)"><g transform="translate(8.309 14.755)"><path d="M350.52,183.046l1.529-.6a1.381,1.381,0,0,1,.929-.073l.116.039c.144.047.206.216.166.44l-.05.268L348.9,184.8l.051-.268a1.263,1.263,0,0,1,.369-.65l.149-.143A3.333,3.333,0,0,1,350.52,183.046Z" transform="translate(-348.902 -182.326)" fill="#160a5b"/><path d="M350.752,186.638l-1.85-1.9,4.321-2.282,1.827,1.86Z" transform="translate(-348.902 -182.257)" fill="#160a5b"/><path d="M351.711,184.271l1.531-.6a1.382,1.382,0,0,1,.932-.074l.116.039c.144.048.208.216.166.442l-.048.27-4.313,1.684.05-.27a1.288,1.288,0,0,1,.369-.653l.15-.141A3.305,3.305,0,0,1,351.711,184.271Z" transform="translate(-348.245 -181.653)" fill="url(#o)"/><path d="M351.715,184.969l.224-1.219-.13.051-.224,1.219Z" transform="translate(-347.424 -181.542)" fill="#722318"/><path d="M352.53,184.416l-1.909-1.874-.111.043,1.89,1.881Z" transform="translate(-348.016 -182.207)" fill="#722318"/></g><g transform="translate(0 6.26)"><path d="M345.163,177.558l1.521-.586a1.372,1.372,0,0,1,.923-.071l.115.037c.143.047.2.212.161.434l-.051.264-4.287,1.652.053-.264a1.268,1.268,0,0,1,.371-.641l.15-.14A3.361,3.361,0,0,1,345.163,177.558Z" transform="translate(-343.545 -176.849)" fill="#160a5b"/><path d="M345.367,181.094l-1.821-1.874,4.3-2.246,1.8,1.831Z" transform="translate(-343.545 -176.781)" fill="#160a5b"/><path d="M346.336,178.762l1.523-.588a1.376,1.376,0,0,1,.924-.071l.116.037c.143.047.2.213.161.436l-.051.265-4.29,1.658.051-.267a1.264,1.264,0,0,1,.371-.641l.15-.141A3.329,3.329,0,0,1,346.336,178.762Z" transform="translate(-342.898 -176.186)" fill="url(#p)"/><path d="M346.332,179.451l.231-1.2-.13.05-.232,1.2Z" transform="translate(-342.082 -176.077)" fill="#722318"/><path d="M347.141,178.906l-1.88-1.844-.111.043,1.861,1.852Z" transform="translate(-342.66 -176.732)" fill="#722318"/></g><g transform="translate(2.004)"><path d="M356.352,184.02l-.945,5.145-1.239-1.269.923-5a2.782,2.782,0,0,0-.625-2.2l-5.331-5.416c-.475-.482-.971-.292-1.109.426l-.949,4.929-1.221-1.249.98-5.053c.306-1.58,1.4-2,2.447-.938l5.681,5.763A6.141,6.141,0,0,1,356.352,184.02Z" transform="translate(-344.276 -172.813)" fill="#453c9e"/><path d="M346.7,174.054l2.373-.006,6.3,7.119-.022,4.006-.4,3.311-1.588.619.284-4.149.144-2.84-1.249-2.188s-2.387-2.348-2.409-2.41S346.7,174.054,346.7,174.054Z" transform="translate(-343.811 -172.133)" fill="#453c9e"/><path d="M345.623,179.77l1.581-.61.7-3.632-1.46-.03-.436.033Z" transform="translate(-344.404 -171.334)" fill="#453c9e"/><path d="M346.061,173.483l1.7-.648s-.5.859-.509.853-.554.138-.563.135Z" transform="translate(-344.163 -172.801)" fill="#453c9e"/><path d="M355.333,184.421l-.952,5.149-1.239-1.27.932-5a2.783,2.783,0,0,0-.624-2.2l-5.325-5.422c-.475-.484-.973-.293-1.112.427l-.957,4.934-1.219-1.25.988-5.058c.309-1.582,1.405-2,2.451-.94l5.677,5.77A6.14,6.14,0,0,1,355.333,184.421Z" transform="translate(-344.837 -172.6)" fill="#160a5b"/></g></g></g><path d="M348.592,171.592s-1.376,4.969-1.205,6.269,2.368,4,3.775,4.594.959-1.207,1.371-2.271a15.914,15.914,0,0,0,.546-3.449Z" transform="translate(-325.169 -44.173)" fill="#fcd1c5"/><path d="M352.85,176.735l-4.487-5.143s-.281,1.017-.574,2.252c0,.008,1.5,3.953,4.684,5.774A20.177,20.177,0,0,0,352.85,176.735Z" transform="translate(-324.94 -44.173)" fill="#e2b1a6"/><path d="M347.906,172.159s1.284,5.629,5.563,6.581l-.99-6.126s-3.564-1.405-3.674-1.43S347.906,172.159,347.906,172.159Z" transform="translate(-324.875 -44.399)" fill="#4846a5"/><path d="M379.839,132.448c3.051,12.624-8.473,30.752-10.354,36.192-1.9,5.5-19.235,30.164-19.24,30.17l.015.014-.166.245a9.29,9.29,0,0,0,.941.786,2.985,2.985,0,0,0,.665.326h0a.848.848,0,0,0,.907-.282c3.955-4.5,15.542-23.738,15.924-24.572.4-.886,7.991-16.43,9.863-19.857C379.887,152.738,385.191,139.423,379.839,132.448Z" transform="translate(-323.67 -65.741)" fill="url(#i)"/></g></g><g transform="translate(191.253 295.687)"><g transform="translate(56.192 54.683)" opacity="0.1"><path d="M424.086,310.555c0-17.3,12.143-38.325,27.121-46.973,7.5-4.332,14.3-4.734,19.2-1.883v0l5.128,3-1.489.141c2.7,3.308,4.278,8.186,4.278,14.4,0,17.3-12.141,38.327-27.121,46.975-5.146,2.97-9.959,4.093-14.058,3.586l.115,1.374-5.205-3.046-.065-.037-.209-.124.011,0C427.028,325.072,424.086,319.062,424.086,310.555Z" transform="translate(-418.037 -253.643)" fill="#9ffff8"/><ellipse cx="38.354" cy="22.144" rx="38.354" ry="22.144" transform="matrix(0.5, -0.866, 0.866, 0.5, 0, 66.431)" fill="#42e8e0"/></g><path d="M476.749,356.189c-23.742,0-47.485-5.219-65.559-15.654C393.628,330.4,383.956,316.9,383.956,302.53s9.672-27.868,27.235-38.009c36.153-20.872,94.973-20.872,131.122,0,17.56,10.139,27.232,23.636,27.232,38.005s-9.672,27.868-27.235,38.009C524.234,350.97,500.491,356.189,476.749,356.189Zm0-106.792c-23.648,0-47.288,5.2-65.293,15.591-17.388,10.041-26.965,23.372-26.965,37.542s9.577,27.5,26.964,37.539h0c36,20.786,94.581,20.786,130.582,0,17.391-10.041,26.969-23.372,26.969-37.542s-9.577-27.5-26.966-37.539C524.046,254.6,500.395,249.4,476.753,249.4Z" transform="translate(-383.956 -205.027)" fill="#42e8e0" opacity="0.2"/><path d="M464.267,328.706c-14.745,0-29.489-3.238-40.713-9.719-10.925-6.309-16.943-14.713-16.943-23.662s6.018-17.356,16.945-23.663c22.452-12.96,58.979-12.962,81.43,0,10.925,6.308,16.943,14.713,16.943,23.662s-6.018,17.354-16.944,23.664C493.759,325.466,479.012,328.706,464.267,328.706Zm-40.444-10.185c22.3,12.876,58.587,12.875,80.89,0,10.755-6.209,16.676-14.446,16.676-23.2s-5.922-16.988-16.675-23.2c-22.3-12.876-58.589-12.875-80.89,0-10.755,6.209-16.676,14.446-16.676,23.2s5.922,16.988,16.675,23.2Z" transform="translate(-371.474 -197.823)" fill="#42e8e0"/><g transform="translate(50.329)"><g clip-path="url(#r)"><g transform="translate(5.863 54.683)"><path d="M424.086,310.555c0-17.3,12.143-38.325,27.121-46.973,7.5-4.332,14.3-4.734,19.2-1.883v0l5.128,3-1.489.141c2.7,3.308,4.278,8.186,4.278,14.4,0,17.3-12.141,38.327-27.121,46.975-5.146,2.97-9.959,4.093-14.058,3.586l.115,1.374-5.205-3.046-.065-.037-.209-.124.011,0C427.028,325.072,424.086,319.062,424.086,310.555Z" transform="translate(-418.037 -253.643)" fill="#9ffff8"/><ellipse cx="38.354" cy="22.144" rx="38.354" ry="22.144" transform="matrix(0.5, -0.866, 0.866, 0.5, 0, 66.431)" fill="#42e8e0"/></g></g></g></g></svg>