<svg xmlns="http://www.w3.org/2000/svg" xmlns:xlink="http://www.w3.org/1999/xlink" width="260" height="178.351" viewBox="0 0 260 178.351"><defs><style>.a{fill:url(#a);}.b{fill:url(#b);}.c{fill:url(#c);}.d{fill:url(#d);}.ad,.ao,.bk,.bl,.by,.cj,.cl,.da,.e{mix-blend-mode:color-dodge;}.ad,.al,.ao,.aw,.ax,.ba,.bf,.bi,.bk,.bl,.bn,.bo,.by,.bz,.ce,.cg,.cj,.cl,.da,.db,.dc,.de,.df,.di,.e{isolation:isolate;}.e{fill:url(#e);}.f{fill:url(#f);}.g{fill:url(#h);}.h{fill:url(#i);}.i{fill:url(#j);}.j{fill:url(#k);}.k{fill:url(#l);}.l{fill:url(#m);}.m{fill:url(#n);}.n{fill:url(#o);}.o{fill:url(#p);}.p{fill:url(#q);}.q{fill:url(#r);}.r{fill:url(#s);}.s{fill:url(#t);}.t{fill:url(#u);}.u{fill:url(#v);}.v{fill:url(#w);}.w{fill:url(#x);}.x{fill:url(#y);}.y{fill:url(#z);}.z{fill:url(#aa);}.aa{fill:url(#ab);}.ab{fill:url(#ac);}.ac{fill:url(#ad);}.ad{fill:url(#ae);}.ae{fill:url(#af);}.af{fill:url(#ag);}.ag{fill:url(#ah);}.ah{fill:url(#ai);}.ai{fill:url(#aj);}.aj{fill:url(#ak);}.ak{fill:url(#al);}.al{fill:#a7a9ac;}.al,.ba,.bn,.bz,.ce,.cg,.db,.dc{mix-blend-mode:multiply;}.am{fill:url(#am);}.an{fill:url(#an);}.ao{fill:url(#ao);}.ap{fill:url(#ap);}.aq{fill:url(#aq);}.ar{fill:url(#ar);}.as{fill:url(#as);}.at{fill:url(#at);}.au{fill:url(#au);}.av{fill:#ffe4a7;}.aw,.ax,.bf,.bi,.bo,.di{mix-blend-mode:screen;}.aw{fill:url(#av);}.ax,.dh,.dk,.dl{opacity:0.5;}.ax{fill:url(#aw);}.ay{fill:url(#ax);}.az{fill:url(#ay);}.ba,.bb{opacity:0.8;}.ba{fill:url(#az);}.bc,.be,.bq,.cx{opacity:0.3;}.bc{fill:url(#ba);}.bd{fill:url(#bb);}.be{fill:url(#bc);}.bf{fill:url(#bd);}.bg{fill:url(#be);}.bh{fill:url(#bf);}.bi{fill:url(#bg);}.bj{fill:url(#bh);}.bk{fill:url(#bi);}.bl{fill:url(#bj);}.bm{fill:#f49587;}.bn{opacity:0.2;fill:url(#bk);}.bo{fill:url(#bl);}.bp{fill:#10054d;}.bq{fill:#eaeefb;}.br{fill:url(#bm);}.bs{fill:url(#bn);}.bt{fill:url(#bo);}.bu{fill:url(#bp);}.bv{fill:#15296b;}.bw{fill:#1d3996;}.bx{fill:#94a8ea;}.by{fill:url(#bx);}.bz{fill:url(#by);}.ca{fill:url(#bz);}.cb{fill:url(#ca);}.cc{fill:url(#cc);}.cd{fill:url(#cd);}.ce{fill:url(#cf);}.cf{fill:url(#cg);}.cg{fill:url(#ci);}.ch{fill:url(#cj);}.ci{fill:url(#ck);}.cj{fill:url(#cl);}.ck{fill:url(#cm);}.cl{fill:url(#cn);}.cm,.cn,.co,.cp,.cq,.cr,.cs,.ct,.cu,.cv,.cw,.cx{fill:#fff;}.cm{opacity:0.05;}.cn{opacity:0.073;}.co{opacity:0.095;}.cp{opacity:0.118;}.cq{opacity:0.141;}.cr{opacity:0.164;}.cs{opacity:0.186;}.ct{opacity:0.209;}.cu{opacity:0.232;}.cv{opacity:0.255;}.cw{opacity:0.277;}.cy{fill:url(#co);}.cz{fill:#2af6ff;}.da{fill:url(#cp);}.db,.dd{fill:#b086cc;}.de{mix-blend-mode:overlay;fill:url(#cq);}.dg{fill:url(#cr);}.dh,.dj{fill:#a61aff;}.dj{opacity:0.46;}.dk{fill:#f28cae;}.dl{fill:#6985e2;}</style><linearGradient id="a" x1="0.736" y1="0.239" x2="0.255" y2="0.787" gradientUnits="objectBoundingBox"><stop offset="0" stop-color="#6e00b3"/><stop offset="1" stop-color="#2549c0"/></linearGradient><linearGradient id="b" x1="90.499" y1="1.035" x2="94.139" y2="-0.059" gradientUnits="objectBoundingBox"><stop offset="0" stop-color="#25054d"/><stop offset="1" stop-color="#45108a"/></linearGradient><linearGradient id="c" x1="90.091" y1="0.589" x2="91.631" y2="-0.015" xlink:href="#b"/><linearGradient id="d" x1="46.356" y1="-0.95" x2="45.797" y2="0.883" gradientUnits="objectBoundingBox"><stop offset="0.737" stop-color="#45108a"/><stop offset="1" stop-color="#3746a3"/></linearGradient><radialGradient id="e" cx="0.4" cy="0.46" r="0.952" gradientTransform="translate(0.332) scale(0.335 1)" gradientUnits="objectBoundingBox"><stop offset="0" stop-color="#fff"/><stop offset="1"/></radialGradient><linearGradient id="f" x1="0.943" y1="-0.947" x2="0.383" y2="0.883" xlink:href="#d"/><linearGradient id="h" x1="-0.178" y1="0.767" x2="1.984" y2="-0.085" gradientUnits="objectBoundingBox"><stop offset="0.03" stop-color="#7c1dc9"/><stop offset="0.214" stop-color="#6e41d1"/><stop offset="0.618" stop-color="#4c9be8"/><stop offset="1" stop-color="#2af6ff"/></linearGradient><linearGradient id="i" x1="-0.886" y1="0.91" x2="1.948" y2="0.072" gradientUnits="objectBoundingBox"><stop offset="0.035" stop-color="#138bbd"/><stop offset="0.226" stop-color="#169ac6"/><stop offset="0.595" stop-color="#1ec2df"/><stop offset="1" stop-color="#2af6ff"/></linearGradient><linearGradient id="j" x1="0.361" y1="0.53" x2="3.146" y2="-0.062" xlink:href="#h"/><linearGradient id="k" x1="316.628" y1="0.378" x2="3643.729" y2="-0.91" xlink:href="#b"/><linearGradient id="l" x1="-2731.669" y1="1.291" x2="1654.576" y2="0.021" xlink:href="#b"/><linearGradient id="m" x1="1795.524" y1="-461.889" x2="10419.931" y2="-2682.877" xlink:href="#b"/><linearGradient id="n" x1="-7654.934" y1="-2763.325" x2="826.429" y2="298.884" gradientUnits="objectBoundingBox"><stop offset="0.02" stop-color="#45108a"/><stop offset="0.394" stop-color="#3d065f"/><stop offset="1" stop-color="#12054e"/><stop offset="1" stop-color="#10054d"/></linearGradient><linearGradient id="o" x1="0.204" y1="0.562" x2="3.026" y2="-0.033" xlink:href="#b"/><linearGradient id="p" x1="-7297.734" y1="1413.156" x2="1301.773" y2="-251.262" xlink:href="#b"/><linearGradient id="q" x1="-7613.856" y1="-2759.637" x2="821.223" y2="297.805" xlink:href="#n"/><linearGradient id="r" x1="-0.857" y1="-0.226" x2="1.934" y2="-0.961" xlink:href="#i"/><linearGradient id="s" x1="-1.072" y1="0.893" x2="2.167" y2="0.083" xlink:href="#b"/><linearGradient id="t" x1="799.511" y1="0.277" x2="5930.865" y2="-1.156" xlink:href="#b"/><linearGradient id="u" x1="-3969.25" y1="1.33" x2="2792.132" y2="-0.083" xlink:href="#b"/><linearGradient id="v" x1="-3837.254" y1="-1.002" x2="3896.119" y2="2.025" xlink:href="#n"/><linearGradient id="w" x1="-1.075" y1="2.468" x2="2.174" y2="1.811" xlink:href="#b"/><linearGradient id="x" x1="0.207" y1="1.925" x2="3.019" y2="1.19" xlink:href="#b"/><linearGradient id="y" x1="190124.234" y1="0.378" x2="194183.688" y2="-0.909" xlink:href="#b"/><linearGradient id="z" x1="186405.828" y1="1.291" x2="191756.156" y2="0.021" xlink:href="#b"/><linearGradient id="aa" x1="380529.188" y1="-464.716" x2="389138.781" y2="-2699.281" xlink:href="#b"/><linearGradient id="ab" x1="371097.656" y1="-2779.24" x2="379561.469" y2="300.603" xlink:href="#n"/><linearGradient id="ac" x1="-0.755" y1="1.064" x2="1.888" y2="0.556" xlink:href="#i"/><linearGradient id="ad" x1="-1.076" y1="1.953" x2="2.174" y2="1.328" xlink:href="#b"/><radialGradient id="ae" cx="0.485" cy="0.561" r="0.595" gradientTransform="translate(0.131) scale(0.738 1)" gradientUnits="objectBoundingBox"><stop offset="0" stop-color="#4b61b8"/><stop offset="0.128" stop-color="#38488a"/><stop offset="0.267" stop-color="#273260"/><stop offset="0.409" stop-color="#19203d"/><stop offset="0.552" stop-color="#0e1222"/><stop offset="0.697" stop-color="#06080f"/><stop offset="0.845" stop-color="#010103"/><stop offset="1"/></radialGradient><linearGradient id="af" x1="372920.469" y1="1413.156" x2="381519.969" y2="-251.262" xlink:href="#b"/><linearGradient id="ag" x1="372604.344" y1="-2759.637" x2="381039.406" y2="297.805" xlink:href="#n"/><linearGradient id="ah" x1="0.347" y1="1.747" x2="2.997" y2="0.546" xlink:href="#h"/><linearGradient id="ai" x1="0.207" y1="1.883" x2="3.019" y2="0.608" xlink:href="#b"/><linearGradient id="aj" x1="190364.359" y1="0.277" x2="194383.547" y2="-1.157" xlink:href="#b"/><linearGradient id="ak" x1="186628.266" y1="1.331" x2="191925.734" y2="-0.084" xlink:href="#b"/><linearGradient id="al" x1="186733.719" y1="-1.003" x2="192788.641" y2="2.025" xlink:href="#n"/><linearGradient id="am" x1="0.337" y1="0.566" x2="2.487" y2="-0.306" gradientUnits="objectBoundingBox"><stop offset="0" stop-color="#6b24d6"/><stop offset="1" stop-color="#a56ef4"/></linearGradient><linearGradient id="an" x1="-0.879" y1="0.92" x2="1.94" y2="0.062" xlink:href="#am"/><linearGradient id="ao" x1="1.544" y1="0.767" x2="-0.09" y2="0.357" gradientUnits="objectBoundingBox"><stop offset="0" stop-color="#b4299a"/><stop offset="0.119" stop-color="#8a1f76"/><stop offset="0.259" stop-color="#601552"/><stop offset="0.402" stop-color="#3d0e34"/><stop offset="0.547" stop-color="#22071d"/><stop offset="0.694" stop-color="#0f030d"/><stop offset="0.843" stop-color="#030003"/><stop offset="1"/></linearGradient><linearGradient id="ap" x1="240.565" y1="81.104" x2="243.236" y2="80.64" xlink:href="#b"/><linearGradient id="aq" x1="236.258" y1="81.243" x2="239.764" y2="80.786" xlink:href="#b"/><linearGradient id="ar" x1="120.487" y1="116.269" x2="119.927" y2="118.098" xlink:href="#b"/><linearGradient id="as" x1="0.297" y1="0.535" x2="2.968" y2="0.072" gradientUnits="objectBoundingBox"><stop offset="0.035" stop-color="#ffa98c"/><stop offset="0.317" stop-color="#feb892"/><stop offset="0.86" stop-color="#fee0a3"/><stop offset="1" stop-color="#feeca8"/></linearGradient><linearGradient id="at" x1="-1.215" y1="0.724" x2="2.291" y2="0.267" xlink:href="#as"/><linearGradient id="au" x1="1.021" y1="-1.201" x2="0.461" y2="0.629" xlink:href="#as"/><linearGradient id="av" x1="0.5" y1="1" x2="0.5" y2="0.019" gradientUnits="objectBoundingBox"><stop offset="0" stop-color="#7c1dc9"/><stop offset="0.03" stop-color="#741bbc"/><stop offset="0.162" stop-color="#55148b"/><stop offset="0.297" stop-color="#3b0d60"/><stop offset="0.433" stop-color="#25083d"/><stop offset="0.57" stop-color="#150422"/><stop offset="0.709" stop-color="#09020f"/><stop offset="0.851" stop-color="#020003"/><stop offset="1"/></linearGradient><linearGradient id="aw" x1="0.5" y1="1" x2="0.5" y2="0.019" gradientUnits="objectBoundingBox"><stop offset="0" stop-color="#2af6ff"/><stop offset="0.015" stop-color="#28eef6"/><stop offset="0.132" stop-color="#1fb7bd"/><stop offset="0.252" stop-color="#16868b"/><stop offset="0.373" stop-color="#0f5d60"/><stop offset="0.494" stop-color="#0a3b3d"/><stop offset="0.617" stop-color="#052122"/><stop offset="0.741" stop-color="#020e0f"/><stop offset="0.867" stop-color="#000303"/><stop offset="1"/></linearGradient><linearGradient id="ax" x1="0.204" y1="1.023" x2="3.026" y2="0.188" xlink:href="#b"/><linearGradient id="ay" x1="-1.072" y1="1.535" x2="2.167" y2="0.819" xlink:href="#b"/><radialGradient id="az" cx="0.5" cy="0.5" r="0.949" gradientTransform="translate(0.299) scale(0.401 1)" gradientUnits="objectBoundingBox"><stop offset="0" stop-color="#231f20"/><stop offset="0.06" stop-color="#494647"/><stop offset="0.135" stop-color="#747172"/><stop offset="0.217" stop-color="#999798"/><stop offset="0.304" stop-color="#b9b7b8"/><stop offset="0.398" stop-color="#d2d1d2"/><stop offset="0.5" stop-color="#e6e6e6"/><stop offset="0.617" stop-color="#f4f4f4"/><stop offset="0.759" stop-color="#fcfcfc"/><stop offset="1" stop-color="#fff"/></radialGradient><linearGradient id="ba" x1="0.248" y1="-0.032" x2="0.836" y2="0.84" gradientUnits="objectBoundingBox"><stop offset="0" stop-color="#3d065f"/><stop offset="0.066" stop-color="#b36e7e"/><stop offset="0.084" stop-color="#cd8585"/><stop offset="0.105" stop-color="#e4998b"/><stop offset="0.124" stop-color="#f2a58e"/><stop offset="0.141" stop-color="#f7aa90"/><stop offset="0.183" stop-color="#f8b895"/><stop offset="0.265" stop-color="#fbcf9e"/><stop offset="0.342" stop-color="#fddda4"/><stop offset="0.409" stop-color="#fee2a6"/><stop offset="0.52" stop-color="#f9c098"/><stop offset="0.627" stop-color="#f6a88e"/><stop offset="0.726" stop-color="#f49a89"/><stop offset="0.808" stop-color="#f49587"/></linearGradient><linearGradient id="bb" x1="0.242" y1="-0.1" x2="0.946" y2="0.878" gradientUnits="objectBoundingBox"><stop offset="0.056" stop-color="#f7aa90"/><stop offset="0.111" stop-color="#f8b895"/><stop offset="0.218" stop-color="#fbcf9e"/><stop offset="0.32" stop-color="#fddda4"/><stop offset="0.409" stop-color="#fee2a6"/><stop offset="0.52" stop-color="#f9c098"/><stop offset="0.627" stop-color="#f6a88e"/><stop offset="0.726" stop-color="#f49a89"/><stop offset="0.808" stop-color="#f49587"/></linearGradient><linearGradient id="bc" x1="0.108" y1="-0.172" x2="0.853" y2="1.309" gradientUnits="objectBoundingBox"><stop offset="0.01" stop-color="#f7aa90"/><stop offset="0.144" stop-color="#f7b092"/><stop offset="0.327" stop-color="#f9c199"/><stop offset="0.538" stop-color="#fddea4"/><stop offset="0.561" stop-color="#fee2a6"/><stop offset="0.721" stop-color="#fac49a"/><stop offset="1" stop-color="#f49587"/></linearGradient><radialGradient id="bd" cx="0.224" cy="-0.111" r="0.438" gradientTransform="translate(-1.781) scale(4.562 1)" gradientUnits="objectBoundingBox"><stop offset="0" stop-color="#ffe4a7"/><stop offset="0.04" stop-color="#e8cf98"/><stop offset="0.148" stop-color="#b29f75"/><stop offset="0.259" stop-color="#827555"/><stop offset="0.372" stop-color="#5a513b"/><stop offset="0.487" stop-color="#393325"/><stop offset="0.605" stop-color="#201c15"/><stop offset="0.726" stop-color="#0e0c09"/><stop offset="0.855" stop-color="#030302"/><stop offset="1"/></radialGradient><linearGradient id="be" x1="0.202" y1="-0.074" x2="0.896" y2="0.867" xlink:href="#bb"/><linearGradient id="bf" x1="0.039" y1="-0.269" x2="0.915" y2="1.439" xlink:href="#bc"/><radialGradient id="bg" cx="0.869" cy="0.355" r="0.588" gradientTransform="translate(-0.187) scale(1.375 1)" gradientUnits="objectBoundingBox"><stop offset="0.364" stop-color="#fff"/><stop offset="0.427" stop-color="#e1e1e1"/><stop offset="0.64" stop-color="#828282"/><stop offset="0.813" stop-color="#3b3b3b"/><stop offset="0.937" stop-color="#101010"/><stop offset="1"/></radialGradient><linearGradient id="bh" x1="0.3" y1="0.024" x2="0.942" y2="1.078" gradientUnits="objectBoundingBox"><stop offset="0" stop-color="#ffe4a7"/><stop offset="0.011" stop-color="#fee2a6"/><stop offset="0.266" stop-color="#fac098"/><stop offset="0.509" stop-color="#f6a88e"/><stop offset="0.733" stop-color="#f49a89"/><stop offset="0.919" stop-color="#f49587"/></linearGradient><radialGradient id="bi" cx="0.836" cy="0.996" r="0.482" gradientTransform="translate(-0.187) scale(1.375 1)" gradientUnits="objectBoundingBox"><stop offset="0" stop-color="#2e3192"/><stop offset="1"/></radialGradient><radialGradient id="bj" cx="0.836" cy="0.996" r="0.417" gradientTransform="translate(-0.293) scale(1.587 1)" gradientUnits="objectBoundingBox"><stop offset="0" stop-color="#ff63ce"/><stop offset="1"/></radialGradient><radialGradient id="bk" cx="0.353" cy="0.659" r="0.381" gradientTransform="translate(-0.521 26.813) scale(2.475 1.662)" gradientUnits="objectBoundingBox"><stop offset="0.136" stop-color="#49166d"/><stop offset="0.217" stop-color="#4e1d71"/><stop offset="0.335" stop-color="#5e317e"/><stop offset="0.478" stop-color="#775192"/><stop offset="0.639" stop-color="#9b7faf"/><stop offset="0.815" stop-color="#c8b9d3"/><stop offset="1" stop-color="#fff"/></radialGradient><radialGradient id="bl" cx="0.569" cy="0.539" r="0.5" gradientTransform="matrix(0.22, 0.975, -0.975, 0.22, 0.862, -0.195)" gradientUnits="objectBoundingBox"><stop offset="0" stop-color="#fff"/><stop offset="0.01" stop-color="#fdebe5"/><stop offset="0.038" stop-color="#f8bca8"/><stop offset="0.051" stop-color="#f7aa90"/><stop offset="0.085" stop-color="#d5927c"/><stop offset="0.138" stop-color="#a87462"/><stop offset="0.196" stop-color="#80584a"/><stop offset="0.258" stop-color="#5d4036"/><stop offset="0.325" stop-color="#402c25"/><stop offset="0.4" stop-color="#281c17"/><stop offset="0.484" stop-color="#160f0d"/><stop offset="0.585" stop-color="#090605"/><stop offset="0.716" stop-color="#020101"/><stop offset="1"/></radialGradient><radialGradient id="bm" cx="0.775" cy="0.334" r="0.867" gradientTransform="matrix(0.536, -0.844, -0.844, -0.536, 1314.248, 2390.59)" gradientUnits="objectBoundingBox"><stop offset="0.02" stop-color="#364f87"/><stop offset="0.429" stop-color="#1b2b69"/><stop offset="1" stop-color="#12054e"/><stop offset="1" stop-color="#10054d"/></radialGradient><linearGradient id="bn" x1="0.5" x2="0.5" y2="1" gradientUnits="objectBoundingBox"><stop offset="0" stop-color="#fff"/><stop offset="0.01" stop-color="#fff"/><stop offset="0.162" stop-color="#e6d6f0"/><stop offset="0.285" stop-color="#d6bde6"/><stop offset="0.359" stop-color="#d1b4e3"/><stop offset="0.477" stop-color="#c3a4db"/><stop offset="0.706" stop-color="#a07bc9"/><stop offset="0.717" stop-color="#9f79c8"/><stop offset="0.811" stop-color="#a27bc8"/><stop offset="0.898" stop-color="#ad84cb"/><stop offset="0.909" stop-color="#b086cc"/><stop offset="0.957" stop-color="#ad83cb"/><stop offset="0.988" stop-color="#a47dc9"/><stop offset="1" stop-color="#9f79c8"/></linearGradient><radialGradient id="bo" cx="0.375" cy="0.528" r="0.586" gradientTransform="matrix(-0.975, 0.222, 0.222, 0.975, 2058.17, -231.324)" xlink:href="#bm"/><radialGradient id="bp" cx="0.34" cy="0.566" r="0.612" gradientTransform="matrix(-0.794, 0.338, 0.285, 0.941, 1024.768, -193.366)" xlink:href="#bm"/><radialGradient id="bx" cx="0.175" cy="0.492" r="0.402" gradientTransform="matrix(-1.854, 0, 0, 1, 1696.586, 0)" gradientUnits="objectBoundingBox"><stop offset="0" stop-color="#972a74"/><stop offset="0.023" stop-color="#8c276b"/><stop offset="0.114" stop-color="#671c4f"/><stop offset="0.212" stop-color="#471336"/><stop offset="0.318" stop-color="#2d0c22"/><stop offset="0.434" stop-color="#180613"/><stop offset="0.566" stop-color="#0a0308"/><stop offset="0.727" stop-color="#020001"/><stop offset="1"/></radialGradient><linearGradient id="by" x1="208.903" y1="0.616" x2="207.878" y2="0.491" gradientUnits="objectBoundingBox"><stop offset="0" stop-color="#fff"/><stop offset="1" stop-color="#b086cc"/></linearGradient><linearGradient id="bz" x1="502.245" y1="-4.103" x2="500.945" y2="-3.788" gradientUnits="objectBoundingBox"><stop offset="0.01" stop-color="#c1a1d5"/><stop offset="0.049" stop-color="#c7abd9"/><stop offset="0.115" stop-color="#d9c6e5"/><stop offset="0.2" stop-color="#f6f2f9"/><stop offset="0.222" stop-color="#fff"/><stop offset="0.251" stop-color="#f9f5fb"/><stop offset="0.3" stop-color="#e9dbf1"/><stop offset="0.359" stop-color="#d1b4e3"/><stop offset="0.426" stop-color="#b294d5"/><stop offset="0.495" stop-color="#9b7ccb"/><stop offset="0.558" stop-color="#8d6ec5"/><stop offset="0.611" stop-color="#8969c3"/><stop offset="0.755" stop-color="#9371c5"/><stop offset="1" stop-color="#b086cc"/></linearGradient><radialGradient id="ca" cx="0.324" cy="0.36" r="0.734" gradientTransform="matrix(-0.996, -0.082, -0.082, 0.997, 2892.636, 119.393)" xlink:href="#bm"/><linearGradient id="cc" x1="875.055" y1="53.307" x2="874.038" y2="53.049" gradientTransform="matrix(1, 0, 0, 1, 0, 0)" xlink:href="#bm"/><radialGradient id="cd" cx="0.375" cy="0.528" r="0.586" gradientTransform="matrix(-0.975, 0.222, 0.222, 0.975, 2023.824, -227.471)" xlink:href="#bm"/><linearGradient id="cf" x1="681.333" y1="0.47" x2="680.117" y2="0.574" xlink:href="#by"/><linearGradient id="cg" x1="0" y1="0.5" x2="1" y2="0.5" xlink:href="#b"/><radialGradient id="ci" cx="0.961" cy="0.303" r="0.719" gradientTransform="translate(-0.142) scale(1.285 1)" gradientUnits="objectBoundingBox"><stop offset="0" stop-color="#5c2db3"/><stop offset="0.098" stop-color="#764ebf"/><stop offset="0.269" stop-color="#9f83d2"/><stop offset="0.436" stop-color="#c1b0e2"/><stop offset="0.596" stop-color="#dcd2ee"/><stop offset="0.747" stop-color="#efebf7"/><stop offset="0.886" stop-color="#fbf9fd"/><stop offset="1" stop-color="#fff"/></radialGradient><radialGradient id="cj" cx="0.424" cy="0.399" r="0.579" gradientUnits="objectBoundingBox"><stop offset="0" stop-color="#2af6ff"/><stop offset="1" stop-color="#138bbd"/></radialGradient><radialGradient id="ck" cx="0.146" cy="0.39" r="0.766" gradientTransform="translate(-0.125) scale(1.251 1)" gradientUnits="objectBoundingBox"><stop offset="0.01" stop-color="#fff"/><stop offset="0.162" stop-color="#e6d6f0"/><stop offset="0.285" stop-color="#d6bde6"/><stop offset="0.359" stop-color="#d1b4e3"/><stop offset="0.477" stop-color="#c3a4db"/><stop offset="0.706" stop-color="#a07bc9"/><stop offset="0.717" stop-color="#9f79c8"/><stop offset="0.811" stop-color="#a27bc8"/><stop offset="0.898" stop-color="#ad84cb"/><stop offset="0.909" stop-color="#b086cc"/><stop offset="0.957" stop-color="#ad83cb"/><stop offset="0.988" stop-color="#a47dc9"/><stop offset="1" stop-color="#9f79c8"/></radialGradient><radialGradient id="cl" cx="0.424" cy="0.399" r="0.579" xlink:href="#aw"/><radialGradient id="cm" cx="0.269" cy="0.41" r="0.783" gradientTransform="translate(-0.059) scale(1.118 1)" xlink:href="#ck"/><radialGradient id="cn" cx="0.424" cy="0.399" r="0.579" gradientUnits="objectBoundingBox"><stop offset="0" stop-color="#972a74"/><stop offset="0.041" stop-color="#8a266a"/><stop offset="0.194" stop-color="#601a49"/><stop offset="0.35" stop-color="#3d112f"/><stop offset="0.507" stop-color="#22091a"/><stop offset="0.667" stop-color="#0f040b"/><stop offset="0.829" stop-color="#030102"/><stop offset="1"/></radialGradient><linearGradient id="co" x1="-5.09" y1="0.808" x2="-4.423" y2="-0.087" xlink:href="#b"/><radialGradient id="cp" cx="0.5" cy="0.5" r="0.5" gradientTransform="translate(0)" gradientUnits="objectBoundingBox"><stop offset="0" stop-color="#43e8e1"/><stop offset="0.137" stop-color="#34b5af"/><stop offset="0.303" stop-color="#247e7a"/><stop offset="0.465" stop-color="#17514e"/><stop offset="0.619" stop-color="#0d2d2c"/><stop offset="0.764" stop-color="#051413"/><stop offset="0.895" stop-color="#010505"/><stop offset="1"/></radialGradient><linearGradient id="cq" x1="0.877" y1="0.12" x2="0.395" y2="0.669" gradientUnits="objectBoundingBox"><stop offset="0" stop-color="#fff"/><stop offset="0.343" stop-color="#b984da" stop-opacity="0.502"/><stop offset="1" stop-color="#fff" stop-opacity="0"/></linearGradient><linearGradient id="cr" x1="536093.813" y1="97.435" x2="536093.813" y2="-226.421" gradientUnits="objectBoundingBox"><stop offset="0" stop-color="#43e8e1"/><stop offset="0.094" stop-color="#36bcb6"/><stop offset="0.218" stop-color="#288b86"/><stop offset="0.344" stop-color="#1b605d"/><stop offset="0.471" stop-color="#113d3b"/><stop offset="0.599" stop-color="#092221"/><stop offset="0.729" stop-color="#040f0e"/><stop offset="0.861" stop-color="#010303"/><stop offset="1"/></linearGradient></defs><g transform="translate(-691 -3173.9)"><path class="a" d="M171.632,772.838l-100.8-54.1c-11.929-6.4-10.433-17.586,3.342-24.981l93.216-50.035c13.773-7.393,34.61-8.2,46.539-1.793l100.8,54.105c11.929,6.4,10.433,17.586-3.342,24.981l-93.214,50.035C204.4,778.438,183.561,779.242,171.632,772.838Z" transform="translate(628.218 2575.09)"/><g transform="translate(796.925 3173.9)"><g transform="translate(13.583 43.75)"><g transform="translate(0 52.019)"><path class="b" d="M738.631,42.627v4.338L713.5,32.571V28.234Z" transform="translate(-713.502 -13.39)"/><path class="c" d="M757.57,42.3v4.338l25.119-14.844v-4.32Z" transform="translate(-732.456 -13.062)"/><path class="d" d="M763.735,16.6,738.616,31.424,713.5,17.031,738.651,2.187Z" transform="translate(-713.502 -2.187)"/><path class="e" d="M738.969,44.622l.445-2.142,24.332-14.373L739.074,42.287l-24.558-13.67,24.275,14.09Z" transform="translate(-713.938 -13.335)"/></g><g transform="translate(6.151)"><path class="f" d="M422.294,231.974l18.981,11.054,18.908-11.034-19-11.066Z" transform="translate(-422.294 -186.392)"/><path class="f" d="M422.294,165.981l18.981,11.054L460.183,166l-19-11.066Z" transform="translate(-422.294 -142.576)"/><g transform="translate(1.342 42.414)"><path class="g" d="M478.743,254.678v3.094l17.578-10.253v-3.094Z" transform="translate(-461.116 -244.407)"/><path class="h" d="M443.924,254.642v3.094l-17.637-10.282v-3.083Z" transform="translate(-426.287 -244.371)"/></g><path class="i" d="M478.779,273.718v15.822l18.055-10.5V264.071Z" transform="translate(-459.798 -215.037)"/><path class="j" d="M478.748,294.8l.01-.006v-8.1l-.005,0-.005,0Z" transform="translate(-459.777 -230.051)"/><path class="k" d="M478.748,294.8l.01-.006v-8.1l-.005,0-.005,0Z" transform="translate(-459.777 -230.051)"/><path class="l" d="M478.748,344.253l.005,0-.005,0Z" transform="translate(-459.777 -268.27)"/><path class="m" d="M478.748,344.253l.005,0-.005,0Z" transform="translate(-459.777 -268.27)"/><path class="n" d="M491.476,275.713l-12.7,7.063v11.238l18.908-10.993V267.171l-4.136,2.418Z" transform="translate(-459.798 -217.095)"/><path class="o" d="M478.769,344.253v-.006l-.005,0Z" transform="translate(-459.788 -268.27)"/><path class="p" d="M478.769,344.253v-.006l-.005,0Z" transform="translate(-459.788 -268.27)"/><path class="q" d="M443.361,306.043v-9.8l-.122.069-9.64-5.2-4.528,1.66-3.62-1.977v4.835Z" transform="translate(-424.39 -232.784)"/><path class="r" d="M441.265,313.462V302.23l-.129.073-2.378-1.174-4.367,1.962-12.1-6.63v5.977Z" transform="translate(-422.294 -236.543)"/><path class="s" d="M478.748,310.81v11.232l.005,0,.005,0V310.8Z" transform="translate(-459.777 -246.066)"/><path class="t" d="M478.748,310.81v11.232l.005,0,.005,0V310.8Z" transform="translate(-459.777 -246.066)"/><path class="u" d="M478.748,310.81v11.232l.005,0,.005,0V310.8Z" transform="translate(-459.777 -246.066)"/><g transform="translate(0 23.343)"><path class="v" d="M441.2,208.645l-11.555-6.523-2.075-4.055-5.278-2.639v-7.75l18.913,11.031-.005,0Z" transform="translate(-422.294 -187.658)"/><path class="w" d="M481.917,206.987l-3.206,1.7-.129-.073v-9.939l-.005,0,18.976-11.051V204.9l-8.09,4.442Z" transform="translate(-459.663 -187.619)"/><path class="x" d="M478.571,230.446l-.011-.006v-9.933l.005,0,.005,0Z" transform="translate(-459.653 -209.453)"/><path class="y" d="M478.571,230.446l-.011-.006v-9.933l.005,0,.005,0Z" transform="translate(-459.653 -209.453)"/><path class="z" d="M478.581,276.353l-.005,0,.005,0Z" transform="translate(-459.663 -246.531)"/><path class="aa" d="M478.581,276.353l-.005,0,.005,0Z" transform="translate(-459.663 -246.531)"/><path class="ab" d="M429.647,217.435l11.555,6.523v8.829l-18.908-10.993V210.741l5.278,2.639Z" transform="translate(-422.294 -202.971)"/><path class="ac" d="M429.647,220.242l11.555,6.523v8.829L422.294,224.6V213.547l5.278,2.639Z" transform="translate(-422.294 -204.834)"/><path class="ad" d="M429.647,218.879l-2.075-4.055-5.278-2.639v.744l5.278,2.639,2.075,4.055,11.555,6.523V225.4Z" transform="translate(-422.294 -203.93)"/><path class="ae" d="M478.56,276.353v-.006l.005,0Z" transform="translate(-459.653 -246.531)"/><path class="af" d="M478.56,276.353v-.006l.005,0Z" transform="translate(-459.653 -246.531)"/><path class="ag" d="M478.592,251.586v-8.823l.129.073,3.207-1.7,7.545,2.358,8.091-4.442v1.508Z" transform="translate(-459.673 -221.77)"/><path class="ah" d="M478.592,254.393v-8.823l.129.073,3.207-1.7,7.545,2.358,8.091-4.442v1.508Z" transform="translate(-459.673 -223.633)"/><path class="ai" d="M478.571,250.079V258.9l-.005,0-.005,0v-8.829Z" transform="translate(-459.653 -229.086)"/><path class="aj" d="M478.571,250.079V258.9l-.005,0-.005,0v-8.829Z" transform="translate(-459.653 -229.086)"/><path class="ak" d="M478.571,250.079V258.9l-.005,0-.005,0v-8.829Z" transform="translate(-459.653 -229.086)"/></g><path class="al" d="M478.748,319.559v2.009l18.918-11.034v-2.009Z" transform="translate(-459.777 -244.553)"/><path class="al" d="M441.275,319.521v2.009l-18.981-11.066v-2Z" transform="translate(-422.294 -244.514)"/><path class="am" d="M478.748,321.056v2.925l18.918-11.034v-2.925Z" transform="translate(-459.777 -245.547)"/><path class="an" d="M441.275,321.018v2.925l-18.981-11.066v-2.913Z" transform="translate(-422.294 -245.508)"/><path class="ao" d="M441.2,198.711v43.836l-18.908-10.512V187.677Z" transform="translate(-422.294 -164.315)"/><g transform="translate(10.215 24.244)"><path class="ap" d="M461.41,200.252V190.3l-8.717,5.084v9.949Z" transform="translate(-452.693 -190.302)"/><path class="aq" d="M478.62,200.252V190.3l8.746,5.1v9.944Z" transform="translate(-469.907 -190.302)"/><path class="ar" d="M470.152,225l-8.746-5.093-8.712,5.084,8.756,5.1Z" transform="translate(-452.693 -209.96)"/></g><g transform="translate(11.675 25.882)"><path class="as" d="M478.7,212.045v8.286l7.26-4.234v-8.286Z" transform="translate(-471.42 -203.565)"/><path class="at" d="M464.32,212.031v8.286l-7.284-4.246v-8.281Z" transform="translate(-457.036 -203.55)"/><path class="au" d="M457.036,199.414l7.284,4.242,7.256-4.234-7.292-4.246Z" transform="translate(-457.036 -195.175)"/></g><g transform="translate(15.355 28.022)"><path class="av" d="M467.989,203.622l3.561,2.074,3.609-2.076-3.564-2.076Z" transform="translate(-467.989 -201.544)"/></g><path class="aw" d="M471.634,139.9l-7.218-4.2-7.174,4.2v20.086l7.148,4.162,7.245-4.168Z" transform="translate(-445.498 -129.801)"/><path class="ax" d="M475.065,120.305l-3.692-2.15L467.7,120.3v27.933l3.656,2.129,3.706-2.132Z" transform="translate(-452.444 -118.155)"/><path class="ay" d="M478.769,272.994l3.8-2.261,2.075-5.8,13.032-7.54v-3.531l-18.913,11.031.005,0Z" transform="translate(-459.788 -208.256)"/><path class="az" d="M431,267.448l10.131,5.586.129-.073v-8.108l.005,0L422.294,253.8v13.393l2.716,1.454Z" transform="translate(-422.294 -208.217)"/></g></g><g transform="translate(0 0)"><ellipse class="ba" cx="16.149" cy="6.482" rx="16.149" ry="6.482" transform="translate(20.117 58.371)"/><g class="bb" transform="translate(16.155 16.653)"><path class="bc" d="M481.84,107.62a54.937,54.937,0,0,1-16.7-15.589l-.066-.038c-4.894,1.1-10.732-.192-16.7-3.7l-.228-.134L440.4,92.582l3.621,2.383c1.133,15.115,7.033,27.524,16.527,42.215l.231.134c1.706-.67-.879.874.588.047.063-.036,8.745-4.852,8.808-4.888,6.586-3.779,10.653-9.577,11.574-20.795l.322-3.927Z" transform="translate(-440.396 -88.16)"/><path class="bd" d="M488.132,107.62a54.938,54.938,0,0,1-16.7-15.589l-.066-.038c-4.894,1.1-10.732-.192-16.7-3.7l-.228-.134-.858.528.228.134c5.972,3.508,11.81,4.8,16.7,3.7l.066.038a54.919,54.919,0,0,0,16.7,15.589l.228.13-.323,3.928c-.863,10.516-4.492,16.269-10.369,20.062,6.381-3.783,10.323-9.571,11.227-20.59l.322-3.927Z" transform="translate(-446.688 -88.16)"/><path class="be" d="M489.134,111.125a54.938,54.938,0,0,1-16.7-15.589l-.066-.038-.1.02-16.6,9.568,24.605,11.286,9.088-5.118Z" transform="translate(-447.69 -91.664)"/><path class="bf" d="M454.6,93.345l-.161-3.7c-.214-.12-.428-.237-.642-.363l-.228-.134.322,4.3a68.781,68.781,0,0,0,5.45,22.031A68.762,68.762,0,0,1,454.6,93.345Z" transform="translate(-446.687 -88.634)"/></g><g transform="translate(16.155 20.269)"><path class="bg" d="M475.473,114.542a54.944,54.944,0,0,1-16.7-15.589l-.066-.038c-4.893,1.1-10.732-.192-16.7-3.7l-.228-.134-1.374.806,3.621,2.383c1.133,15.115,7.033,27.523,16.527,42.215l.231.134c1.706-.67-.879.874.588.046.063-.036,2.378-1.236,2.441-1.272,6.586-3.779,10.653-9.577,11.573-20.795l.322-3.928Z" transform="translate(-440.396 -95.081)"/><path class="bh" d="M482.767,118.047a54.946,54.946,0,0,1-16.7-15.589L466,102.42l-.1.02-10.23,5.953,24.605,11.286,2.721-1.5Z" transform="translate(-447.69 -98.586)"/></g><path class="bi" d="M474.842,115.606a54.936,54.936,0,0,1-16.7-15.588l-.066-.039c-4.893,1.1-10.732-.191-16.7-3.7l-.228-.134.322,4.3c1.133,15.115,7.033,27.523,16.527,42.215l.231.133c9.494-3.727,15.394-9.324,16.527-23.13l.322-3.928Z" transform="translate(-424.596 -75.321)"/><path class="bj" d="M474,115.943a54.936,54.936,0,0,1-16.7-15.588l-.066-.039c-4.893,1.1-10.732-.191-16.7-3.7l-.228-.134.322,4.3c1.134,15.115,7.033,27.523,16.528,42.215l.231.134c9.5-3.728,15.394-9.324,16.527-23.13l.322-3.928Z" transform="translate(-424.193 -75.482)"/><path class="bk" d="M474,115.943a54.936,54.936,0,0,1-16.7-15.588l-.066-.039c-4.893,1.1-10.732-.191-16.7-3.7l-.228-.134.322,4.3c1.134,15.115,7.033,27.523,16.528,42.215l.231.134c9.5-3.728,15.394-9.324,16.527-23.13l.322-3.928Z" transform="translate(-424.193 -75.482)"/><path class="bl" d="M489.25,133.572c-.1-.056-.2-.118-.3-.176l-.319,3.892c-1.128,13.744-6.981,19.351-16.4,23.079.056.087.11.172.167.259l.231.134c9.5-3.728,15.394-9.324,16.527-23.13l.322-3.928Z" transform="translate(-439.444 -93.11)"/><path class="bm" d="M459.9,143.831c-8.535-13.356-14.412-25.414-15.524-40.24l-.07-.938a26.459,26.459,0,0,0,11.289,2.841,18.5,18.5,0,0,0,2.781-.206A56.55,56.55,0,0,0,474.2,120.034l-.227,2.762C472.936,135.486,467.839,140.448,459.9,143.831Z" transform="translate(-426.109 -78.428)"/><path class="bn" d="M445.575,103.368l-.011-.145c-.418-.18-.837-.369-1.256-.57l.07.938c1.112,14.825,6.988,26.884,15.524,40.24.354-.151.7-.307,1.043-.464C452.494,130.108,446.68,118.1,445.575,103.368Z" transform="translate(-426.109 -78.428)"/><ellipse class="bo" cx="32.357" cy="32.357" rx="32.357" ry="32.357" transform="translate(0 63.122) rotate(-77.267)"/></g></g><g transform="translate(746.188 3213.01)"><g transform="translate(7.31 11.669)"><g transform="translate(0 0)"><path class="bp" d="M723.878,45.452c-.192.328-.494.989-1.838.453s-2.418-.561-2.871-.8a7.317,7.317,0,0,0-1.836-.7c-.652-.124-1.3.138-1.577-.167s.126-.738.516-.775a7.751,7.751,0,0,1,1.057.021,6.237,6.237,0,0,0-1.927-.419c-.459.109-1.036.423-1.311.028s.634-.836,1.128-.868a5.163,5.163,0,0,1,1.079.078,7.112,7.112,0,0,0-1.851-.367c-.485.068-1.44.338-1.571.023-.167-.4.217-.712.935-.813a3.029,3.029,0,0,1,.644-.044,6.62,6.62,0,0,1-1.547-.406c-.154-.173-.111-.772.585-.691a31.987,31.987,0,0,1,3.838.778c.727.2,1.98.713,3.686,1.2a10.82,10.82,0,0,1,2.736,1.241A2.056,2.056,0,0,1,723.878,45.452Z" transform="translate(-712.834 -24.214)"/><path class="bq" d="M722.19,42.939c.878.365,2.6.584,2.923.879a2.056,2.056,0,0,1,.127,2.219c-.192.328-.494.989-1.839.453a24.978,24.978,0,0,0-2.732-.742c-.052-.369.1-.88-.273-1.2a21.053,21.053,0,0,0-2.389-1.494c-.449-.254-.374-.917,0-.957a9.492,9.492,0,0,1,2.014.578,15.288,15.288,0,0,0,2.075.225Z" transform="translate(-714.195 -24.8)"/><path class="br" d="M728.6,45.02a1.422,1.422,0,1,0,.438,1.962A1.423,1.423,0,0,0,728.6,45.02Z" transform="translate(-716.636 -25.556)"/><path class="bs" d="M745.886,50.608c-.04,1.353-.621,2.283-3.271,1.954-2.731-.338-12.06-3.52-13.683-4.348a2.065,2.065,0,0,1-1.3-2.307c.188-.639.715-1.135,1.917-.9,1.165.225,11.952,2.607,13.214,2.783C744.921,48.089,745.923,49.33,745.886,50.608Z" transform="translate(-716.961 -25.598)"/><path class="bq" d="M745.229,49.971c-.108.771-.7,1.252-3.168.837a120.482,120.482,0,0,1-12.6-3.657c-1.113-.461-1.3-1.081-1.1-1.43s.73-.588,1.844-.351c1.08.228,11.067,2.513,12.241,2.722C744.455,48.448,745.33,49.243,745.229,49.971Z" transform="translate(-717.161 -25.69)"/><path class="bt" d="M748.944,51.865a1.849,1.849,0,1,0,1.393-2.214A1.85,1.85,0,0,0,748.944,51.865Z" transform="translate(-722.928 -26.902)"/><path class="bu" d="M761.5,44.625c.454,1.266,3.561.341,4.826-.113a2.435,2.435,0,1,0-1.643-4.584C763.42,40.381,761.048,43.359,761.5,44.625Z" transform="translate(-726.44 -24.153)"/><path class="bs" d="M761.893,39.285c.952.215,1.516,4.373,1.216,5.087s-4.9,2.928-7.368,4.085c-2.781,1.3-3.54,1.756-4.435.952a2.089,2.089,0,0,1-.752-2.456C751.443,45.537,760.728,39.021,761.893,39.285Z" transform="translate(-723.346 -24.011)"/><path class="bq" d="M761.309,40.139c.913.054,1.775,2.962,1.549,3.5s-4.378,2.6-6.611,3.688c-2.515,1.222-3.192,1.625-4.1,1.145-.99-.523-1.161-1.281-.9-1.674C751.97,45.7,760.192,40.073,761.309,40.139Z" transform="translate(-723.555 -24.252)"/><path class="bv" d="M772.542,136.733a2.782,2.782,0,0,1,1.836,2.27c.2,1.275.077,2.881-1.913,3.009a7.3,7.3,0,0,0-4.335,1.3c-1.147.867-4.769,1.4-5.636.408s.383-1.658,1.428-2.295a15.282,15.282,0,0,0,3.876-3.086,3.709,3.709,0,0,1,2.244-1.555A4.528,4.528,0,0,1,772.542,136.733Z" transform="translate(-726.652 -51.243)"/><path class="bw" d="M771.443,137.875a2.066,2.066,0,0,1,1.365,1.687c.152.947.057,2.141-1.421,2.236a5.423,5.423,0,0,0-3.221.966c-.853.645-3.544,1.042-4.188.3s.284-1.231,1.061-1.705a11.352,11.352,0,0,0,2.88-2.294,2.76,2.76,0,0,1,1.668-1.156A3.365,3.365,0,0,1,771.443,137.875Z" transform="translate(-727.088 -51.574)"/><path class="bv" d="M772.059,110.792c.52.867.714,2.907,1.224,5.355s1.657,5.789,1.479,8.925.535,4.947.076,5.432a1.805,1.805,0,0,1-2.168.179c-.765-.459-1.275-.791-1.071-1.249s1.2-2.168.357-5.916-2.04-8.772-2.474-9.231-.943-.331-1.479-1.122S771.141,109.262,772.059,110.792Z" transform="translate(-728.261 -43.91)"/><path class="bs" d="M775.2,128.356c-.586.7-2.992.2-3.464-.315s-1.609-6.317-2.557-9.6c-.848-2.936-1.892-5.366-1.459-6.035s2.323-3.189,4.173-2.284,2.323,5.512,2.8,8.584S775.79,127.647,775.2,128.356Z" transform="translate(-728.168 -43.786)"/><path class="bq" d="M774.268,129.186c-.275.637-1.6.277-1.88-.154s-1.225-5.472-1.921-8.309c-.623-2.54-1.323-4.63-1.128-5.23s1.066-2.873,2.112-2.145,1.562,4.743,1.991,7.414S774.545,128.545,774.268,129.186Z" transform="translate(-728.64 -44.703)"/><path class="bv" d="M785.964,143.185a3.72,3.72,0,0,1,.867,3.647,13.068,13.068,0,0,1-2.525,4.309c-.994.944-2.244,2.372-4.411,1.581s-.179-3.953.459-4.769a8.484,8.484,0,0,0,1.632-3.289c.179-1.1.663-1.326,1.25-1.377S785.377,142.522,785.964,143.185Z" transform="translate(-731.328 -53.015)"/><path class="bw" d="M785.474,144.6a2.734,2.734,0,0,1,.756,2.875,10.131,10.131,0,0,1-2.2,3.4c-.868.744-1.958,1.87-3.849,1.247s-.156-3.116.4-3.759A6.468,6.468,0,0,0,782,145.769c.156-.865.578-1.046,1.09-1.086S784.962,144.08,785.474,144.6Z" transform="translate(-731.443 -53.428)"/><path class="bv" d="M785.31,117.689a25.9,25.9,0,0,1,1.02,7.012c.128,2.983-.051,7.421-.076,8.721a14.414,14.414,0,0,0,.23,2.422,1.377,1.377,0,0,1-1.76,1.275c-1.173-.356-1.836-1.071-1.607-1.734a17.419,17.419,0,0,0,.587-7.293,31.4,31.4,0,0,0-1.4-6.962c-.255-.382-.867-.841-1.071-1.352S784.214,114.859,785.31,117.689Z" transform="translate(-731.975 -45.694)"/><path class="bs" d="M786.579,134.755a3.585,3.585,0,0,1-3.622-.158c-.512-.63-1.241-6.536-1.694-9.214-.394-2.332-1.457-4.764-.393-5.473s2.461-2.618,4.213-1.915c1.04.417,1.692,8.78,1.692,10.7C786.776,131.762,786.579,134.755,786.579,134.755Z" transform="translate(-731.748 -46)"/><path class="bq" d="M785.614,135.287a1.285,1.285,0,0,1-1.85-.083c-.272-.5-.4-5.932-.822-7.722s-1.044-3.452-.516-4.033,1.205-2.129,2.112-1.586c.538.322,1.027,7.021,1.063,8.558C785.658,132.885,785.614,135.287,785.614,135.287Z" transform="translate(-732.255 -47.094)"/><path class="bv" d="M767.158,110.713a2.308,2.308,0,1,0,2.307-2.308A2.307,2.307,0,0,0,767.158,110.713Z" transform="translate(-728.039 -43.359)"/><path class="bs" d="M771.286,97.946a2.653,2.653,0,1,1-5.3,0c-.068-1.088,1.224-22.781,2.04-25.025s3.128-4.692,6.188-3.332,3.128,5.032,1.768,8.228a64.731,64.731,0,0,0-3.4,11.492C772.17,91.894,771.286,96.518,771.286,97.946Z" transform="translate(-727.709 -32.385)"/><path class="bq" d="M769.788,98.418c0,1.01-.564,2.376-1.409,2.376s-1.3-1.426-1.339-2.376.634-19.9,1.056-21.855,1.621-4.1,3.206-2.91,1.621,4.395.916,7.186a88.037,88.037,0,0,0-1.761,10.037C770.246,93.132,769.788,97.171,769.788,98.418Z" transform="translate(-728.006 -33.537)"/><path class="bp" d="M775.231,78.027a6.884,6.884,0,0,1-4.76-5.508c-.3-1.748-1.087-11.56-1.087-11.56s11.492.544,12.172,1.292-.323,4.811,1.258,8.994C784.156,74.8,778.316,79.052,775.231,78.027Z" transform="translate(-728.662 -30.08)"/><path class="bs" d="M770.849,36.546c-1.156-.037-3.774.136-4.522,1.87s.748,4.522.748,4.522-1.292,3.026-.782,5.168a8.718,8.718,0,0,1,.476,2.652c-.034.2-.113,5.536.875,6.522s10.465,3.166,11.841,3.1c3.5-.17,4.488-4.556,5.373-7.208.742-2.228,1.393-5.338,1.393-5.338s2.21-.34,2.142-1.87-1.92-2.791-3.688-4.288a39.966,39.966,0,0,0-4.608-3.4C779.077,37.669,772.957,36.615,770.849,36.546Z" transform="translate(-727.748 -23.246)"/><path class="bq" d="M771.361,37.2c-1.047-.034-3.419.123-4.1,1.694s.678,4.1.678,4.1a10.5,10.5,0,0,0-1.357,4.184,7.3,7.3,0,0,0,.473,2.835,25.988,25.988,0,0,0,5.079,2.539c3.425,1.064,7.054-.078,7.855-2.48.673-2.018,5.322-2.643,5.322-2.643s2-.308,1.941-1.694-1.74-2.529-3.341-3.884a36.138,36.138,0,0,0-4.174-3.077C778.814,38.219,773.27,37.264,771.361,37.2Z" transform="translate(-727.877 -23.429)"/><path class="bv" d="M779.8,117.689a2.308,2.308,0,1,0,2.307-2.308A2.307,2.307,0,0,0,779.8,117.689Z" transform="translate(-731.577 -45.311)"/><path class="bs" d="M784.141,106.484c-.8.544-4.012-.2-4.93-.306a1.415,1.415,0,0,1-1.123-1.5,114.455,114.455,0,0,0,.511-12.037c-.136-5.372-1.259-9.634.026-12.856,1.337-3.354,4.265-5.634,6.978-4.825s3.358,3.8,3.082,7.128c-.321,3.872-4.51,15.04-4.578,18.372S784.991,105.907,784.141,106.484Z" transform="translate(-731.078 -33.954)"/><path class="bq" d="M782.589,106.1c-.509.522-2.552-.2-3.136-.294s-.735-1.077-.714-1.436.411-6.4.324-11.554-.8-9.249.017-12.341c.85-3.22,2.713-5.409,4.44-4.632s2.136,3.647,1.96,6.843c-.2,3.717-2.869,14.438-2.912,17.637S783.13,105.547,782.589,106.1Z" transform="translate(-731.267 -34.202)"/><path class="bs" d="M779.693,19.312a4.086,4.086,0,0,1,1.734,5.407c-1.054,2.651-1.307,4.768-1.012,5.891a36.3,36.3,0,0,0,1.358,3.485,6.771,6.771,0,0,1-4.325,1.437c-2.176-.271-2.754-1.258-2.754-1.258S773.709,16.15,779.693,19.312Z" transform="translate(-730.132 -18.32)"/><path class="bx" d="M778.711,27.095a3.9,3.9,0,0,1-1.836,3.2c-1.36.917-3.774,2.686-5.338,1.836s-2.073-5.432-2.108-7.072c-.039-1.833.408-4.862,2.482-6.052a5.857,5.857,0,0,1,4.216-.816,6.5,6.5,0,0,1,2.652,1.734c.578.578-.034,2.312-.306,3.536S778.711,26.482,778.711,27.095Z" transform="translate(-728.674 -18.078)"/><path class="by" d="M776.667,26.991a3.779,3.779,0,0,1-1.324,2.871c-.981.825-2.721,2.412-3.848,1.649s-1.494-4.879-1.519-6.353c-.029-1.647.294-4.368,1.789-5.436a3.518,3.518,0,0,1,3.04-.733,4.758,4.758,0,0,1,1.912,1.558c.417.519-.025,2.077-.22,3.176A15.656,15.656,0,0,0,776.667,26.991Z" transform="translate(-728.827 -18.305)"/><path class="bz" d="M770.967,58.269c-1.388-.724-3.228-.994-3.88-1.585a14.063,14.063,0,0,1,0-1.5,1.4,1.4,0,0,0-.01-.435l.992.539a22.583,22.583,0,0,0,6.086,2.509c2.781.645,4.7.15,6.379-3.071,1.187-2.279,4.491-1.986,6.016-2.375-.109.507-.7,3.233-1.375,5.247-.624,1.873-1.3,4.605-2.881,6.112a5.449,5.449,0,0,1-.228-1.879c.161-3.432-.882-5.039-.882-5.039S779.235,62.58,770.967,58.269Z" transform="translate(-728.066 -27.67)"/><path class="ca" d="M795.373,97.016c.659.158.951.367.89,1.018s-.008,3,.056,4.02a11.935,11.935,0,0,1-.83,3.3,3.413,3.413,0,0,1-.453,1.4c-.361.482-.632.325-.74.212a1.063,1.063,0,0,1,0-.783,10.763,10.763,0,0,0,.13-1.456s-.426,1.627-.575,2.233-.554,1.211-.944,1.235a.462.462,0,0,1-.508-.5,6.739,6.739,0,0,0,.379-1.284c.026-.41.035-1.076.035-1.076a9.141,9.141,0,0,1-.525,2.214c-.173.388-.56,1.816-1.252,1.465-.523-.266.12-1.541.22-1.911a13.05,13.05,0,0,0,.212-4.2c-.141-.876-.452-1.232-1.273-.482s-1.591,1.236-1.771.8.584-1.378,1.084-1.97a10.535,10.535,0,0,1,1.959-1.694c1.215-.747,1.233-2.133,2.026-2.541A2.521,2.521,0,0,1,795.373,97.016Z" transform="translate(-733.983 -40.118)"/><path class="bp" d="M795.373,97.016c.659.158.951.367.89,1.018s-.008,3,.056,4.02a11.935,11.935,0,0,1-.83,3.3,3.413,3.413,0,0,1-.453,1.4c-.361.482-.632.325-.74.212a1.063,1.063,0,0,1,0-.783,10.763,10.763,0,0,0,.13-1.456s-.426,1.627-.575,2.233-.554,1.211-.944,1.235a.462.462,0,0,1-.508-.5,6.739,6.739,0,0,0,.379-1.284c.026-.41.035-1.076.035-1.076a9.141,9.141,0,0,1-.525,2.214c-.173.388-.56,1.816-1.252,1.465-.523-.266.12-1.541.22-1.911a13.05,13.05,0,0,0,.212-4.2c-.141-.876-.452-1.232-1.273-.482s-1.591,1.236-1.771.8.584-1.378,1.084-1.97a10.535,10.535,0,0,1,1.959-1.694c1.215-.747,1.233-2.133,2.026-2.541A2.521,2.521,0,0,1,795.373,97.016Z" transform="translate(-733.983 -40.118)"/><path class="cb" d="M795.439,96.737a1.422,1.422,0,1,0,1.535-1.3A1.422,1.422,0,0,0,795.439,96.737Z" transform="translate(-735.953 -39.728)"/><path class="bs" d="M798.334,70.657a2.535,2.535,0,0,1,1.459,1.676c.434,1.348-.735,14.071-.942,15.334s-.521,2.906-1.976,2.754-1.9-.993-1.859-1.885c.058-1.19.144-7.251-.126-10.9-.25-3.377-.179-4.645.209-5.392C795.414,71.636,797.079,70.17,798.334,70.657Z" transform="translate(-735.76 -32.767)"/><path class="bq" d="M797.776,73.364a1.867,1.867,0,0,1,.943,1.386c.269,1.125-.694,11.827-.85,12.891s-.389,2.448-1.352,2.342a1.309,1.309,0,0,1-1.206-1.556c.057-1,.2-6.091.077-9.154-.117-2.832-.051-3.9.217-4.531C795.823,74.229,796.949,72.973,797.776,73.364Z" transform="translate(-735.918 -33.531)"/><path class="cc" d="M794.513,51.34a5.834,5.834,0,0,1-2.572.8c-.795.032-1.861.333-1.944,1.079s1.166,1.066,1.516,4.436,1.66,1.919,2.6-.428C795.1,54.756,794.963,52.023,794.513,51.34Z" transform="translate(-734.43 -27.387)"/><path class="cd" d="M795.717,71.337a1.849,1.849,0,1,0,1.393-2.214A1.849,1.849,0,0,0,795.717,71.337Z" transform="translate(-736.019 -32.351)"/><path class="bs" d="M797.667,64.848c-.012.611-1.139,1.045-2.215,1.482s-1.807.3-1.865-.266-1.333-5.214-1.9-6.876c-.622-1.838-1.729-3.226-.828-4.1s3.459-3.014,4.649-2.405S797.682,64.04,797.667,64.848Z" transform="translate(-734.579 -27.733)"/><path class="bq" d="M796.482,64.743c.035.534-.645.956-1.293,1.378s-1.119.328-1.2-.162-1.205-4.507-1.676-5.938c-.521-1.584-1.316-2.755-.809-3.554s1.971-2.764,2.764-2.276S796.436,64.036,796.482,64.743Z" transform="translate(-734.809 -28.164)"/><path class="ce" d="M776,29.01c.3-2.473-.151-6.969,1.723-8.168a3.036,3.036,0,0,1,2.48-.2c.5.623-.083,2.292-.348,3.482-.272,1.224.238,3.026.238,3.638a3.9,3.9,0,0,1-1.836,3.2,11.675,11.675,0,0,1-3.884,2.008A10.312,10.312,0,0,0,776,29.01Z" transform="translate(-730.059 -18.749)"/></g></g><g transform="translate(0 0)"><g transform="translate(14.526)"><path class="cf" d="M947.791,447.853a16.544,16.544,0,0,0-7.508-12.951c-1.926-1.112-3.683-1.293-5.012-.691-.224.121-.442.251-.656.388a5.47,5.47,0,0,0-1.84,4.584,16.545,16.545,0,0,0,7.508,12.951c1.927,1.112,3.683,1.293,5.012.692.224-.121.442-.252.656-.388A5.468,5.468,0,0,0,947.791,447.853Z" transform="translate(-925.82 -432.948)"/><path class="cf" d="M947.791,447.853a16.544,16.544,0,0,0-7.508-12.951c-1.926-1.112-3.683-1.293-5.012-.691-.224.121-.442.251-.656.388a5.47,5.47,0,0,0-1.84,4.584,16.545,16.545,0,0,0,7.508,12.951c1.927,1.112,3.683,1.293,5.012.692.224-.121.442-.252.656-.388A5.468,5.468,0,0,0,947.791,447.853Z" transform="translate(-925.82 -432.948)"/><path class="cg" d="M947.791,447.853a16.544,16.544,0,0,0-7.508-12.951c-1.926-1.112-3.683-1.293-5.012-.691-.224.121-.442.251-.656.388a5.47,5.47,0,0,0-1.84,4.584,16.545,16.545,0,0,0,7.508,12.951c1.927,1.112,3.683,1.293,5.012.692.224-.121.442-.252.656-.388A5.468,5.468,0,0,0,947.791,447.853Z" transform="translate(-925.82 -432.948)"/><ellipse class="ch" cx="8.988" cy="8.988" rx="8.988" ry="8.988" transform="translate(4.551 2.208)"/><path class="ci" d="M942.415,434.113a16.544,16.544,0,0,1,7.508,12.951,5.468,5.468,0,0,1-1.84,4.585,10.57,10.57,0,0,0-10.68-18.227C938.732,432.82,940.489,433,942.415,434.113Z" transform="translate(-927.953 -432.159)"/><ellipse class="cj" cx="10.279" cy="10.279" rx="10.279" ry="10.279" transform="translate(3.687 0.771)"/><path class="ck" d="M933.348,437.062c-1.927-1.112-3.683-1.293-5.012-.691-.224.121-.442.251-.656.388a10.57,10.57,0,0,0,10.68,18.227c.224-.121.442-.252.656-.388a5.468,5.468,0,0,0,1.84-4.585A16.546,16.546,0,0,0,933.348,437.062Z" transform="translate(-921.216 -433.943)"/><ellipse class="cl" cx="6.696" cy="6.696" rx="6.696" ry="6.696" transform="translate(2.269 3.709)"/><g transform="translate(0 8.117)"><ellipse class="cm" cx="3.526" cy="6.108" rx="3.526" ry="6.108" transform="matrix(0.863, -0.505, 0.505, 0.863, 0, 3.559)"/><ellipse class="cn" cx="3.434" cy="5.948" rx="3.434" ry="5.948" transform="matrix(0.863, -0.505, 0.505, 0.863, 0.133, 3.655)"/><ellipse class="co" cx="3.341" cy="5.787" rx="3.341" ry="5.787" transform="translate(0.267 3.75) rotate(-30.311)"/><ellipse class="cp" cx="3.248" cy="5.627" rx="3.248" ry="5.627" transform="translate(0.4 3.846) rotate(-30.311)"/><ellipse class="cq" cx="3.156" cy="5.466" rx="3.156" ry="5.466" transform="matrix(0.863, -0.505, 0.505, 0.863, 0.534, 3.941)"/><ellipse class="cr" cx="3.063" cy="5.306" rx="3.063" ry="5.306" transform="translate(0.667 4.037) rotate(-30.311)"/><ellipse class="cs" cx="2.97" cy="5.145" rx="2.97" ry="5.145" transform="translate(0.8 4.132) rotate(-30.311)"/><ellipse class="ct" cx="2.878" cy="4.985" rx="2.878" ry="4.985" transform="translate(0.934 4.228) rotate(-30.311)"/><ellipse class="cu" cx="2.785" cy="4.824" rx="2.785" ry="4.824" transform="translate(1.067 4.323) rotate(-30.311)"/><ellipse class="cv" cx="2.692" cy="4.664" rx="2.692" ry="4.664" transform="translate(1.201 4.419) rotate(-30.311)"/><ellipse class="cw" cx="2.6" cy="4.503" rx="2.6" ry="4.503" transform="translate(1.334 4.514) rotate(-30.311)"/><path class="cx" d="M931.129,458.758c0,1.952-1.379,2.738-3.08,1.756a6.787,6.787,0,0,1-3.08-5.313c0-1.952,1.379-2.738,3.08-1.756A6.788,6.788,0,0,1,931.129,458.758Z" transform="translate(-922.225 -449.886)"/></g><path class="cy" d="M931.129,458.758c0,1.952-1.379,2.738-3.08,1.756a6.787,6.787,0,0,1-3.08-5.313c0-1.952,1.379-2.738,3.08-1.756A6.788,6.788,0,0,1,931.129,458.758Z" transform="translate(-922.225 -441.769)"/><path class="cz" d="M930.791,460.179c0,.407-.288.57-.641.366a1.413,1.413,0,0,1-.642-1.106c0-.407.287-.57.642-.366A1.414,1.414,0,0,1,930.791,460.179Z" transform="translate(-924.316 -444.516)"/><ellipse class="da" cx="2.41" cy="2.41" rx="2.41" ry="2.41" transform="translate(3.424 12.883)"/><path class="db" d="M927.343,450.1a4.223,4.223,0,0,0-2.092-.636,2.505,2.505,0,0,0-2.458,1.958c-.006.148-.014.294-.014.444a10.566,10.566,0,0,0,5.445,9.245,3.51,3.51,0,0,0,1.01.158c1.608,0,2.647-1.311,2.647-3.341A10.01,10.01,0,0,0,927.343,450.1Zm1.89,10.762a3.829,3.829,0,0,1-1.89-.582,9.565,9.565,0,0,1-4.334-7.476c0-1.811.859-2.936,2.242-2.936a3.829,3.829,0,0,1,1.889.582,9.564,9.564,0,0,1,4.335,7.476C931.475,459.738,930.615,460.863,929.232,460.863Z" transform="translate(-921.216 -440.131)"/><g class="dc" transform="translate(17.161 3.432)"><path class="dd" d="M957.161,438.942q-.177-.215-.366-.42a25.582,25.582,0,0,0-5.095.664c.112.114.224.228.333.347A25.576,25.576,0,0,1,957.161,438.942Z" transform="translate(-951.7 -438.522)"/><path class="dd" d="M963.556,450.639a25.963,25.963,0,0,1-3.164,3.366c.023.166.045.331.061.495a26.043,26.043,0,0,0,3.12-3.2c0-.02,0-.039,0-.059C963.575,451.039,963.568,450.839,963.556,450.639Z" transform="translate(-955.704 -444.104)"/></g><path class="db" d="M933.573,447.392a23.05,23.05,0,0,1,7.258-5.819c-.1-.1-.2-.2-.3-.3a22.8,22.8,0,0,0-7.268,5.842C933.366,447.2,933.471,447.3,933.573,447.392Z" transform="translate(-926.045 -436.356)"/><path class="db" d="M924.986,444.15c-.172.3-.327.6-.469.918a15.846,15.846,0,0,0,.113,2.386,2.315,2.315,0,0,1,.4-.224A16.928,16.928,0,0,1,924.986,444.15Z" transform="translate(-922.014 -437.683)"/><path class="db" d="M936.813,470.69a2.3,2.3,0,0,1-.416.2c.327.244.969.7,1.834,1.23.317.042.638.065.963.078A26.492,26.492,0,0,1,936.813,470.69Z" transform="translate(-927.489 -449.908)"/><path class="db" d="M948.5,459.643a23.038,23.038,0,0,1-8.95,2.172q.026.21.039.416c.045,0,.09,0,.135,0a22.883,22.883,0,0,0,8.823-2.164C948.537,459.929,948.518,459.786,948.5,459.643Z" transform="translate(-928.942 -444.819)"/></g><path class="de" d="M781.955,388.038l19.785-3.244,1.176,1.029-5.866,14.548Z" transform="translate(-781.955 -370.008)"/></g><g class="df" transform="translate(3.439 4.317)"><path class="dg" d="M-127.646,468.1c0,.075-.01.148-.01.222V468.1Z" transform="translate(127.997 -468.098)"/><path class="dh" d="M-72.3,534.226c-30.571,0-55.354-14.432-55.354-32.234,0-.15.016-.3.02-.445h-.02V468.423c0,17.8,24.783,32.235,55.354,32.235Z" transform="translate(127.997 -468.201)"/><g class="di" transform="translate(0 0.222)"><path class="dj" d="M-72.117,534.568h-.342c-30.711,0-55.7-14.614-55.7-32.577,0-.089,0-.177.01-.265l-.01-.178V468.423h.684c0,17.586,24.678,31.893,55.012,31.893h.342Zm-55.354-33.363h.009l.01.351-.01.2c0,.079-.009.157-.009.235,0,17.519,24.494,31.785,54.67,31.893V501c-27.587-.1-50.484-11.987-54.67-27.468Z" transform="translate(128.155 -468.423)"/></g><path class="dk" d="M-125.493,511.43l.028-16.223,5.008,13.135,7.776-7.2L-105,516.083l12.225-3.262L-87,524.678l9.188,2.728,3.213,9.831V540.6C-102.162,540.235-124.441,527.417-125.493,511.43Z" transform="translate(127.313 -476.672)"/><path class="dh" d="M-124.241,523.967l7.828.361,6.632-3.552,5.667,11.2,8.962-5.93,7.117,13.54,4.77-2.42,9.062,10.856v.659C-99.155,548.357-119.777,537.821-124.241,523.967Z" transform="translate(126.917 -484.76)"/><path class="dl" d="M-116.4,532.011l8.318-.7,3.379,10.145,11.2-3.2,9.54,12.256,6.677-1.544,1.653,2.807c-21.779-.805-39.921-9.4-46.311-21.049Z" transform="translate(126.193 -487.907)"/></g></g></g></svg>