<svg xmlns="http://www.w3.org/2000/svg" xmlns:xlink="http://www.w3.org/1999/xlink" width="254.829" height="310.8" viewBox="0 0 254.829 310.8"><defs><linearGradient id="a" x1="0.5" x2="0.5" y2="1" gradientUnits="objectBoundingBox"><stop offset="0" stop-color="#6e00b3"/><stop offset="1" stop-color="#2549c0"/></linearGradient></defs><path d="M2813.725,876.632a.549.549,0,0,0-.4-.529l-32.962-9.193-.509-.57h0l-.01-.005a.153.153,0,0,0-.083-.047h0a.269.269,0,0,0-.03,0,.19.19,0,0,0-.075.015h-.008l-.456.276-92.728-25.861a.547.547,0,0,0-.3,0l-92.969,25.928-.214-.13h0a.154.154,0,0,0-.085-.017c-.009,0-.016-.005-.025,0h0a.16.16,0,0,0-.081.047l-.011.005h0l-.256.287L2559.3,876.1a.549.549,0,0,0-.4.529V979.374a173.01,173.01,0,0,0,.885,17.548l-.238.288a.165.165,0,0,0-.013.189.16.16,0,0,0,.173.078l.141-.028c5.716,54.343,36.464,91.919,62.677,114.573,31.426,27.163,63.279,39.323,63.6,39.443a.551.551,0,0,0,.387,0c.318-.12,32.171-12.279,63.6-39.443,26.178-22.625,56.878-60.135,62.651-114.365l.166.032a.157.157,0,0,0,.173-.078.164.164,0,0,0-.013-.189l-.26-.315a172.969,172.969,0,0,0,.906-17.734Zm-2.017,120.49-29.734-5.693.233-.482,19.216-7.138,10.359,12.564C2811.759,996.624,2811.734,996.873,2811.708,997.122Zm-43.232,95.308-1.353-3.847,7.71-3.657Q2771.7,1088.825,2768.477,1092.43Zm-.431.474-4.308-2.715,3.086-1.463,1.4,3.982C2768.164,1092.774,2768.1,1092.838,2768.045,1092.9Zm-17.623,17.372-2.966-3.186,3.537.591-.437,2.478Zm.9-2.54,1.65.275q-1.012.914-2.016,1.8Zm1.959-.007-1.9-.318.656-3.732,1.51,3.81Zm-2.228-.373-3.963-.662-12.721-13.662,6.891-16.133.112-.117,10.431,26.312Zm-109.611,1.987,1.76-5.444,5.032.766,3.3,11.4-11.279,4.568Zm-1.53,11.435-2.5,1.01,3.534-10.926Zm-17.892-10.661-.464-2.637,4.078-.681-3.326,3.571Zm-3-2.686,1.52-3.834.636,3.613-2.028.339C2619.1,1107.51,2619.06,1107.472,2619.017,1107.432Zm2.211.1.394,2.234q-1.081-.952-2.167-1.937Zm.27-.379-.729-4.143,3.686-9.3,12.573-3.77,1.352,3.165L2626,1106.4Zm-23.437-21.886,7.31,3.466-1.278,3.635Q2601.045,1088.956,2598.06,1085.27Zm-37.239-89.09,10.107-12.258,19.663,7.3-29.7,5.688C2560.863,996.671,2560.844,996.424,2560.821,996.18Zm91.189-144.791,5.764,7.992-2.391,8.024-10.432-2.288-.326-1.067,6.926-12.532Zm21.8-6.08,3.434,8.025-10.3,14.159-2.792-.932,9.6-21.238Zm25.16.045,9.492,20.994-3.041,1.015-10.161-13.975,3.467-8.1Zm21.958,6.124,6.982,12.631-.382,1.251-10.174,2.231-2.42-8.123,5.8-8.045Zm91.644,108.014-1.05.443.818-.48Zm-2.721,50.427c-.022.114-.043.229-.065.343l-1.017.563.961-.976Zm-2.1,1.469-15.338,8.473-10.09-25.808,27.111,15.627Zm-13.353,13.549-1.864-4.766,14.4-7.956Zm-21.2,45.329-11.093-5.66-.934-12.748.112-.177,9.708,2.507,2.279,16.033Zm-10.212,6.371-.506-6.909,4.284,4.552Zm4.008-2.112,8.731,9.277-.428.539-8.288,3.93-3.968-11.28Zm-37.579,29.254-5.059.769,4.657-16.078,1.367,13.048Zm-86.217-.212-.93-2.177,1.331-12.707,4.527,15.634Zm-80.286-93.946,27.487-15.844-4.9,12.756-5.158,13.191-16.393-9.056Zm.014.485-.142-.079-.016-.081Zm30.3-142.324,5.951,12.842-7.912,18.826,1.724-31.6Zm14.965-4.173,14.961.674-7.241,16.092-3.58-2.162L2607,863.941Zm78.282-21.737,8.405,11.562-8.394,19.623-.015-31.186Zm60.185,16.784,2.487,5.524-5.056.229,2.342-5.816Zm19.026,5.306-5.2,13.914-3.787,2.287-7.053-15.675,15.431-.7Zm13.948,3.89,1.739,31.875-8.033-19.113,5.958-12.856Zm1.411,111.537c0,3.723-.155,7.439-.442,11.1l-8.374-9.251,8.8-18.724v16.755A.545.545,0,0,0,2781.049,979.388Zm-3.659,53.15-7.439,3.285q2.2-4.761,4-9.654Zm-2.988-6.227,5.345,5.185-2.055.908Zm-19.49,34.623q3.165-4.241,5.965-8.611l.887,12.108Zm6.88,3.881.294,4.009-6.989-7.425Zm-152.162,11.607-3.525-2.2,4-4.248Zm-3.81-2.376-5.7-3.556,10.33-5.27-.31,4.235Zm-6.469-3.648.1.064-.119.06Zm.051-.356,2.286-16.083,9.5-2.454c.078.124.158.247.238.372l-.949,12.959-10.685,5.451Zm45.935-202.531,4.857,15.913-.03.008L2638.5,871.056l5.366-5.741Zm83.421-1.981,5.167,5.527-11.517,12.213,4.636-15.189Zm69.656,22.629.16,6.162-11.7,14.3-4.741-7.549v-.542Zm.325-.245,13.424-10.2-13.269,16.214Zm13.885,28.236-7.545,7.489-3.5-1.271,3.4-13.242,7.643-2.074Zm0,10.787-8.513,5.923-4.224-3.605,5.275-5.236,7.461,2.711Zm-15.964,20.738-14.526-9.595v-.01l16.25-.913,5.058,7.5Zm6.969-2.744,8.944,13.254-15.587-10.294Zm-42.573,105.057-2.537-43.433c.038-.165.081-.328.117-.493L2773.2,1025A133.257,133.257,0,0,1,2761.058,1049.987Zm-.74,1.164-11.171-1.888a.159.159,0,0,0-.187.117l-4.645,16.044v-25.331c.022-.035.045-.069.068-.1l11.615,2.853a.154.154,0,0,0,.039.006.178.178,0,0,0,.1-.032.16.16,0,0,0,.066-.123l2.082-34.58,2.473,42.353C2760.613,1050.694,2760.463,1050.922,2760.318,1051.151Zm-16.4,21.322-.94-1.261,1-3.458v4.653Zm-1.188-1.592-10.69-14.325-.178-.4a120.763,120.763,0,0,0,12.119-15.557v25.969Zm-14,16.315-.053.044-7.781-3.593,4.761-5.929,3.11,9.444Zm-97.548-12.033-1.1-3.791,10.5-14.073,1.512,16.673-10.3,1.828C2631.6,1075.586,2631.39,1075.375,2631.187,1075.163Zm-2.55-2.726v-4.9l1.09,3.767-.954,1.277Zm0-6.084v-25.711a117.534,117.534,0,0,0,7.889,10.715l3.989,5.5-10.541,14.122ZM2602.91,1036.5l.069.03,0,.011-.091.02Zm-4.3-10.431q1.852,5.028,4.114,9.92l-.017.057-7.658-3.382Zm-3.864,6.461-2.171-.958,5.647-5.478Zm-25.786-87.768,5.278-7.823,16.222.912v.031l-14.882,9.829Zm6.292,3.164-15.2,10.04,8.722-12.926ZM2560,926.516l7.148-2.6,5.588,5.548-3.949,3.37L2560,926.722Zm58.724-33.173,16.708,2.011-.008.024-7.843,6.675-9.009-2.527-.64-5.962Zm136,.235-.615,5.721-9.433,2.647-7.29-6.205-.058-.19,17.095-2.057Zm44.749,35.086-5.466-8.7,5.289,1.922Zm.157-6.661,1.569.57-1.412,5.5Zm-.252,7.131-6.1.885-11.136-14.346v-.025l11.357,4.128Zm-.867,7.625,0,0h.006Zm-.358.078-16.01.9V932.2l15.832,4.408Zm-17.11,23.943-2.036.3.58-1.36,1.457.951Zm-10.327,23.256,7.657,5.614-17.213-8.819v-1.957Zm9.838,7.213c-.009.1-.021.2-.03.3l-21.582,13.186q1.013-4.888,1.57-9.916a111.968,111.968,0,0,0,.648-12.08V981.2l18.894,9.68Zm-94.384,111.37,1.93,1.382-1.764,11.3-1.8-11.516Zm-1.376.58.566-1.16.526.377Zm1.659-.782.67-.48.721,1.475Zm-.283-.2-.663-.474.76-1.555.71,1.451Zm-74.438-51.929-1.383-15.047,3.9-.87,2.313,15.851-4.4.743C2612.012,1050.739,2611.864,1050.514,2611.724,1050.287Zm-8.312-15.441,4.259-14.079.962-.508,1.353,14.723-5.9,1.317Q2603.745,1035.574,2603.412,1034.846Zm-11.854-74.367,1.343-.876.836,1.962-2.179-.868Zm1.624-1.058,18.265-11.914,0,21.114-17.274-6.883Zm8.438-46.942-.144.263-9.918,2.051V901.525Zm49.081-28.054.7.579-1.152.743.4-1.307Zm.96.8,4.453,3.71,1.67,15.833-11.807-5.225,4.116-13.3Zm70.388-.757.5,1.6-1.6-1.034.783-.654Zm.646,2.088,4.067,13.148-11.924,5.275,1.72-16.3,4.116-3.429Zm11.959,1.427,2.236,7.289-.068.008-4.839-3.122,2.538-4.21Zm4.786,15.605a.164.164,0,0,0,.2.111l4.947-1.388,8.408,7.157-2.243,8.549-8.8-2.454-4.886-19.654.025.021Zm-1.881-7.26,6.728,5.725-4.578,1.284ZM2771,912.267l10.033-10.923V915l-9.625-1.99Zm-10.951,70.975a110.545,110.545,0,0,1-.641,11.462,102.905,102.905,0,0,1-1.821,11.014l-11.311,9.861,7.381-25.5,5.312-10,1.071.549v2.108Zm-66.8,101.884c-2.531,1.441-4.873,2.688-6.958,3.745-2.113-1.072-4.49-2.339-7.06-3.8l-5.626-11.512,12.7-11.578,12.7,11.365Zm5.733-10.981-.593,7.929q-2.4,1.479-4.629,2.757Zm-6.583,12.718-6.145,12.573-6.173-12.63c2.151,1.2,4.16,2.263,5.962,3.173l.248.125.249-.125C2688.317,1089.083,2690.291,1088.04,2692.4,1086.863Zm-87.781-82.194-12.489-13.108,19.6-.845c.1,1.378.211,2.75.359,4.106.32,2.936.785,5.829,1.343,8.693l-3.181,7.672-5.668-6.076.078-.283A.167.167,0,0,0,2604.622,1004.669Zm16.979-86.584-7.379,2.057,5.17-10.476Zm.28,1.064,3.921,14.939-13.25-9.752v-.809l1.017-2.061Zm23.563-18.813a.15.15,0,0,0,.162.078.165.165,0,0,0,.137-.114l.135-.438,11.88,5.256-1.527,3.309-8.985,2.506-10.919-15.3,8.568,3.791Zm-.022-.677.153.067-.039.124Zm10.592-16.716,12.351,7.762-4.531,4.236-7.406-6.171-.608-5.772Zm7.721,12.344a.161.161,0,0,0,.218-.007l4.7-4.394,6.912,4.343-17.45,9.542-1.638-15.531Zm12.028.21,1.086,7.18-16.031,4.47-2.548-2.085Zm10.332-5.481-1.109-.547,1.841-.38.809.166Zm1.8-.522-.3,1.264-1.131-.558Zm-3.227-.3.065-.538,1.272.263Zm1.05,1-.791.391-.209-.885Zm.373.185,1.427.7-1.237,5.233-1.276-5.4Zm10.763,5.324,17.492,9.565-2.362,1.933-16.186-4.513Zm11.811-.641a.163.163,0,0,0,.219.007l7.3-6.088-1.687,16-17.449-9.542,7.183-4.515Zm-4.14-4.323,12.293-7.724-.58,5.494-7.454,6.212Zm22.35,9.341a.165.165,0,0,0,.138.116.145.145,0,0,0,.162-.078l.2-.331,8.918-3.946-10.8,15.129-9.215-2.569-1.419-3.075,12-5.308Zm26.349,9.794,5.053,10.237-7.211-2.011Zm5.707,11.563,1.106,2.239v.891L2746.82,934.3l3.97-15.131Zm22.1,10.791-3.03,3.182-16.865-10.859v-.237l13.018-5.624,6.876,12.5Zm-8.278,8.694-11.612,4.154,0-20.132,16.634,10.709Zm5.3-5.087,2.978,1.918v.208l-7.585,2.714Zm-32.327,80.217-10.206,8.9-14.043-37.129ZM2721.387,987.2l31.9,2.963-7.4,25.566Zm-103.865,27.847q-.747-2.31-1.376-4.658l14.237-3.077,6.485,17.789Zm19.413,10.461-8.063,13.475a103.578,103.578,0,0,1-11.192-23.482Zm-1.641-30.859-4.843,12.121L2619.5,990.5l15.674,4.016C2635.209,994.563,2635.253,994.606,2635.293,994.652Zm.135.552,1.517,29.153-6.282-17.229Zm-16.275-4.624,11.061,16.435-14.162,3.061c-.688-2.577-1.251-5.192-1.736-7.831Zm-4.18,19.729-4.4.949,2.964-7.148C2613.961,1006.2,2614.43,1008.264,2614.973,1010.309Zm.093.317q.505,1.867,1.079,3.71l-5.358-2.785Zm45.72,10.6-23.465,4.027-1.565-30.09,0,0,26.2,26.2a.164.164,0,0,0,.029.116l10.986,14.994-35.107-10.988,22.973-3.942a.163.163,0,0,0,.134-.19A.162.162,0,0,0,2660.786,1021.226Zm-48.235-92.65v-3.83l13.271,9.765-11.98,10.98Zm45.486-23.28,2.393,1.959-3.783,1.055Zm3.435,2.812,18.039,14.768L2652.27,917.8l3.771-8.177Zm24.823-6.923.857.24,5.183,21.929-5.978,13.589-6.071-13.8,5.131-21.711Zm-.589-.978.579-2.452.578,2.447-.42-.118-.149-.042Zm30.159,8.082-3.49-.973,2.207-1.808Zm.605,1.311,3.88,8.411-27.241,5.078,18.225-14.922Zm-17.415,58.827c0-.016.018-.03.017-.047s-.007-.01-.008-.017a.135.135,0,0,0-.022-.045.124.124,0,0,0-.043-.055s0-.011-.011-.014l-39.294-22.366,26.462-8.414a.155.155,0,0,0,.077.138l28.61,15.065-15.792,15.792A.147.147,0,0,0,2699.056,968.427Zm-12.97-31.282-26.259,8.35,20.237-22.041Zm-26.717,8.36-7.112-27.374,27.532,5.132Zm-7.343-26.951,7.069,27.211-17.78,11.052Zm7.365,27.536,38.972,22.181L2652.6,972Zm55.852,6.182-22.438-28.791,27.587-5.142-5.012,33.8Zm-22.7-28.584,22.3,28.61-28.323-14.913Zm28.065-4.587,5.809,29.352a9.258,9.258,0,0,0-9.575,2.215l-1.074,1.076Zm.009-1.295-3.734-8.091,7.93,2.211Zm-27.885,5.162,2.9-19.18,15.311,4.27Zm-.264-.468-4.956-20.976,7.8,2.175Zm-12.322-.212-2.814-18.605,7.719-2.153Zm-.263.468L2661.86,908l15.155-4.226ZM2652,917.594l-4.074-5.709,7.7-2.146Zm-11.019,39.194-14.67-22.241,25.445-16.253Zm18.041-10.588-6.71,25.613-11.028-14.587Zm-6.769,26.084,0,0v0c.008.01.022.008.031.015a.157.157,0,0,0,.085.039l.011.006h.013l46.509-3.791h.013a.158.158,0,0,0,.078-.041l-24.892,24.894-18.295-18.3a9.309,9.309,0,0,0-13.14,0l-3.818,3.819,2.307-21.32Zm20.522,64.479-25.766,5.942-9.5-16.977Zm.542.213,12.62,24.417-38.514-18.444Zm28.483-29.285,7.139,28.665-11.938-2.6Zm7.409,29.077,16.065,5.933L2687,1061.235Zm-7.182-29.532,33.049,17.981-25.8,11.129Zm18.847-20.347c-.007.007,0,.018-.01.025l-.006.006-.01.005v0a.2.2,0,0,0-.007.044.185.185,0,0,0,0,.059c0,.009,0,.019,0,.028l14.3,37.816-33.289-18.109h-.01c-.005,0-.009-.008-.015-.01h0a.18.18,0,0,0-.039-.008.275.275,0,0,0-.046.007.107.107,0,0,0-.02,0h-.009a.2.2,0,0,0-.042.025c-.01.008-.012.022-.02.032s-.018.01-.022.019,0,.014,0,.022-.013.014-.016.024h0l-4.935,26.8-19.724-4.3a.173.173,0,0,0-.2.125.167.167,0,0,0,.126.2l19.734,4.3-.023.129a.153.153,0,0,0,0,.03.166.166,0,0,0,.135.163.157.157,0,0,0,.193-.132l.022-.119,11.907,2.593-22.5,24.793-12.8-24.756-.008-.008,0-.014-10.258-14,4.256,4.256a9.312,9.312,0,0,0,13.138,0l42.214-42.214Zm5.908-38.305-5.957-30.1,25.425,16.236L2727.3,948.807C2727.131,948.728,2726.959,948.652,2726.783,948.584Zm33.258-19.4-1.262,16.518L2746.8,934.726l13.243-9.743Zm0,4.331v11.961l-.94.336Zm0-10.581-.679-1.374.679.189Zm-13.5,11.11-4.29-17.254,8.216,2.292Zm-.264.3-25.456-16.261,4.33-6.068,16.735,4.667Zm-20.445-23.281,10.871-15.23,4.878,19.622ZM2695.48,902.6l-8.255-2.3-.771-3.264,1.371-5.8,8.723,4.306Zm-9.365-5.566-.772,3.27-8.174,2.28-1.1-7.255,8.634-4.262Zm-50.2-1.412,10.993,15.4-15.925,4.441Zm11.673,16.353,4.209,5.9L2626.34,934.14l4.337-17.443Zm-21.511,21.852-3.877-14.771,8.112-2.263Zm-13.525-11.051v-1.03l.59-.165Zm-1.1,1.581-17.088,11-2.807-2.947v-.953l7.094-12.9,12.8,5.529Zm-19.895,6.416V915.5l6.788,2.932Zm2.524,4.768-2.524,1.625v-4.276Zm-2.524,2.018,2.756-1.775,4.245,4.458-7-2.505Zm3.038-1.956,16.856-10.854,0,20.106-12.2-4.365Zm17.955-2.71.97,12.7-.972-.349Zm.784,12.987-.787.513V945.6Zm12.715-11.136,14.559,22.075-26.6-11.036Zm14.719,22.5-14.64,17.076-12.113-28.174Zm.052.448-2.289,21.147-12.168-4.285Zm-5.06,24.334a9.27,9.27,0,0,0-.908,12.066l-15.3-3.92,18.792-10.73Zm-21.554,19.62c-.408-2.294-.769-4.6-1.024-6.945-.145-1.331-.258-2.679-.353-4.033l6.037-.26Zm2.066,13.125a102.98,102.98,0,0,0,7.007,16.753l-12.5-19.609Zm12.8,24.521,8.091-13.519,9.454,16.9-17.1-2.705C2629.368,1039.746,2629.218,1039.521,2629.071,1039.294Zm17.616,3.73-5.392,12.131a119.593,119.593,0,0,1-11.536-14.808Zm38.995,18.613-34.314,2.606-4.216-21.056Zm.163.318-12.473,11.367-21.43-8.792Zm-12.585,11.818.605,8.1c-2.324-1.441-4.748-3.021-7.24-4.748Zm.375.585,5.088,10.412q-2.173-1.249-4.511-2.688Zm25.612-1.248-12.468-11.159,33.89,2.37Zm22-9.08-34.314-2.4,38.529-18.658Zm4.368-21.552-16.013-5.916,25.466-10.984Zm9.839-16.915,8.142,13.607c-.122.19-.249.38-.373.57l-17.223,2.725Zm.208-.3,21.79-19a102.428,102.428,0,0,1-13.654,32.591Zm-14.322-38.4,8.342-8.935,7.212-7.211a9.29,9.29,0,0,0,1.691-2.325l1-1.068,13.607,22.5Zm18.149-19.922h0l-.5.534a9.3,9.3,0,0,0-2.1-9.9l-6.913-6.915a9.4,9.4,0,0,0-1.593-1.27l30.108-3.138Zm-11.573-17.83c-.094-.052-.187-.1-.282-.15l18.89-14.043,12.008,11Zm32.12-3.29v.763l-.757-.493Zm1.1-.395,11.106-3.973-1.571,1.65a.164.164,0,0,0,0,.228l10.355,10.874v1.255l-1.605,3.766-18.285-11.922Zm9.882-2.209,1.915-2.011,8.093-2.9v15.417Zm7.261-7.627,2.747-2.884v4.653Zm-3.824-17.032,6.571-2.839v14.787Zm6.571-3.228v.03l-6.731,2.908-2.686-4.885ZM2774,918.4l-12.859,5.556v-3.046l-2.433-.678-5.229-10.6,17.714,3.661Zm-37.565-22.981-8.761,3.877,4.136-6.861Zm-9.288,4.109-.082.037-3.939-12.735,8.407,5.425Zm-10.54-11.322.539-5.109.341.095,2.9,1.869Zm-12.328,2.3-4.4-4.114,16.282-3.353Zm-.289.182-7.27,4.568-8.817-4.353.4-1.681c0-.007,0-.013,0-.021a.153.153,0,0,0,.008-.035l-.046-.377,11.226-2.312Zm-16.042-1.711-.3-.063.289-.059Zm-1.122-.232-2.05-.421,1.546-12.8,1.571,13.008Zm-2.373-.488-10.649-2.194,12.3-11.5Zm-.041.329-.1.792a.113.113,0,0,0,.008.035c0,.008-.006.014,0,.022l.307,1.3-8.727,4.308-7-4.4,4.606-4.307Zm-15.8,1.879-12.155-7.639,16.655,3.431Zm-13.118-7.383.568,5.378-4.113-3.427,2.625-1.694Zm-9.824,16.321-.548-.243-4.22-7,8.756-5.651Zm-1.075-.475-8.411-3.722,4.44-2.865Zm-8.721-3.915,2.145-6.993,2.435,4.038Zm-2.9,8.893a.164.164,0,0,0,.2-.111l1.9-6.186-4.465,17.955-8.7,2.426-2.295-8.74,8.032-6.837Zm-5.019-1.75,7.279-6.2-2.326,7.585Zm-14.166,18.1-1.942.542-.4.111v2.82l-12.641-5.46,2.881-5.24,17.449-3.607Zm-15.289-2.119-6.949-3v-.011l9.709-2.008Zm-8.049-2.644-11.4,14.692-5.8-.841,6.223-9.912,10.983-3.99Zm0,.538v15.809l-11.029-1.6Zm-.233,16.108-15.653,4.36,4.625-5.96Zm.233.278v5.1l-15.246-.857Zm8.608,8.357,2.53,2.657-10.037,10.54V938.094Zm-7.508,13.675,10.384-10.905a.164.164,0,0,0,0-.228l-2.185-2.295,11.692,4.182v1.906l-18.4,12-1.492-3.5Zm20.99-7.666,1.082-.7,12.143,28.246-13.229-5.271Zm13.073,27.838-13.079,4.883V969.415Zm.462.179,12.2,4.3-19.1,10.9L2613.867,980a.167.167,0,0,0-.221-.069l-1.1.565v-.636Zm-12.432,5.494,5.2,9.781-6.043.26c-.158-2.331-.253-4.686-.265-7.047v-2.426Zm-1.943,10.088-19.376.835,19.109-9.791v1.311C2611.44,985.3,2611.536,987.859,2611.708,990.388Zm-1.589,21.141-2.725,9.012-8.072,4.269-.093-.254,5.251-19.071Zm-2.859,9.455-4.054,13.4q-2.068-4.571-3.77-9.265Zm1.678-1a.166.166,0,0,0-.242-.131l-.891.471,2.46-8.13,3.92,21.851-3.875.866Zm5.583,14.069-3.906-21.772,15.386,24.13c.629,1.063,1.272,2.12,1.941,3.169Zm26.29,22.191-.125.283-1.646-2.267C2639.625,1054.922,2640.207,1055.586,2640.811,1056.243Zm.244.26c.379.41.772.815,1.158,1.225l-1.29-.929Zm.484-1.089,5.325-11.978,4.127,20.6-3.352-2.411C2645.515,1059.589,2643.473,1057.522,2641.54,1055.413Zm9.5,9.069-.076.233c-.535-.482-1.084-.958-1.607-1.443Zm.247.308.372.55c-.143-.128-.284-.256-.427-.384Zm.392-.011,21.329,8.751-6.689,3.375a158.791,158.791,0,0,1-13.033-10.1c-.209-.181-.4-.367-.61-.549Zm13.527,12.688-3.682,1.858-6.518-9.63C2658.452,1072.55,2661.879,1075.132,2665.206,1077.467Zm.306.215c2.924,2.043,5.761,3.887,8.456,5.541l.8,10.717-13.034-14.352Zm8.8,5.754c1.832,1.117,3.593,2.146,5.267,3.088l6.494,13.288-.848,1.735-10.1-7.226Zm12.128,16.376,6.466-13.231c1.708-.959,3.51-2.011,5.383-3.154l-.8,10.676-10.254,7.34Zm12.2-16.6c2.748-1.688,5.645-3.573,8.63-5.665l3.616,1.824-13.034,14.359Zm.1-1.353.621-8.3,6.795,3.427C2703.6,1078.763,2701.119,1080.386,2698.74,1081.862Zm.873-8.545,21.671-8.891.152.461c-.711.638-1.4,1.284-2.131,1.915a158.4,158.4,0,0,1-12.844,9.971Zm21.943-9.12,4.2-20.973,5.381,12.1c-2.92,3.191-6.076,6.294-9.432,9.322Zm4.377-21.384,17.052-2.7a119.467,119.467,0,0,1-11.6,14.953Zm31.951-33.571-2,33.233-11.31-2.778A103.79,103.79,0,0,0,2757.884,1009.24Zm2.157-28.977-1.065-.546a.171.171,0,0,0-.221.07l-5.261,9.9-13.424-22.2,19.972,10.786Zm-19.911-13.115,19.911-2.935V977.9Zm-.078-.322,18.893-20.558,1.1.715v16.9Zm21.094-19.122,18.153,11.837-.681,1.6-17.469,2.577Zm18.565,11.711,1.324-3.108v3.972Zm2.687-27.484,10.731-1.557,4.5,5.8Zm-.262-.295V916.212l10.76,13.863Zm.039-16.323,7.277-1.975,3.757,5.985Zm-.039-.332v-.049l4.7-5.751,2.428,3.866Zm0-.571V901.688l4.52,7.2Zm-16.218-8.723,13.932-4.261-14.037,9.07Zm-.359,5.261a.171.171,0,0,0,.17-.005l14.86-9.6-9.912,10.791a.167.167,0,0,0-.024.191l.33.6-17.137-3.543,11.739-3.59-.111,5.011A.167.167,0,0,0,2765.559,910.948Zm-12.509-1.866-8.08-6.877,9.093-2.55Zm-15.83-13.85-2.19-7.142,18.549,5.173Zm-5.517-3.253-8.729-5.633-.548-1.771,11.763,3.281Zm-11.055-7.135-2.089-1.348,2.778.775Zm-21.063,1.281-12.074-11.287,28.408,7.922Zm-.4.081-10.971,2.26-1.68-13.9.284.079Zm-25.781-.218-16.285-3.354,28.323-7.9Zm-21.724-1.171-.6-.5,2.419-.674Zm-1.874,1.209-9.078,5.859-2.416-4.007,11.953-3.332Zm-14.285,9.008-15.971-1.923,18.11-5.051Zm-8.251,7.277-7.7,6.557-.965-8.989ZM2601.9,912.654l.065-.12a.166.166,0,0,0-.024-.191l-9.912-10.791,14.86,9.6a.167.167,0,0,0,.171.005.164.164,0,0,0,.085-.147l-.121-5.439,11.748,3.593Zm4.908-1.945-15.183-9.81.063-.016,15,4.589Zm-16.352,3.452-4.34-5.3,4.34-6.912Zm0,.522v.078l-6.875-1.865,2.35-3.743Zm-.01.417-10.688,3.885,3.639-5.8Zm-11.193,4.068-5.9,2.144.278-10.774,9.434,2.559Zm-.285.453-5.812,9.256.187-7.212Zm-6.127,8.665-1.51-5.889,1.679-.609Zm-.175.65-5.181-5.142,3.532-1.284Zm.36.714,5.792.839-4.7,6.059-5.052-3.516Zm.759,7.071-13.422,3.737,8.441-7.2Zm-.037.353-5.1,7.556-8.476-3.776Zm16.708,1.207v16.063l-14.525-6.47Zm2.312,21.012-1.211.791v-3.633Zm-1.211,1.758,2.362.942,7.709,18.084-.869.96-9.2-19.576Zm10.387,19.168a.165.165,0,0,0,.03-.175l-7.622-17.88,17.091,6.81,0,10.945-9.534,3.559-1-2.118Zm-.329,3.413-8.209,6.02,7.265-8.027Zm.286.2,9.54-3.561v.789l-19.107,9.789Zm2.315,21.368-5.18,18.815a130.7,130.7,0,0,1-6.669-29.395c-.085-.782-.152-1.573-.225-2.363Zm5.8,30.111,1.319,14.344a135.736,135.736,0,0,1-7.1-13.054Zm6.582,15.234,1.285,8.808q-2.931-3.987-5.535-8.09Zm1.7,9.37-1.375-9.425,6.462-1.092.13.451-5,10.354Zm5.364-10.751a.158.158,0,0,0-.187-.115l-6.6,1.116-2.295-15.734,13.666,5.629-4.516,9.345Zm4.644-8.468v24.511l-4.438-15.329Zm12.611,16.5,2.505,1.8c2.265,2.33,4.662,4.612,7.167,6.854l-3.654,11.091-2.634-3.278a.169.169,0,0,0-.157-.059l-1.712.3Zm3.188,16.752,2.706,3.37-3.185,9.671-.01-.01-1.155-12.739Zm-.208,13.277,3.161-9.6,4.913,6.115-7.887,3.643C2644.021,1087.333,2643.959,1087.282,2643.9,1087.228Zm3.284-9.974,3.676-11.157c.573.51,1.124,1.03,1.71,1.536.5.436,1.008.856,1.511,1.281l7.145,10.556-8.945,4.131Zm14.176,2.517,5.735,22.273-14.6-18.179Zm.438.372,12.973,14.281-5.7,10.08-1.473-1.835Zm7.1,24.671-.356.633-.272-.173-.471-1.828Zm.224.278,1.164,1.449c-.484-.3-.974-.608-1.464-.917Zm2,1.962-1.824-2.271,5.672-10.03,5.273,10.207-8.022,2.768C2671.852,1107.509,2671.481,1107.278,2671.116,1107.053Zm4.313-12.116,9.652,6.909-.848,1.735-3.681,1.271Zm8.791,9,1.79,11.474,0,0-5.3-10.259Zm4.183.212,3.328,1.148-5.026,9.726Zm-.013-.354-1-2.05,9.809-7.026L2691.883,1105Zm9.269-9.254,5.812,10.28-1.6,1.99c-.571.352-1.145.707-1.706,1.047l-7.968-2.749Zm5.987,10.589.24.424c-.393.249-.79.5-1.178.745Zm.52.246-.3-.525.8-.992-.369,1.434Zm-.472-.834-5.839-10.327,12.971-14.284-5.961,23.152Zm7.571-24.984,9.115,4.209-15.012,18.691Zm-.036-.38h0l-3.652-1.843c4.053-2.854,8.256-6.076,12.451-9.7.612-.528,1.188-1.071,1.787-1.605l3.726,11.315-4.948,6.16Zm14.681-1.768,2.608-3.247,1.606.285L2729,1086.8Zm2.569-3.589a.166.166,0,0,0-.157.059l-2.535,3.155-3.706-11.249q5.093-4.566,9.541-9.374l.113.255-1.582,17.45Zm30.259-68.175c.034-.156.077-.309.111-.466l21.631-13.216c-.079.889-.158,1.779-.253,2.659a130.608,130.608,0,0,1-6.892,30.011ZM2781.484,993l.091.239-.108-.063Zm-1.266-2.4-9.212-6.755,1.075-2.287,8.227,9.089Zm-9.493-6.93-9.573-5.17,0-14.453,17.317-2.554-7.818,18.338a.165.165,0,0,0,.03.175l1.164,1.286Zm.268-3.807,7.854-18.426,2.188-.322v.62l-9.042,19.234Zm11.143-41.39,14.167,9.358-14.167,6.312Zm16.561-1.446.223-.155,13.527,3.766-8.7,3.875Zm.574-.4,4.82-3.353,8.167,6.97Zm-.413-.114-.7-.195-4.657-6,6.091-.883,4.237,3.616Zm1.1-7.79,1.548-6.037,3.319,1.206Zm1.318-6.471-1.659-.6-.285-10.992,5.287-1.434Zm-1.993-.724-5.566-2.022-3.93-6.259,9.216-2.5Zm-9.679-8.573-2.539-4.045,11.527-14.086.4,15.583Zm-23.675-7.618.19-8.58,14.576,4.064Zm-.139-8.673-.194,8.775-12.221,3.737,1.033-9.621,10.844-3.041Zm-11.344,2.538.6-5.536,9.6,2.677Zm-18.549-12.017,10.1-3.221,7.634,8.168Zm-.579-.161-.3-.084,4.144-10.287,6.583,7.043Zm-.618-.173-12.047-3.36,11.5-12.2,4.762,5.094Zm-12.651-3.529-1.611-5.406,5.977-8.9Zm-.416-.241-2.485-3.247,1.052-1.564Zm-.4.013-3.6-1,1.323-1.967Zm-3.931-1.1-.776-.216-9.092-11.677,3.3-.724,8.01,10.466Zm-9.771-12.252,1.69-2.344,1.294,1.69Zm-.454.436,8.916,11.452-27.682-7.72Zm-22.323,3.6-28.312,7.9,9.118-11.713,19.192,3.815Zm-19.551-3.894-9.3,11.938-.457.128-1.408-2.1,8.137-10.632Zm-2.8-.953,1.173-1.531,1.533,2.125Zm-7.284,13.112-3.5.975,2.21-2.889Zm-4.024,1.122-.062.017,1.491-5,1.115,1.661Zm-.437.122-.134.036-4.543-14.882,6.3,9.383Zm-.841.234-11.962,3.336-4.254-10.563,4.68-5.007Zm-12.282,3.425-.586.164-10.367-3.307,6.771-7.243Zm-1.166.326-17.623,4.914,7.587-8.116Zm-18.133,12.148-10.635-2.983,10.016-2.794Zm.038.353.985,9.182-12.229-3.741-.189-8.566.146-.041Zm-11.577,5.339-14.406-4.406,14.22-3.966Zm-16.229-4.623v.825l-4.56,7.262-11.839-14.469.154-5.967,16.251,12.333C2590.462,900.491,2590.457,900.495,2590.457,900.5Zm-4.745,8.383-2.463,3.921-9.608-2.606.4-15.573Zm-12.4,1.227-5.519-1.5-7.8-30.393v-.762l13.728,16.776Zm-.009.339-.285,10.984-1.77.644-3.36-13.1Zm-2.367,11.741-3.709,1.348L2560,916.361v-9.522l7.526,2.042Zm-4.051,1.472-6.889,2.5v-9.341Zm1.638,9.4L2560,940.338V927.125ZM2560,941.136l8.467,3.773L2560,957.455Zm0,17.3V958.4l15.61-10.309,14.836,6.61-26.152,4.019Zm2.788.515-1.861.286-.789-.461Zm27.673-3.919v.081l-4.981,5.008-19.669-1.3Zm0,.548v4.87l-4.544-.3Zm1.1,23.688v-17.03l8.962,19.066-8.437,9.322-.084.062c-.3-3.723-.452-7.505-.455-11.3A.512.512,0,0,0,2591.557,979.267Zm-.588,14.184.173-.1c.046.463.083.931.132,1.392a131.794,131.794,0,0,0,6.9,30.119l-17.451-4.973,5.074-13.2Zm-10.344,26.754,17.683,5.039c.027.076.054.152.082.228l-6.144,5.961-12.779-5.644Zm-1.465,5.448-.666-.294,1.547-3.955Zm12.831,6.028-12.042,11.682-4.38,1.231,3.83-18.474Zm.325.144,2.27,1-4.089,7.571-9.881,2.777Zm2.572,1.135,7.719,3.409-.112.37a.165.165,0,0,0,.038.161.176.176,0,0,0,.156.048l.431-.1-12.181,3.424Zm16.118,18.251-9.267,2.393,2.154-15.16A137.749,137.749,0,0,0,2611.005,1051.211Zm-.209,13.833,6.727-3.432-7.021,7.46Zm.027-.385.9-12.318q2.85,4.444,6.076,8.757Zm12.829-14.334,4.653,16.072v5.684q-5.146-5.659-9.573-11.576Zm6.19,21.379.854,2.951c-.573-.605-1.133-1.215-1.694-1.824Zm12.292,2.6,1.121,12.365q-5.926-5.164-11.178-10.581Zm10.048,9.708,15.109,18.812.565,2.195a207.9,207.9,0,0,1-23.5-17.4Zm17.779,23.629-1.726-.263.152-.721C2668.916,1106.985,2669.441,1107.315,2669.962,1107.637Zm-2.053-.312-.378-.057.508-.552Zm-.068.323-.418,1.988-3.293,1.333,3.131-3.409Zm.327.049,2.519.383.229.141-3.124,1.265Zm12.222-2.441,5.11,9.892c-3.771-1.932-8.145-4.319-12.918-7.2Zm11.655.149,7.75,2.673c-4.736,2.847-9.074,5.214-12.813,7.127Zm12.823,2.442.835-.126,3.412,3.713-3.817-1.546Zm.06,1.891-3.411-1.381,3.024-.461Zm-.128-2.214-.216-1.022.851.925Zm-.327.049-2.314.352q1.045-.644,2.111-1.315Zm.7-4.341,15.521-19.323,7.717,3.563a207.668,207.668,0,0,1-23.7,17.56Zm25.28-28.726,9.9,1.755q-5.176,5.317-11,10.393Zm.03-.33,1.55-17.091,10.592,14.193-1.087,3.752c-.3.317-.608.632-.913.946Zm12.389-2.567.827,1.108c-.553.6-1.1,1.2-1.67,1.8Zm1.448-5,4.921-17,10.889,1.841a152.734,152.734,0,0,1-15.811,20.6Zm24.43-28.259,2.2,15.482-9.47-2.446A137.69,137.69,0,0,0,2768.744,1038.352Zm12.574-43.608c.044-.4.075-.8.115-1.206l.332.191L2791.9,1020.1l-17.569,5.006A131.779,131.779,0,0,0,2781.318,994.743Zm.817-39.405,4.97,5-4.97.328Zm0-.468v-.056l26.618,4.09-21.212,1.4Zm.044-.383,14.45-6.438,16,10.564v.035l-2.353.156Zm30.308,4.5-.211.124-.5-.077Zm-8.551-14.195,8.688-3.87v16.745Zm8.688-4.669-8.254-7.044,8.254-5.743Zm0-13.746-7.2-2.617,7.2-7.149Zm0-19.669-7.55,2.049,7.55-29.423Zm-7.916,2.148-5.39,1.462-.411-15.885,13.717-16.762v.335Zm-23.668-9.079-14.682-4.095,6.8-14.666Zm-25.7-7.169,3.225-8.629,6.767,11.414Zm-.319-.089-.779-.218-7.9-8.448,10.214-3.258,1.79,3.019Zm1.837-12.065,3.45-2.084-1.812,4.847Zm-.451-.157-10.312,3.289-6.794-7.269,4.662-11.576,5.337-.241Zm-12.671-15.876-3.237.146,5.547-5.882Zm-.135.337-4.549,11.293-4.671-5,5.794-6.143Zm-9.445,6.057-5.051-5.4,10.6-.477Zm-5.781-5.3-.995,1.481.413-1.353Zm-.471-.235.234-.767.352.639Zm-1.156,2.658-6.431,9.571-2.862-9.6,9.968-2.186Zm-6.669,9.926-1.141,1.7-7.85-10.256,6.044-1.325Zm-9.212-8.848-1.448-1.891,5.279-7.317,2.341,7.855Zm-1.657-2.165-.342-.447,2.579-17.5,3.131,10.508Zm-.575-.209.374.488-1.868,2.591-1.51-2.076Zm-1.779,3.249-19.253,3.829-.085-.024,17.785-5.94Zm-19.907,3.646-.27-.075,8.437-19.719,9.983,13.731Zm-.8-31.667-.016,31.4-8.509-19.89,8.327-11.453Zm-.284,31.607-.408.114-.631-.125-17.546-5.862,10.118-13.916Zm-3.612-.523-16.479-3.276,1.3-1.793Zm-16.765-3.447-1.709-2.371.215-.283,2.755.921Zm-1.911-2.65-5.437-7.537,3.041-10.206,2.58,17.5Zm-.21.274-1.326,1.734-6.331-1.39,2.31-7.756Zm-1.548,2.022-7.976,10.421-1.2-1.793,2.977-9.989Zm-9.42,8.272-6.757-10.059-.576-1.888,10.226,2.243Zm-7.391-11-.755-1.124.441.1Zm-.87-1.487.268-.485.178.583Zm-5.866,5.879L2632.5,864.7l11.015.5Zm-.226.241-4.59,4.911-4.6-11.43,3.182.143Zm-9.329-6.855-2.135-5.3,5.127,5.437Zm-2.606-5.589,2.244,5.573-4.693-.212,2.407-5.35Zm2.379,5.909,4.718,11.711-6.982,7.47-10.006-3.192,7.3-16.215Zm-12.721,16.146-1.54,2.6-1.7-4.557Zm.3.141,9.908,3.161-7.85,8.4-.45.125-3.3-8.83Zm1.29,11.773-9.9,2.763,6.708-11.317Zm-25.872,7.215,7.889-18.768,6.8,14.672Zm-17.595-11.891-.151,5.821-12.816-15.662Zm-6.459,20.607L2560,906.5V879.548ZM2560,959.079l.407.238-.407.063Zm.859.5,2.871,1.679-3.68-1.555Zm.519-.079,2.928-.45,20.866,1.38-6.926,6.964-12.155-5.138Zm16.552,8.117-1.285.812-8.345-4.882Zm.3.2,1.27,2.276-2.531-1.481Zm.264-.2,7.118-7.158,4.852.32v.206l-9.334,10.066-1.069-.625Zm2.416,3.688-.213.259-.318-.57Zm.215.26,2.829,5.831-3.083-5.522Zm.234-.275,9.105-9.819v17.673a.51.51,0,0,0-.014.123c0,3.507.138,7.007.389,10.463l-4.093-7.331Zm9.531,19.21c.012.165.022.331.035.5l-.013-.005-1.666-3.435Zm-10.662,29.532-2,5.117-13.458-13.654Zm-1.83,5.643.7.309-3.879,18.71-1.671.47c-.076-.172-.15-.344-.225-.517Zm-4.72,19.794,1.463-.41-.408,1.972-.651-.628C2573.938,1046.094,2573.807,1045.78,2573.671,1045.47Zm1.821-.512,3.958-1.111-4,3.881-.441-.427Zm4.624-1.3,10.161-2.855-7.54,13.961-7.052-6.808Zm10.6-2.978,12.555-3.528c.12.252.24.5.362.756l-2.244,15.785-15.592,4.026-2.815-2.716Zm-5.295,17.135-4.6,1.188,2-3.7Zm.279.27,9.988,9.64-13.8-8.607a.158.158,0,0,0-.118-.02Zm.375-.1,15.264-3.941-2.245,15.8-2.061-1.285Zm12.968,12.219-.037.262-.835-.807Zm.227.716.507-.259,5.812,3.625-8.815,9.366-.064-.079Zm-2.067,13.271,11.105-3.821-2.831,8.048-7.886-3.739C2597.464,1084.522,2597.334,1084.358,2597.206,1084.195Zm-.218-.274,0,0,8.891-9.448,3.7,2.308-1.125,3.2Zm12.906-7.052,8.322-.251-9.367,3.222Zm.061-.333.509-6.94,7.628-8.106q4.544,6.029,9.827,11.791l-8.648,2.975Zm18.209-2.992.007.008-1.045,2.467-6.743.2Zm.252.273c.651.7,1.307,1.4,1.974,2.1l-2.9.088Zm2.259,2.426-4.483,2.825,1.155-2.725Zm.251.231.007.005-6.727,16.967-4.7,1.411,6.465-15.259Zm.259.267c.121.125.242.252.364.377l5.348,12.521-12.287,3.686Zm1.008,1.043q5.061,5.139,10.728,10.049l-5.7,1.711Zm10.8,10.372-4.368,4.69-1.28-3Zm.319.142-1.3,12.466-3.24-7.586Zm.649.425a209.306,209.306,0,0,0,23.959,17.634l-.781.85-18.646-2.836Zm22.908,18.778-3.451,3.757-11.573,4.687-3.251-11.224Zm-3.971,4.324-9.31,10.135-1.65-5.7Zm.713-.288,3.731-1.512-5.912,28.068-.248-.141-7.474-15.635Zm-1.88,26.728,5.979-28.389,3.556-1.44c.111.068.223.139.334.206l1.426,19.535-11.219,10.132Zm10.251-28.925,5.156,15.122-3.8,3.434Zm.238-.323c5.087,3.06,9.727,5.571,13.652,7.558l-8.466,7.646Zm13.912,7.768.016,33.065-8.625-25.289Zm.36-.105c.018-.008.037,0,.054-.013l.031-.017,8.637,7.8-8.737,25.613Zm.4-.19c3.924-1.991,8.545-4.5,13.612-7.548l-5.173,15.168Zm13.751-6.937-1.324,18.157-3.722-3.36Zm.4-.94.09-.056,3.881,1.572,5.911,28.061-11.3-10.2Zm10.193,29.458-5.854-27.793,4.254,1.724,9.28,10.1-7.612,15.927Zm7.8-16.322-8.687-9.458,10.227,4.142Zm-9.207-10.025-3.731-4.062,17.8-2.708-3.232,11.16Zm-4-4.355-1.012-1.1a208.992,208.992,0,0,0,23.775-17.507L2724,1104.6Zm23.49-19.224.026-.023,4.636,4.978-3.328,7.793Zm.276-.239q5.831-5.05,11.021-10.341l-6.492,15.2Zm25.01-26.552,7.523,7.993.542,7.4-20.664-.624A161.972,161.972,0,0,0,2754.6,1061.353Zm7.843,7.852-.309-4.215,10.739,5.479-5.822,3.632Zm8.9-14.928,19.5,5.036a.155.155,0,0,0-.116.02l-17.146,10.7Zm-.051-.354-2.29-16.109q.207-.428.409-.856l12.221,3.434,10.166,18.825Zm-1.735-17.267c.058-.125.12-.25.179-.375l7.813-3.45,3.865,7.157Zm8.294-3.958,2.154-.952,11.385,11.045-9.534-2.679Zm2.48-1.1,12.812-5.658,3.818,18.413-4.9-1.379Zm-.256-.248-5.92-5.744.042-.119,17.8-5.072,1.077,5.194Zm12.318-10.643,1.735,4.436-.746.33Zm-10.733-29.559.1-.038-.121.251C2781.645,991.292,2781.654,991.222,2781.659,991.151Zm.031-.363c.013-.156.02-.315.031-.471l3.234-5.791-2.987,6.159Zm.083-1.241c.242-3.4.375-6.834.375-10.28a.564.564,0,0,0-.013-.123V961.652l9.134,9.851-3.814,7.866Zm9.73-17.77.113.137-1.37,2.453Zm.215-.259.177-.1-.105.192Zm-.22-.255-9.363-10.1v-.173l5.278-.349,6.721,6.759-1.921,3.44Zm2.9-3.654,1.611,1.017-3.234,1.891Zm.3-.2,12.257-5.18-10.622,6.212Zm-.317-.224-6.529-6.565,22.41-1.481,1.564.241-2.663,1.558Zm-12.5-67.111a.508.508,0,0,0-.146-.1l-.011,0-1.748-32.023,1.151.32,17.2,19.325Zm-2.9-32.4-5.809,12.533-3.218-7.656,8.375-5.06Zm-6,12.939-6.947,14.987-.25-.069-7.078-11.939,2.051-5.488,8.907-5.381Zm-12.037-3.007,5.064-13.55.017,0,3.511,8.356Zm-11.441-13.437-2.427-5.393,16.986,4.737Zm-9.482.427-11.191.505-.564-1.021,2.968-9.722,14.6,4.073Zm-11.978-.919-6.67-12.069,9.542,2.661Zm-13.228-4.6L2711.8,848.93l8.6,2.4Zm-6.209,6.8-9.223-20.4,11.746,3.275Zm-13.572-12.788-8.045-11.066,11.418,3.184Zm-17.565-.055-3.339-7.8,11.306-3.153Zm-13.458,13.056-2.555-17.326,11.888-3.315Zm-6.12-7.1-5.544-7.687,8.545-2.383Zm-13.4,4.628-2.849-9.33,9.464-2.639Zm-.222.4-.48.868-11.612-.523-5.554-5.889,14.7-4.1Zm-20.965-.054-14.09-.635,16.438-4.584Zm-16.621.07,5.2,13.909-8.941-5.4,3.553-8.454Zm5.383,14.406,1.942,5.2-7.018,11.84-.5.139-6.948-14.993,3.268-7.774Zm-12.71,1.777-5.8-12.52.5-.14,8.473,5.119Zm-6.7-12.27-1.747,32.015-.053.014a.525.525,0,0,0-.145.1L2574.4,887.682l17.345-19.488ZM2560,960.041l5.939,2.51,10.392,6.077L2560,978.937Zm0,19.332v-.046l16.651-10.511,3.163,1.849.654,1.172-9.641,11.693L2560,979.509C2560,979.463,2560,979.419,2560,979.374Zm20.642-7.226,5.809,10.407,4.01,8.27-19.306-7.172Zm10.371,19.817c.007.063.013.124.019.187l-.437,1.135-27.914,16.09-.013-.013c-.041-.219-.085-.435-.123-.655L2591,991.952Zm-27.263,18.968,14.353,14.562-4.994,18.665a161.09,161.09,0,0,1-10.239-33.713Zm10.9,36.482-.036.177c-.059-.13-.123-.257-.182-.388Zm.281.271.284.274-.295.286c-.024-.052-.048-.1-.072-.155Zm.521.5,7.127,6.88-2.178,4.034q-2.81-5.095-5.334-10.541Zm6.318,10.914a.162.162,0,0,0-.044.3l15.106,9.425,2.119,2.045-2.5,12.37a178.664,178.664,0,0,1-15.879-23.827Zm22.578,33.547,1.326-3.772,2.829,1.341-4.045,2.55Zm1.436-4.084,2.93-8.327,10.618-3.654,7.656-.23-1.281,3.022-16.874,10.634Zm19.7-8.657-6.349,14.986-9.946-4.715Zm-1.427,13.929-3.391,8.554-1.26-7.159Zm14.47-.395,3.415,8-.246,2.342-15.155,2.534Zm3.682,8.621.65,1.523-.824.139Zm.644,1.859-1.24,3.835.386-3.693Zm8.783,12.465,1.671,5.772-12.96,2.446c-.155-.11-.309-.217-.464-.328l.343-3.268Zm1.787,6.085,7.261,15.19c-6.076-3.5-12.867-7.754-19.962-12.793Zm19.64,6.119,1.192,16.329c-3.5-1.725-7.6-3.866-12.141-6.442Zm.31-.28,3.888-3.511,8.665,25.405c-1.443-.575-5.507-2.255-11.329-5.116Zm22.113-3.623,3.807,3.437-1.239,16.957c-5.73,2.817-9.751,4.487-11.259,5.089Zm4.117,3.718,11.064,9.991c-4.591,2.607-8.74,4.775-12.27,6.516Zm19.61-6.146,12.94,2.442c-7.237,5.151-14.16,9.486-20.341,13.041Zm13.315,2.177-13.2-2.492,1.561-5.39,11.569,4.686.317,3.02Zm.276-3.056,2.526,1.023q-1.129.832-2.248,1.634Zm-.039-.372-1.019-9.731,3.467,10.722Zm-.346-.141-11.437-4.632,3.285-11.34,5.162-.786,1.826,5.648Zm-2.636-16.734.9.151.407,3.889Zm-.007-.336.687-1.607.184,1.753Zm.953-2.232,3.5-8.2,12.33,13.242-15.579-2.6Zm10.962-24.886,21.369,13.467-9.714,4.607a.162.162,0,0,0-.092.12l-1.338,7.6Zm.262-.225,20.781.627,3.986,11.33-3.307,1.568Zm33.991,7.085-8.654-9.194,5.934-3.7.2.1a.166.166,0,0,0,.239-.172l-.028-.19,17.269-10.775a.163.163,0,0,0,.053-.227.157.157,0,0,0-.1-.068l1.1.284A178.79,178.79,0,0,1,2775.937,1083.54Zm6.135-43.025,9.815,2.757,5.6,5.435q-2.515,5.421-5.322,10.5Zm15.564,7.876-5.084-4.931,4.482,1.259.712,3.437C2797.711,1048.235,2797.673,1048.313,2797.637,1048.392Zm-.244-3.572,1.639.461c-.348.8-.694,1.592-1.052,2.376Zm1.771.155-1.847-.519-3.867-18.648.78-.344,5.111,19.1C2799.282,1044.7,2799.224,1044.838,2799.164,1044.975Zm-4.642-19.693,13.433-13.628,1.755-.969a161.082,161.082,0,0,1-10.159,33.394Zm15.484-16.18-.33.336-27.543-15.877-.532-1.361.177-.364,28.339,16.683C2810.081,1008.713,2810.042,1008.9,2810.007,1009.1Zm-27.591-18.583,5.331-10.992,4.1-7.337,9.359,11.35Zm9.6-18.638.442-.793,3.866-2.261,16.3,10.29v.18l-11.1,4.121Zm4.629-3.242,12.67-7.41,3.311-1.4v18.9Zm15.678-91.672-13.735,10.424-16.875-18.961Zm-42.5-4.727-3.392-8.07,11.46,3.2ZM2606.087,864.2l-3.433,8.168-8.167-4.933Zm-31.946,23.284L2560.3,876.966l30.862-8.608ZM2560,979.863l10.6,3.936-9.82,11.909C2560.291,990.575,2560.02,985.3,2560,979.863Zm30.791,11.66.064.132-28.384,16.71q-.947-5.439-1.549-11.122Zm13.882,101.493,4.173-2.629,10.213,4.842,1.363,7.749-1.672,4.217C2614.1,1102.935,2609.353,1098.212,2604.678,1093.016Zm17.876,17.572,3.612-3.878,15.488-2.589-.54,5.156-4.121,12.747a.165.165,0,0,0,.219.2l2.659-1.077-.3,2.9c-5.35-3.846-10.858-8.133-16.356-12.885C2622.993,1110.978,2622.773,1110.78,2622.554,1110.589Zm126.857.579c-4.625,4-9.258,7.667-13.8,11.022l-4.04-12.495-.561-5.352,15.912,2.659,3.252,3.493C2749.921,1110.716,2749.664,1110.947,2749.41,1111.167Zm4.393-3.917-1.661-4.192,1.415-8.042,9.827-4.661,4.436,2.8C2763.164,1098.317,2758.442,1103.013,2753.8,1107.251Zm56.377-99.077-27.711-16.315,29.2,5.592Q2811.09,1002.925,2810.181,1008.173Zm-8.429-24.487,10.867-4.038c-.009,5.577-.287,10.991-.8,16.253Z" transform="translate(-2558.896 -840.701)" fill="url(#a)"/></svg>