<svg xmlns="http://www.w3.org/2000/svg" xmlns:xlink="http://www.w3.org/1999/xlink" width="536.999" height="397.542" viewBox="0 0 536.999 397.542"><defs><linearGradient id="a" x1="0.5" x2="0.5" y2="1" gradientUnits="objectBoundingBox"><stop offset="0" stop-color="#6e00b3"/><stop offset="1" stop-color="#2549c0"/></linearGradient><linearGradient id="b" x1="0.696" y1="0.372" x2="-0.246" y2="0.976" gradientUnits="objectBoundingBox"><stop offset="0.096" stop-color="#45108a"/><stop offset="1" stop-color="#7c1dc9"/></linearGradient><linearGradient id="c" x1="0.687" y1="0.89" x2="0.345" y2="0.068" gradientUnits="objectBoundingBox"><stop offset="0" stop-color="#6217ab"/><stop offset="0.035" stop-color="#57149f"/><stop offset="0.081" stop-color="#45108a"/><stop offset="0.086" stop-color="#4d1492"/><stop offset="0.109" stop-color="#6d27b4"/><stop offset="0.13" stop-color="#8534cc"/><stop offset="0.15" stop-color="#933cda"/><stop offset="0.167" stop-color="#983fe0"/><stop offset="0.201" stop-color="#8a2ed5"/><stop offset="0.232" stop-color="#7c1dc9"/><stop offset="1" stop-color="#7c1dc9"/></linearGradient><radialGradient id="d" cx="1.268" cy="0.558" r="0.616" gradientTransform="matrix(-0.759, 0, 0, 1, 2.044, 0)" gradientUnits="objectBoundingBox"><stop offset="0" stop-color="#fff"/><stop offset="1"/></radialGradient><linearGradient id="e" x1="0.554" y1="-0.404" x2="0.468" y2="1.028" gradientUnits="objectBoundingBox"><stop offset="0" stop-color="#434343"/><stop offset="1"/></linearGradient><linearGradient id="f" x1="145.775" y1="775.766" x2="142.803" y2="787.445" gradientUnits="objectBoundingBox"><stop offset="0" stop-color="#684392"/><stop offset="1" stop-color="#3d065f"/></linearGradient><linearGradient id="g" x1="141.711" y1="787.223" x2="138.686" y2="799.112" xlink:href="#f"/><linearGradient id="h" x1="141.753" y1="785.47" x2="138.728" y2="797.36" xlink:href="#f"/><linearGradient id="i" x1="141.787" y1="783.769" x2="138.761" y2="795.66" xlink:href="#f"/><linearGradient id="j" x1="145.903" y1="768.849" x2="142.932" y2="780.528" xlink:href="#f"/><linearGradient id="k" x1="123.892" y1="661.888" x2="121.354" y2="671.862" xlink:href="#f"/><linearGradient id="l" x1="117.266" y1="652.169" x2="114.758" y2="662.024" xlink:href="#f"/><linearGradient id="m" x1="117.295" y1="650.771" x2="114.788" y2="660.627" xlink:href="#f"/><linearGradient id="n" x1="117.334" y1="649.265" x2="114.826" y2="659.12" xlink:href="#f"/><linearGradient id="o" x1="124.019" y1="656.008" x2="121.481" y2="665.982" xlink:href="#f"/><linearGradient id="p" x1="117.01" y1="653.301" x2="114.502" y2="663.156" xlink:href="#f"/><linearGradient id="q" x1="117.039" y1="651.902" x2="114.531" y2="661.758" xlink:href="#f"/><linearGradient id="r" x1="117.077" y1="650.45" x2="114.57" y2="660.306" xlink:href="#f"/><linearGradient id="s" x1="117.1" y1="648.944" x2="114.592" y2="658.799" xlink:href="#f"/><linearGradient id="t" x1="117.12" y1="647.545" x2="114.613" y2="657.4" xlink:href="#f"/><linearGradient id="u" x1="116.783" y1="652.98" x2="114.275" y2="662.835" xlink:href="#f"/><linearGradient id="v" x1="116.821" y1="651.581" x2="114.313" y2="661.437" xlink:href="#f"/><linearGradient id="w" x1="116.843" y1="650.129" x2="114.336" y2="659.984" xlink:href="#f"/><linearGradient id="x" x1="116.893" y1="647.224" x2="114.386" y2="657.08" xlink:href="#f"/><linearGradient id="y" x1="122.304" y1="660.171" x2="119.766" y2="670.144" xlink:href="#f"/><linearGradient id="z" x1="116.582" y1="651.26" x2="114.074" y2="661.116" xlink:href="#f"/><linearGradient id="aa" x1="116.608" y1="649.755" x2="114.1" y2="659.61" xlink:href="#f"/><linearGradient id="ab" x1="72.198" y1="400.113" x2="70.652" y2="406.191" xlink:href="#f"/><linearGradient id="ac" x1="122.41" y1="654.364" x2="119.872" y2="664.337" xlink:href="#f"/><linearGradient id="ad" x1="145.875" y1="775.678" x2="142.904" y2="787.356" gradientUnits="objectBoundingBox"><stop offset="0" stop-color="#f4e4ff"/><stop offset="0.397" stop-color="#e8d3f5"/><stop offset="1" stop-color="#d1b4e3"/></linearGradient><linearGradient id="ae" x1="141.779" y1="787.166" x2="138.754" y2="799.056" xlink:href="#ad"/><linearGradient id="af" x1="141.821" y1="785.414" x2="138.796" y2="797.304" xlink:href="#ad"/><linearGradient id="ag" x1="141.855" y1="783.661" x2="138.829" y2="795.551" xlink:href="#ad"/><linearGradient id="ah" x1="146.004" y1="768.826" x2="143.032" y2="780.505" xlink:href="#ad"/><linearGradient id="ai" x1="123.978" y1="661.827" x2="121.44" y2="671.8" xlink:href="#ad"/><linearGradient id="aj" x1="117.322" y1="652.176" x2="114.815" y2="662.032" xlink:href="#ad"/><linearGradient id="ak" x1="117.352" y1="650.67" x2="114.844" y2="660.525" xlink:href="#ad"/><linearGradient id="al" x1="117.39" y1="649.271" x2="114.882" y2="659.127" gradientUnits="objectBoundingBox"><stop offset="0" stop-color="#25054d"/><stop offset="1" stop-color="#45108a"/></linearGradient><linearGradient id="am" x1="124.105" y1="655.961" x2="121.567" y2="665.935" xlink:href="#al"/><linearGradient id="an" x1="117.066" y1="653.307" x2="114.559" y2="663.163" xlink:href="#ad"/><linearGradient id="ao" x1="117.096" y1="651.802" x2="114.588" y2="661.657" xlink:href="#ad"/><linearGradient id="ap" x1="117.134" y1="650.35" x2="114.626" y2="660.204" xlink:href="#ad"/><linearGradient id="aq" x1="117.156" y1="649.004" x2="114.648" y2="658.86" xlink:href="#al"/><linearGradient id="ar" x1="117.177" y1="647.445" x2="114.669" y2="657.3" xlink:href="#al"/><linearGradient id="as" x1="116.839" y1="653.04" x2="114.332" y2="662.897" xlink:href="#ad"/><linearGradient id="at" x1="116.878" y1="651.481" x2="114.37" y2="661.336" xlink:href="#ad"/><linearGradient id="au" x1="116.9" y1="650.029" x2="114.392" y2="659.884" xlink:href="#ad"/><linearGradient id="av" x1="116.95" y1="647.124" x2="114.442" y2="656.979" xlink:href="#al"/><linearGradient id="aw" x1="122.39" y1="660.159" x2="119.852" y2="670.133" xlink:href="#ad"/><linearGradient id="ax" x1="116.639" y1="651.16" x2="114.131" y2="661.015" xlink:href="#ad"/><linearGradient id="ay" x1="116.664" y1="649.762" x2="114.157" y2="659.617" xlink:href="#ad"/><linearGradient id="az" x1="72.233" y1="400.118" x2="70.687" y2="406.196" xlink:href="#al"/><linearGradient id="ba" x1="122.495" y1="654.246" x2="119.958" y2="664.219" xlink:href="#al"/><linearGradient id="bb" x1="145.875" y1="775.678" x2="142.904" y2="787.356" gradientUnits="objectBoundingBox"><stop offset="0.035" stop-color="#9f19ab"/><stop offset="0.244" stop-color="#ae24b0"/><stop offset="0.645" stop-color="#d643bf"/><stop offset="1" stop-color="#ff63ce"/></linearGradient><linearGradient id="bc" x1="141.779" y1="787.166" x2="138.754" y2="799.056" xlink:href="#bb"/><linearGradient id="bd" x1="141.821" y1="785.414" x2="138.796" y2="797.304" xlink:href="#al"/><linearGradient id="be" x1="141.855" y1="783.661" x2="138.829" y2="795.551" xlink:href="#al"/><linearGradient id="bf" x1="146.004" y1="768.826" x2="143.032" y2="780.505" xlink:href="#al"/><radialGradient id="bg" cx="0.5" cy="0.5" r="0.891" gradientTransform="matrix(-0.432, 0, 0, 1, 0.716, 0)" xlink:href="#d"/><radialGradient id="bh" cx="0.5" cy="0.5" r="0.91" gradientTransform="matrix(-0.422, 0, 0, 1, 0.711, 0)" xlink:href="#d"/><radialGradient id="bi" cx="0.5" cy="0.5" r="0.891" gradientTransform="matrix(-0.432, 0, 0, 1, 0.716, 0)" xlink:href="#d"/><radialGradient id="bj" cx="0.5" cy="0.5" r="0.891" gradientTransform="matrix(-0.432, 0, 0, 1, 0.716, 0)" xlink:href="#d"/><radialGradient id="bk" cx="0.5" cy="0.5" r="0.91" gradientTransform="matrix(-0.422, 0, 0, 1, 0.711, 0)" xlink:href="#d"/><radialGradient id="bl" cx="0.5" cy="0.5" r="1.021" gradientTransform="matrix(-0.369, 0, 0, 1, 0.685, 0)" xlink:href="#d"/><radialGradient id="bm" cx="0.5" cy="0.5" r="1.02" gradientTransform="matrix(-0.369, 0, 0, 1, 0.685, 0)" xlink:href="#d"/><radialGradient id="bn" cx="0.5" cy="0.5" r="1.02" gradientTransform="matrix(-0.369, 0, 0, 1, 0.685, 0)" xlink:href="#d"/><radialGradient id="bo" cx="0.5" cy="0.5" r="1.02" gradientTransform="matrix(-0.369, 0, 0, 1, 0.685, 0)" xlink:href="#d"/><radialGradient id="bp" cx="0.5" cy="0.5" r="1.02" gradientTransform="matrix(-0.369, 0, 0, 1, 0.685, 0)" xlink:href="#d"/><radialGradient id="bq" cx="0.5" cy="0.5" r="1.033" gradientTransform="matrix(-0.364, 0, 0, 1, 0.682, 0)" xlink:href="#d"/><radialGradient id="br" cx="0.5" cy="0.5" r="1.02" gradientTransform="matrix(-0.369, 0, 0, 1, 0.685, 0)" xlink:href="#d"/><radialGradient id="bs" cx="0.5" cy="0.5" r="1.021" gradientTransform="matrix(-0.369, 0, 0, 1, 0.685, 0)" xlink:href="#d"/><radialGradient id="bt" cx="0.5" cy="0.5" r="1.02" gradientTransform="matrix(-0.369, 0, 0, 1, 0.685, 0)" xlink:href="#d"/><radialGradient id="bu" cx="0.5" cy="0.5" r="1.02" gradientTransform="matrix(-0.369, 0, 0, 1, 0.685, 0)" xlink:href="#d"/><radialGradient id="bv" cx="0.5" cy="0.5" r="1.02" gradientTransform="matrix(-0.369, 0, 0, 1, 0.685, 0)" xlink:href="#d"/><radialGradient id="bw" cx="0.5" cy="0.5" r="1.02" gradientTransform="matrix(-0.369, 0, 0, 1, 0.685, 0)" xlink:href="#d"/><radialGradient id="bx" cx="0.5" cy="0.5" r="1.033" gradientTransform="matrix(-0.364, 0, 0, 1, 0.682, 0)" xlink:href="#d"/><radialGradient id="by" cx="0.5" cy="0.5" r="1.033" gradientTransform="matrix(-0.364, 0, 0, 1, 0.682, 0)" xlink:href="#d"/><radialGradient id="bz" cx="0.5" cy="0.5" r="1.018" gradientTransform="matrix(-0.37, 0, 0, 1, 0.685, 0)" xlink:href="#d"/><radialGradient id="ca" cx="0.5" cy="0.5" r="1.021" gradientTransform="matrix(-0.369, 0, 0, 1, 0.685, 0)" xlink:href="#d"/><radialGradient id="cb" cx="0.5" cy="0.5" r="1.033" gradientTransform="matrix(-0.364, 0, 0, 1, 0.682, 0)" xlink:href="#d"/><radialGradient id="cc" cx="0.5" cy="0.5" r="1.02" gradientTransform="matrix(-0.369, 0, 0, 1, 0.685, 0)" xlink:href="#d"/><radialGradient id="cd" cx="0.5" cy="0.5" r="1.02" gradientTransform="matrix(-0.369, 0, 0, 1, 0.685, 0)" xlink:href="#d"/><linearGradient id="ce" x1="0.508" y1="0.958" x2="0.49" y2="-0.11" gradientUnits="objectBoundingBox"><stop offset="0.035" stop-color="#138bbd"/><stop offset="0.226" stop-color="#169ac6"/><stop offset="0.595" stop-color="#1ec2df"/><stop offset="1" stop-color="#2af6ff"/></linearGradient><radialGradient id="cf" cx="0.5" cy="0.5" r="0.708" gradientTransform="matrix(-0.669, 0.504, 0.223, 0.495, 699.075, 426.474)" gradientUnits="objectBoundingBox"><stop offset="0" stop-color="#972a74"/><stop offset="0.041" stop-color="#8a266a"/><stop offset="0.194" stop-color="#601a49"/><stop offset="0.35" stop-color="#3d112f"/><stop offset="0.507" stop-color="#22091a"/><stop offset="0.667" stop-color="#0f040b"/><stop offset="0.829" stop-color="#030102"/><stop offset="1"/></radialGradient><linearGradient id="cg" x1="0.715" y1="0.532" x2="-2.111" y2="0.113" xlink:href="#bb"/><linearGradient id="ch" x1="2.315" y1="0.703" x2="-1.394" y2="0.289" xlink:href="#bb"/><linearGradient id="ci" x1="-0.022" y1="-1.198" x2="0.54" y2="0.629" xlink:href="#bb"/><linearGradient id="cj" x1="0.97" y1="0.517" x2="-5.209" y2="0.296" xlink:href="#ce"/><linearGradient id="ck" x1="0.316" y1="-0.102" x2="0.527" y2="0.585" xlink:href="#ce"/><linearGradient id="cl" x1="-1209.208" y1="0.616" x2="-1218.354" y2="0.379" xlink:href="#ce"/><linearGradient id="cm" x1="-181.902" y1="-0.096" x2="-181.692" y2="0.585" xlink:href="#ce"/><linearGradient id="cn" x1="0.582" y1="0.374" x2="0.122" y2="1.08" xlink:href="#ce"/><linearGradient id="co" x1="0.752" y1="0.961" x2="0.106" y2="-0.203" gradientUnits="objectBoundingBox"><stop offset="0.035" stop-color="#1bb0d4"/><stop offset="0.203" stop-color="#1ebfdd"/><stop offset="0.527" stop-color="#26e7f6"/><stop offset="0.631" stop-color="#2af6ff"/><stop offset="0.874" stop-color="#1bb0d4"/></linearGradient><radialGradient id="cp" cx="0.28" cy="0.193" r="0.554" gradientTransform="matrix(-0.835, 0, 0, 1, 0.551, 0)" xlink:href="#d"/><linearGradient id="cq" x1="-392.346" y1="0.374" x2="-392.807" y2="1.08" xlink:href="#ce"/><linearGradient id="cr" x1="-395.259" y1="0.961" x2="-395.905" y2="-0.203" xlink:href="#co"/><radialGradient id="cs" cx="0.72" cy="0.193" r="0.555" gradientTransform="translate(-1023.548) scale(0.835 1)" xlink:href="#d"/><linearGradient id="ct" x1="-376.581" y1="0.059" x2="-376.693" y2="1.089" xlink:href="#ce"/><linearGradient id="cu" x1="-376.792" y1="-0.017" x2="-376.403" y2="1.039" xlink:href="#co"/><radialGradient id="cv" cx="0.326" cy="0.301" r="0.79" gradientTransform="translate(-730.586) scale(0.501 1)" xlink:href="#d"/><linearGradient id="cw" x1="0.5" y1="1.482" x2="0.5" y2="0.035" xlink:href="#ce"/><linearGradient id="cx" x1="0.546" y1="0.059" x2="0.434" y2="1.089" xlink:href="#ce"/><linearGradient id="cy" x1="0.335" y1="-0.017" x2="0.725" y2="1.039" xlink:href="#co"/><radialGradient id="cz" cx="0.674" cy="0.301" r="0.79" gradientTransform="matrix(-0.501, 0, 0, 1, 0.925, 0)" xlink:href="#d"/><linearGradient id="da" x1="0.695" y1="0.538" x2="-1.868" y2="0.033" gradientUnits="objectBoundingBox"><stop offset="0.035" stop-color="#6b24d6"/><stop offset="0.294" stop-color="#7733dc"/><stop offset="0.794" stop-color="#965bec"/><stop offset="1" stop-color="#a56ef4"/></linearGradient><linearGradient id="db" x1="2.146" y1="0.744" x2="-1.217" y2="0.246" xlink:href="#da"/><linearGradient id="dc" x1="-0.022" y1="-1.198" x2="0.54" y2="0.629" xlink:href="#da"/><linearGradient id="dd" x1="0.861" y1="0.519" x2="-3.887" y2="0.268" gradientUnits="objectBoundingBox"><stop offset="0.035" stop-color="#ffa98c"/><stop offset="0.317" stop-color="#feb892"/><stop offset="0.86" stop-color="#fee0a3"/><stop offset="1" stop-color="#feeca8"/></linearGradient><linearGradient id="de" x1="0.316" y1="-0.102" x2="0.527" y2="0.585" xlink:href="#dd"/><linearGradient id="df" x1="-1222.727" y1="0.635" x2="-1229.916" y2="0.359" xlink:href="#dd"/><linearGradient id="dg" x1="-183.795" y1="-0.096" x2="-183.586" y2="0.585" xlink:href="#dd"/><linearGradient id="dh" x1="0.583" y1="0.374" x2="0.122" y2="1.08" xlink:href="#dd"/><linearGradient id="di" x1="0.752" y1="0.961" x2="0.106" y2="-0.203" gradientUnits="objectBoundingBox"><stop offset="0.035" stop-color="#f7aa90"/><stop offset="0.232" stop-color="#f9b996"/><stop offset="0.61" stop-color="#fee1a6"/><stop offset="0.631" stop-color="#ffe4a7"/><stop offset="0.874" stop-color="#f7aa90"/></linearGradient><radialGradient id="dj" cx="0.28" cy="0.193" r="0.555" gradientTransform="matrix(-0.835, 0, 0, 1, 0.551, 0)" xlink:href="#d"/><linearGradient id="dk" x1="-396.431" y1="0.374" x2="-396.891" y2="1.08" xlink:href="#dd"/><linearGradient id="dl" x1="-399.366" y1="0.961" x2="-400.012" y2="-0.203" xlink:href="#di"/><radialGradient id="dm" cx="0.72" cy="0.193" r="0.554" gradientTransform="translate(-1034.033) scale(0.835 1)" xlink:href="#d"/><linearGradient id="dn" x1="-380.523" y1="0.06" x2="-380.634" y2="1.089" xlink:href="#dd"/><linearGradient id="do" x1="-380.734" y1="-0.017" x2="-380.344" y2="1.039" xlink:href="#di"/><radialGradient id="dp" cx="0.326" cy="0.301" r="0.79" gradientTransform="translate(-738.263) scale(0.501 1)" xlink:href="#d"/><linearGradient id="dq" x1="0.5" y1="1.482" x2="0.5" y2="0.035" xlink:href="#dd"/><linearGradient id="dr" x1="0.546" y1="0.06" x2="0.434" y2="1.089" xlink:href="#dd"/><linearGradient id="ds" x1="0.335" y1="-0.017" x2="0.725" y2="1.039" xlink:href="#di"/><radialGradient id="dt" cx="0.674" cy="0.301" r="0.79" gradientTransform="matrix(-0.501, 0, 0, 1, 0.925, 0)" xlink:href="#d"/><linearGradient id="du" x1="1.38" y1="0.694" x2="0.089" y2="0.409" xlink:href="#da"/><linearGradient id="dv" x1="0.982" y1="0.452" x2="-0.386" y2="0.737" xlink:href="#da"/><linearGradient id="dw" x1="0.539" y1="0.453" x2="-1.191" y2="0.826" xlink:href="#da"/><linearGradient id="dx" x1="0.945" y1="0.473" x2="-0.92" y2="1.153" xlink:href="#da"/><linearGradient id="dy" x1="15.153" y1="-6.471" x2="-18.634" y2="9.603" gradientUnits="objectBoundingBox"><stop offset="0.035" stop-color="#871591"/><stop offset="0.488" stop-color="#961f97"/><stop offset="1" stop-color="#ad30a2"/></linearGradient><linearGradient id="dz" x1="12.911" y1="-5.405" x2="-20.875" y2="10.669" xlink:href="#dy"/><linearGradient id="ea" x1="10.669" y1="-4.338" x2="-23.117" y2="11.736" xlink:href="#dy"/><linearGradient id="eb" x1="8.428" y1="-3.272" x2="-25.359" y2="12.802" xlink:href="#dy"/><linearGradient id="ec" x1="6.186" y1="-2.205" x2="-27.6" y2="13.869" xlink:href="#dy"/><linearGradient id="ed" x1="3.944" y1="-1.139" x2="-29.842" y2="14.935" xlink:href="#dy"/><linearGradient id="ee" x1="1.702" y1="-0.072" x2="-32.084" y2="16.002" xlink:href="#dy"/><linearGradient id="ef" x1="0.223" y1="0.713" x2="1.388" y2="-0.182" gradientUnits="objectBoundingBox"><stop offset="0" stop-color="#7e7f90"/><stop offset="0.525" stop-color="#9d9eb3"/><stop offset="1" stop-color="#d4d1d8"/></linearGradient><linearGradient id="eh" x1="0.223" y1="0.713" x2="1.388" y2="-0.182" xlink:href="#ef"/><linearGradient id="ej" x1="0.223" y1="0.713" x2="1.388" y2="-0.182" xlink:href="#ef"/><linearGradient id="ek" x1="0.223" y1="0.713" x2="1.388" y2="-0.182" xlink:href="#ef"/><radialGradient id="em" cx="0.632" cy="0.347" r="0.446" gradientTransform="matrix(-1.299, 0, 0, 1, 1.493, 0)" gradientUnits="objectBoundingBox"><stop offset="0" stop-color="#fff"/><stop offset="0.325" stop-color="#b7b6b6"/><stop offset="1"/></radialGradient><radialGradient id="en" cx="1.537" cy="0.462" r="0.504" gradientTransform="matrix(-3.53, 0, 0, 1, 9.582, 0)" xlink:href="#em"/><radialGradient id="eo" cx="0.632" cy="0.347" r="0.446" xlink:href="#em"/><radialGradient id="ep" cx="1.537" cy="0.462" r="0.504" gradientTransform="matrix(-3.53, 0, 0, 1, 9.582, 0)" xlink:href="#em"/><radialGradient id="eq" cx="0.632" cy="0.347" r="0.446" xlink:href="#em"/><radialGradient id="er" cx="1.536" cy="0.462" r="0.504" gradientTransform="matrix(-3.528, 0, 0, 1, 9.572, 0)" xlink:href="#em"/><radialGradient id="es" cx="0.632" cy="0.347" r="0.446" xlink:href="#em"/><radialGradient id="et" cx="1.536" cy="0.462" r="0.504" gradientTransform="matrix(-3.527, 0, 0, 1, 9.572, 0)" xlink:href="#em"/><radialGradient id="eu" cx="0.632" cy="0.347" r="0.446" xlink:href="#em"/><radialGradient id="ev" cx="1.536" cy="0.462" r="0.504" gradientTransform="matrix(-3.527, 0, 0, 1, 9.572, 0)" xlink:href="#em"/><radialGradient id="ew" cx="0.632" cy="0.347" r="0.446" xlink:href="#em"/><linearGradient id="ex" x1="0.022" y1="0.878" x2="1.816" y2="-0.521" gradientUnits="objectBoundingBox"><stop offset="0" stop-color="#7556a2"/><stop offset="0.174" stop-color="#6a4795"/><stop offset="1" stop-color="#3d065f"/></linearGradient><linearGradient id="ey" x1="0.716" y1="0.532" x2="-2.127" y2="0.117" xlink:href="#da"/><linearGradient id="ez" x1="1.906" y1="0.926" x2="-0.968" y2="0.055" xlink:href="#da"/><linearGradient id="fa" x1="1.413" y1="0.186" x2="-2.515" y2="1.54" xlink:href="#da"/><linearGradient id="fb" x1="0.393" y1="0.137" x2="0.508" y2="0.524" xlink:href="#da"/><linearGradient id="fc" x1="0.194" y1="-0.542" x2="0.525" y2="0.564" xlink:href="#da"/><linearGradient id="fd" x1="0.716" y1="0.532" x2="-2.127" y2="0.117" xlink:href="#bb"/><linearGradient id="fe" x1="1.879" y1="0.954" x2="-0.941" y2="0.025" xlink:href="#bb"/><linearGradient id="ff" x1="1.413" y1="0.186" x2="-2.515" y2="1.54" xlink:href="#bb"/><linearGradient id="fg" x1="0.415" y1="0.214" x2="0.507" y2="0.519" xlink:href="#bb"/><linearGradient id="fh" x1="0.194" y1="-0.542" x2="0.525" y2="0.564" xlink:href="#bb"/><linearGradient id="fj" x1="1.923" y1="0.907" x2="-0.986" y2="0.075" xlink:href="#da"/><linearGradient id="fl" x1="0.374" y1="0.075" x2="0.51" y2="0.528" xlink:href="#da"/><radialGradient id="fn" cx="0.5" cy="0.5" r="0.532" gradientTransform="matrix(-0.492, -0.857, 0.754, -0.475, -1791.418, 3347.779)" gradientUnits="objectBoundingBox"><stop offset="0" stop-color="#f49587"/><stop offset="0.116" stop-color="#bc7368"/><stop offset="0.236" stop-color="#8b544c"/><stop offset="0.359" stop-color="#603a35"/><stop offset="0.483" stop-color="#3d2522"/><stop offset="0.609" stop-color="#221513"/><stop offset="0.735" stop-color="#0f0908"/><stop offset="0.864" stop-color="#030202"/><stop offset="1"/></radialGradient><radialGradient id="fo" cx="0.546" cy="0.504" r="0.499" gradientTransform="matrix(-0.82, 0, 0, 1, 0.985, 0)" gradientUnits="objectBoundingBox"><stop offset="0" stop-color="#fa45c1"/><stop offset="0.205" stop-color="#cb389d"/><stop offset="0.668" stop-color="#571843"/><stop offset="1"/></radialGradient></defs><g transform="translate(0.499 0.5)"><path d="M326.472,7.834,229.754,63.678l-2.822,1.628L13.568,188.495c-18.091,10.447-18.091,27.381,0,37.827L197,332.227c18.092,10.446,47.424,10.446,65.515,0L313.643,302.7c18.091-10.446,47.422-10.446,65.516,0l9.212,5.32c18.092,10.446,47.423,10.446,65.514,0l66.783-38.558c18.092-10.446,18.092-27.379,0-37.825L478.7,207.409,421.13,174.171l-26.322-15.2c-18.089-10.446-18.089-27.379,0-37.825l63.963-36.932c18.09-10.444,18.09-27.379,0-37.824L391.987,7.834C382.942,2.611,371.086,0,359.231,0S335.518,2.611,326.472,7.834ZM458.657,108.983l-35.411,20.445c-9.592,5.538-9.592,14.519,0,20.057l35.411,20.443c9.592,5.54,25.144,5.54,34.737,0l35.411-20.443c9.592-5.538,9.592-14.519,0-20.057l-35.411-20.445c-4.8-2.77-11.083-4.154-17.369-4.154S463.453,106.214,458.657,108.983ZM332.1,322.387,271.98,357.1,252.2,368.522c-10.928,6.308-10.928,16.538,0,22.846s28.644,6.309,39.57,0,28.644-6.309,39.57,0l.766.442c10.926,6.309,28.642,6.309,39.57,0l40.336-23.289c10.927-6.309,10.927-16.538,0-22.847l-40.336-23.289c-5.464-3.154-12.625-4.731-19.786-4.731S337.565,319.232,332.1,322.387Z" transform="translate(536 396.542) rotate(180)" stroke="rgba(0,0,0,0)" stroke-miterlimit="10" stroke-width="1" fill="url(#a)"/><g transform="translate(0 71.927)"><g transform="translate(0 4.994)" opacity="0.2"><path d="M886.572,100.289l62.4-36.028a5.954,5.954,0,0,0-.011-10.322L861.69,4.729a5.955,5.955,0,0,0-5.943.006l-62.4,36.028a5.955,5.955,0,0,0,.013,10.322L880.629,100.3A5.959,5.959,0,0,0,886.572,100.289Z" transform="translate(-790.372 -3.937)" opacity="0"/><path d="M861.411,5.006a6.085,6.085,0,0,0-5.872.13L793.6,40.9c-3.786,2.186-4.214,7.9-.422,10.082l86.666,48.911a6.09,6.09,0,0,0,5.877.119l62.124-35.869c3.786-2.186,4.245-7.923.452-10.1Z" transform="translate(-789.614 -3.709)" opacity="0.024"/><path d="M861.14,5.287a6.238,6.238,0,0,0-5.8.253l-61.482,35.5c-3.6,2.077-4.459,7.774-.856,9.841l86.064,48.613a6.253,6.253,0,0,0,5.815.245l61.849-35.709c3.6-2.077,4.522-7.809.919-9.878Z" transform="translate(-788.861 -3.483)" opacity="0.048"/><path d="M860.877,5.57c-1.578-.906-4.16-.533-5.736.377L794.115,41.182c-3.408,1.969-4.7,7.642-1.291,9.6L878.29,99.1c1.578.9,4.174,1.28,5.75.37l61.573-35.552c3.408-1.967,4.8-7.695,1.384-9.654Z" transform="translate(-788.116 -3.259)" opacity="0.071"/><path d="M860.619,5.855c-1.491-.855-4.179-.359-5.666.5L794.384,41.326c-3.218,1.859-4.948,7.51-1.726,9.359L877.522,98.7c1.491.856,4.2,1.357,5.687.5l61.3-35.394c3.218-1.858,5.074-7.58,1.851-9.432Z" transform="translate(-787.377 -3.039)" opacity="0.095"/><path d="M860.369,6.144c-1.4-.8-4.2-.185-5.6.623l-60.11,34.708c-3.029,1.748-5.195,7.376-2.16,9.118l84.263,47.715c1.4.8,4.222,1.433,5.621.625L943.41,63.7c3.03-1.75,5.351-7.468,2.316-9.209Z" transform="translate(-786.647 -2.821)" opacity="0.119"/><path d="M860.128,6.436c-1.315-.755-4.216-.013-5.528.745L794.945,41.626c-2.84,1.639-5.438,7.244-2.593,8.876l83.661,47.417c1.315.755,4.247,1.508,5.558.75l60.749-35.075c2.84-1.64,5.628-7.353,2.783-8.986Z" transform="translate(-785.925 -2.606)" opacity="0.143"/><path d="M859.9,6.73c-1.227-.7-4.234.163-5.459.869l-59.2,34.18c-2.651,1.531-5.684,7.112-3.029,8.635l83.062,47.118c1.227.705,4.269,1.584,5.494.877l60.474-34.917c2.65-1.529,5.9-7.239,3.249-8.762Z" transform="translate(-785.213 -2.394)" opacity="0.167"/><path d="M859.673,7.027c-1.14-.654-4.253.336-5.391.993L795.543,41.935c-2.461,1.421-5.929,6.98-3.464,8.395l82.46,46.818c1.14.654,4.293,1.66,5.431,1l60.2-34.758c2.461-1.421,6.18-7.125,3.715-8.54Z" transform="translate(-784.508 -2.184)" opacity="0.19"/><path d="M859.457,7.327c-1.051-.6-4.271.509-5.32,1.116L795.855,42.093c-2.273,1.312-6.175,6.848-3.9,8.153l81.86,46.521c1.051.6,4.316,1.735,5.365,1.128l59.925-34.6c2.271-1.312,6.457-7.012,4.182-8.318Z" transform="translate(-783.812 -1.977)" opacity="0.214"/><path d="M859.25,7.628c-.964-.552-4.29.684-5.253,1.24L796.173,42.254c-2.083,1.2-6.418,6.716-4.332,7.914L873.1,96.387c.963.554,4.338,1.811,5.3,1.256L938.051,63.2c2.083-1.2,6.734-6.9,4.647-8.094Z" transform="translate(-783.123 -1.772)" opacity="0.238"/><path d="M859.051,7.932c-.877-.5-4.308.856-5.184,1.362L796.5,42.418c-1.893,1.093-6.664,6.582-4.768,7.671L872.391,96.01c.877.5,4.362,1.887,5.238,1.381L937,63.11c1.893-1.093,7.009-6.784,5.114-7.872Z" transform="translate(-782.443 -1.569)" opacity="0.262"/><path d="M858.858,8.237c-.791-.454-4.327,1.03-5.114,1.484l-56.91,32.86c-1.7.984-6.909,6.45-5.2,7.431l80.058,45.622c.789.452,4.385,1.962,5.174,1.507l59.1-34.122c1.7-.984,7.286-6.669,5.579-7.65Z" transform="translate(-781.768 -1.368)" opacity="0.286"/><path d="M858.669,8.543c-.7-.4-4.345,1.206-5.045,1.61L797.172,42.748c-1.515.874-7.154,6.318-5.636,7.189L870.992,95.26c.7.4,4.409,2.04,5.109,1.636l58.826-33.966c1.515-.874,7.563-6.555,6.046-7.426Z" transform="translate(-781.1 -1.168)" opacity="0.31"/><path d="M858.488,8.852c-.613-.353-4.364,1.378-4.976,1.732l-56,32.331c-1.325.765-7.4,6.186-6.071,6.949L870.3,94.887c.613.353,4.433,2.114,5.045,1.761L933.9,62.842c1.325-.765,7.84-6.441,6.512-7.2Z" transform="translate(-780.438 -0.97)" opacity="0.333"/><path d="M858.313,9.162c-.526-.3-4.382,1.552-4.908,1.854L797.868,43.083c-1.137.657-7.643,6.054-6.507,6.708l78.255,44.726c.526.3,4.457,2.189,4.982,1.887l58.275-33.647c1.137-.657,8.115-6.328,6.978-6.98Z" transform="translate(-779.781 -0.772)" opacity="0.357"/><path d="M858.141,9.471c-.438-.251-4.4,1.726-4.837,1.978l-55.081,31.8c-.947.547-7.888,5.924-6.94,6.468l77.655,44.425c.438.253,4.48,2.267,4.918,2.014l58-33.488c.947-.547,8.392-6.214,7.444-6.758Z" transform="translate(-779.129 -0.577)" opacity="0.381"/><path d="M857.972,9.783c-.351-.2-4.419,1.9-4.768,2.1L798.58,43.424c-.757.436-8.133,5.79-7.374,6.225l77.053,44.127c.351.2,4.5,2.342,4.853,2.139l57.726-33.33c.757-.436,8.669-6.1,7.91-6.534Z" transform="translate(-778.48 -0.381)" opacity="0.405"/><path d="M857.811,10.1c-.262-.151-4.438,2.072-4.7,2.225L798.945,43.6c-.568.327-8.379,5.658-7.811,5.984l76.454,43.829c.262.151,4.527,2.416,4.789,2.265L929.828,62.5c.568-.328,8.945-5.985,8.376-6.312Z" transform="translate(-777.837 -0.187)" opacity="0.429"/><path d="M857.65,10.408a50.1,50.1,0,0,0-4.631,2.349l-53.71,31.011c-.378.219-8.622,5.526-8.244,5.744l75.852,43.53a52.1,52.1,0,0,0,4.726,2.39L928.819,62.42c.378-.219,9.221-5.872,8.842-6.09Z" transform="translate(-777.195 0.006)" opacity="0.452"/><path d="M857.492,10.722c-.087-.05-4.474,2.421-4.56,2.471L799.678,43.94c-.19.109-8.868,5.394-8.678,5.5l75.252,43.23c.087.05,4.573,2.569,4.662,2.518l56.9-32.854c.19-.109,9.5-5.757,9.308-5.866Z" transform="translate(-776.557 0.199)" opacity="0.476"/><path d="M870.185,94.95l66.4-38.339L857.337,11.037l-66.4,38.339Z" transform="translate(-775.921 0.391)" opacity="0.5"/></g><g transform="translate(13.183 36.699)"><path d="M914.373,78.774v6.021a2.383,2.383,0,0,1-3.73,1.966l-80.272-46.9V25.233a1.6,1.6,0,0,1,2.5-1.318l75.6,43.668A13.563,13.563,0,0,1,914.373,78.774Z" transform="translate(-830.371 -23.633)" fill="url(#b)"/></g><path d="M873.86,98.7V92.675a13.562,13.562,0,0,0-5.9-11.191l-75.6-43.668a1.574,1.574,0,0,0-1.557-.135l63.69-36.7a1.573,1.573,0,0,1,1.563.132l75.6,43.668a13.562,13.562,0,0,1,5.9,11.191v6.021A2.368,2.368,0,0,1,936,64.231l-63.468,36.633-.026-.024A2.355,2.355,0,0,0,873.86,98.7Z" transform="translate(-776.674 -0.835)" fill="url(#c)"/><path d="M912.154,85.06V79.04a13.563,13.563,0,0,0-5.9-11.191l-75.6-43.668a1.57,1.57,0,0,0-1.006-.275,1.594,1.594,0,0,1,2.173-.353l75.6,43.667a13.565,13.565,0,0,1,5.9,11.193v6.021a2.375,2.375,0,0,1-1.883,2.329A2.341,2.341,0,0,0,912.154,85.06Z" transform="translate(-814.969 12.846)" fill="url(#d)" style="mix-blend-mode:color-dodge;isolation:isolate"/><path d="M934.3,62.58l.121-.043a.836.836,0,0,0,.555-.794V55.722a12.017,12.017,0,0,0-5.232-9.921l-75.6-43.667-1.561-.885L791.758,36.3l76.034,43.66a15.1,15.1,0,0,1,6.571,12.463V97.18Z" transform="translate(-775.637 -0.583)" fill="url(#e)" style="mix-blend-mode:color-dodge;isolation:isolate"/><path d="M872.665,62.52l.121-.045a.833.833,0,0,0,.555-.792V55.661a12.014,12.014,0,0,0-5.232-9.919l-75.6-43.668-.75-.425.692-.4,1.561.885,75.6,43.667a12.017,12.017,0,0,1,5.232,9.921v6.021a.836.836,0,0,1-.555.794l-.121.043-59.941,34.6v-.929Z" transform="translate(-715.501 -0.583)" fill="#8770b8" opacity="0.5" style="mix-blend-mode:multiply;isolation:isolate"/><g transform="translate(52.719 22.206)"><path d="M829.7,20.47l5.082-2.935c1.037-.6.906-1.644-.291-2.334h0a4.489,4.489,0,0,0-4.044-.167l-5.08,2.933c-1.037.6-.906,1.644.29,2.334h0A4.5,4.5,0,0,0,829.7,20.47Z" transform="translate(-781.832 -14.63)" fill="url(#f)"/><path d="M836.621,24.114l4.473-2.582a1.326,1.326,0,0,0,.013-2.511h0a4.806,4.806,0,0,0-4.348.008l-4.474,2.584a1.324,1.324,0,0,0-.013,2.51h0A4.807,4.807,0,0,0,836.621,24.114Z" transform="translate(-799.157 -12.267)" fill="url(#g)"/><path d="M843.273,27.955l4.473-2.584a1.325,1.325,0,0,0,.013-2.51h0a4.807,4.807,0,0,0-4.348.008l-4.473,2.582a1.326,1.326,0,0,0-.013,2.511h0A4.807,4.807,0,0,0,843.273,27.955Z" transform="translate(-816.518 -9.925)" fill="url(#h)"/><path d="M849.924,31.794l4.474-2.582a1.324,1.324,0,0,0,.015-2.51h0a4.8,4.8,0,0,0-4.348.008l-4.474,2.582a1.325,1.325,0,0,0-.014,2.51h0A4.8,4.8,0,0,0,849.924,31.794Z" transform="translate(-833.878 -7.583)" fill="url(#i)"/><path d="M856.309,35.832l5.082-2.933c1.037-.6.906-1.644-.29-2.336h0a4.494,4.494,0,0,0-4.044-.167l-5.082,2.935c-1.037.6-.906,1.644.29,2.334h0A4.5,4.5,0,0,0,856.309,35.832Z" transform="translate(-851.275 -5.262)" fill="url(#j)"/></g><g transform="translate(61.575 27.319)"><g transform="translate(0)"><path d="M824.688,24.741l5.343-3.084c.964-.557.844-1.529-.27-2.172l-1.987-1.148a4.186,4.186,0,0,0-3.764-.156l-5.343,3.084c-.964.557-.844,1.529.27,2.173l1.988,1.146A4.177,4.177,0,0,0,824.688,24.741Z" transform="translate(-775.184 -17.806)" fill="url(#k)"/><path d="M831.369,28.6l5.343-3.084a1.061,1.061,0,0,0,.01-2.011l-2.548-1.471a3.847,3.847,0,0,0-3.482.006l-5.343,3.084a1.061,1.061,0,0,0-.011,2.011l2.55,1.471A3.847,3.847,0,0,0,831.369,28.6Z" transform="translate(-792.573 -15.48)" fill="url(#l)"/><path d="M838.021,32.44l5.341-3.084a1.061,1.061,0,0,0,.011-2.011l-2.548-1.471a3.847,3.847,0,0,0-3.482,0L832,28.963a1.061,1.061,0,0,0-.011,2.011l2.55,1.471A3.852,3.852,0,0,0,838.021,32.44Z" transform="translate(-809.933 -13.138)" fill="url(#m)"/><path d="M844.674,36.28l5.341-3.084a1.061,1.061,0,0,0,.011-2.011l-2.55-1.471a3.846,3.846,0,0,0-3.482.006L838.653,32.8a1.061,1.061,0,0,0-.011,2.011l2.55,1.471A3.846,3.846,0,0,0,844.674,36.28Z" transform="translate(-827.294 -10.797)" fill="url(#n)"/><path d="M851.3,40.1l5.343-3.084c.964-.557.844-1.529-.27-2.173L854.381,33.7a4.181,4.181,0,0,0-3.764-.156l-5.341,3.084c-.964.557-.844,1.529.271,2.172l1.987,1.148A4.182,4.182,0,0,0,851.3,40.1Z" transform="translate(-844.626 -8.438)" fill="url(#o)"/></g><g transform="translate(7.853 4.534)"><path d="M819.791,27.6l5.343-3.084a1.061,1.061,0,0,0,.01-2.011L822.6,21.036a3.847,3.847,0,0,0-3.482.006l-5.343,3.084a1.061,1.061,0,0,0-.011,2.011l2.55,1.471A3.847,3.847,0,0,0,819.791,27.6Z" transform="translate(-770.21 -20.622)" fill="url(#p)"/><path d="M826.443,31.443l5.341-3.084a1.061,1.061,0,0,0,.011-2.011l-2.548-1.471a3.847,3.847,0,0,0-3.482.006l-5.343,3.084a1.06,1.06,0,0,0-.011,2.009l2.55,1.473A3.852,3.852,0,0,0,826.443,31.443Z" transform="translate(-787.57 -18.28)" fill="url(#q)"/><path d="M833.1,35.283l5.341-3.084a1.06,1.06,0,0,0,.011-2.009l-2.55-1.473a3.851,3.851,0,0,0-3.482.006l-5.341,3.084a1.061,1.061,0,0,0-.011,2.011l2.55,1.471A3.847,3.847,0,0,0,833.1,35.283Z" transform="translate(-804.931 -15.938)" fill="url(#r)"/><path d="M839.747,39.124l5.343-3.084a1.061,1.061,0,0,0,.011-2.011l-2.55-1.471a3.847,3.847,0,0,0-3.482.006l-5.341,3.084a1.061,1.061,0,0,0-.011,2.011l2.548,1.471A3.847,3.847,0,0,0,839.747,39.124Z" transform="translate(-822.292 -13.597)" fill="url(#s)"/><path d="M846.4,42.965l5.343-3.084a1.061,1.061,0,0,0,.011-2.011L849.2,36.4a3.846,3.846,0,0,0-3.482.006l-5.343,3.084a1.06,1.06,0,0,0-.01,2.009l2.548,1.473A3.852,3.852,0,0,0,846.4,42.965Z" transform="translate(-839.653 -11.254)" fill="url(#t)"/></g><g transform="translate(15.783 9.112)"><path d="M814.865,30.446l5.341-3.084a1.061,1.061,0,0,0,.011-2.011l-2.548-1.471a3.847,3.847,0,0,0-3.482.006l-5.343,3.084a1.062,1.062,0,0,0-.011,2.011l2.55,1.471A3.847,3.847,0,0,0,814.865,30.446Z" transform="translate(-765.284 -23.466)" fill="url(#u)"/><path d="M821.518,34.287l5.341-3.084a1.061,1.061,0,0,0,.011-2.011l-2.55-1.471a3.846,3.846,0,0,0-3.482.006L815.5,30.811a1.06,1.06,0,0,0-.011,2.009l2.55,1.473A3.852,3.852,0,0,0,821.518,34.287Z" transform="translate(-782.645 -21.124)" fill="url(#v)"/><path d="M828.169,38.127l5.343-3.084a1.06,1.06,0,0,0,.011-2.009l-2.55-1.473a3.852,3.852,0,0,0-3.482.006l-5.341,3.084a1.061,1.061,0,0,0-.011,2.011l2.548,1.471A3.847,3.847,0,0,0,828.169,38.127Z" transform="translate(-800.006 -18.782)" fill="url(#w)"/><path d="M841.474,45.809l5.343-3.084a1.061,1.061,0,0,0,.01-2.011l-2.548-1.471a3.847,3.847,0,0,0-3.482.006l-5.343,3.084a1.06,1.06,0,0,0-.01,2.009l2.548,1.473A3.851,3.851,0,0,0,841.474,45.809Z" transform="translate(-834.727 -14.098)" fill="url(#x)"/></g><g transform="translate(23.788 13.734)"><path d="M809.911,33.273l5.341-3.084c.964-.557.844-1.529-.27-2.173L813,26.87a4.18,4.18,0,0,0-3.764-.156L803.891,29.8c-.964.557-.843,1.529.271,2.172l1.987,1.148A4.18,4.18,0,0,0,809.911,33.273Z" transform="translate(-760.405 -26.337)" fill="url(#y)"/><path d="M816.591,37.131l5.343-3.084a1.061,1.061,0,0,0,.011-2.011l-2.55-1.471a3.847,3.847,0,0,0-3.482.006l-5.341,3.084a1.06,1.06,0,0,0-.011,2.009l2.548,1.473A3.852,3.852,0,0,0,816.591,37.131Z" transform="translate(-777.795 -24.012)" fill="url(#z)"/><path d="M823.243,40.971l5.343-3.084a1.06,1.06,0,0,0,.011-2.009l-2.55-1.473a3.847,3.847,0,0,0-3.482.006L817.223,37.5a1.061,1.061,0,0,0-.01,2.011l2.548,1.471A3.847,3.847,0,0,0,823.243,40.971Z" transform="translate(-795.156 -21.67)" fill="url(#aa)"/><path d="M837.859,46.554l5.343-3.084a1.061,1.061,0,0,0,.01-2.011L832.7,35.388a3.852,3.852,0,0,0-3.482.006l-5.341,3.084a1.061,1.061,0,0,0-.011,2.011l10.513,6.07A3.846,3.846,0,0,0,837.859,46.554Z" transform="translate(-820.48 -21.07)" fill="url(#ab)"/><path d="M836.52,48.636l5.341-3.084c.966-.557.843-1.531-.269-2.173L839.6,42.231a4.187,4.187,0,0,0-3.762-.156L830.5,45.159c-.964.557-.844,1.531.27,2.173l1.986,1.148A4.191,4.191,0,0,0,836.52,48.636Z" transform="translate(-829.848 -16.97)" fill="url(#ac)"/></g></g><g transform="translate(52.719 21.482)"><path d="M829.7,20.02l5.082-2.933c1.037-.6.906-1.645-.291-2.336h0a4.494,4.494,0,0,0-4.044-.167l-5.08,2.935c-1.037.6-.906,1.644.29,2.334h0A4.494,4.494,0,0,0,829.7,20.02Z" transform="translate(-781.832 -14.18)" fill="url(#ad)"/><path d="M836.621,23.665l4.473-2.584a1.324,1.324,0,0,0,.013-2.51h0a4.806,4.806,0,0,0-4.348.008l-4.474,2.582a1.326,1.326,0,0,0-.013,2.511h0A4.807,4.807,0,0,0,836.621,23.665Z" transform="translate(-799.157 -11.817)" fill="url(#ae)"/><path d="M843.273,27.5l4.473-2.582a1.326,1.326,0,0,0,.013-2.511h0a4.807,4.807,0,0,0-4.348.008L838.938,25a1.324,1.324,0,0,0-.013,2.51h0A4.807,4.807,0,0,0,843.273,27.5Z" transform="translate(-816.518 -9.475)" fill="url(#af)"/><path d="M849.924,31.346l4.474-2.584a1.324,1.324,0,0,0,.015-2.51h0a4.807,4.807,0,0,0-4.348.008l-4.474,2.582a1.326,1.326,0,0,0-.014,2.511h0A4.806,4.806,0,0,0,849.924,31.346Z" transform="translate(-833.878 -7.133)" fill="url(#ag)"/><path d="M856.309,35.383l5.082-2.935c1.037-.6.906-1.644-.29-2.334h0a4.489,4.489,0,0,0-4.044-.167l-5.082,2.933c-1.037.6-.906,1.644.29,2.334h0A4.5,4.5,0,0,0,856.309,35.383Z" transform="translate(-851.275 -4.812)" fill="url(#ah)"/></g><g transform="translate(61.575 26.595)"><g transform="translate(0)"><path d="M824.688,24.292l5.343-3.084c.964-.557.844-1.529-.27-2.173l-1.987-1.148a4.185,4.185,0,0,0-3.764-.155l-5.343,3.084c-.964.557-.844,1.529.27,2.172l1.988,1.148A4.182,4.182,0,0,0,824.688,24.292Z" transform="translate(-775.184 -17.356)" fill="url(#ai)"/><path d="M831.369,28.149l5.343-3.084a1.06,1.06,0,0,0,.01-2.009l-2.548-1.473a3.852,3.852,0,0,0-3.482.006l-5.343,3.084a1.061,1.061,0,0,0-.011,2.011l2.55,1.471A3.847,3.847,0,0,0,831.369,28.149Z" transform="translate(-792.573 -15.031)" fill="url(#aj)"/><path d="M838.021,31.99l5.341-3.084a1.061,1.061,0,0,0,.011-2.011l-2.548-1.471a3.847,3.847,0,0,0-3.482.006L832,28.514a1.061,1.061,0,0,0-.011,2.011L834.539,32A3.847,3.847,0,0,0,838.021,31.99Z" transform="translate(-809.933 -12.689)" fill="url(#ak)"/><path d="M844.674,35.831l5.341-3.084a1.061,1.061,0,0,0,.011-2.011l-2.55-1.471a3.846,3.846,0,0,0-3.482.006l-5.341,3.084a1.06,1.06,0,0,0-.011,2.009l2.55,1.473A3.851,3.851,0,0,0,844.674,35.831Z" transform="translate(-827.294 -10.347)" fill="url(#al)"/><path d="M851.3,39.654l5.343-3.084c.964-.557.844-1.529-.27-2.172l-1.987-1.148a4.186,4.186,0,0,0-3.764-.156l-5.341,3.084c-.964.557-.844,1.529.271,2.173l1.987,1.146A4.177,4.177,0,0,0,851.3,39.654Z" transform="translate(-844.626 -7.989)" fill="url(#am)"/></g><g transform="translate(7.853 4.535)"><path d="M819.791,27.153l5.343-3.084a1.061,1.061,0,0,0,.01-2.011L822.6,20.587a3.847,3.847,0,0,0-3.482.006l-5.343,3.084a1.06,1.06,0,0,0-.011,2.009l2.55,1.473A3.852,3.852,0,0,0,819.791,27.153Z" transform="translate(-770.21 -20.173)" fill="url(#an)"/><path d="M826.443,30.993l5.341-3.084c.966-.557.971-1.457.011-2.009l-2.548-1.473a3.847,3.847,0,0,0-3.482.006l-5.343,3.084a1.061,1.061,0,0,0-.011,2.011L822.961,31A3.847,3.847,0,0,0,826.443,30.993Z" transform="translate(-787.57 -17.832)" fill="url(#ao)"/><path d="M833.1,34.834l5.341-3.084a1.061,1.061,0,0,0,.011-2.011l-2.55-1.471a3.846,3.846,0,0,0-3.482.006l-5.341,3.084a1.061,1.061,0,0,0-.011,2.011l2.55,1.471A3.847,3.847,0,0,0,833.1,34.834Z" transform="translate(-804.931 -15.49)" fill="url(#ap)"/><path d="M839.747,38.675l5.343-3.084a1.061,1.061,0,0,0,.011-2.011l-2.55-1.471a3.852,3.852,0,0,0-3.482,0L833.728,35.2a1.061,1.061,0,0,0-.011,2.011l2.548,1.471A3.852,3.852,0,0,0,839.747,38.675Z" transform="translate(-822.292 -13.148)" fill="url(#aq)"/><path d="M846.4,42.515l5.343-3.084a1.061,1.061,0,0,0,.011-2.011l-2.55-1.471a3.846,3.846,0,0,0-3.482.006l-5.343,3.084a1.061,1.061,0,0,0-.01,2.011l2.548,1.471A3.847,3.847,0,0,0,846.4,42.515Z" transform="translate(-839.653 -10.806)" fill="url(#ar)"/></g><g transform="translate(15.783 9.113)"><path d="M814.865,30l5.341-3.084a1.061,1.061,0,0,0,.011-2.011l-2.548-1.471a3.852,3.852,0,0,0-3.482,0l-5.343,3.084a1.062,1.062,0,0,0-.011,2.011L811.383,30A3.852,3.852,0,0,0,814.865,30Z" transform="translate(-765.284 -23.017)" fill="url(#as)"/><path d="M821.518,33.837l5.341-3.084a1.061,1.061,0,0,0,.011-2.011l-2.55-1.471a3.846,3.846,0,0,0-3.482.006L815.5,30.361a1.061,1.061,0,0,0-.011,2.011l2.55,1.471A3.847,3.847,0,0,0,821.518,33.837Z" transform="translate(-782.645 -20.676)" fill="url(#at)"/><path d="M828.169,37.678l5.343-3.084a1.061,1.061,0,0,0,.011-2.011l-2.55-1.471a3.847,3.847,0,0,0-3.482.006L822.15,34.2c-.964.557-.971,1.457-.011,2.009l2.548,1.473A3.847,3.847,0,0,0,828.169,37.678Z" transform="translate(-800.006 -18.333)" fill="url(#au)"/><path d="M841.474,45.359l5.343-3.084a1.061,1.061,0,0,0,.01-2.011l-2.548-1.471a3.847,3.847,0,0,0-3.482.006l-5.343,3.084a1.061,1.061,0,0,0-.01,2.011l2.548,1.471A3.846,3.846,0,0,0,841.474,45.359Z" transform="translate(-834.727 -13.65)" fill="url(#av)"/></g><g transform="translate(23.788 13.734)"><path d="M809.911,32.823l5.341-3.084c.964-.555.844-1.529-.27-2.172L813,26.419a4.185,4.185,0,0,0-3.764-.156l-5.341,3.084c-.964.557-.843,1.529.271,2.173l1.987,1.148A4.185,4.185,0,0,0,809.911,32.823Z" transform="translate(-760.405 -25.888)" fill="url(#aw)"/><path d="M816.591,36.681l5.343-3.084a1.061,1.061,0,0,0,.011-2.011l-2.55-1.471a3.847,3.847,0,0,0-3.482.006l-5.341,3.084a1.061,1.061,0,0,0-.011,2.011l2.548,1.471A3.847,3.847,0,0,0,816.591,36.681Z" transform="translate(-777.795 -23.562)" fill="url(#ax)"/><path d="M823.243,40.522l5.343-3.084a1.062,1.062,0,0,0,.011-2.011l-2.55-1.471a3.847,3.847,0,0,0-3.482.006l-5.343,3.084a1.06,1.06,0,0,0-.01,2.009l2.548,1.473A3.852,3.852,0,0,0,823.243,40.522Z" transform="translate(-795.156 -21.22)" fill="url(#ay)"/><path d="M837.859,46.1l5.343-3.084a1.06,1.06,0,0,0,.01-2.009L832.7,34.94a3.847,3.847,0,0,0-3.482.006l-5.341,3.084a1.061,1.061,0,0,0-.011,2.011l10.513,6.069A3.846,3.846,0,0,0,837.859,46.1Z" transform="translate(-820.48 -20.62)" fill="url(#az)"/><path d="M836.52,48.186l5.341-3.084c.966-.557.843-1.529-.269-2.173L839.6,41.783a4.177,4.177,0,0,0-3.762-.156L830.5,44.711c-.964.557-.844,1.529.27,2.172l1.986,1.148A4.181,4.181,0,0,0,836.52,48.186Z" transform="translate(-829.848 -16.52)" fill="url(#ba)"/></g></g><g transform="translate(52.719 21.482)"><path d="M829.7,20.02l5.082-2.933c1.037-.6.906-1.645-.291-2.336h0a4.494,4.494,0,0,0-4.044-.167l-5.08,2.935c-1.037.6-.906,1.644.29,2.334h0A4.494,4.494,0,0,0,829.7,20.02Z" transform="translate(-781.832 -14.18)" fill="url(#bb)"/><path d="M836.621,23.665l4.473-2.584a1.324,1.324,0,0,0,.013-2.51h0a4.806,4.806,0,0,0-4.348.008l-4.474,2.582a1.326,1.326,0,0,0-.013,2.511h0A4.807,4.807,0,0,0,836.621,23.665Z" transform="translate(-799.157 -11.817)" fill="url(#bc)"/><path d="M843.273,27.5l4.473-2.582a1.326,1.326,0,0,0,.013-2.511h0a4.807,4.807,0,0,0-4.348.008L838.938,25a1.324,1.324,0,0,0-.013,2.51h0A4.807,4.807,0,0,0,843.273,27.5Z" transform="translate(-816.518 -9.475)" fill="url(#bd)"/><path d="M849.924,31.346l4.474-2.584a1.324,1.324,0,0,0,.015-2.51h0a4.807,4.807,0,0,0-4.348.008l-4.474,2.582a1.326,1.326,0,0,0-.014,2.511h0A4.806,4.806,0,0,0,849.924,31.346Z" transform="translate(-833.878 -7.133)" fill="url(#be)"/><path d="M856.309,35.383l5.082-2.935c1.037-.6.906-1.644-.29-2.334h0a4.489,4.489,0,0,0-4.044-.167l-5.082,2.933c-1.037.6-.906,1.644.29,2.334h0A4.5,4.5,0,0,0,856.309,35.383Z" transform="translate(-851.275 -4.812)" fill="url(#bf)"/></g><g transform="translate(52.724 23.172)" style="mix-blend-mode:color-dodge;isolation:isolate"><path d="M832.268,22.662a4.807,4.807,0,0,0,4.348-.008l4.473-2.582a1.658,1.658,0,0,0,.871-1.053,1.413,1.413,0,0,1-.871,1.475l-4.473,2.584a4.8,4.8,0,0,1-4.348.006,1.4,1.4,0,0,1-.86-1.457A1.637,1.637,0,0,0,832.268,22.662Z" transform="translate(-799.157 -12.92)" fill="url(#bg)"/><path d="M824.7,17.67a1.821,1.821,0,0,0,.959,1.119,4.494,4.494,0,0,0,4.044.167l5.082-2.933a1.308,1.308,0,0,0,.668-.794,1.128,1.128,0,0,1-.668,1.217L829.7,19.38a4.494,4.494,0,0,1-4.044-.167C824.9,18.773,824.572,18.19,824.7,17.67Z" transform="translate(-781.839 -15.23)" fill="url(#bh)"/><path d="M844.713,29.308a1.634,1.634,0,0,0,.858,1.035,4.806,4.806,0,0,0,4.348-.008l4.474-2.582a1.653,1.653,0,0,0,.873-1.053,1.413,1.413,0,0,1-.873,1.475l-4.474,2.584a4.806,4.806,0,0,1-4.348.008A1.4,1.4,0,0,1,844.713,29.308Z" transform="translate(-833.877 -8.236)" fill="url(#bi)"/><path d="M838.92,26.5a4.8,4.8,0,0,0,4.348-.006l4.474-2.584a1.651,1.651,0,0,0,.871-1.053,1.416,1.416,0,0,1-.871,1.476l-4.474,2.582a4.807,4.807,0,0,1-4.348.008,1.4,1.4,0,0,1-.859-1.458A1.628,1.628,0,0,0,838.92,26.5Z" transform="translate(-816.517 -10.578)" fill="url(#bj)"/><path d="M852.267,34.152a4.494,4.494,0,0,0,4.044.167l5.082-2.935a1.3,1.3,0,0,0,.668-.792,1.126,1.126,0,0,1-.668,1.215l-5.082,2.935a4.5,4.5,0,0,1-4.044-.169c-.761-.439-1.087-1.021-.958-1.542A1.819,1.819,0,0,0,852.267,34.152Z" transform="translate(-851.281 -5.862)" fill="url(#bk)"/></g><g transform="translate(61.58 29.299)" style="mix-blend-mode:color-dodge;isolation:isolate"><path d="M831.781,26.9l-5.341,3.084a3.847,3.847,0,0,1-3.482.006l-2.55-1.471a1.109,1.109,0,0,1-.681-1.209,1.346,1.346,0,0,0,.681.786l2.55,1.473a3.852,3.852,0,0,0,3.482-.006l5.341-3.084a1.363,1.363,0,0,0,.692-.8C832.588,26.1,832.361,26.563,831.781,26.9Z" transform="translate(-779.719 -14.989)" fill="url(#bl)"/><path d="M826.856,29.741l-5.341,3.084a3.847,3.847,0,0,1-3.482.006l-2.55-1.471a1.106,1.106,0,0,1-.681-1.209,1.34,1.34,0,0,0,.681.786l2.55,1.471a3.852,3.852,0,0,0,3.482,0l5.341-3.084a1.368,1.368,0,0,0,.692-.8A1.121,1.121,0,0,1,826.856,29.741Z" transform="translate(-766.864 -13.255)" fill="url(#bm)"/><path d="M833.032,34.99a1.349,1.349,0,0,0,.681.786l2.548,1.471a3.847,3.847,0,0,0,3.482-.006l5.343-3.084a1.364,1.364,0,0,0,.692-.8c.113.431-.113.89-.692,1.225l-5.343,3.084a3.857,3.857,0,0,1-3.482.006L833.713,36.2A1.106,1.106,0,0,1,833.032,34.99Z" transform="translate(-814.44 -10.305)" fill="url(#bn)"/><path d="M837.958,32.146a1.35,1.35,0,0,0,.681.786l2.55,1.471a3.847,3.847,0,0,0,3.482-.006l5.341-3.084a1.359,1.359,0,0,0,.692-.8c.113.433-.113.89-.692,1.225l-5.341,3.084a3.852,3.852,0,0,1-3.482.006l-2.55-1.473A1.106,1.106,0,0,1,837.958,32.146Z" transform="translate(-827.295 -12.04)" fill="url(#bo)"/><path d="M831.986,29.09l2.55,1.471a3.846,3.846,0,0,0,3.482-.006l5.341-3.084a1.355,1.355,0,0,0,.692-.8c.114.433-.113.89-.692,1.225l-5.341,3.084a3.846,3.846,0,0,1-3.482.006l-2.55-1.471a1.11,1.11,0,0,1-.681-1.209A1.346,1.346,0,0,0,831.986,29.09Z" transform="translate(-809.935 -14.382)" fill="url(#bp)"/><path d="M830.031,20.184l-5.343,3.084a4.182,4.182,0,0,1-3.762-.156l-1.988-1.148c-.715-.412-1.014-.959-.887-1.447a1.714,1.714,0,0,0,.887,1.025l1.988,1.146a4.177,4.177,0,0,0,3.762.156l5.343-3.084a1.218,1.218,0,0,0,.617-.724A1.043,1.043,0,0,1,830.031,20.184Z" transform="translate(-775.189 -19.036)" fill="url(#bq)"/><path d="M822.135,34.778l2.548,1.471a3.847,3.847,0,0,0,3.482-.006l5.343-3.084a1.36,1.36,0,0,0,.692-.8c.113.433-.113.89-.692,1.225l-5.343,3.084a3.852,3.852,0,0,1-3.482.006L822.135,35.2a1.106,1.106,0,0,1-.681-1.207A1.35,1.35,0,0,0,822.135,34.778Z" transform="translate(-784.224 -10.913)" fill="url(#br)"/><path d="M836.708,24.052l-5.343,3.084a3.847,3.847,0,0,1-3.482.006l-2.548-1.471a1.1,1.1,0,0,1-.681-1.209,1.34,1.34,0,0,0,.681.786l2.548,1.473a3.852,3.852,0,0,0,3.482-.006l5.343-3.084a1.361,1.361,0,0,0,.691-.8C837.513,23.26,837.286,23.719,836.708,24.052Z" transform="translate(-792.574 -16.723)" fill="url(#bs)"/><path d="M826.38,31.149a1.34,1.34,0,0,0,.681.786l2.55,1.471a3.847,3.847,0,0,0,3.482-.006l5.341-3.084a1.36,1.36,0,0,0,.692-.8c.113.433-.113.89-.692,1.225l-5.341,3.084a3.847,3.847,0,0,1-3.482.006l-2.55-1.471A1.109,1.109,0,0,1,826.38,31.149Z" transform="translate(-797.08 -12.647)" fill="url(#bt)"/><path d="M835.44,42.459l2.548,1.471a3.846,3.846,0,0,0,3.482-.006l5.343-3.084a1.351,1.351,0,0,0,.69-.8c.114.433-.111.89-.69,1.225l-5.343,3.084a3.846,3.846,0,0,1-3.482.006l-2.548-1.471a1.106,1.106,0,0,1-.681-1.209A1.34,1.34,0,0,0,835.44,42.459Z" transform="translate(-818.945 -6.23)" fill="url(#bu)"/><path d="M825.13,23.057l-5.343,3.084a3.852,3.852,0,0,1-3.482.006l-2.548-1.473a1.1,1.1,0,0,1-.681-1.207,1.349,1.349,0,0,0,.681.786l2.548,1.471a3.847,3.847,0,0,0,3.482-.006l5.343-3.084a1.357,1.357,0,0,0,.691-.8C825.935,22.265,825.708,22.722,825.13,23.057Z" transform="translate(-762.358 -17.331)" fill="url(#bv)"/><path d="M840.365,39.615l2.548,1.471a3.852,3.852,0,0,0,3.482,0L851.738,38a1.357,1.357,0,0,0,.691-.8c.114.433-.111.89-.691,1.225L846.4,41.5a3.847,3.847,0,0,1-3.482.006l-2.548-1.471a1.107,1.107,0,0,1-.681-1.209A1.34,1.34,0,0,0,840.365,39.615Z" transform="translate(-831.8 -7.964)" fill="url(#bw)"/><path d="M830.77,45.436l1.987,1.148a4.185,4.185,0,0,0,3.764.155l5.341-3.084a1.217,1.217,0,0,0,.618-.724,1.044,1.044,0,0,1-.618,1.148l-5.341,3.084a4.181,4.181,0,0,1-3.764-.156l-1.987-1.148c-.715-.412-1.016-.959-.887-1.447A1.7,1.7,0,0,0,830.77,45.436Z" transform="translate(-806.066 -4.466)" fill="url(#bx)"/><path d="M845.547,36.9l1.988,1.148a4.187,4.187,0,0,0,3.762.156l5.343-3.084a1.216,1.216,0,0,0,.616-.726,1.039,1.039,0,0,1-.616,1.148L851.3,38.63a4.177,4.177,0,0,1-3.762-.156l-1.988-1.146c-.715-.414-1.014-.961-.887-1.447A1.711,1.711,0,0,0,845.547,36.9Z" transform="translate(-844.632 -9.669)" fill="url(#by)"/><path d="M823.18,37.2a1.34,1.34,0,0,0,.681.786l10.513,6.07a3.851,3.851,0,0,0,3.482-.006l5.343-3.084a1.355,1.355,0,0,0,.69-.8c.114.431-.113.89-.69,1.223l-5.343,3.084a3.846,3.846,0,0,1-3.482.006L823.861,38.41A1.109,1.109,0,0,1,823.18,37.2Z" transform="translate(-796.694 -7.96)" fill="url(#bz)"/><path d="M820.2,25.9l-5.341,3.084a3.852,3.852,0,0,1-3.482,0l-2.55-1.471a1.108,1.108,0,0,1-.681-1.207,1.349,1.349,0,0,0,.681.786l2.55,1.471a3.847,3.847,0,0,0,3.482-.006l5.341-3.084a1.358,1.358,0,0,0,.692-.8C821.01,25.109,820.783,25.566,820.2,25.9Z" transform="translate(-749.503 -15.597)" fill="url(#ca)"/><path d="M803.275,29.05a1.7,1.7,0,0,0,.887,1.024l1.987,1.148a4.185,4.185,0,0,0,3.764.156l5.341-3.084a1.216,1.216,0,0,0,.616-.726,1.039,1.039,0,0,1-.616,1.148L809.912,31.8a4.191,4.191,0,0,1-3.764-.156L804.162,30.5C803.447,30.085,803.146,29.536,803.275,29.05Z" transform="translate(-736.623 -13.834)" fill="url(#cb)"/><path d="M809.876,33a1.341,1.341,0,0,0,.681.786l2.548,1.471a3.847,3.847,0,0,0,3.482-.006l5.343-3.084a1.359,1.359,0,0,0,.692-.8c.113.433-.113.89-.692,1.225l-5.343,3.084a3.847,3.847,0,0,1-3.482.006L810.557,34.2A1.109,1.109,0,0,1,809.876,33Z" transform="translate(-754.008 -11.521)" fill="url(#cc)"/><path d="M816.528,36.837a1.348,1.348,0,0,0,.681.786l2.548,1.471a3.847,3.847,0,0,0,3.482-.006L828.582,36a1.351,1.351,0,0,0,.691-.8c.114.433-.111.89-.691,1.225l-5.343,3.084a3.852,3.852,0,0,1-3.482.006l-2.548-1.473A1.106,1.106,0,0,1,816.528,36.837Z" transform="translate(-771.369 -9.179)" fill="url(#cd)"/></g><path d="M848.323,44.637l50.526-29.171c1.211-.7,1.059-1.922-.34-2.73L886.927,6.051a5.252,5.252,0,0,0-4.728-.2L831.675,35.026c-1.212.7-1.061,1.922.34,2.729L843.6,44.441A5.253,5.253,0,0,0,848.323,44.637Z" transform="translate(-803.262 1.938)" fill="#25054d"/><path d="M844.69,42.482l50.99-29.439L884.053,6.329l-50.99,29.439Z" transform="translate(-802.828 2.515)" opacity="0.9" fill="url(#ce)"/><path d="M851.99,37.338c.982,1.684,4.161,1.66,7.1-.055s4.53-4.469,3.548-6.153-4.161-1.66-7.1.055S851.008,35.654,851.99,37.338Z" transform="translate(-800.079 16.878)" fill="url(#cf)" style="mix-blend-mode:color-dodge;isolation:isolate"/></g><g transform="translate(334.482 56.512)"><g transform="translate(0)"><path d="M657.795,452.578,615.87,477.165l-41.921-24.673,42.016-24.458Z" transform="translate(-573.949 -378.522)" opacity="0.2"/><path d="M644.322,427.551v53.244L607.1,459.238v-53.57Z" transform="translate(-601.508 -383.841)" fill="url(#cg)"/><path d="M576.907,427.563v53.244l37.417-21.617v-53.57Z" transform="translate(-534.14 -383.852)" fill="url(#ch)"/><path d="M651.5,409.8l-37.417,21.943-37.178-21.882,37.5-21.828Z" transform="translate(-571.318 -388.034)" fill="url(#ci)"/><path d="M626.593,416.781v53.233l-6.841-3.749V412.707Z" transform="translate(-599.443 -382.167)" fill="url(#cj)"/><path d="M633.832,398.936,596.107,421l-6.794-4.074,37.807-21.947Z" transform="translate(-569.004 -386.383)" fill="url(#ck)"/><path d="M589.145,416.845v53.233l6.635-3.645V412.874Z" transform="translate(-530.744 -382.127)" fill="url(#cl)"/><path d="M589.145,399.1l37.417,21.943,6.588-3.971-37.5-21.828Z" transform="translate(-568.114 -386.321)" fill="url(#cm)"/><g transform="translate(23.136 7.027)"><path d="M620.881,409.1l6.043-3.479s-6.089-8.6-11.748-11.328a6.7,6.7,0,0,0-8.527,2.971c-.733,1.519.946,4.1,2.846,5.25C614.561,405.58,620.881,409.1,620.881,409.1Z" transform="translate(-606.473 -393.711)" fill="url(#cn)"/><path d="M609.3,397.871a5.891,5.891,0,0,0-2.827-.571,6.7,6.7,0,0,1,8.543-3.008c5.659,2.723,11.748,11.328,11.748,11.328L620.9,409C619.987,407.743,614.472,400.362,609.3,397.871Z" transform="translate(-606.313 -393.711)" fill="url(#co)"/><path d="M611.4,396.331a5.888,5.888,0,0,1,2.812.571c5.173,2.489,11.427,11.474,11.427,11.474-.913-1.255-6.429-8.636-11.6-11.127a5.891,5.891,0,0,0-2.827-.571C611.264,396.561,611.331,396.446,611.4,396.331Z" transform="translate(-611.05 -393.09)" fill="url(#cp)" style="mix-blend-mode:color-dodge;isolation:isolate"/></g><g transform="translate(41.95 7.285)"><path d="M597.317,409.31l-6.043-3.481s6.089-8.6,11.748-11.328a6.7,6.7,0,0,1,8.527,2.971c.733,1.519-.946,4.1-2.846,5.25C603.637,405.788,597.317,409.31,597.317,409.31Z" transform="translate(-591.274 -393.919)" fill="url(#cq)"/><path d="M608.867,398.08a5.889,5.889,0,0,1,2.827-.571,6.7,6.7,0,0,0-8.543-3.009c-5.659,2.724-11.748,11.328-11.748,11.328l5.863,3.377C598.18,407.951,603.7,400.57,608.867,398.08Z" transform="translate(-591.403 -393.919)" fill="url(#cr)"/><path d="M605.643,396.539a5.893,5.893,0,0,0-2.814.571c-5.171,2.489-11.426,11.474-11.426,11.474.913-1.255,6.429-8.636,11.6-11.125a5.889,5.889,0,0,1,2.827-.571C605.776,396.771,605.708,396.655,605.643,396.539Z" transform="translate(-585.539 -393.298)" fill="url(#cs)" style="mix-blend-mode:color-dodge;isolation:isolate"/></g><g transform="translate(23.291 20.738)"><path d="M621.4,405.185a22.537,22.537,0,0,0-8.923.14c-5.055,1.428-8.4,6.344-5.892,8.3s5.09,3.765,7.844,2.266,12.514-7.111,12.514-7.111Z" transform="translate(-605.734 -404.788)" fill="url(#ct)"/><path d="M617.742,408.776a22.535,22.535,0,0,1,8.923-.14l.245.158.035-.019-5.543-3.591a22.537,22.537,0,0,0-8.923.14c-5.055,1.428-8.4,6.344-5.892,8.3a13.268,13.268,0,0,0,4.639,2.679C610.131,414.047,613.26,410.042,617.742,408.776Z" transform="translate(-605.734 -404.788)" fill="url(#cu)"/><path d="M621.671,407.936l-.033.019s-5.207-1.139-9.168-.019c-4.482,1.266-7.611,5.271-6.516,7.523-.276-.067.047.1.488.209-1.1-2.253,2.034-6.257,6.516-7.523a22.536,22.536,0,0,1,8.923-.14l.245.158.035-.019Z" transform="translate(-600.949 -404.157)" fill="url(#cv)" style="mix-blend-mode:color-dodge;isolation:isolate"/></g><path d="M604.5,405.656l1.617-1.384a2.481,2.481,0,0,1,3.288.057l1.723,1.578-3.133,2.266Z" transform="translate(-565.089 -384.314)" fill="url(#cw)"/><g transform="translate(41.447 20.738)"><path d="M596.609,405.185a22.543,22.543,0,0,1,8.925.14c5.054,1.428,8.4,6.344,5.891,8.3s-5.09,3.765-7.843,2.266-12.515-7.111-12.515-7.111Z" transform="translate(-591.066 -404.788)" fill="url(#cx)"/><path d="M600.269,408.776a22.537,22.537,0,0,0-8.923-.14l-.245.158-.035-.019,5.543-3.591a22.543,22.543,0,0,1,8.925.14c5.054,1.428,8.4,6.344,5.891,8.3a13.269,13.269,0,0,1-4.639,2.679C607.88,414.047,604.751,410.042,600.269,408.776Z" transform="translate(-591.066 -404.788)" fill="url(#cy)"/><path d="M595.42,407.936l.033.019s5.208-1.139,9.169-.019c4.482,1.266,7.611,5.271,6.516,7.523.277-.067-.047.1-.488.209,1.1-2.253-2.034-6.257-6.516-7.523a22.537,22.537,0,0,0-8.923-.14l-.245.158-.035-.019Z" transform="translate(-594.932 -404.157)" fill="url(#cz)" style="mix-blend-mode:color-dodge;isolation:isolate"/></g></g><g transform="translate(41.673 42.498)"><path d="M624.128,471.911,582.2,496.5l-41.921-24.673L582.3,447.368Z" transform="translate(-540.282 -416.422)" opacity="0.2"/><path d="M610.656,461.884v34.677L573.431,475V440Z" transform="translate(-567.842 -418.174)" fill="url(#da)"/><path d="M543.241,461.9v34.677l37.417-21.617v-35Z" transform="translate(-500.474 -418.186)" fill="url(#db)"/><path d="M617.835,444.134l-37.417,21.943L543.241,444.2l37.5-21.828Z" transform="translate(-537.651 -422.367)" fill="url(#dc)"/><path d="M592.927,451.115v34.666l-6.841-3.748V447.04Z" transform="translate(-565.777 -416.5)" fill="url(#dd)"/><path d="M600.165,433.269,562.44,455.331l-6.794-4.074,37.807-21.947Z" transform="translate(-535.337 -420.717)" fill="url(#de)"/><path d="M555.478,451.178v34.666l6.635-3.645V447.207Z" transform="translate(-497.077 -416.461)" fill="url(#df)"/><path d="M555.478,433.428,592.9,455.372l6.588-3.971-37.5-21.828Z" transform="translate(-534.447 -420.654)" fill="url(#dg)"/><g transform="translate(23.136 7.027)"><path d="M587.216,443.435l6.042-3.481s-6.089-8.6-11.747-11.328a6.7,6.7,0,0,0-8.529,2.971c-.732,1.519.947,4.1,2.846,5.25C580.894,439.913,587.216,443.435,587.216,443.435Z" transform="translate(-572.807 -428.044)" fill="url(#dh)"/><path d="M575.634,432.205a5.887,5.887,0,0,0-2.827-.571,6.7,6.7,0,0,1,8.545-3.009c5.658,2.724,11.747,11.328,11.747,11.328l-5.862,3.377C586.323,442.076,580.807,434.695,575.634,432.205Z" transform="translate(-572.648 -428.044)" fill="url(#di)"/><path d="M577.733,430.664a5.887,5.887,0,0,1,2.812.571c5.173,2.489,11.427,11.474,11.427,11.474-.913-1.255-6.429-8.636-11.6-11.125a5.887,5.887,0,0,0-2.827-.571C577.6,430.9,577.666,430.78,577.733,430.664Z" transform="translate(-577.384 -427.423)" fill="url(#dj)" style="mix-blend-mode:color-dodge;isolation:isolate"/></g><g transform="translate(41.95 7.285)"><path d="M563.649,443.643l-6.042-3.481s6.089-8.6,11.747-11.327a6.7,6.7,0,0,1,8.528,2.97c.732,1.52-.946,4.1-2.846,5.25C569.971,440.122,563.649,443.643,563.649,443.643Z" transform="translate(-557.608 -428.253)" fill="url(#dk)"/><path d="M575.2,432.413a5.887,5.887,0,0,1,2.827-.571,6.7,6.7,0,0,0-8.544-3.008c-5.658,2.723-11.747,11.327-11.747,11.327l5.862,3.378C564.512,442.285,570.028,434.9,575.2,432.413Z" transform="translate(-557.736 -428.253)" fill="url(#dl)"/><path d="M571.976,430.873a5.871,5.871,0,0,0-2.812.569c-5.171,2.49-11.427,11.476-11.427,11.476.914-1.255,6.429-8.637,11.6-11.127a5.887,5.887,0,0,1,2.827-.571C572.109,431.1,572.042,430.988,571.976,430.873Z" transform="translate(-551.874 -427.631)" fill="url(#dm)" style="mix-blend-mode:color-dodge;isolation:isolate"/></g><g transform="translate(23.291 20.738)"><path d="M587.737,439.518a22.542,22.542,0,0,0-8.924.14c-5.054,1.43-8.4,6.345-5.891,8.3s5.089,3.765,7.843,2.266,12.514-7.111,12.514-7.111Z" transform="translate(-572.068 -439.121)" fill="url(#dn)"/><path d="M584.076,443.109a22.536,22.536,0,0,1,8.923-.14l.245.16.033-.02-5.542-3.591a22.542,22.542,0,0,0-8.924.14c-5.054,1.43-8.4,6.345-5.891,8.3a13.256,13.256,0,0,0,4.639,2.679C576.465,448.38,579.594,444.377,584.076,443.109Z" transform="translate(-572.068 -439.121)" fill="url(#do)"/><path d="M588.006,442.269l-.033.02s-5.207-1.14-9.17-.02c-4.481,1.267-7.61,5.271-6.515,7.523-.277-.066.047.1.488.209-1.1-2.253,2.034-6.256,6.516-7.523a22.536,22.536,0,0,1,8.923-.14l.245.16.033-.02Z" transform="translate(-567.283 -438.49)" fill="url(#dp)" style="mix-blend-mode:color-dodge;isolation:isolate"/></g><path d="M570.829,439.989l1.618-1.383a2.481,2.481,0,0,1,3.288.056l1.723,1.578-3.134,2.266Z" transform="translate(-531.423 -418.647)" fill="url(#dq)"/><g transform="translate(41.448 20.738)"><path d="M562.942,439.518a22.537,22.537,0,0,1,8.923.14c5.055,1.43,8.4,6.345,5.892,8.3s-5.09,3.765-7.844,2.266-12.514-7.111-12.514-7.111Z" transform="translate(-557.399 -439.121)" fill="url(#dr)"/><path d="M566.6,443.109a22.543,22.543,0,0,0-8.925-.14l-.245.16-.033-.02,5.543-3.591a22.537,22.537,0,0,1,8.923.14c5.055,1.43,8.4,6.345,5.892,8.3a13.27,13.27,0,0,1-4.641,2.679C574.212,448.38,571.083,444.377,566.6,443.109Z" transform="translate(-557.399 -439.121)" fill="url(#ds)"/><path d="M561.752,442.269l.035.02s5.208-1.14,9.168-.02c4.482,1.267,7.611,5.271,6.516,7.523.276-.066-.047.1-.489.209,1.1-2.253-2.034-6.256-6.514-7.523a22.542,22.542,0,0,0-8.925-.14l-.245.16-.033-.02Z" transform="translate(-561.265 -438.49)" fill="url(#dt)" style="mix-blend-mode:color-dodge;isolation:isolate"/></g></g></g><g transform="translate(106.479 131.958)"><g transform="translate(0 92.713)" opacity="0.2"><path d="M964.485,93.991l70.128-40.512,70.128-40.512a10.754,10.754,0,0,0,.072-18.583L1032.06-47.309a10.75,10.75,0,0,0-10.831-.041L951.1-6.841,880.971,33.672a10.755,10.755,0,0,0-.072,18.583l72.753,41.7A10.759,10.759,0,0,0,964.485,93.991Z" transform="translate(-875.596 48.794)" opacity="0"/><path d="M1103.6-5.56l-72.214-41.386a11,11,0,0,0-10.713.189L951.03-6.528,946.376-3.84,881.395,33.7c-6.8,3.925-7.621,14.175-.857,18.152l72.214,41.386a11,11,0,0,0,10.714-.189L1033.1,52.819l4.653-2.688,64.982-37.537C1109.534,8.667,1110.358-1.581,1103.6-5.56Z" transform="translate(-874.329 49.433)" opacity="0.014"/><path d="M1102.4-5.5l-71.672-41.08c-3.022-1.777-7.56-1.333-10.6.42L950.978-6.212l-4.621,2.67-64.52,37.27c-6.456,3.729-8.065,13.943-1.637,17.722l71.672,41.08c3.02,1.777,7.56,1.331,10.594-.422l69.15-39.945,4.623-2.67,64.521-37.268C1107.212,8.5,1108.821-1.717,1102.4-5.5Z" transform="translate(-873.081 50.067)" opacity="0.029"/><path d="M1101.218-5.427,1030.087-46.2c-2.864-1.683-7.6-1.009-10.479.652L950.95-5.888l-4.593,2.653-64.057,37c-6.114,3.531-8.509,13.71-2.42,17.291L951.011,91.83c2.864,1.683,7.6,1.009,10.479-.652l68.658-39.66,4.592-2.653,64.057-37C1104.912,8.331,1107.306-1.848,1101.218-5.427Z" transform="translate(-871.855 50.694)" opacity="0.043"/><path d="M1100.066-5.35l-70.592-40.466c-2.7-1.59-7.643-.683-10.359.885L950.944-5.554l-4.56,2.633L882.79,33.814c-5.777,3.336-8.954,13.477-3.205,16.858l70.592,40.466c2.7,1.59,7.643.685,10.359-.885l68.171-39.377,4.56-2.633,63.594-36.733C1102.636,8.173,1105.815-1.969,1100.066-5.35Z" transform="translate(-870.653 51.313)" opacity="0.057"/><path d="M1098.937-5.266l-70.05-40.158c-2.544-1.5-7.687-.361-10.242,1.115L950.966-5.216,946.434-2.6,883.3,33.867c-5.436,3.14-9.4,13.245-3.988,16.428l70.052,40.158c2.544,1.5,7.685.361,10.239-1.115l67.682-39.092,4.529-2.616,63.133-36.465C1100.388,8.022,1104.349-2.083,1098.937-5.266Z" transform="translate(-869.477 51.925)" opacity="0.071"/><path d="M1097.834-5.174l-69.509-39.851c-2.385-1.4-7.728-.037-10.124,1.348L951.01-4.867l-4.5,2.6-62.67,36.2c-5.1,2.944-9.842,13.016-4.768,16l69.508,39.851c2.385,1.4,7.728.037,10.124-1.348l67.19-38.807,4.5-2.6,62.67-36.2C1098.162,7.882,1102.909-2.188,1097.834-5.174Z" transform="translate(-868.325 52.528)" opacity="0.086"/><path d="M1096.759-5.072,1027.79-44.617c-2.227-1.311-7.769.287-10,1.579l-66.7,38.525-4.47,2.581L884.408,34c-4.758,2.749-10.29,12.784-5.553,15.567l68.969,39.544c2.227,1.311,7.769-.287,10-1.579L1024.53,49l4.47-2.581,62.2-35.928C1095.963,7.746,1101.493-2.289,1096.759-5.072Z" transform="translate(-867.2 53.125)" opacity="0.1"/><path d="M1095.705-4.966,1027.277-44.2c-2.068-1.216-7.81.611-9.887,1.811L951.178-4.152,946.74-1.589,885,34.072c-4.417,2.553-10.733,12.551-6.336,15.136l68.43,39.238c2.066,1.216,7.809-.611,9.885-1.811l66.212-38.24,4.44-2.564,61.742-35.661C1093.788,7.618,1100.1-2.38,1095.705-4.966Z" transform="translate(-866.099 53.714)" opacity="0.114"/><path d="M1094.676-4.852l-67.889-38.931c-1.909-1.122-7.852.935-9.77,2.042L951.3-3.782l-4.41,2.546L885.607,34.155c-4.077,2.355-11.177,12.318-7.119,14.706l67.888,38.931c1.909,1.122,7.852-.935,9.77-2.044l65.721-37.957,4.41-2.546,61.281-35.391C1091.634,7.5,1098.734-2.465,1094.676-4.852Z" transform="translate(-865.02 54.296)" opacity="0.129"/><path d="M1093.664-4.734l-67.347-38.623c-1.75-1.029-7.893,1.259-9.65,2.272L951.433-3.41,947.055-.881,886.238,34.243c-3.738,2.159-11.622,12.086-7.9,14.275l67.347,38.623c1.75,1.029,7.893-1.259,9.65-2.272l65.234-37.674,4.377-2.529,60.817-35.124C1089.5,7.382,1097.384-2.547,1093.664-4.734Z" transform="translate(-863.96 54.874)" opacity="0.143"/><path d="M1092.672-4.609l-66.808-38.316c-1.589-.935-7.932,1.583-9.531,2.5L951.589-3.031,947.242-.519,886.888,34.337c-3.4,1.964-12.066,11.855-8.684,13.843L945.011,86.5c1.59.935,7.935-1.583,9.531-2.5L1019.286,46.6l4.347-2.509,60.354-34.856C1087.386,7.272,1096.056-2.62,1092.672-4.609Z" transform="translate(-862.92 55.445)" opacity="0.157"/><path d="M1091.7-4.478,1025.431-42.49c-1.431-.842-7.976,1.907-9.413,2.738L951.765-2.645,947.448-.153,887.555,34.436c-3.057,1.766-12.512,11.622-9.468,13.412l66.266,38.009c1.433.842,7.978-1.9,9.415-2.735l64.253-37.107,4.316-2.494,59.893-34.587C1085.289,7.168,1094.744-2.688,1091.7-4.478Z" transform="translate(-861.898 56.012)" opacity="0.171"/><path d="M1090.739-4.346l-65.727-37.7c-1.272-.748-8.017,2.229-9.3,2.968L951.952-2.258,947.666.218,888.239,34.538c-2.718,1.57-12.958,11.39-10.25,12.981l65.725,37.7c1.272.748,8.017-2.231,9.3-2.968l63.764-36.824,4.288-2.475,59.428-34.319C1083.207,7.066,1093.444-2.754,1090.739-4.346Z" transform="translate(-860.889 56.575)" opacity="0.186"/><path d="M1089.793-4.209l-65.186-37.4c-1.113-.655-8.058,2.555-9.176,3.2L952.157-1.865,947.9.593,888.935,34.644c-2.379,1.372-13.4,11.157-11.033,12.549l65.186,37.4c1.113.655,8.058-2.553,9.176-3.2l63.274-36.539,4.258-2.457L1078.76,8.342C1081.139,6.968,1092.161-2.817,1089.793-4.209Z" transform="translate(-859.895 57.134)" opacity="0.2"/><path d="M1088.86-4.069l-64.647-37.087c-.952-.561-8.1,2.877-9.059,3.431L952.369-1.471,948.145.969l-58.5,33.782C887.6,35.93,875.8,45.678,877.825,46.871l64.646,37.09c.952.561,8.1-2.879,9.059-3.431l62.783-36.255,4.227-2.442,58.5-33.782C1079.082,6.872,1090.889-2.876,1088.86-4.069Z" transform="translate(-858.912 57.69)" opacity="0.214"/><path d="M1087.937-3.924l-64.105-36.783c-.794-.467-8.141,3.2-8.941,3.664L952.6-1.073l-4.2,2.422L890.36,34.864c-1.7.983-14.289,10.7-12.6,11.69l64.1,36.781c.8.468,8.143-3.2,8.941-3.662L1013.1,43.7l4.194-2.422,58.041-33.515C1077.037,6.783,1089.629-2.93,1087.937-3.924Z" transform="translate(-857.942 58.243)" opacity="0.229"/><path d="M1087.024-3.778l-63.566-36.476c-.635-.374-8.182,3.527-8.822,3.894L952.829-.671l-4.164,2.4L891.088,34.979c-1.359.785-14.736,10.463-13.382,11.259L941.27,82.713c.635.374,8.185-3.525,8.822-3.894L1011.9,43.131l4.164-2.4L1073.64,7.479C1075,6.694,1088.376-2.982,1087.024-3.778Z" transform="translate(-856.978 58.793)" opacity="0.243"/><path d="M1086.119-3.631,1023.095-39.8c-.476-.281-8.226,3.849-8.7,4.125L953.075-.269l-4.136,2.388L891.825,35.1c-1.02.589-15.18,10.231-14.165,10.827l63.024,36.17c.476.281,8.224-3.851,8.7-4.127l61.315-35.4,4.134-2.388L1071.955,7.2C1072.972,6.606,1087.132-3.035,1086.119-3.631Z" transform="translate(-856.026 59.342)" opacity="0.257"/><path d="M1085.221-3.481l-62.483-35.861c-.318-.187-8.267,4.173-8.587,4.358L953.325.135l-4.1,2.37-56.653,32.71c-.678.394-15.624,10-14.947,10.4L940.1,81.473c.32.187,8.267-4.173,8.587-4.358L1009.518,42l4.1-2.37,56.653-32.71C1070.953,6.524,1085.9-3.083,1085.221-3.481Z" transform="translate(-855.081 59.887)" opacity="0.271"/><path d="M1084.333-3.329l-61.944-35.554c-.159-.093-8.309,4.5-8.468,4.59L953.585.544,949.51,2.894,893.322,35.337c-.339.2-16.069,9.765-15.732,9.965l61.944,35.554c.159.094,8.308-4.5,8.467-4.59l60.337-34.837,4.075-2.351L1068.6,6.637C1068.94,6.441,1084.67-3.129,1084.333-3.329Z" transform="translate(-854.141 60.431)" opacity="0.286"/><path d="M938.967,80.24l72.24-41.708,72.24-41.708-61.4-35.247L949.8,3.285l-72.24,41.708Z" transform="translate(-853.208 60.974)" opacity="0.3"/></g><path d="M1022.216-90.842,1052.74,57.88,908.244,141.8,877.719-8Z" transform="translate(-822.837 92.123)" fill="url(#du)"/><path d="M906.935,124.594,881.077-9.325l137.185-78.653L1044.3,45.84Z" transform="translate(-821.693 95.487)" opacity="0.2"/><path d="M907.526,122.947,880.574-9.325l137.185-78.653,27.127,132.171Z" transform="translate(-821.19 95.487)" fill="#f1f2f2"/><path d="M908.722,124.387,879.556-9.325l137.186-78.653,29.341,133.611Z" transform="translate(-820.172 95.487)" opacity="0.2"/><path d="M909.057,122.319,879.27-9.325l137.185-78.653,29.962,131.543Z" transform="translate(-819.887 95.487)" fill="#f9fafa"/><g transform="translate(75.488 51.606)"><path d="M946.338-50.723,894.023-20.74,890.3-36.972l52-29.88Z" transform="translate(-819.281 68.692)" fill="#e6e7e8"/><path d="M962.5,2.387,927.449,22.238,923.727,6.006l34.739-19.747Z" transform="translate(-908.123 131.067)" fill="#e6e7e8"/><path d="M901.571,87.44l124.32-71.278-18.7-83.86L883.036,3.487Zm121.848-72.368L903.058,84.081,885.5,4.578l120.213-68.921Z" transform="translate(-883.036 67.698)" fill="#d1d3d8"/><g transform="translate(0.205 1.441)"><g transform="translate(0 70.049)"><rect width="83.695" height="2.174" transform="translate(17.979 82.208) rotate(-102.405)" fill="#d1d3d8"/></g><path d="M948.729,42.658l-.78-12.063L932.178-39.389l.78,12.065Z" transform="translate(-912.936 99.504)" fill="#d1d3d8"/><path d="M941.181,37.94,937.5,14.281,924-43.961l3.683,23.66Z" transform="translate(-887.607 94.135)" fill="#d1d3d8"/><path d="M933.633,33.221,927.046-2.034l-11.222-46.5,6.587,35.256Z" transform="translate(-862.279 88.766)" fill="#d1d3d8"/><path d="M926.084,28.5l-9.49-46.851L907.647-53.1l9.49,46.852Z" transform="translate(-836.95 83.397)" fill="#d1d3d8"/><path d="M918.536,23.784,906.143-34.662,899.47-57.675,911.864.772Z" transform="translate(-811.621 78.028)" fill="#d1d3d8"/><path d="M910.988,19.066l-15.3-70.042-4.4-11.27L906.59,7.8Z" transform="translate(-786.292 72.66)" fill="#d1d3d8"/><g transform="translate(122.149 0)"><rect width="83.643" height="2.176" transform="translate(18.207 82.111) rotate(-102.572)" fill="#d1d3d8"/></g></g><g transform="translate(0.692 0.734)"><g transform="translate(18.046 81.638)"><rect width="2.175" height="141.022" transform="matrix(-0.497, -0.868, 0.868, -0.497, 1.082, 72.028)" fill="#d1d3d8"/></g><path d="M910.432,19.86l97.656-56.491-25.3,12.5L885.129,32.362Z" transform="translate(-870.477 103.451)" fill="#d1d3d8"/><path d="M936.426-1.474,1009.4-44.313l-49.524,26.89L886.9,25.416Z" transform="translate(-875.643 94.428)" fill="#d1d3d8"/><path d="M962.421-22.807,1010.707-52,936.963-10.718,888.676,18.471Z" transform="translate(-880.809 85.406)" fill="#d1d3d8"/><path d="M988.415-44.141l23.6-15.537L914.051-4.012l-23.6,15.537Z" transform="translate(-885.975 76.383)" fill="#d1d3d8"/><g transform="translate(0 0)"><rect width="2.175" height="140.843" transform="matrix(-0.497, -0.868, 0.868, -0.497, 1.082, 71.941)" fill="#d1d3d8"/></g></g></g><path d="M974.7-52.742l30.524,149.8L974.665,70.623l-30.493-8.812Z" transform="translate(-919.815 136.869)" fill="url(#dv)"/><path d="M950.485,61.941l-.452-.13L980.559-52.742l17.778,87.248Z" transform="translate(-925.677 136.869)" fill="url(#dw)"/><path d="M944.172,11.034,967.123-2.125l8.1,39.736L944.664,11.176Z" transform="translate(-889.814 196.316)" fill="url(#dx)"/><path d="M974.7-52.742l30.525,149.8L974.664,70.623,944.171,61.81Zm.372,122.621,28.857,24.965L974.589-49.126,945.178,61.243Z" transform="translate(-919.813 136.869)" fill="#fff" opacity="0.5"/><g transform="translate(67.003 17.234)"><path d="M948.552-48.191l7.8-4.472,1.078,5.253-7.8,4.472Z" transform="translate(-948.552 119.728)" fill="url(#dy)"/><path d="M939.592-53.331l7.8-4.472,1.078,5.253-7.8,4.472Z" transform="translate(-920.109 113.691)" fill="url(#dz)"/><path d="M930.632-58.471l7.8-4.472,1.078,5.253-7.8,4.472Z" transform="translate(-891.666 107.654)" fill="url(#ea)"/><path d="M921.672-63.612l7.8-4.472,1.078,5.253-7.8,4.472Z" transform="translate(-863.223 101.617)" fill="url(#eb)"/><path d="M912.712-68.752l7.8-4.472,1.078,5.253-7.8,4.472Z" transform="translate(-834.779 95.58)" fill="url(#ec)"/><path d="M903.752-73.892l7.8-4.472,1.078,5.253-7.8,4.472Z" transform="translate(-806.337 89.542)" fill="url(#ed)"/><path d="M894.792-79.033l7.8-4.472,1.078,5.253-7.8,4.472Z" transform="translate(-777.893 83.505)" fill="url(#ee)"/></g><g transform="translate(53.543 0)"><path d="M952.8-59.8c2.137-1.235,4.858-1.022,7.661.6,5.21,3.009,9.291,10.052,9.291,16.034a8.017,8.017,0,0,1-2.3,6.134,5.779,5.779,0,0,1-3.681,1.5l-.68-3.312a2.681,2.681,0,0,0,2.133-.628,4.948,4.948,0,0,0,1.218-3.69c0-4.747-3.5-10.779-7.639-13.168-1.713-.989-3.3-1.207-4.351-.6-1.037.6-1.633,2.055-1.633,3.994a15.285,15.285,0,0,0,2.059,7.123l-2.9,1.6a18.593,18.593,0,0,1-2.472-8.722C949.517-56.136,950.687-58.574,952.8-59.8Z" transform="translate(-949.517 127.654)" fill="url(#ef)"/><path d="M943.844-64.938c2.138-1.233,4.858-1.02,7.661.6,5.21,3.007,9.292,10.052,9.292,16.034a8.021,8.021,0,0,1-2.3,6.134,5.779,5.779,0,0,1-3.682,1.5l-.681-3.312a2.675,2.675,0,0,0,2.133-.631,4.946,4.946,0,0,0,1.218-3.688c0-4.747-3.5-10.779-7.639-13.168-1.714-.992-3.3-1.207-4.351-.6-1.037.6-1.633,2.055-1.633,3.994a15.284,15.284,0,0,0,2.059,7.124l-2.9,1.6a18.6,18.6,0,0,1-2.472-8.722C940.557-61.278,941.727-63.713,943.844-64.938Z" transform="translate(-921.074 121.617)" fill="url(#ef)"/><path d="M934.885-70.077c2.138-1.235,4.858-1.022,7.661.6,5.21,3.009,9.291,10.052,9.291,16.037a8.022,8.022,0,0,1-2.3,6.134,5.764,5.764,0,0,1-3.681,1.494l-.681-3.31a2.675,2.675,0,0,0,2.133-.631,4.947,4.947,0,0,0,1.218-3.688c0-4.749-3.5-10.779-7.639-13.171-1.714-.989-3.3-1.207-4.351-.6-1.037.6-1.633,2.055-1.633,3.994a15.276,15.276,0,0,0,2.059,7.123l-2.9,1.6a18.6,18.6,0,0,1-2.472-8.724C931.6-66.417,932.767-68.852,934.885-70.077Z" transform="translate(-892.631 115.579)" fill="url(#eh)"/><path d="M925.925-75.219c2.137-1.233,4.858-1.02,7.661.6,5.21,3.009,9.291,10.052,9.291,16.034a8.017,8.017,0,0,1-2.3,6.134,5.778,5.778,0,0,1-3.681,1.5l-.681-3.312a2.675,2.675,0,0,0,2.133-.631,4.94,4.94,0,0,0,1.218-3.688c0-4.747-3.5-10.779-7.639-13.168-1.714-.989-3.3-1.207-4.351-.6-1.037.6-1.633,2.055-1.633,3.994a15.284,15.284,0,0,0,2.059,7.123l-2.9,1.6a18.593,18.593,0,0,1-2.472-8.722C922.637-71.559,923.807-73.994,925.925-75.219Z" transform="translate(-864.188 109.542)" fill="url(#ef)"/><path d="M916.963-80.358c2.137-1.235,4.858-1.022,7.661.6,5.21,3.007,9.291,10.05,9.291,16.034a8.02,8.02,0,0,1-2.3,6.134,5.779,5.779,0,0,1-3.681,1.5l-.681-3.312a2.674,2.674,0,0,0,2.133-.631,4.946,4.946,0,0,0,1.218-3.688c0-4.749-3.5-10.779-7.639-13.168-1.714-.992-3.3-1.207-4.351-.6-1.037.6-1.633,2.055-1.633,3.992a15.278,15.278,0,0,0,2.059,7.123l-2.9,1.6a18.6,18.6,0,0,1-2.47-8.724C913.677-76.7,914.845-79.133,916.963-80.358Z" transform="translate(-835.742 103.505)" fill="url(#ej)"/><path d="M908-85.5c2.137-1.235,4.858-1.022,7.661.6,5.21,3.009,9.292,10.052,9.292,16.037a8.014,8.014,0,0,1-2.3,6.132,5.778,5.778,0,0,1-3.681,1.5l-.681-3.312a2.674,2.674,0,0,0,2.133-.628,4.947,4.947,0,0,0,1.218-3.688c0-4.749-3.5-10.781-7.639-13.171-1.714-.989-3.3-1.207-4.351-.6-1.037.6-1.633,2.055-1.633,3.994a15.284,15.284,0,0,0,2.059,7.123l-2.9,1.6a18.6,18.6,0,0,1-2.47-8.724C904.717-81.838,905.884-84.276,908-85.5Z" transform="translate(-807.299 97.468)" fill="url(#ek)"/><path d="M899.043-90.64c2.137-1.233,4.858-1.02,7.66.6,5.21,3.009,9.291,10.052,9.291,16.034a8.021,8.021,0,0,1-2.3,6.134,5.779,5.779,0,0,1-3.681,1.5l-.68-3.312a2.675,2.675,0,0,0,2.133-.631A4.943,4.943,0,0,0,912.687-74c0-4.747-3.5-10.779-7.639-13.168-1.713-.992-3.3-1.207-4.351-.6-1.037.6-1.633,2.055-1.633,3.994a15.284,15.284,0,0,0,2.059,7.123l-2.9,1.6a18.588,18.588,0,0,1-2.47-8.722C895.757-86.98,896.925-89.415,899.043-90.64Z" transform="translate(-778.856 91.431)" fill="url(#ek)"/></g><path d="M966.168-43.113a18.826,18.826,0,0,0-8.659-14.941c-2.612-1.511-5.145-1.709-7.137-.559-.15.087-.285.191-.424.291a5.425,5.425,0,0,1,1.387-1.159c1.992-1.15,4.525-.95,7.139.559a18.833,18.833,0,0,1,8.657,14.943,7.473,7.473,0,0,1-2.14,5.714,5.081,5.081,0,0,1-.474.363A7.864,7.864,0,0,0,966.168-43.113Z" transform="translate(-894.288 128.088)" fill="url(#em)" style="mix-blend-mode:screen;isolation:isolate"/><path d="M956.594-54.348c0-1.94.6-3.394,1.633-3.994.054-.03.115-.05.172-.076a5.74,5.74,0,0,0-.772,3.14,15.285,15.285,0,0,0,2.059,7.123l-1.179.65A15.108,15.108,0,0,1,956.594-54.348Z" transform="translate(-901.292 130.202)" fill="url(#en)" style="mix-blend-mode:screen;isolation:isolate"/><path d="M957.134-48.248a18.826,18.826,0,0,0-8.659-14.941c-2.611-1.511-5.145-1.709-7.136-.559-.15.087-.285.191-.424.291a5.432,5.432,0,0,1,1.387-1.159c1.992-1.15,4.525-.95,7.137.559A18.83,18.83,0,0,1,958.1-49.116a7.474,7.474,0,0,1-2.14,5.717,5.067,5.067,0,0,1-.474.363A7.862,7.862,0,0,0,957.134-48.248Z" transform="translate(-865.61 122.058)" fill="url(#eo)" style="mix-blend-mode:screen;isolation:isolate"/><path d="M947.56-59.483c0-1.94.6-3.394,1.633-3.994.055-.03.115-.05.172-.076a5.74,5.74,0,0,0-.772,3.14,15.285,15.285,0,0,0,2.059,7.124l-1.178.65A15.107,15.107,0,0,1,947.56-59.483Z" transform="translate(-872.614 124.171)" fill="url(#ep)" style="mix-blend-mode:screen;isolation:isolate"/><path d="M948.244-53.383a18.826,18.826,0,0,0-8.659-14.941c-2.614-1.511-5.147-1.709-7.139-.559-.15.087-.285.191-.424.291a5.43,5.43,0,0,1,1.387-1.159c1.992-1.15,4.525-.952,7.139.559a18.829,18.829,0,0,1,8.659,14.941,7.473,7.473,0,0,1-2.14,5.717,5.365,5.365,0,0,1-.476.363A7.863,7.863,0,0,0,948.244-53.383Z" transform="translate(-837.385 116.027)" fill="url(#eq)" style="mix-blend-mode:screen;isolation:isolate"/><path d="M938.668-64.617c0-1.94.6-3.394,1.635-3.994.052-.03.113-.05.169-.078a5.768,5.768,0,0,0-.77,3.142,15.258,15.258,0,0,0,2.059,7.124l-1.179.65A15.085,15.085,0,0,1,938.668-64.617Z" transform="translate(-844.389 118.139)" fill="url(#er)" style="mix-blend-mode:screen;isolation:isolate"/><path d="M939.256-58.566A18.829,18.829,0,0,0,930.6-73.507c-2.612-1.509-5.147-1.709-7.137-.559-.15.087-.285.191-.424.291a5.435,5.435,0,0,1,1.387-1.159c1.99-1.15,4.525-.95,7.137.559a18.833,18.833,0,0,1,8.659,14.943,7.466,7.466,0,0,1-2.14,5.714,5.427,5.427,0,0,1-.476.363A7.86,7.86,0,0,0,939.256-58.566Z" transform="translate(-808.858 109.94)" fill="url(#es)" style="mix-blend-mode:screen;isolation:isolate"/><path d="M929.682-69.8c0-1.94.6-3.394,1.635-3.994.054-.03.115-.05.172-.076a5.741,5.741,0,0,0-.772,3.14,15.276,15.276,0,0,0,2.059,7.124l-1.179.65A15.078,15.078,0,0,1,929.682-69.8Z" transform="translate(-815.863 112.053)" fill="url(#et)" style="mix-blend-mode:screen;isolation:isolate"/><path d="M930.224-63.7a18.829,18.829,0,0,0-8.659-14.941c-2.612-1.511-5.147-1.709-7.137-.559-.15.087-.285.191-.426.291a5.436,5.436,0,0,1,1.389-1.159c1.99-1.15,4.525-.95,7.137.559a18.83,18.83,0,0,1,8.659,14.943,7.466,7.466,0,0,1-2.14,5.714,5.438,5.438,0,0,1-.476.363A7.864,7.864,0,0,0,930.224-63.7Z" transform="translate(-780.181 103.909)" fill="url(#eu)" style="mix-blend-mode:screen;isolation:isolate"/><path d="M920.648-74.936c0-1.94.6-3.394,1.635-3.994.054-.03.115-.05.169-.076a5.76,5.76,0,0,0-.77,3.14,15.258,15.258,0,0,0,2.059,7.123l-1.178.65A15.076,15.076,0,0,1,920.648-74.936Z" transform="translate(-787.185 106.022)" fill="url(#ev)" style="mix-blend-mode:screen;isolation:isolate"/><path d="M921.331-68.836a18.826,18.826,0,0,0-8.659-14.941c-2.612-1.511-5.145-1.709-7.137-.559-.15.087-.285.191-.424.291A5.423,5.423,0,0,1,906.5-85.2c1.992-1.15,4.525-.95,7.139.559A18.833,18.833,0,0,1,922.294-69.7a7.473,7.473,0,0,1-2.14,5.714,5.058,5.058,0,0,1-.474.363A7.862,7.862,0,0,0,921.331-68.836Z" transform="translate(-751.955 97.878)" fill="url(#ew)" style="mix-blend-mode:screen;isolation:isolate"/><path d="M913.342-39.528l2.268,2.335,1.007-4.231.072-.041-.019-.078c.058-.041.2-.128.432-.261a6.771,6.771,0,0,1,.963-.459l5.082-2.942.063.248a16.511,16.511,0,0,1,2.938-2.083,19.943,19.943,0,0,1,2.7-1.3l-.035-.139,3.438-1.992.707,2.809a2.069,2.069,0,0,0,.929-.1,4.774,4.774,0,0,0,.835-.385,2.332,2.332,0,0,0,.728-.609.742.742,0,0,0,.161-.635l-.663-2.642,3.179-1.842a9.634,9.634,0,0,1,1.085-.728,13.16,13.16,0,0,1,2.211-1.055,3.52,3.52,0,0,1,1.563-.252l-.17-.681,3.092-1.792.063.25a16.414,16.414,0,0,1,2.938-2.085,21.8,21.8,0,0,1,2.242-1.137l-.418-1.659,3.529-2.042.792,3.149a3.849,3.849,0,0,0,.244.722.679.679,0,0,0,.363.37.911.911,0,0,0,.6-.02,4.906,4.906,0,0,0,.926-.437c.252-.146.494-.3.724-.459s.431-.307.6-.439.315-.25.428-.35.187-.163.222-.2l1.09.957a13.009,13.009,0,0,1-2.69,2,17.412,17.412,0,0,1-2.851,1.392,5.909,5.909,0,0,1-.878.228c-.022.028-.037.052-.059.078a7.708,7.708,0,0,1-.981.924,10.406,10.406,0,0,1-1.292.876,9.067,9.067,0,0,1-1.824.822,4.86,4.86,0,0,1-1.616.252l-.03.207a1.642,1.642,0,0,1-.5.837,6.834,6.834,0,0,1-1.361.972c-.194.111-.415.233-.668.361s-.517.259-.8.391l-1.07.62-.648-2.572a1.339,1.339,0,0,0-.841-.052,3,3,0,0,0-.968.35,2.521,2.521,0,0,0-.694.576.744.744,0,0,0-.193.676l.65,2.581L937.7-48.378a9.688,9.688,0,0,1-1.113.744,13.285,13.285,0,0,1-2.161,1.037,4.539,4.539,0,0,1-1.748.309l-.03.207q-.111.8-1.866,1.809c-.324.187-.75.407-1.248.644-.259.183-.507.374-.8.541a9.139,9.139,0,0,1-1.827.822,4.783,4.783,0,0,1-1.616.25l-.03.209a1.612,1.612,0,0,1-.5.837A6.712,6.712,0,0,1,923.4-40c-.191.111-.415.233-.665.361s-.52.259-.8.389l-1.07.62-.685-2.72a2.667,2.667,0,0,0-.837.183l-1.5,4.286q.261.548,1.363-.091a12.018,12.018,0,0,0,1.374-.963l.355,1.411a13.111,13.111,0,0,1-1.731,1.194,11.538,11.538,0,0,1-1.418.7,7.446,7.446,0,0,1-1.3.407,3.594,3.594,0,0,1-1.068.078,1.551,1.551,0,0,1-.77-.259l-4.512-3.27Zm35.039-16.861c.013.059.069.091.167.1a1.382,1.382,0,0,0,.365-.035,4.44,4.44,0,0,0,.611-.209,5.7,5.7,0,0,0,.644-.317,3.381,3.381,0,0,0,.774-.589c.191-.2.272-.37.239-.5-.039-.15-.209-.2-.511-.135a3.864,3.864,0,0,0-1.087.461c-.191.111-.406.248-.641.413s-.452.32-.648.472Zm-.3-1.187a12.647,12.647,0,0,1,1.874-1.283,14.362,14.362,0,0,1,1.644-.826c-.022-.067-.057-.111-.074-.183l-.076-.3c-.124.041-.263.072-.383.115a10.641,10.641,0,0,0-1.533.744,5.3,5.3,0,0,0-1.218.885.783.783,0,0,0-.27.7ZM925.619-43.209c.015.059.072.091.17.1a1.383,1.383,0,0,0,.365-.035,4.417,4.417,0,0,0,.609-.209,5.555,5.555,0,0,0,.646-.317,3.371,3.371,0,0,0,.774-.589c.192-.2.27-.37.237-.5-.037-.15-.207-.2-.511-.135a3.884,3.884,0,0,0-1.085.461c-.193.111-.407.248-.644.413s-.45.32-.646.472Zm-.3-1.187a12.725,12.725,0,0,1,1.872-1.283,14.341,14.341,0,0,1,1.685-.846c.139-.057.261-.1.389-.144l-.115-.457c-.285.085-.583.159-.848.257a10.749,10.749,0,0,0-1.533.744,5.347,5.347,0,0,0-1.218.885.78.78,0,0,0-.267.7Zm-5.1,1.887-.172-.681-.22.633A2.292,2.292,0,0,1,920.22-42.509Z" transform="translate(-800.845 122.405)" fill="url(#ex)"/><g transform="translate(76.373 48.155)"><path d="M894.231-61.77l12.76-7.315a1.494,1.494,0,0,1,2.216,1.031l.478,2.648L892.754-55.7l-.378-2.087A3.811,3.811,0,0,1,894.231-61.77Z" transform="translate(-787.892 69.285)" fill="#bcbec0"/><path d="M902.236-57.191l12.758-7.315a1.5,1.5,0,0,1,2.216,1.033l.478,2.646-16.93,9.707-.378-2.085A3.815,3.815,0,0,1,902.236-57.191Z" transform="translate(-813.299 74.665)" fill="#bcbec0"/><path d="M910.239-52.609,923-59.926a1.5,1.5,0,0,1,2.218,1.033l.476,2.646-16.93,9.709-.376-2.087A3.806,3.806,0,0,1,910.239-52.609Z" transform="translate(-838.706 80.044)" fill="#bcbec0"/><path d="M918.242-48.029,931-55.344a1.5,1.5,0,0,1,2.218,1.033l.478,2.646-16.932,9.707-.376-2.087A3.812,3.812,0,0,1,918.242-48.029Z" transform="translate(-864.114 85.423)" fill="#bcbec0"/><path d="M926.246-43.45l12.76-7.315a1.5,1.5,0,0,1,2.216,1.033l.478,2.646-16.933,9.709-.376-2.087A3.814,3.814,0,0,1,926.246-43.45Z" transform="translate(-889.522 90.803)" fill="#bcbec0"/><path d="M934.25-38.868l12.76-7.315a1.494,1.494,0,0,1,2.216,1.031L949.7-42.5,932.773-32.8l-.378-2.087A3.811,3.811,0,0,1,934.25-38.868Z" transform="translate(-914.93 96.182)" fill="#bcbec0"/><path d="M942.255-34.288,955.013-41.6a1.5,1.5,0,0,1,2.216,1.033l.478,2.646-16.93,9.707L940.4-30.3A3.815,3.815,0,0,1,942.255-34.288Z" transform="translate(-940.338 101.561)" fill="#bcbec0"/></g><g transform="translate(117.293 98.847)"><path d="M930.752-25.009l3.276,13.968L928.816-14.2l-3.158-14.016Z" transform="translate(-925.658 66.832)" opacity="0.5" fill="url(#ey)"/><path d="M894.231-5.671,897.508,8.3l68.368-39.016-3.217-13.957Z" transform="translate(-889.17 47.495)" opacity="0.5" fill="url(#ez)"/><path d="M894.231-36.92l3.276,13.968,13.533-7.767-3.217-13.957Z" transform="translate(-834.334 47.495)" fill="url(#fa)"/><path d="M953.156-37.343l-.441-1.619L902.2-10.183l.478,1.638Z" transform="translate(-893.773 54.206)" fill="#fff"/><path d="M940.349-35.334l-.441-1.619L901.629-15.175l.478,1.638Z" transform="translate(-879.731 56.566)" fill="#fff"/><path d="M969.2-43.154l-68.427,39-5.061-3.2,67.933-38.621Z" transform="translate(-895.711 45.972)" opacity="0.5" fill="url(#fb)"/><path d="M914.352-43.154l-13.58,7.8-5.061-3.2,13.086-7.42Z" transform="translate(-840.864 45.972)" fill="url(#fc)"/></g><g transform="translate(97.458 70.217)"><path d="M939.874-28.113l3.276,13.968L937.938-17.3,934.78-31.315Z" transform="translate(-934.78 91.817)" opacity="0.5" fill="url(#fd)"/><path d="M885.731,3.042l3.276,13.968,106.686-60.9-3.217-13.957Z" transform="translate(-880.67 60.662)" opacity="0.5" fill="url(#fe)"/><path d="M885.731-50.087l3.276,13.968,13.533-7.767-3.217-13.957Z" transform="translate(-787.516 60.662)" fill="url(#ff)"/><path d="M982.974-50.509l-.441-1.619L893.7-1.47l.478,1.638Z" transform="translate(-885.273 67.373)" fill="#fff"/><path d="M970.168-48.5l-.441-1.619-76.6,43.657.478,1.638Z" transform="translate(-871.231 69.732)" fill="#fff"/><path d="M999.017-56.32,892.272,4.564l-5.061-3.2,106.251-60.5Z" transform="translate(-887.211 59.139)" opacity="0.5" fill="url(#fg)"/><path d="M905.852-56.32l-13.58,7.8-5.061-3.2,13.086-7.42Z" transform="translate(-794.046 59.139)" fill="url(#fh)"/></g><g transform="translate(76.817 93.721)"><g transform="translate(0)"><path d="M949.366-30.935l3.276,13.968-5.211-3.154-3.158-14.016Z" transform="translate(-944.273 64.999)" opacity="0.7" fill="url(#ey)"/><path d="M919.268-15.789l3.276,13.968,54.4-31.256-3.217-13.957Z" transform="translate(-914.206 49.852)" opacity="0.7" fill="url(#fj)"/><path d="M919.268-39.278l3.276,13.968,13.533-7.767L932.86-47.034Z" transform="translate(-873.335 49.852)" fill="url(#fa)"/><path d="M980.272-45.511,925.809-14.266l-5.061-3.2L974.716-48.33Z" transform="translate(-920.747 48.33)" opacity="0.7" fill="url(#fl)"/><path d="M939.389-45.511l-13.58,7.8-5.062-3.2,13.086-7.42Z" transform="translate(-879.865 48.33)" fill="url(#fc)"/></g><path d="M964.228-39.7l-.441-1.619L927.234-20.3l.479,1.638Z" transform="translate(-918.809 56.564)" fill="#fff"/><path d="M951.422-37.691l-.441-1.619L926.666-25.293l.478,1.638Z" transform="translate(-904.767 58.923)" fill="#fff"/></g><path d="M942.492-64.218c3.477-1.74,8.132-.27,10.4,3.283s1.287,7.848-2.187,9.587-8.13.272-10.4-3.283S939.018-62.476,942.492-64.218Z" transform="translate(-857.644 122.532)" fill="url(#fn)" style="mix-blend-mode:color-dodge;isolation:isolate"/><path d="M891.323-10.642Z" transform="translate(-691.001 186.313)" fill="#fff"/><path d="M891.323-10.642h0Z" transform="translate(-691.001 186.313)" fill="url(#fo)"/><path d="M883-22.182Z" transform="translate(-664.564 172.76)" fill="#fff"/></g></g></svg>