<svg xmlns="http://www.w3.org/2000/svg" xmlns:xlink="http://www.w3.org/1999/xlink" width="536.999" height="351.375" viewBox="0 0 536.999 351.375"><defs><linearGradient id="a" x1="0.802" y1="0.803" x2="0" y2="0.165" gradientUnits="objectBoundingBox"><stop offset="0" stop-color="#6e00b3"/><stop offset="1" stop-color="#2549c0"/></linearGradient><linearGradient id="b" x1="1.212" y1="1.05" x2="-0.234" y2="-0.233" gradientUnits="objectBoundingBox"><stop offset="0" stop-color="#6e00b3"/><stop offset="0.293" stop-color="#3b87bd"/><stop offset="0.489" stop-color="#4753d4"/><stop offset="0.598" stop-color="#3f63da" stop-opacity="0.302"/><stop offset="0.74" stop-color="#389dab" stop-opacity="0.2"/><stop offset="0.853" stop-color="#3c7fc4" stop-opacity="0.102"/><stop offset="1" stop-color="#36af9d" stop-opacity="0.102"/></linearGradient><linearGradient id="c" x1="0.902" y1="0.913" x2="0.098" y2="0.054" gradientUnits="objectBoundingBox"><stop offset="0" stop-color="#6e00b3"/><stop offset="0.464" stop-color="#3f63da"/><stop offset="1" stop-color="#36af9d" stop-opacity="0.102"/></linearGradient><linearGradient id="d" x1="3594.723" y1="0.456" x2="3591.432" y2="0.768" gradientUnits="objectBoundingBox"><stop offset="0.035" stop-color="#138bbd"/><stop offset="0.226" stop-color="#169ac6"/><stop offset="0.595" stop-color="#1ec2df"/><stop offset="1" stop-color="#2af6ff"/></linearGradient><linearGradient id="e" x1="-738.586" y1="0.652" x2="-738.586" y2="-0.311" gradientUnits="objectBoundingBox"><stop offset="0.091" stop-color="#25054d"/><stop offset="0.471" stop-color="#320967"/><stop offset="0.894" stop-color="#45108a"/></linearGradient><linearGradient id="f" x1="-564.848" y1="0.5" x2="-563.848" y2="0.5" xlink:href="#d"/><linearGradient id="g" x1="-399.201" y1="-951.787" x2="-399.011" y2="-953.605" xlink:href="#e"/><linearGradient id="h" x1="1047.979" y1="0.5" x2="1048.979" y2="0.5" xlink:href="#d"/><radialGradient id="i" cx="2.903" cy="0.47" r="1.172" gradientTransform="translate(5420.713) scale(2.352 1)" gradientUnits="objectBoundingBox"><stop offset="0.03" stop-color="#fedfcb"/><stop offset="0.778" stop-color="#f9b69e"/><stop offset="0.995" stop-color="#f2a78c"/></radialGradient><radialGradient id="j" cx="0.193" cy="0.442" r="0.604" gradientTransform="matrix(1.356, -0.147, 0.201, 0.989, 272.183, -102.912)" gradientUnits="objectBoundingBox"><stop offset="0.03" stop-color="#fedfcb"/><stop offset="1" stop-color="#f9b69e"/></radialGradient><linearGradient id="k" x1="-649.549" y1="-157.358" x2="-650.074" y2="-158.257" gradientUnits="objectBoundingBox"><stop offset="0.035" stop-color="#602213"/><stop offset="0.571" stop-color="#6c310d"/><stop offset="1" stop-color="#7a4108"/></linearGradient><linearGradient id="l" x1="-892.993" y1="-291.658" x2="-893.217" y2="-292.177" gradientUnits="objectBoundingBox"><stop offset="0.035" stop-color="#9d9eb3"/><stop offset="0.581" stop-color="#d4d1d8"/><stop offset="1" stop-color="#eeebf2"/></linearGradient><linearGradient id="m" x1="-305.199" y1="-43.185" x2="-304.281" y2="-43.185" xlink:href="#d"/><linearGradient id="n" x1="-602.436" y1="-190.976" x2="-601.992" y2="-192.43" xlink:href="#d"/><radialGradient id="o" cx="0.558" cy="0.582" r="0.587" gradientTransform="matrix(0.747, -0.147, 0.111, 0.989, -130.395, -90.544)" gradientUnits="objectBoundingBox"><stop offset="0" stop-color="#fff"/><stop offset="1"/></radialGradient><linearGradient id="p" x1="-4306.214" y1="0.532" x2="-4299.721" y2="0.315" xlink:href="#e"/><linearGradient id="q" x1="-423.937" y1="0.662" x2="-420.646" y2="0.135" xlink:href="#e"/><linearGradient id="r" x1="-2967.274" y1="0.802" x2="-2964.163" y2="0.181" gradientUnits="objectBoundingBox"><stop offset="0.035" stop-color="#ffa98c"/><stop offset="0.317" stop-color="#feb892"/><stop offset="0.86" stop-color="#fee0a3"/><stop offset="1" stop-color="#feeca8"/></linearGradient><linearGradient id="s" x1="-424.332" y1="0.85" x2="-421.444" y2="0.119" xlink:href="#e"/><radialGradient id="t" cx="0.257" cy="1.31" r="0.654" gradientTransform="translate(-48.434) scale(0.886 1)" xlink:href="#o"/><linearGradient id="u" x1="-385.035" y1="0.089" x2="-385.178" y2="0.558" xlink:href="#e"/><linearGradient id="v" x1="-1194.316" y1="0.967" x2="-1194.734" y2="0.252" xlink:href="#e"/><linearGradient id="w" x1="-1563.88" y1="1363.124" x2="-1560.114" y2="1362.311" xlink:href="#e"/><radialGradient id="x" cx="0.5" cy="0.5" r="0.543" gradientTransform="translate(-76.61) scale(0.858 1)" xlink:href="#o"/><radialGradient id="y" cx="0.139" cy="0.263" r="0.651" gradientTransform="matrix(1.386, 0.112, -0.156, 0.994, 570.203, 158.258)" xlink:href="#j"/><linearGradient id="z" x1="-707.031" y1="-57.276" x2="-705.721" y2="-57.276" xlink:href="#d"/></defs><g transform="translate(0.5 0.5)"><path d="M5279.532,3507.643l-40.335-23.29c-10.927-6.307-10.927-16.537,0-22.846l40.335-23.288c10.929-6.309,28.644-6.309,39.571,0l60.122,34.712,19.785,11.422c10.929,6.309,10.929,16.539,0,22.846s-28.644,6.309-39.571,0-28.642-6.308-39.569,0l-.766.443c-5.463,3.155-12.624,4.732-19.785,4.732S5285,3510.8,5279.532,3507.643ZM5444,3476.122l-172.586-99.646c-17.021-9.828-17.021-25.762,0-35.59l48.109-27.776c17.022-9.83,17.022-25.762,0-35.59l-62.834-36.279c-17.023-9.828-17.023-25.762,0-35.59l62.834-36.279c17.022-9.828,44.621-9.828,61.641,0l93.658,54.074,203.407,117.44c17.023,9.828,17.023,25.762,0,35.59l-172.586,99.646c-8.511,4.914-19.666,7.371-30.821,7.371S5452.515,3481.036,5444,3476.122Zm-241.39-146.492-39.574-22.849c-10.72-6.189-10.72-16.226,0-22.415l39.574-22.849c10.721-6.189,28.1-6.189,38.823,0l39.574,22.849c10.721,6.189,10.721,16.226,0,22.415l-39.574,22.849c-5.361,3.1-12.386,4.643-19.412,4.643S5207.975,3332.724,5202.614,3329.629Z" transform="translate(-5155 -3162)" stroke="rgba(0,0,0,0)" stroke-miterlimit="10" stroke-width="1" fill="url(#a)"/><g transform="translate(107.848 0.933)"><path d="M1131.776,435.6l-76.319,41.622-.892-13.895,75.6-41.073Zm35.277,25.554-77.891,43-1.249-14.519,77.143-42.411Zm37.167,26.865-79.526,44.455-1.643-15.189,78.745-43.835Zm39.068,27.95-81.207,46-2.078-15.9L1240.4,500.73Zm41.3,29.907-82.973,47.664-2.559-16.684,82.124-46.956Zm43.366,31.928-84.829,49.459-3.091-17.536,83.943-48.7Zm46.107,33.024-86.722,51.354-3.683-18.445,85.8-50.54Z" transform="translate(-1022.642 -411.247)" fill="url(#b)"/><path d="M1098.885,415.533,1023.344,456.6l-31.983-12.7s41.486-24.712,55.856-32.446,20.09-6.91,20.09-6.91Zm34.891,24.964L1056.695,482.9l-32.208-12.552,76.126-41.658Zm36.741,26.231-78.682,43.831-33.606-13.319,77.693-43.032Zm38.6,27.278-80.329,45.332-35.1-14.141,79.3-44.481Zm-41.273,76.123-36.713-15.046,80.99-46.042,37.78,14.136ZM1292.7,554.3,1208.827,603l-38.459-16.041,82.762-47.721Zm45.476,32.171-85.724,50.537-40.34-17.1,84.573-49.49Zm56.71,38.371-90.161,52.1-48.31-21.668,86.479-51.408Z" transform="translate(-991.361 -404.523)" fill="url(#c)"/></g><g transform="translate(369.385 0.3)"><path d="M760.086,518.086c3,6.012,11.476,22.548,9.835,27.466s-9.288,6.7-12.98,6.7S760.086,518.086,760.086,518.086Z" transform="translate(-681.02 -479.054)" fill="url(#d)"/><path d="M821.326,586.9c-7.8,4.615-18.651,2.461-29.512-3.892S768.451,568.866,759.431,566s-15.369-6.559-12.907-9.635,18.035-6.144,37.706,2.051S835.879,578.3,821.326,586.9Z" transform="translate(-719.307 -342.855)" opacity="0.2"/><path d="M785.9,569.413s1.182,4.552.273,6.466-5.1,3.462-8.478,1.826-4.83-5.1-6.1-6.017-8.478-1.734-13.855-6.29-4.644-9.567.732-9.66,15.125,2.368,18.587,4.649S785.9,569.413,785.9,569.413Z" transform="translate(-688.018 -332.834)" fill="#10054d"/><path d="M782.455,574.254c-3.853.806-8.746-2.549-11.027-4.464s-6.29-.913-11.482-5.015-7.017-6.925-4.649-8.292,10.993-.977,17.738,2.671,11.242,6.261,11.242,6.261,1.641,5.01.82,6.1S784.643,573.8,782.455,574.254Z" transform="translate(-687.132 -332.757)" fill="url(#e)"/><path d="M782.2,535.307s1.563,20.072,4.307,35.25c2.789,15.447,4.21,42.927,4.894,54s4.532,24.677-1.094,27.475c-3.233,1.612-9.02.684-13.533-4.508s-5.469-10.255-4.922-11.213,1.367-5.191-.41-14.353-4.981-25.736-9.186-38.082c-3.076-9.015-9.567-43.445-9.567-43.445Z" transform="translate(-693.297 -412.174)" fill="url(#f)"/><path d="M782.2,554.006s3.882,4.9,2,6.935-5.245,4-8.625,3.765-5.04-1.1-8.126.005-17.22-.518-20.584-2.6-2.242-6.266,3.663-7.9,14.382-3.887,16.028-3.9S782.2,554.006,782.2,554.006Z" transform="translate(-723.185 -353.893)" fill="#10054d"/><path d="M780.493,559.067c-5.167,2.569-7.433,1.695-12.776,2.447s-21.552.078-22.43-3.189,2.618-3.756,5.455-4.483,11.809-3.258,12.492-3.5,17.234,1.089,17.234,1.089,2.687,4.268,1.988,5.289S781.889,558.373,780.493,559.067Z" transform="translate(-722.573 -353.914)" fill="url(#g)"/><path d="M791.7,561.808l-21.039,9.567s9.288,15.71,12.023,22.269,10.656,26.235,7.648,28.555-17.488.957-19.4-.547-3.418-4.781-3.282-6.691-3.961-13.938-9.836-21.181-17.9-22-14.622-32.925,32.11-27.465,32.11-27.465Z" transform="translate(-732.312 -419.619)" fill="url(#h)"/><path d="M764.115,535.949c.864,13.874,5.035,43,7.839,56.093,3.072,14.343,9.166,36.012,7.247,44.036a55.168,55.168,0,0,0-1.319,10.1c-.376-.361-.747-.737-1.109-1.153-4.512-5.2-5.469-10.255-4.922-11.213s1.367-5.191-.41-14.353-4.981-25.736-9.186-38.082c-3.076-9.015-9.567-43.445-9.567-43.445Z" transform="translate(-693.297 -409.681)" fill="#d1d3d4" style="mix-blend-mode:multiply;isolation:isolate"/><path d="M778.925,548l-21.039,9.567s9.288,15.71,12.023,22.269,10.656,26.235,7.648,28.555c-1.152.893-4,1.24-7.184,1.245-.337-7.3-1.435-19.242-4.976-25.771-5.328-9.835-19.466-25.82-19.466-25.82l26.616-21.1Z" transform="translate(-719.535 -405.809)" fill="#d1d3d4" style="mix-blend-mode:multiply;isolation:isolate"/><path d="M752,539.613a26.626,26.626,0,0,1-2.593,8.961c-1.089,2.266-1.461,4.869-2.667,4.439s.347-10.954.347-10.954Z" transform="translate(-718.191 -395.452)" fill="url(#i)"/><path d="M752.3,512.257c-3.326,2.29-6.514,5.758-5.357,14.8s1.709,13.386,3.687,14.289,3.155-.469,3.887,2a27.914,27.914,0,0,1,.63,6.725l19-7.335a9.373,9.373,0,0,1-1.04-6.388c.781-3.428,5.524-10.583-.181-19.227S756.23,509.557,752.3,512.257Z" transform="translate(-716.555 -509.247)" fill="url(#j)"/><path d="M746.546,521.889c.191,1.734,1.66,4.361,4.122,4.18a3.7,3.7,0,0,1,3.716,3.961c-.337,1.435.073,1.743.073,1.743s1.7-.991,2.725.332.4,4.546.029,5.8,4.225,4.258,7.6,4.034,7.833-1.255,9.02-3.179,5.65-8.488,2.393-17.4S763.678,508.2,756.059,510.9,746.272,519.443,746.546,521.889Z" transform="translate(-717.234 -510.094)" fill="url(#k)"/><path d="M747.923,533.3s1.04-7.731,5.323-9.289,8.239-1.592,11.013-3.384a11.781,11.781,0,0,0,4.009-4.566s3.546.435,1.475,3.873S747.923,533.3,747.923,533.3Z" transform="translate(-711.799 -486.926)" fill="url(#l)"/><path d="M769.232,522.535a50.627,50.627,0,0,0,7.716-5.1,79.04,79.04,0,0,1,9.909-1.021c3.687,0,9.679,2.525,10.324,9.337a148.634,148.634,0,0,1-.381,25.5c-.85,9.8.258,16.633,3.374,25.844s12.141,29.062,12.028,31.382-4.068,11.11-15.261,17-30.7,9.806-39.982,1.88-3.668-40.808-5.489-56.2-8.356-20.975-3.042-29.873,11.906-14.754,15.891-16.453A41.509,41.509,0,0,0,769.232,522.535Z" transform="translate(-717.759 -485.559)" fill="url(#m)"/><path d="M751.874,533.281c1.518-2.8,4.8-6.793,8.244-7.765s10.031-3.355,12.043-5.353c2.3-2.29,2.359-3.946,2.359-3.946l5.562,1.172s1.392,6.222-5.665,9.572-15.4,4.483-20.306,8.4a51.252,51.252,0,0,0-7.33,7.057Z" transform="translate(-716.238 -486.309)" fill="#d1d3d4" style="mix-blend-mode:multiply;isolation:isolate"/><path d="M751.874,533.281c1.518-2.8,4.8-6.793,8.244-7.765s10.031-3.355,12.043-5.353c2.3-2.29,2.359-3.946,2.359-3.946l5.562,1.172s.694,5.157-6.363,8.507-16.609,5.411-20.775,9.621a72.271,72.271,0,0,0-6.163,6.905Z" transform="translate(-716.238 -486.309)" fill="url(#n)"/><path d="M779.52,516.434c.034,1.055-.234,5.343-6.378,8.258-7.062,3.35-16.614,5.416-20.78,9.626-1.568,1.582-2.823,2.95-3.785,4.044l-1.8,3.223a72.266,72.266,0,0,1,6.163-6.905c4.166-4.21,13.718-6.271,20.775-9.62s6.363-8.507,6.363-8.507Z" transform="translate(-716.238 -485.47)" fill="url(#o)" style="mix-blend-mode:color-dodge;isolation:isolate"/><path d="M763.521,524.4c-6.187-6.788-12.6.337-17.083,6.222.85,5.084,3.726,10.827,4.84,20.247,1.822,15.388-3.795,48.27,5.489,56.2,4.483,3.829,11.345,4.893,18.5,4.312a98.8,98.8,0,0,1-3.2-12.2c-2.539-13.1.327-21-.689-38.966S771.565,533.235,763.521,524.4Z" transform="translate(-717.566 -465.268)" fill="#d1d3d4" style="mix-blend-mode:multiply;isolation:isolate"/><path d="M770.354,512.549c-1.441,1.607-4.044,3.638-8.7,5.25a31.457,31.457,0,0,1-13.557,1.211,2.566,2.566,0,0,1,.191,1.485c-.337,1.435.073,1.738.073,1.738s1.7-.986,2.725.337.4,4.546.029,5.8,4.225,4.258,7.6,4.034,7.828-1.255,9.02-3.179C768.884,527.346,773.113,521.09,770.354,512.549Z" transform="translate(-711.135 -500.558)" fill="#d1d3d4" style="mix-blend-mode:multiply;isolation:isolate"/><g transform="translate(0 143.484)"><path d="M749.853,547.59v37.472l4.481-2.6v-37.6Z" transform="translate(-704.303 -518.573)" fill="url(#p)"/><path d="M786.095,566.353v37.472l-45.569-26.2v-37.6Z" transform="translate(-740.526 -537.336)" fill="url(#q)"/><path d="M750.794,550.972v2.505a1.232,1.232,0,0,1-1.846,1.07l-3.482-2a2.346,2.346,0,0,1-1.177-2.037v-1.87a1.234,1.234,0,0,1,1.851-1.069l4.038,2.334A1.237,1.237,0,0,1,750.794,550.972Z" transform="translate(-725.912 -508.69)" fill="url(#r)"/><g transform="translate(0 2.69)"><path d="M786.1,566.353v11.4a2.618,2.618,0,0,1-2.618,2.618l-18.518,0a6.724,6.724,0,0,1-5.25-2.53l-16.931-21.229a10.287,10.287,0,0,1-2.251-6.427V540.025Z" transform="translate(-740.526 -540.025)" fill="url(#s)"/><path d="M786.1,566.353v11.4a2.618,2.618,0,0,1-2.618,2.618l-18.518,0a6.724,6.724,0,0,1-5.25-2.53l-16.931-21.229a10.287,10.287,0,0,1-2.251-6.427V540.025Z" transform="translate(-740.526 -540.025)" fill="url(#t)" style="mix-blend-mode:color-dodge;isolation:isolate"/></g><path d="M740.526,542.163l45.569,26.328,4.463-2.734-45.6-26.283Z" transform="translate(-740.526 -539.474)" fill="url(#u)"/><path d="M755.132,543.993l-5.89-3.4a3.543,3.543,0,0,0-3.682-.322l-1.466.732.211,1.109a5.509,5.509,0,0,0-.171,1.392v3.824l1.308.757.352,1.851,1.519-.771v-3.443c0-1.617,1.142-2.271,2.554-1.455l4.64,2.681a5.615,5.615,0,0,1,2.554,4.405V554.8l1.426.82.235,1.783,1.518-.767v-3.824A11.259,11.259,0,0,0,755.132,543.993Z" transform="translate(-726.665 -537.851)" fill="url(#v)"/><path d="M743.792,543.665v3.824l3.18,1.836v-3.443c0-1.617,1.142-2.271,2.554-1.456l4.639,2.676a5.631,5.631,0,0,1,2.554,4.41v3.438l3.179,1.836v-3.824a11.262,11.262,0,0,0-5.108-8.815l-5.89-3.4C746.078,539.123,743.792,540.427,743.792,543.665Z" transform="translate(-727.842 -537.239)" fill="url(#w)"/><path d="M774.859,572.415l.361-12.422,4-2.965-4.583,2.027-31.2-17.332,30.765,18.054Z" transform="translate(-729.193 -530.745)" fill="url(#x)" style="mix-blend-mode:color-dodge;isolation:isolate"/></g><path d="M752.61,537.5a91.146,91.146,0,0,0-7.433,10.534c-1.245,2.286-1.2,2.706-.64,7.428.259,2.2.689,3.8,1.875,3.946.542.069.2-1.23.2-1.23s.2,2.173,1.631,2.515.679-1.387.679-1.387.4,2.32,1.836,2.574.64-1.583.64-1.583.488,2.442,1.631,2.847,1.333-.327,1.333-2.007c0-1.963.849-3.7,2.612-6.837,1.88-3.331,3.458-4.82,3.262-7.96s2.393-5.782,2.393-5.782Z" transform="translate(-726.404 -403.65)" fill="url(#y)"/><path d="M756.036,522.654c5.973-3.13,12.726-.147,15.237,6.207s2.969,31.807,1.475,39.123-12.566,40.739-12.566,40.739a40.149,40.149,0,0,1-9.259-.928,11.574,11.574,0,0,1-5.743-3.936s6.847-28.379,7.995-34.908-1.939-22.2-2.325-29.321C750.386,530.981,750.264,525.682,756.036,522.654Z" transform="translate(-722.452 -466.178)" fill="url(#z)"/></g></g></svg>