<svg xmlns="http://www.w3.org/2000/svg" xmlns:xlink="http://www.w3.org/1999/xlink" width="260.688" height="260.637" viewBox="0 0 260.688 260.637"><defs><linearGradient id="a" x1="0.093" y1="0.179" x2="0.61" y2="0.96" gradientUnits="objectBoundingBox"><stop offset="0" stop-color="#6e00b3"/><stop offset="1" stop-color="#2549c0"/></linearGradient></defs><g transform="translate(0.25 0.25)"><g transform="translate(0 0)"><path d="M237.9,54.136l-10.6-1.078L208.707,24.584l-35.392-1.168L165.141,1.139,151.218,27.368,130.019.6V30.871l-22.906-6.288L93.46,39.135,67.68,9.942,80.615,42.1,58.158,36.261,48.637,49.376,37.858,39.135l2.066,15.181L11.449,65.9l2.785,11.138L.669,86.474,32.648,98.151.4,102.193l19.313,6.647L.4,118.811l32.876,9.881L3,143.334l16.708,13.833L1.747,181.6l44.194-15L41,194.984l19.492-8.174L27.617,209.985l33.864,5.3-4.671,8.534,29.463-14.642L74.6,249.868l21.918-11.857,1.437,20.84,32.068-25.78v26.858l14.911-33.6,43.745,27.936L174.124,222.65l23.265,3.413-11.228-26.5,22.007.539-1.886-21.289,31.8,6.737-18.774-28.385,24.882,19.672-6.108-24.073,18.684-8.444-30.092-14.193,10.689-18.055-10.061-8.8,32.248-1.8-15-18.145,12.576-7.186L227.3,65.185l10.6-11.049" transform="translate(0.139 0.208)" fill="none" stroke="#6e00b3" stroke-linecap="round" stroke-linejoin="round" stroke-miterlimit="10" stroke-width="0.5"/><path d="M190.4,26,178.45,40.552l-10.15-10.6L190.4,26l26.768,23.355,8.623-22.187" transform="translate(-16.943 -2.376)" fill="none" stroke="#6e00b3" stroke-linecap="round" stroke-linejoin="round" stroke-miterlimit="10" stroke-width="0.5"/><line y1="3.503" x2="21.199" transform="translate(130.158 27.577)" fill="none" stroke="#6e00b3" stroke-linecap="round" stroke-linejoin="round" stroke-miterlimit="10" stroke-width="0.5"/><path d="M139.481,30.861,123.582.5l-7.006,24.073L108.132,1.219l-5.21,37.907L93.4.5" transform="translate(-9.323 0.219)" fill="none" stroke="#6e00b3" stroke-linecap="round" stroke-linejoin="round" stroke-miterlimit="10" stroke-width="0.5"/><line y1="22.726" x2="25.69" transform="translate(14.372 54.524)" fill="none" stroke="#6e00b3" stroke-linecap="round" stroke-linejoin="round" stroke-miterlimit="10" stroke-width="0.5"/><path d="M71.922,11,62.4,37.319,42.1,40.194" transform="translate(-4.104 -0.85)" fill="none" stroke="#6e00b3" stroke-linecap="round" stroke-linejoin="round" stroke-miterlimit="10" stroke-width="0.5"/><path d="M6.808,78.9l7.456,6.108,18.414,2.156L.7,94.44" transform="translate(0.108 -7.758)" fill="none" stroke="#6e00b3" stroke-linecap="round" stroke-linejoin="round" stroke-miterlimit="10" stroke-width="0.5"/><path d="M34.835,109.2,21.9,119.889l13.564,19.852" transform="translate(-2.048 -10.84)" fill="none" stroke="#6e00b3" stroke-linecap="round" stroke-linejoin="round" stroke-miterlimit="10" stroke-width="0.5"/><path d="M35.464,143.2,21.9,171.675l26.229,9.432" transform="translate(-2.048 -14.299)" fill="none" stroke="#6e00b3" stroke-linecap="round" stroke-linejoin="round" stroke-miterlimit="10" stroke-width="0.5"/><path d="M1.9,202.1l39.254,13.384-13.384,15,43.3-12.935-9.432,18.235,24.792-6.108" transform="translate(-0.014 -20.292)" fill="none" stroke="#6e00b3" stroke-linecap="round" stroke-linejoin="round" stroke-miterlimit="10" stroke-width="0.5"/><path d="M96,232.8l10.24,28.834,15.091-13.474-13.654,34.314" transform="translate(-9.587 -23.415)" fill="none" stroke="#6e00b3" stroke-linecap="round" stroke-linejoin="round" stroke-miterlimit="10" stroke-width="0.5"/><path d="M157.8,279.8l3.144-32.517,29.193-3.683,12.037-23.085,27.936,14.372-5.929-13.833L252.746,206.5" transform="translate(-15.875 -20.739)" fill="none" stroke="#6e00b3" stroke-linecap="round" stroke-linejoin="round" stroke-miterlimit="10" stroke-width="0.5"/><path d="M244.1,164.482l18.774-4.4-11.318-24.073,32.517,5.12-21.918-21.738,22.187-10.6L252.095,91.364l17.247-.719L252.095,72.5l23.445,2.246" transform="translate(-24.655 -7.107)" fill="none" stroke="#6e00b3" stroke-linecap="round" stroke-linejoin="round" stroke-miterlimit="10" stroke-width="0.5"/><path d="M84.986,121.881l-19.941,9.252-5.569-8.444-22.546,9.432,10.42-9.432L36.3,101.58l11.049-9.432L36.3,82.626,47.349,66.278l-3.773-8.533,9.072,7.276L52.289,52.8,79.237,59l5.03-13.474,7.815,10.51,5.03-13.474,13.564,9.252,23-17.516" transform="translate(-3.513 -3.22)" fill="none" stroke="#6e00b3" stroke-linecap="round" stroke-linejoin="round" stroke-miterlimit="10" stroke-width="0.5"/><path d="M87,146.1" transform="translate(-8.672 -14.594)" fill="none" stroke="#6e00b3" stroke-linecap="round" stroke-linejoin="round" stroke-miterlimit="10" stroke-width="0.5"/><path d="M141.722,245.491l-13.564-7.9L114.325,225.1,96,232.017" transform="translate(-9.587 -22.632)" fill="none" stroke="#6e00b3" stroke-linecap="round" stroke-linejoin="round" stroke-miterlimit="10" stroke-width="0.5"/><path d="M131.617,237.016,130,219.5l15.181,25.421" transform="translate(-13.046 -22.062)" fill="none" stroke="#6e00b3" stroke-linecap="round" stroke-linejoin="round" stroke-miterlimit="10" stroke-width="0.5"/><path d="M126.215,216.611l13.2-9.791-35.841,2.246-4.4-17.965L92.8,202.777" transform="translate(-9.262 -19.173)" fill="none" stroke="#6e00b3" stroke-linecap="round" stroke-linejoin="round" stroke-miterlimit="10" stroke-width="0.5"/><path d="M140.142,206.24l-13.2-20.84L99.9,190.52" transform="translate(-9.984 -18.593)" fill="none" stroke="#6e00b3" stroke-linecap="round" stroke-linejoin="round" stroke-miterlimit="10" stroke-width="0.5"/><path d="M138.4,178.9" transform="translate(-13.901 -17.931)" fill="none" stroke="#6e00b3" stroke-linecap="round" stroke-linejoin="round" stroke-miterlimit="10" stroke-width="0.5"/><path d="M130,185.4" transform="translate(-13.046 -18.593)" fill="none" stroke="#6e00b3" stroke-linecap="round" stroke-linejoin="round" stroke-miterlimit="10" stroke-width="0.5"/><line x2="40.242" y2="15.72" transform="translate(89.916 171.927)" fill="none" stroke="#6e00b3" stroke-linecap="round" stroke-linejoin="round" stroke-miterlimit="10" stroke-width="0.5"/><path d="M83.53,171.563,76.7,156.2l-20.57,3.683L65.116,142.1,37,143.088l19.133,16.8-7.815,21.109,11.947-2.156,3.952,22.367,10.42-17.516,12.486,14.1L97.9,204.08l10.42,12.576" transform="translate(-3.585 -14.188)" fill="none" stroke="#6e00b3" stroke-linecap="round" stroke-linejoin="round" stroke-miterlimit="10" stroke-width="0.5"/><path d="M76.8,185.7l-14.372-4.851L58.3,161.9l27.4,11.677L76.8,185.7" transform="translate(-5.752 -16.202)" fill="none" stroke="#6e00b3" stroke-linecap="round" stroke-linejoin="round" stroke-miterlimit="10" stroke-width="0.5"/><line x1="18.504" y1="23.804" transform="translate(52.548 145.698)" fill="none" stroke="#6e00b3" stroke-linecap="round" stroke-linejoin="round" stroke-miterlimit="10" stroke-width="0.5"/><path d="M79.888,156.2,68.3,142.1l16.8,3.593Z" transform="translate(-6.769 -14.188)" fill="none" stroke="#6e00b3" stroke-linecap="round" stroke-linejoin="round" stroke-miterlimit="10" stroke-width="0.5"/><path d="M117.2,171.1" transform="translate(-11.744 -17.138)" fill="none" stroke="#6e00b3" stroke-linecap="round" stroke-linejoin="round" stroke-miterlimit="10" stroke-width="0.5"/><line x2="1.617" y2="25.87" transform="translate(78.328 131.506)" fill="none" stroke="#6e00b3" stroke-linecap="round" stroke-linejoin="round" stroke-miterlimit="10" stroke-width="0.5"/><path d="M90.5,131.8" transform="translate(-9.028 -13.14)" fill="none" stroke="#6e00b3" stroke-linecap="round" stroke-linejoin="round" stroke-miterlimit="10" stroke-width="0.5"/><line x1="24.163" y2="3.413" transform="translate(79.945 153.962)" fill="none" stroke="#6e00b3" stroke-linecap="round" stroke-linejoin="round" stroke-miterlimit="10" stroke-width="0.5"/><path d="M159,121.8" transform="translate(-15.997 -12.122)" fill="none" stroke="#6e00b3" stroke-linecap="round" stroke-linejoin="round" stroke-miterlimit="10" stroke-width="0.5"/><path d="M144.486,34.3,142.6,46.965l12.486,5.12-4.312,23.265L173.5,120.982" transform="translate(-14.328 -3.22)" fill="none" stroke="#6e00b3" stroke-linecap="round" stroke-linejoin="round" stroke-miterlimit="10" stroke-width="0.5"/><path d="M177.25,42.2l-2.425,18.864L156.5,52.889,177.25,42.2" transform="translate(-15.742 -4.024)" fill="none" stroke="#6e00b3" stroke-linecap="round" stroke-linejoin="round" stroke-miterlimit="10" stroke-width="0.5"/><path d="M199.847,113.834l42.847-5.12V89.492l-23.175,6.827,1.707-18.055,21.468-7.635-29.014-4.94L196.883,54.1l-22.546,8.174L151.7,77.365l28.655-4.4,5.659,47.159" transform="translate(-15.254 -5.235)" fill="none" stroke="#6e00b3" stroke-linecap="round" stroke-linejoin="round" stroke-miterlimit="10" stroke-width="0.5"/><path d="M245.258,89.492,223.789,78.263l-7.545-12.576L209.417,86.8l-9.971-32.7L182.918,72.964,176.9,62.274" transform="translate(-17.818 -5.235)" fill="none" stroke="#6e00b3" stroke-linecap="round" stroke-linejoin="round" stroke-miterlimit="10" stroke-width="0.5"/><path d="M203.733,116.571l19.672-17.516-33.505,23.8,20.84-33.326L225.112,81" transform="translate(-19.14 -7.971)" fill="none" stroke="#6e00b3" stroke-linecap="round" stroke-linejoin="round" stroke-miterlimit="10" stroke-width="0.5"/><path d="M228.848,136.3l10.51,6.2-23.265,11.677,15.809,16.8-15.809-16.8,2.785,38.446L206.75,191l-7.995,22.367-13.115-1.886-28.116,28.655-12.935-3.683-1.976,10.42-11.588-18.325-6.827,9.791" transform="translate(-12.456 -13.597)" fill="none" stroke="#6e00b3" stroke-linecap="round" stroke-linejoin="round" stroke-miterlimit="10" stroke-width="0.5"/><path d="M243.764,145.3l31.8,21.468-21.738,11.947,15.809,16.8-15.809-16.8,2.695,38.446-12.037-1.617-7.995,22.367-13.115-1.886-18.684,32.966L182.323,261l-11.588,12.845-1.976-20.75L157.8,273.572" transform="translate(-15.875 -14.513)" fill="none" stroke="#6e00b3" stroke-linecap="round" stroke-linejoin="round" stroke-miterlimit="10" stroke-width="0.5"/><path d="M10.22,162.6-.2,168.888l23.175,11.588-15.72,16.8,15.72-16.8L20.28,218.921,32.407,217.3l7.9,22.367,13.2-1.886L72.11,270.751l22.367-7.995L106.064,275.6l2.066-20.75L119,275.332" transform="translate(0.2 -16.273)" fill="none" stroke="#6e00b3" stroke-linecap="round" stroke-linejoin="round" stroke-miterlimit="10" stroke-width="0.5"/><path d="M198.921,112.624l31.8,14.1L241.768,107.5l-23.175-12.4-12.665-9.522-26.5-13.833L173.5,121.786,144.486,87.922l6.288-11.767L142.6,47.769,175.836,42.2l20.121,10.689L214.551,51l-1.8,13.474,29.014-7.186" transform="translate(-14.328 -4.024)" fill="none" stroke="#6e00b3" stroke-linecap="round" stroke-linejoin="round" stroke-miterlimit="10" stroke-width="0.5"/><path d="M159,121.8" transform="translate(-15.997 -12.122)" fill="none" stroke="#6e00b3" stroke-linecap="round" stroke-linejoin="round" stroke-miterlimit="10" stroke-width="0.5"/><path d="M146.9,159.5" transform="translate(-14.766 -15.958)" fill="none" stroke="#6e00b3" stroke-linecap="round" stroke-linejoin="round" stroke-miterlimit="10" stroke-width="0.5"/><path d="M119.591,241.883l-7.006-22.277,12.216-5.03-22.636-7.545-7.9,19.492-2.874-25.78L78.9,214.4V186.64l18.864,2.425-9.971-14.552,37.008,9.432L113.3,171.1" transform="translate(-7.847 -17.138)" fill="none" stroke="#6e00b3" stroke-linecap="round" stroke-linejoin="round" stroke-miterlimit="10" stroke-width="0.5"/><path d="M11.449,65.7,39.924,54.116,51.331,25.641l35.3-2.425L83.938.49,108.73,27.168,130.019.4V30.671l22.816-6.288,13.654,14.552L193.077,9.922,179.334,41.9l22.457-5.839,9.522,13.115,15.45-5.659.539,9.342,10.6,1.078,7.815,22.906,13.564,9.432L227.3,97.951l32.248,4.042-19.223,6.647,19.223,9.971-32.787,9.971,30.271,14.552-16.708,13.833,5.479,16.708L214.1,166.4l4.94,28.385-19.582-8.174L221.822,206.1l-23.355,8.983-1.078,13.2-23.714-19.313,15,45.272-25.151-16.438-8.8,21.289-24.7-26.229v26.858l-14.911-33.6L72.081,247.422,85.825,222.45,53.487,221.1l20.3-21.738L51.87,199.9l1.886-21.289-31.8,6.737,18.774-28.385-37.368,27.4,18.594-31.8L3.185,144.122l30.092-14.193L22.587,111.874l10.061-8.8L.4,101.275,15.491,83.13,6.059,71.093l26.589-6.108-21.2.719" transform="translate(0.139 0.229)" fill="none" stroke="#6e00b3" stroke-linecap="round" stroke-linejoin="round" stroke-miterlimit="10" stroke-width="0.5"/><path d="M92.4,25.8l12.037,14.552,10.061-10.6L92.4,25.8,65.723,49.155,57.1,28.225" transform="translate(-5.63 -2.355)" fill="none" stroke="#6e00b3" stroke-linecap="round" stroke-linejoin="round" stroke-miterlimit="10" stroke-width="0.5"/><line x1="21.289" y1="3.503" transform="translate(108.869 27.397)" fill="none" stroke="#6e00b3" stroke-linecap="round" stroke-linejoin="round" stroke-miterlimit="10" stroke-width="0.5"/><path d="M144.7,30.6,157.545,1.047l9.971,23.265L169.582-.3l11.588,39.164,14.193-38" transform="translate(-14.542 0.3)" fill="none" stroke="#6e00b3" stroke-linecap="round" stroke-linejoin="round" stroke-miterlimit="10" stroke-width="0.5"/><line x1="18.414" y1="23.984" transform="translate(227.44 53.087)" fill="none" stroke="#6e00b3" stroke-linecap="round" stroke-linejoin="round" stroke-miterlimit="10" stroke-width="0.5"/><path d="M214.9,11l8.713,26.139,24.972,7.456" transform="translate(-21.684 -0.85)" fill="none" stroke="#6e00b3" stroke-linecap="round" stroke-linejoin="round" stroke-miterlimit="10" stroke-width="0.5"/><path d="M276.265,75.8l-4.851,8.713L253,86.669l31.978,7.276" transform="translate(-25.56 -7.442)" fill="none" stroke="#6e00b3" stroke-linecap="round" stroke-linejoin="round" stroke-miterlimit="10" stroke-width="0.5"/><path d="M252.939,109l13.025,10.689L252.4,139.631" transform="translate(-25.499 -10.82)" fill="none" stroke="#6e00b3" stroke-linecap="round" stroke-linejoin="round" stroke-miterlimit="10" stroke-width="0.5"/><path d="M250.965,143.1l13.564,28.385L238.3,180.917" transform="translate(-24.065 -14.289)" fill="none" stroke="#6e00b3" stroke-linecap="round" stroke-linejoin="round" stroke-miterlimit="10" stroke-width="0.5"/><path d="M190.431,232.6l-10.15,28.834L165.1,247.96l6.378,34.763" transform="translate(-16.617 -23.395)" fill="none" stroke="#6e00b3" stroke-linecap="round" stroke-linejoin="round" stroke-miterlimit="10" stroke-width="0.5"/><path d="M118.062,279.778l-.359-32.7L88.419,243.4,76.382,220.313,48.446,234.685l6.018-13.833L25.9,206.3" transform="translate(-2.455 -20.719)" fill="none" stroke="#6e00b3" stroke-linecap="round" stroke-linejoin="round" stroke-miterlimit="10" stroke-width="0.5"/><path d="M40.732,163.539l-18.774-4.4,11.318-23.984L.669,140.185l21.918-21.738L.4,107.847,32.648,90.421,15.491,89.7,32.648,71.557,18.725,65" transform="translate(0.139 -6.343)" fill="none" stroke="#6e00b3" stroke-linecap="round" stroke-linejoin="round" stroke-miterlimit="10" stroke-width="0.5"/><path d="M180.092,128.418,199.135,111.8l14.193,19.133,5.479-8.444,22.636,9.522-10.51-9.522,11.049-21.109-11.049-9.432,11.049-9.522L230.933,66.078l11.049-9.791-16.259,8.533.269-12.216-26.948,6.2-5.03-13.474-7.725,10.51-5.12-13.474-13.564,9.252L144.7,34.1" transform="translate(-14.542 -3.2)" fill="none" stroke="#6e00b3" stroke-linecap="round" stroke-linejoin="round" stroke-miterlimit="10" stroke-width="0.5"/><path d="M142.4,245.291l13.654-7.9L169.8,224.9l18.325,6.917" transform="translate(-14.308 -22.611)" fill="none" stroke="#6e00b3" stroke-linecap="round" stroke-linejoin="round" stroke-miterlimit="10" stroke-width="0.5"/><path d="M156.054,236.816l1.527-17.516L142.4,244.721" transform="translate(-14.308 -22.042)" fill="none" stroke="#6e00b3" stroke-linecap="round" stroke-linejoin="round" stroke-miterlimit="10" stroke-width="0.5"/><path d="M157.815,216.411,144.7,206.8l35.751,2.066,4.4-17.965,6.378,11.677" transform="translate(-14.542 -19.152)" fill="none" stroke="#6e00b3" stroke-linecap="round" stroke-linejoin="round" stroke-miterlimit="10" stroke-width="0.5"/><path d="M144.7,206.219,167.965,185.2l16.887,5.12" transform="translate(-14.542 -18.572)" fill="none" stroke="#6e00b3" stroke-linecap="round" stroke-linejoin="round" stroke-miterlimit="10" stroke-width="0.5"/><line x1="32.876" y1="5.839" transform="translate(120.547 160.789)" fill="none" stroke="#6e00b3" stroke-linecap="round" stroke-linejoin="round" stroke-miterlimit="10" stroke-width="0.5"/><line x1="40.152" y2="15.899" transform="translate(130.158 171.748)" fill="none" stroke="#6e00b3" stroke-linecap="round" stroke-linejoin="round" stroke-miterlimit="10" stroke-width="0.5"/><path d="M209.393,184.944l12.127,2.425,2.335-31.17L200.5,172.818l8.893,12.127" transform="translate(-20.219 -15.622)" fill="none" stroke="#6e00b3" stroke-linecap="round" stroke-linejoin="round" stroke-miterlimit="10" stroke-width="0.5"/><path d="M226.5,156.2" transform="translate(-22.864 -15.622)" fill="none" stroke="#6e00b3" stroke-linecap="round" stroke-linejoin="round" stroke-miterlimit="10" stroke-width="0.5"/><path d="M210.4,188.2" transform="translate(-21.226 -18.878)" fill="none" stroke="#6e00b3" stroke-linecap="round" stroke-linejoin="round" stroke-miterlimit="10" stroke-width="0.5"/><path d="M209.611,163.443l7.725-21.828L184.1,139.1Z" transform="translate(-18.55 -13.882)" fill="none" stroke="#6e00b3" stroke-linecap="round" stroke-linejoin="round" stroke-miterlimit="10" stroke-width="0.5"/><path d="M181.882,139.1l14.731,31.978L162.3,155.718h0" transform="translate(-16.332 -13.882)" fill="none" stroke="#6e00b3" stroke-linecap="round" stroke-linejoin="round" stroke-miterlimit="10" stroke-width="0.5"/><path d="M162.3,157.6" transform="translate(-16.332 -15.764)" fill="none" stroke="#6e00b3" stroke-linecap="round" stroke-linejoin="round" stroke-miterlimit="10" stroke-width="0.5"/><line x2="34.314" y2="15.36" transform="translate(145.968 141.836)" fill="none" stroke="#6e00b3" stroke-linecap="round" stroke-linejoin="round" stroke-miterlimit="10" stroke-width="0.5"/><path d="M140.773,34.1l1.8,12.665-12.486,5.12L134.4,75.151,113.106,94.1,106.1,116.111l47.518-3.234" transform="translate(-10.615 -3.2)" fill="none" stroke="#6e00b3" stroke-linecap="round" stroke-linejoin="round" stroke-miterlimit="10" stroke-width="0.5"/><path d="M152.306,119.674,111.794,100.9,93.2,110.332" transform="translate(-9.302 -9.996)" fill="none" stroke="#6e00b3" stroke-linecap="round" stroke-linejoin="round" stroke-miterlimit="10" stroke-width="0.5"/><path d="M109.8,42l2.425,18.864,18.235-8.174L109.8,42" transform="translate(-10.991 -4.004)" fill="none" stroke="#6e00b3" stroke-linecap="round" stroke-linejoin="round" stroke-miterlimit="10" stroke-width="0.5"/><path d="M36.3,89.292l23.175,6.827L57.768,78.063,36.3,70.428l29.014-4.94L82.111,53.9l22.636,8.174,22.546,15.091-28.655-4.4L87.411,105.55,72.141,120.1,36.3,108.514" transform="translate(-3.513 -5.214)" fill="none" stroke="#6e00b3" stroke-linecap="round" stroke-linejoin="round" stroke-miterlimit="10" stroke-width="0.5"/><path d="M36.3,89.292,57.768,78.063l7.545-12.576,6.827,21.2L82.111,53.9,98.639,72.764l6.108-10.689" transform="translate(-3.513 -5.214)" fill="none" stroke="#6e00b3" stroke-linecap="round" stroke-linejoin="round" stroke-miterlimit="10" stroke-width="0.5"/><path d="M74.572,122.839,61.907,98.855l27.936,9.432L74.572,89.423,60.2,80.8" transform="translate(-5.945 -7.951)" fill="none" stroke="#6e00b3" stroke-linecap="round" stroke-linejoin="round" stroke-miterlimit="10" stroke-width="0.5"/><path d="M47.42,136.1,37,142.388l13.2,11.318-5.749,17.067,10.061-4.4,2.964,26.05L69.607,190.8l7.9,22.367,13.2-1.886,28.116,28.655,12.845-3.683,2.066,10.42,11.588-18.325,6.737,9.791" transform="translate(-3.585 -13.577)" fill="none" stroke="#6e00b3" stroke-linecap="round" stroke-linejoin="round" stroke-miterlimit="10" stroke-width="0.5"/><path d="M99,116.915,87.411,104.339l-2.425,18.325-12.845-3.773-24.792,7.635L36.3,107.3l23.175-12.4,12.665-9.432,26.5-13.923,7.366,23.355,27.666-7.186-6.378-11.767,8.174-28.385L102.322,42,82.111,52.689,63.607,50.8l1.707,13.474L43.576,58.348" transform="translate(-3.513 -4.004)" fill="none" stroke="#6e00b3" stroke-linecap="round" stroke-linejoin="round" stroke-miterlimit="10" stroke-width="0.5"/><path d="M159,121.8" transform="translate(-15.997 -12.122)" fill="none" stroke="#6e00b3" stroke-linecap="round" stroke-linejoin="round" stroke-miterlimit="10" stroke-width="0.5"/><path d="M164.225,240.33l7.006-22.277-12.216-5.03,22.636-7.545,7.9,19.492,2.874-25.78,12.486,13.654V185.087l-18.863,2.425,9.971-14.552-26.858,9.432L161.71,157.6l-5.21,22.816,5.21-22.816" transform="translate(-15.742 -15.764)" fill="none" stroke="#6e00b3" stroke-linecap="round" stroke-linejoin="round" stroke-miterlimit="10" stroke-width="0.5"/><path d="M230.352,251.438l5.39-28.385-12.127-5.03,22.636-7.635,8.084,17.067,2.6-23.355,12.486,8.264V190l-18.774,2.425,9.881-14.552-26.768,9.522L226.22,162.6l-5.12,22.726,5.12-22.726" transform="translate(-22.315 -16.273)" fill="none" stroke="#6e00b3" stroke-linecap="round" stroke-linejoin="round" stroke-miterlimit="10" stroke-width="0.5"/></g><g transform="translate(1.078 0.719)"><path d="M431.61,2098.5H339a17.773,17.773,0,0,0-12.4,5.12L261.12,2169.1a17.391,17.391,0,0,0-5.12,12.4v92.611a17.772,17.772,0,0,0,5.12,12.4L326.6,2351.99a17.393,17.393,0,0,0,12.4,5.12H431.61a17.773,17.773,0,0,0,12.4-5.12l65.483-65.483a17.391,17.391,0,0,0,5.12-12.4V2181.5a17.772,17.772,0,0,0-5.12-12.4l-65.483-65.483A17.773,17.773,0,0,0,431.61,2098.5Z" transform="translate(-256 -2098.5)" fill="none" stroke="#6e00b3" stroke-width="1.5"/><path d="M385.6,2300.17c29.014,0,35.93-26.589,35.93-26.589s18.145-52.818,17.875-52.818c-15.54-2.875-18.774,7.994-18.774,7.994s-5.929,15.45-6.917,15.45-1.078-1.168-1.078-1.168v-55.6s.27-7.186-7.1-7.186-7.006,7.186-7.006,7.186v41.051s.09,1.617-1.258,1.617c-1.258,0-1.168-1.617-1.168-1.617v-49.4s.449-8.084-7.006-8.084-7.006,8.174-7.006,8.174l-.09,48.865s.09,1.527-1.168,1.527c-1.168,0-1.078-1.527-1.078-1.527v-40.961s.449-8.354-7.186-8.354c-7.456,0-7.006,8.444-7.006,8.444l-.09,43.207a1.051,1.051,0,0,1-1.078,1.258,1.341,1.341,0,0,1-1.258-1.168v-.09l-.09-26.139s.09-7.186-6.2-7.186c-6.647,0-6.557,7.186-6.557,7.186v56.411C350.569,2260.647,348.773,2300.17,385.6,2300.17Z" transform="translate(-259.698 -2105.876)" fill-rule="evenodd" fill="url(#a)"/><path d="M394.338,2098.5H321.383a14,14,0,0,0-9.765,4.033l-51.585,51.584a13.7,13.7,0,0,0-4.033,9.766v72.955a14,14,0,0,0,4.033,9.765l51.585,51.585a13.7,13.7,0,0,0,9.765,4.033h72.955a14,14,0,0,0,9.765-4.033l51.585-51.585a13.7,13.7,0,0,0,4.033-9.765v-72.955a14,14,0,0,0-4.033-9.766L404.1,2102.534A14,14,0,0,0,394.338,2098.5Z" transform="translate(-228.556 -2071.057)" fill="none" stroke="#6e00b3" stroke-width="1.5"/></g></g></svg>