<svg xmlns="http://www.w3.org/2000/svg" xmlns:xlink="http://www.w3.org/1999/xlink" width="135.285" height="99.744" viewBox="0 0 135.285 99.744"><defs><style>.a{fill:url(#a);}.b,.w,.x{mix-blend-mode:multiply;}.b,.e,.g,.v,.w,.x{isolation:isolate;}.b{fill:url(#c);}.c{fill:url(#d);}.d{fill:url(#e);}.e,.g,.v{mix-blend-mode:color-dodge;}.e{fill:url(#f);}.f{fill:url(#g);}.g{fill:url(#h);}.h,.i,.j,.k,.l,.m,.n,.o,.p,.q,.r,.s{fill:#fff;}.h{opacity:0.05;}.i{opacity:0.073;}.j{opacity:0.095;}.k{opacity:0.118;}.l{opacity:0.141;}.m{opacity:0.164;}.n{opacity:0.186;}.o{opacity:0.209;}.p{opacity:0.232;}.q{opacity:0.255;}.r{opacity:0.277;}.s{opacity:0.3;}.t{fill:url(#i);}.u{fill:#2af6ff;}.v{fill:url(#j);}.w,.y{fill:#b086cc;}.z{opacity:0.5;fill:url(#k);}</style><linearGradient id="a" x1="1" y1="0.5" x2="0" y2="0.5" gradientUnits="objectBoundingBox"><stop offset="0" stop-color="#25054d"/><stop offset="1" stop-color="#45108a"/></linearGradient><radialGradient id="c" cx="0.039" cy="0.303" r="0.719" gradientTransform="matrix(-1.285, 0, 0, 1, -0.043, 0)" gradientUnits="objectBoundingBox"><stop offset="0" stop-color="#5c2db3"/><stop offset="0.098" stop-color="#764ebf"/><stop offset="0.269" stop-color="#9f83d2"/><stop offset="0.436" stop-color="#c1b0e2"/><stop offset="0.596" stop-color="#dcd2ee"/><stop offset="0.747" stop-color="#efebf7"/><stop offset="0.886" stop-color="#fbf9fd"/><stop offset="1" stop-color="#fff"/></radialGradient><radialGradient id="d" cx="0.576" cy="0.399" r="0.579" gradientTransform="matrix(-1, 0, 0, 1, 1.151, 0)" gradientUnits="objectBoundingBox"><stop offset="0" stop-color="#2af6ff"/><stop offset="1" stop-color="#138bbd"/></radialGradient><radialGradient id="e" cx="0.854" cy="0.389" r="0.766" gradientTransform="matrix(-1.251, 0, 0, 1, 2.011, 0)" gradientUnits="objectBoundingBox"><stop offset="0.01" stop-color="#fff"/><stop offset="0.162" stop-color="#e6d6f0"/><stop offset="0.285" stop-color="#d6bde6"/><stop offset="0.359" stop-color="#d1b4e3"/><stop offset="0.477" stop-color="#c3a4db"/><stop offset="0.706" stop-color="#a07bc9"/><stop offset="0.717" stop-color="#9f79c8"/><stop offset="0.811" stop-color="#a27bc8"/><stop offset="0.898" stop-color="#ad84cb"/><stop offset="0.909" stop-color="#b086cc"/><stop offset="0.957" stop-color="#ad83cb"/><stop offset="0.988" stop-color="#a47dc9"/><stop offset="1" stop-color="#9f79c8"/></radialGradient><radialGradient id="f" cx="0.576" cy="0.399" r="0.579" gradientTransform="matrix(-1, 0, 0, 1, 1.151, 0)" gradientUnits="objectBoundingBox"><stop offset="0" stop-color="#2af6ff"/><stop offset="0.015" stop-color="#28eef6"/><stop offset="0.132" stop-color="#1fb7bd"/><stop offset="0.252" stop-color="#16868b"/><stop offset="0.373" stop-color="#0f5d60"/><stop offset="0.494" stop-color="#0a3b3d"/><stop offset="0.617" stop-color="#052122"/><stop offset="0.741" stop-color="#020e0f"/><stop offset="0.867" stop-color="#000303"/><stop offset="1"/></radialGradient><radialGradient id="g" cx="0.731" cy="0.41" r="0.783" gradientTransform="matrix(-1.118, 0, 0, 1, 1.577, 0)" xlink:href="#e"/><radialGradient id="h" cx="0.576" cy="0.399" r="0.579" gradientTransform="matrix(-1, 0, 0, 1, 1.151, 0)" gradientUnits="objectBoundingBox"><stop offset="0" stop-color="#972a74"/><stop offset="0.041" stop-color="#8a266a"/><stop offset="0.194" stop-color="#601a49"/><stop offset="0.35" stop-color="#3d112f"/><stop offset="0.507" stop-color="#22091a"/><stop offset="0.667" stop-color="#0f040b"/><stop offset="0.829" stop-color="#030102"/><stop offset="1"/></radialGradient><linearGradient id="i" x1="6.09" y1="0.808" x2="5.423" y2="-0.087" xlink:href="#a"/><radialGradient id="j" cx="0.5" cy="0.5" r="0.5" gradientTransform="matrix(-1, 0, 0, 1, 1, 0)" gradientUnits="objectBoundingBox"><stop offset="0" stop-color="#43e8e1"/><stop offset="0.137" stop-color="#34b5af"/><stop offset="0.303" stop-color="#247e7a"/><stop offset="0.465" stop-color="#17514e"/><stop offset="0.619" stop-color="#0d2d2c"/><stop offset="0.764" stop-color="#051413"/><stop offset="0.895" stop-color="#010505"/><stop offset="1"/></radialGradient><linearGradient id="k" x1="0.059" y1="0.264" x2="0.637" y2="0.842" gradientUnits="objectBoundingBox"><stop offset="0" stop-color="#2af6ff"/><stop offset="1" stop-color="#fff"/></linearGradient></defs><g transform="translate(0 0)"><path class="a" d="M367.318,270.643c0-17.161,12.123-38.07,27.077-46.7,6.948-4.011,13.281-4.662,18.075-2.5.807.438,1.593.908,2.365,1.4,4.131,3.069,6.636,8.739,6.636,16.533,0,17.159-12.121,38.07-27.077,46.7-6.946,4.011-13.279,4.662-18.073,2.494-.809-.436-1.595-.906-2.367-1.4C369.825,284.107,367.318,278.435,367.318,270.643Z" transform="translate(-356.278 -216.893)"/><path class="a" d="M367.318,270.643c0-17.161,12.123-38.07,27.077-46.7,6.948-4.011,13.281-4.662,18.075-2.5.807.438,1.593.908,2.365,1.4,4.131,3.069,6.636,8.739,6.636,16.533,0,17.159-12.121,38.07-27.077,46.7-6.946,4.011-13.279,4.662-18.073,2.494-.809-.436-1.595-.906-2.367-1.4C369.825,284.107,367.318,278.435,367.318,270.643Z" transform="translate(-356.278 -216.893)"/><path class="b" d="M367.318,270.643c0-17.161,12.123-38.07,27.077-46.7,6.948-4.011,13.281-4.662,18.075-2.5.807.438,1.593.908,2.365,1.4,4.131,3.069,6.636,8.739,6.636,16.533,0,17.159-12.121,38.07-27.077,46.7-6.946,4.011-13.279,4.662-18.073,2.494-.809-.436-1.595-.906-2.367-1.4C369.825,284.107,367.318,278.435,367.318,270.643Z" transform="translate(-356.278 -216.893)"/><ellipse class="c" cx="32.412" cy="32.411" rx="32.412" ry="32.411" transform="translate(9.035 7.96)"/><path class="d" d="M410.063,225.558c-14.953,8.634-27.077,29.543-27.077,46.7,0,7.792,2.507,13.463,6.636,16.533a38.118,38.118,0,0,1,38.516-65.732C423.344,220.9,417.011,221.547,410.063,225.558Z" transform="translate(-371.946 -218.511)"/><ellipse class="e" cx="37.068" cy="37.067" rx="37.068" ry="37.067" transform="translate(2.838 2.778)"/><path class="f" d="M384.4,226.1c6.946-4.011,13.281-4.662,18.073-2.5.809.438,1.595.908,2.367,1.4a38.116,38.116,0,0,1-38.514,65.73c-.809-.436-1.595-.906-2.367-1.4-4.131-3.069-6.638-8.739-6.638-16.533C357.321,255.642,369.444,234.733,384.4,226.1Z" transform="translate(-337.878 -214.851)"/><ellipse class="g" cx="24.148" cy="24.148" rx="24.148" ry="24.148" transform="translate(33.793 13.374)"/><g transform="translate(46.079 29.269)"><ellipse class="h" cx="12.717" cy="22.028" rx="12.717" ry="22.028" transform="matrix(-0.863, -0.505, 0.505, -0.863, 21.958, 50.87)"/><ellipse class="i" cx="12.383" cy="21.449" rx="12.383" ry="21.449" transform="translate(22.061 50.215) rotate(-149.689)"/><ellipse class="j" cx="12.049" cy="20.87" rx="12.049" ry="20.87" transform="translate(22.164 49.56) rotate(-149.689)"/><ellipse class="k" cx="11.715" cy="20.291" rx="11.715" ry="20.291" transform="matrix(-0.863, -0.505, 0.505, -0.863, 22.267, 48.905)"/><ellipse class="l" cx="11.381" cy="19.713" rx="11.381" ry="19.713" transform="translate(22.37 48.25) rotate(-149.689)"/><ellipse class="m" cx="11.047" cy="19.134" rx="11.047" ry="19.134" transform="translate(22.473 47.595) rotate(-149.689)"/><ellipse class="n" cx="10.712" cy="18.555" rx="10.712" ry="18.555" transform="matrix(-0.863, -0.505, 0.505, -0.863, 22.577, 46.94)"/><ellipse class="o" cx="10.378" cy="17.976" rx="10.378" ry="17.976" transform="matrix(-0.863, -0.505, 0.505, -0.863, 22.68, 46.285)"/><ellipse class="p" cx="10.044" cy="17.397" rx="10.044" ry="17.397" transform="matrix(-0.863, -0.505, 0.505, -0.863, 22.783, 45.63)"/><ellipse class="q" cx="9.71" cy="16.819" rx="9.71" ry="16.819" transform="matrix(-0.863, -0.505, 0.505, -0.863, 22.886, 44.975)"/><ellipse class="r" cx="9.376" cy="16.24" rx="9.376" ry="16.24" transform="translate(22.989 44.32) rotate(-149.689)"/><path class="s" d="M359.511,260.06c0,7.039,4.974,9.875,11.108,6.333s11.108-12.121,11.108-19.16-4.974-9.875-11.108-6.333S359.511,253.019,359.511,260.06Z" transform="translate(-347.428 -228.064)"/></g><path class="t" d="M359.511,260.06c0,7.039,4.974,9.875,11.108,6.333s11.108-12.121,11.108-19.16-4.974-9.875-11.108-6.333S359.511,253.019,359.511,260.06Z" transform="translate(-301.349 -198.795)"/><path class="u" d="M364.052,249.644c0,1.465,1.035,2.056,2.313,1.319a5.1,5.1,0,0,0,2.313-3.991c0-1.465-1.035-2.056-2.313-1.319A5.1,5.1,0,0,0,364.052,249.644Z" transform="translate(-297.131 -193.161)"/><ellipse class="v" cx="8.69" cy="8.69" rx="8.69" ry="8.69" transform="translate(60.544 46.457)"/><path class="w" d="M373.685,238.11a15.223,15.223,0,0,1,7.545-2.3c4.343,0,7.535,2.655,8.864,7.062.023.531.052,1.062.052,1.6a38.1,38.1,0,0,1-19.637,33.338,12.575,12.575,0,0,1-3.639.57c-5.8,0-9.548-4.73-9.548-12.049C357.321,255.981,364.661,243.319,373.685,238.11Zm-6.815,38.811a13.819,13.819,0,0,0,6.815-2.1c8.618-4.975,15.63-17.07,15.63-26.958,0-6.531-3.1-10.587-8.086-10.587a13.808,13.808,0,0,0-6.815,2.1c-8.62,4.975-15.632,17.07-15.632,26.958C358.782,272.866,361.88,276.921,366.869,276.921Z" transform="translate(-305.507 -202.158)"/><g class="x" transform="translate(0 12.374)"><path class="y" d="M386.243,226.388q.639-.776,1.321-1.515a92.416,92.416,0,0,1,18.373,2.394c-.4.414-.807.825-1.2,1.253A91.951,91.951,0,0,0,386.243,226.388Z" transform="translate(-377.553 -224.873)"/><path class="y" d="M395,236.991a93.346,93.346,0,0,0,11.411,12.137c-.084.6-.161,1.192-.22,1.786a93.707,93.707,0,0,1-11.25-11.536c0-.072-.008-.142-.008-.214C394.935,238.434,394.96,237.711,395,236.991Z" transform="translate(-394.935 -213.421)"/></g><path class="w" d="M393.978,249.7c-8.972-11.954-23.9-19.829-26.174-20.987.362-.366.722-.735,1.091-1.087,3.448,1.766,17.478,9.42,26.209,21.067C394.725,249.016,394.346,249.347,393.978,249.7Z" transform="translate(-330.856 -209.9)"/><path class="w" d="M359.2,230.5c.617,1.072,1.179,2.178,1.692,3.31a57.166,57.166,0,0,1-.407,8.607,8.274,8.274,0,0,0-1.432-.807A61.072,61.072,0,0,0,359.2,230.5Z" transform="translate(-279.644 -207.18)"/><path class="w" d="M379.523,257.042a8.352,8.352,0,0,0,1.5.724c-1.181.879-3.5,2.53-6.615,4.439-1.14.15-2.3.233-3.47.28A96.456,96.456,0,0,0,379.523,257.042Z" transform="translate(-322.876 -182.098)"/><path class="w" d="M374.26,245.995c.877.424,16.735,7.986,32.276,7.831-.06.506-.109,1.006-.138,1.5-.163,0-.325.01-.486.01-14.491,0-28.824-6.389-31.817-7.8C374.134,247.026,374.2,246.51,374.26,245.995Z" transform="translate(-354.524 -192.538)"/></g><path class="z" d="M405.892,250.481l-48.92-10.4s-14.1-4.24-19.723,11.507,2.276,23.776,2.276,23.776L370.131,285.5Z" transform="translate(-200.596 -275.466) rotate(14)"/></svg>