<svg xmlns="http://www.w3.org/2000/svg" xmlns:xlink="http://www.w3.org/1999/xlink" width="135.196" height="78.29" viewBox="0 0 135.196 78.29"><defs><style>.a{fill:#fff;stroke:#707070;}.b{clip-path:url(#a);}.c{fill:url(#b);}.ae,.aj,.ap,.bj,.d,.m,.w{mix-blend-mode:multiply;}.ac,.ad,.ae,.af,.aj,.ak,.al,.ao,.ap,.aq,.ar,.au,.av,.ax,.ba,.bb,.bc,.bg,.bi,.bj,.bk,.bl,.bn,.d,.j,.l,.m,.n,.q,.t,.v,.w,.x,.z{isolation:isolate;}.e{fill:url(#c);}.f{fill:url(#d);}.g{fill:url(#e);}.h{fill:#fdd65b;}.i{fill:url(#f);}.ac,.ad,.ao,.au,.bg,.bi,.j,.l,.t,.v{mix-blend-mode:screen;}.j{fill:url(#g);}.k{fill:url(#h);}.l{fill:url(#i);}.m{fill:url(#j);}.af,.ak,.al,.aq,.ar,.av,.ax,.ba,.bb,.bc,.bk,.bl,.bn,.n,.q,.x,.z{mix-blend-mode:color-dodge;}.n{fill:url(#k);}.o{fill:url(#l);}.p{fill:url(#m);}.q{fill:url(#n);}.r{fill:url(#p);}.s{fill:url(#r);}.t{fill:url(#t);}.u{fill:url(#u);}.v{fill:url(#v);}.w{fill:url(#w);}.x{fill:url(#x);}.y{fill:url(#z);}.z{fill:url(#aa);}.aa{fill:url(#ac);}.ab{fill:url(#ae);}.ac{fill:url(#ag);}.ad{fill:url(#ai);}.ae{fill:url(#aj);}.af{fill:url(#ak);}.ag{fill:url(#am);}.ah{fill:url(#ap);}.ai{fill:url(#ar);}.aj{fill:url(#aw);}.ak{fill:url(#ax);}.al{fill:url(#ay);}.am{fill:url(#bd);}.an{fill:url(#bf);}.ao{fill:url(#bj);}.ap{fill:url(#bk);}.aq{fill:url(#bl);}.ar{fill:url(#bo);}.as{fill:url(#bq);}.at{fill:url(#bs);}.au{fill:url(#bw);}.av{fill:url(#by);}.aw{fill:url(#ca);}.ax{fill:url(#cb);}.ay{fill:url(#cd);}.az{fill:url(#cf);}.ba{fill:url(#cl);}.bb{fill:url(#cm);}.bc{fill:url(#cp);}.bd{fill:url(#df);}.be{fill:url(#dh);}.bf{fill:url(#di);}.bg{fill:url(#dj);}.bh{fill:url(#dk);}.bi{fill:url(#dl);}.bj{fill:url(#dm);}.bk{fill:url(#dn);}.bl{fill:url(#do);}.bm{fill:url(#dq);}.bn{fill:url(#dr);}</style><clipPath id="a"><rect class="a" width="87" height="55" transform="translate(-0.371)"/></clipPath><linearGradient id="b" x1="0.005" y1="0.5" x2="0.989" y2="0.5" gradientUnits="objectBoundingBox"><stop offset="0" stop-color="#ffbb96"/><stop offset="0.227" stop-color="#fffbc9"/><stop offset="0.54" stop-color="#f9b673"/><stop offset="0.639" stop-color="#f9b876"/><stop offset="0.725" stop-color="#fabe81"/><stop offset="0.806" stop-color="#fcc892"/><stop offset="0.859" stop-color="#fed2a3"/><stop offset="0.97" stop-color="#ffc28c"/></linearGradient><linearGradient id="c" x1="-0.099" y1="0.504" x2="1.058" y2="0.504" xlink:href="#b"/><linearGradient id="d" x1="0.005" y1="0.5" x2="0.989" y2="0.5" xlink:href="#b"/><linearGradient id="e" x1="0.006" y1="0.504" x2="1.111" y2="0.504" xlink:href="#b"/><linearGradient id="f" x1="1.424" y1="-1.097" x2="0.446" y2="0.594" gradientUnits="objectBoundingBox"><stop offset="0.035" stop-color="#ffba78"/><stop offset="0.395" stop-color="#fec986"/><stop offset="1" stop-color="#feeca8"/></linearGradient><radialGradient id="g" cx="0.285" cy="0.703" r="2.086" gradientTransform="translate(0.349) scale(0.301 1)" gradientUnits="objectBoundingBox"><stop offset="0" stop-color="#fff"/><stop offset="1"/></radialGradient><linearGradient id="h" x1="1.037" y1="-0.429" x2="0.059" y2="1.261" xlink:href="#f"/><radialGradient id="i" cx="0.719" cy="-0.037" r="1.205" gradientTransform="translate(0.347) scale(0.307 1)" xlink:href="#g"/><linearGradient id="j" x1="1.217" y1="-1.509" x2="0.295" y2="1.519" xlink:href="#b"/><radialGradient id="k" cx="0.5" cy="0.5" r="0.435" gradientTransform="matrix(0.191, -0.947, 1.132, 0.65, 2661.387, 743.327)" gradientUnits="objectBoundingBox"><stop offset="0" stop-color="#f49587"/><stop offset="0.116" stop-color="#bc7368"/><stop offset="0.236" stop-color="#8b544c"/><stop offset="0.359" stop-color="#603a35"/><stop offset="0.483" stop-color="#3d2522"/><stop offset="0.609" stop-color="#221513"/><stop offset="0.735" stop-color="#0f0908"/><stop offset="0.864" stop-color="#030202"/><stop offset="1"/></radialGradient><linearGradient id="l" x1="0" y1="0.5" x2="1" y2="0.5" xlink:href="#b"/><linearGradient id="m" x1="1.48" y1="-0.322" x2="0.627" y2="0.385" xlink:href="#f"/><radialGradient id="n" cx="-0.184" cy="0.6" r="1.361" gradientTransform="translate(0.171) scale(0.658 1)" xlink:href="#k"/><linearGradient id="p" x1="-0.099" y1="0.497" x2="1.058" y2="0.497" xlink:href="#b"/><linearGradient id="r" x1="0.006" y1="0.497" x2="1.111" y2="0.497" xlink:href="#b"/><radialGradient id="t" cx="0.285" cy="0.703" r="2.086" xlink:href="#g"/><linearGradient id="u" x1="1.037" y1="-0.429" x2="0.059" y2="1.261" xlink:href="#f"/><radialGradient id="v" cx="0.719" cy="-0.036" r="1.206" gradientTransform="translate(0.347) scale(0.307 1)" xlink:href="#g"/><linearGradient id="w" x1="1.217" y1="-1.509" x2="0.295" y2="1.519" xlink:href="#b"/><radialGradient id="x" cx="0.5" cy="0.5" r="0.435" gradientTransform="matrix(0.191, -0.947, 1.132, 0.65, 2663.402, 745.565)" xlink:href="#k"/><linearGradient id="z" x1="1.48" y1="-0.322" x2="0.627" y2="0.385" xlink:href="#f"/><radialGradient id="aa" cx="-0.184" cy="0.6" r="1.361" gradientTransform="translate(0.171) scale(0.658 1)" xlink:href="#k"/><linearGradient id="ac" x1="-0.099" y1="0.5" x2="1.058" y2="0.5" xlink:href="#b"/><linearGradient id="ae" x1="0.006" y1="0.5" x2="1.111" y2="0.5" xlink:href="#b"/><radialGradient id="ag" cx="0.285" cy="0.703" r="2.086" xlink:href="#g"/><radialGradient id="ai" cx="0.719" cy="-0.036" r="1.205" gradientTransform="translate(0.347) scale(0.307 1)" xlink:href="#g"/><linearGradient id="aj" x1="1.217" y1="-1.509" x2="0.295" y2="1.519" xlink:href="#b"/><radialGradient id="ak" cx="0.5" cy="0.5" r="0.435" gradientTransform="matrix(0.191, -0.947, 1.132, 0.65, 2665.504, 747.962)" xlink:href="#k"/><linearGradient id="am" x1="1.48" y1="-0.322" x2="0.627" y2="0.385" xlink:href="#f"/><linearGradient id="ap" x1="-0.099" y1="0.497" x2="1.058" y2="0.497" xlink:href="#b"/><linearGradient id="ar" x1="0.006" y1="0.497" x2="1.111" y2="0.497" xlink:href="#b"/><linearGradient id="aw" x1="1.217" y1="-1.509" x2="0.295" y2="1.519" xlink:href="#b"/><radialGradient id="ax" cx="0.5" cy="0.5" r="0.836" gradientTransform="matrix(0.598, 0, 0, 0.598, 179.261, -431.504)" xlink:href="#k"/><radialGradient id="ay" cx="0.5" cy="0.5" r="0.435" gradientTransform="matrix(0.191, -0.947, 1.132, 0.65, 2667.628, 750.415)" xlink:href="#k"/><linearGradient id="bd" x1="0.005" y1="0.501" x2="0.947" y2="0.501" xlink:href="#b"/><linearGradient id="bf" x1="0.084" y1="0.501" x2="0.991" y2="0.501" xlink:href="#b"/><radialGradient id="bj" cx="0.719" cy="-0.036" r="1.206" gradientTransform="translate(0.347) scale(0.307 1)" xlink:href="#g"/><linearGradient id="bk" x1="1.218" y1="-1.509" x2="0.295" y2="1.519" xlink:href="#b"/><radialGradient id="bl" cx="0.5" cy="0.5" r="0.435" gradientTransform="matrix(0.191, -0.947, 1.132, 0.65, 2649.096, 745.989)" xlink:href="#k"/><radialGradient id="bo" cx="-0.184" cy="0.6" r="1.361" gradientTransform="translate(0.171) scale(0.658 1)" xlink:href="#k"/><linearGradient id="bq" x1="0.005" y1="0.499" x2="0.947" y2="0.499" xlink:href="#b"/><linearGradient id="bs" x1="0.084" y1="0.499" x2="0.991" y2="0.499" xlink:href="#b"/><radialGradient id="bw" cx="0.719" cy="-0.036" r="1.206" gradientTransform="translate(0.347) scale(0.307 1)" xlink:href="#g"/><radialGradient id="by" cx="0.5" cy="0.5" r="0.435" gradientTransform="matrix(0.191, -0.947, 1.132, 0.65, 2651.111, 748.23)" xlink:href="#k"/><linearGradient id="ca" x1="1.48" y1="-0.322" x2="0.627" y2="0.385" xlink:href="#f"/><radialGradient id="cb" cx="-0.184" cy="0.6" r="1.361" gradientTransform="translate(0.171) scale(0.658 1)" xlink:href="#k"/><linearGradient id="cd" x1="-0.097" y1="0.497" x2="1.06" y2="0.497" xlink:href="#b"/><linearGradient id="cf" x1="0.008" y1="0.497" x2="1.113" y2="0.497" xlink:href="#b"/><radialGradient id="cl" cx="0.5" cy="0.5" r="0.435" gradientTransform="matrix(0.191, -0.947, 1.132, 0.65, 2655.554, 727.269)" xlink:href="#k"/><radialGradient id="cm" cx="0.5" cy="0.5" r="0.435" gradientTransform="matrix(0.191, -0.947, 1.132, 0.65, 2655.051, 737.013)" xlink:href="#k"/><radialGradient id="cp" cx="-0.184" cy="0.6" r="1.361" gradientTransform="translate(0.171) scale(0.658 1)" xlink:href="#k"/><linearGradient id="df" x1="-0.099" y1="0.503" x2="1.058" y2="0.503" xlink:href="#b"/><linearGradient id="dh" x1="0.006" y1="0.503" x2="1.111" y2="0.503" xlink:href="#b"/><linearGradient id="di" x1="1.424" y1="2.097" x2="0.446" y2="0.406" xlink:href="#f"/><radialGradient id="dj" cx="0.285" cy="0.297" r="2.086" gradientTransform="matrix(0.301, 0, 0, -1, 0.349, 0.594)" xlink:href="#g"/><linearGradient id="dk" x1="1.037" y1="1.429" x2="0.059" y2="-0.261" xlink:href="#f"/><radialGradient id="dl" cx="0.719" cy="1.036" r="1.205" gradientTransform="matrix(0.307, 0, 0, -1, 0.347, 2.073)" xlink:href="#g"/><linearGradient id="dm" x1="1.217" y1="2.509" x2="0.295" y2="-0.519" xlink:href="#b"/><radialGradient id="dn" cx="0.5" cy="0.5" r="0.836" gradientTransform="matrix(0.598, 0, 0, -0.598, 179.261, 432.504)" xlink:href="#k"/><radialGradient id="do" cx="0.5" cy="0.5" r="0.435" gradientTransform="matrix(0.191, 0.947, 1.132, -0.65, 2667.628, -749.415)" xlink:href="#k"/><linearGradient id="dq" x1="1.48" y1="1.322" x2="0.627" y2="0.615" xlink:href="#f"/><radialGradient id="dr" cx="-0.184" cy="0.4" r="1.361" gradientTransform="matrix(0.658, 0, 0, -1, 0.171, 0.8)" xlink:href="#k"/></defs><g transform="translate(-0.43)"><g class="b" transform="translate(48.997)"><g transform="translate(-0.426)"><g transform="translate(2.721 23.369)"><path class="c" d="M492.4,327.106H444.961V333.8h.009c0,.064-.009.127-.009.191,0,7.628,10.62,13.812,23.719,13.812s23.719-6.185,23.719-13.812c0-.064-.007-.127-.009-.191h.009Z" transform="translate(-444.961 -312.877)"/><g class="d" transform="translate(0.002 19.634)"><path class="e" d="M444.962,330.392v.191c0-.064.005-.125.007-.191Z" transform="translate(-444.962 -329.993)"/><path class="f" d="M468.679,343.977c-13.1,0-23.717-6.183-23.717-13.811v1.286h.007c0,.065-.007.127-.007.191,0,7.628,10.619,13.812,23.717,13.812s23.717-6.185,23.717-13.812c0-.064-.005-.125-.007-.191h.007v-1.286C492.4,337.794,481.778,343.977,468.679,343.977Z" transform="translate(-444.962 -330.166)"/><path class="g" d="M471.817,330.583v-.191h-.007C471.812,330.457,471.817,330.519,471.817,330.583Z" transform="translate(-424.382 -329.993)"/></g><g class="d" transform="translate(1.187 16.578)"><path class="h" d="M462.5,346.115c.224-.042.442-.1.664-.141V328.436H462.5Z" transform="translate(-432.703 -328.436)"/><path class="h" d="M464.187,345.412c.223-.064.449-.122.666-.187V328.436h-.666Z" transform="translate(-431.411 -328.436)"/><path class="h" d="M465.874,344.436c.23-.09.442-.193.666-.286V328.436h-.666Z" transform="translate(-430.118 -328.436)"/><path class="h" d="M460.814,346.545c.221-.023.445-.042.664-.071V328.436h-.664Z" transform="translate(-433.996 -328.436)"/><path class="h" d="M469.248,341.068c.226-.182.452-.362.664-.551V328.436h-.664Z" transform="translate(-427.531 -328.436)"/><path class="h" d="M470.934,337.853a10.42,10.42,0,0,0,.666-1.177v-8.241h-.666Z" transform="translate(-426.239 -328.436)"/><path class="h" d="M467.561,343.036c.221-.122.45-.237.664-.364V328.436h-.664Z" transform="translate(-428.825 -328.436)"/><path class="h" d="M459.127,346.743c.223-.007.445-.009.666-.02V328.436h-.666Z" transform="translate(-435.29 -328.436)"/><path class="h" d="M457.44,346.732c.221.009.443.014.666.02V328.436h-.666Z" transform="translate(-436.583 -328.436)"/><path class="h" d="M454.067,346.036c.223.044.44.1.664.138V328.436h-.664Z" transform="translate(-439.168 -328.436)"/><path class="h" d="M455.754,346.511c.217.027.443.039.664.06V328.436h-.664Z" transform="translate(-437.875 -328.436)"/><path class="h" d="M452.38,345.308c.221.064.442.127.666.187V328.436h-.666Z" transform="translate(-440.461 -328.436)"/><path class="h" d="M445.633,337.269a10.883,10.883,0,0,0,.666,1.058v-9.891h-.666Z" transform="translate(-445.633 -328.436)"/><path class="h" d="M447.32,340.782c.21.177.442.346.664.518V328.436h-.664Z" transform="translate(-444.34 -328.436)"/><path class="h" d="M450.694,344.278c.219.09.44.177.664.261v-16.1h-.664Z" transform="translate(-441.754 -328.436)"/><path class="h" d="M449.007,342.842c.214.122.443.235.664.352V328.436h-.664Z" transform="translate(-443.047 -328.436)"/></g><ellipse class="i" cx="23.718" cy="13.812" rx="23.718" ry="13.812" transform="translate(0.001 0.512)"/><path class="j" d="M468.679,340.555c-12.821,0-23.239-5.928-23.677-13.332-.009.161-.04.318-.04.481,0,7.628,10.619,13.811,23.717,13.811S492.4,335.331,492.4,327.7c0-.163-.034-.32-.042-.481C491.918,334.626,481.5,340.555,468.679,340.555Z" transform="translate(-444.96 -312.788)"/><path class="k" d="M483.812,331.64c0,5.7-7.939,10.325-17.731,10.325s-17.731-4.623-17.731-10.325,7.939-10.325,17.731-10.325S483.812,325.938,483.812,331.64Z" transform="translate(-442.362 -317.316)"/><path class="l" d="M466.417,322.089c9.47,0,17.185,4.328,17.681,9.771.018-.184.048-.367.048-.555,0-5.7-7.937-10.324-17.729-10.324S448.686,325.6,448.686,331.3c0,.187.03.371.048.555C449.232,326.417,456.944,322.089,466.417,322.089Z" transform="translate(-442.106 -317.572)"/><path class="m" d="M466.082,322.424c9.47,0,17.185,4.326,17.683,9.771.016-.185.048-.367.048-.555,0-5.7-7.939-10.325-17.731-10.325s-17.731,4.623-17.731,10.325c0,.187.032.369.049.555C448.9,326.751,456.611,322.424,466.082,322.424Z" transform="translate(-442.362 -317.316)"/><path class="n" d="M470.393,320.072c5.328,1.814,8.921,5.425,8.022,8.064s-5.946,3.309-11.276,1.495-8.923-5.425-8.024-8.064S465.064,318.258,470.393,320.072Z" transform="translate(-434.217 -319.051)"/><g class="d" transform="translate(14.863 8.645)"><path class="o" d="M463.6,326.381q-.66.127-1.367.315-.612.154-1.311.381c-.465.154-.91.322-1.336.507l1.426.821c.141-.057.3-.113.465-.168s.344-.117.523-.182q1.211-.427,2.284-.715a12.678,12.678,0,0,1,2.017-.389,6.667,6.667,0,0,1,1.8.049,4.987,4.987,0,0,1,1.643.6,2.592,2.592,0,0,1,1.184,1.155,1.618,1.618,0,0,1,0,1.242,3.626,3.626,0,0,1-.89,1.245,9.851,9.851,0,0,1-1.512,1.175l1.917,1.106-1.593.919-1.947-1.124a26.56,26.56,0,0,1-3.157,1.328,25.675,25.675,0,0,1-3.268.919l-1.033-2.53q.806-.154,1.66-.375c.482-.118,1.019-.274,1.609-.461a14.559,14.559,0,0,0,1.68-.652l-1.392-.8q-.745.283-1.537.539-1.187.395-2.159.617a10.073,10.073,0,0,1-1.779.26,5.631,5.631,0,0,1-1.495-.115,4.593,4.593,0,0,1-1.3-.51,2.809,2.809,0,0,1-1.153-1.079,1.748,1.748,0,0,1-.156-1.217,3.011,3.011,0,0,1,.684-1.272,6.88,6.88,0,0,1,1.4-1.228l-1.6-.924,1.593-.92,1.615.933q.721-.342,1.465-.625t1.479-.516q.731-.231,1.413-.413c.452-.122.871-.231,1.256-.332Zm-5.354,2.544a1,1,0,0,0,.588.108,4.35,4.35,0,0,0,.873-.184l-1.2-.7Q457.788,328.659,458.246,328.925Zm7.616,1.27a1.025,1.025,0,0,0-.625-.087,5.222,5.222,0,0,0-.931.2l1.171.677A1.348,1.348,0,0,0,466,330.5.232.232,0,0,0,465.861,330.2Z" transform="translate(-453.375 -323.945)"/></g><g transform="translate(14.863 8.053)"><path class="p" d="M463.6,326.048q-.66.125-1.367.315-.612.151-1.311.382c-.465.152-.91.322-1.336.505l1.426.823c.141-.056.3-.113.465-.17s.344-.115.523-.18q1.211-.427,2.284-.717a12.889,12.889,0,0,1,2.017-.387,6.534,6.534,0,0,1,1.8.049,4.948,4.948,0,0,1,1.643.6,2.59,2.59,0,0,1,1.184,1.154,1.623,1.623,0,0,1,0,1.244,3.641,3.641,0,0,1-.89,1.245,9.842,9.842,0,0,1-1.512,1.173l1.917,1.106-1.593.92-1.947-1.125a26.26,26.26,0,0,1-3.157,1.328,25.66,25.66,0,0,1-3.268.919l-1.033-2.528q.806-.156,1.66-.375c.482-.12,1.019-.276,1.609-.463a14.56,14.56,0,0,0,1.68-.65L463,330.415q-.745.284-1.537.541c-.791.261-1.512.468-2.159.615a10.085,10.085,0,0,1-1.779.26,5.558,5.558,0,0,1-1.495-.115,4.59,4.59,0,0,1-1.3-.511,2.8,2.8,0,0,1-1.153-1.079,1.748,1.748,0,0,1-.156-1.217,3.012,3.012,0,0,1,.684-1.272,6.937,6.937,0,0,1,1.4-1.228l-1.6-.922,1.593-.92,1.615.933q.721-.344,1.465-.627t1.479-.514q.731-.233,1.413-.415t1.256-.332Zm-5.354,2.542a.99.99,0,0,0,.588.11,4.5,4.5,0,0,0,.873-.186l-1.2-.694Q457.788,328.326,458.246,328.59Zm7.616,1.27a1.053,1.053,0,0,0-.625-.087,5.229,5.229,0,0,0-.931.2l1.171.677a1.348,1.348,0,0,0,.519-.482A.234.234,0,0,0,465.861,329.86Z" transform="translate(-453.375 -323.61)"/></g><path class="q" d="M463.6,326.048q-.66.125-1.367.315-.612.151-1.311.382c-.465.152-.91.322-1.336.505l1.426.823c.141-.056.3-.113.465-.17s.344-.115.523-.18q1.211-.427,2.284-.717a12.889,12.889,0,0,1,2.017-.387,6.534,6.534,0,0,1,1.8.049,4.948,4.948,0,0,1,1.643.6,2.59,2.59,0,0,1,1.184,1.154,1.623,1.623,0,0,1,0,1.244,3.641,3.641,0,0,1-.89,1.245,9.842,9.842,0,0,1-1.512,1.173l1.917,1.106-1.593.92-1.947-1.125a26.26,26.26,0,0,1-3.157,1.328,25.66,25.66,0,0,1-3.268.919l-1.033-2.528q.806-.156,1.66-.375c.482-.12,1.019-.276,1.609-.463a14.56,14.56,0,0,0,1.68-.65L463,330.415q-.745.284-1.537.541c-.791.261-1.512.468-2.159.615a10.085,10.085,0,0,1-1.779.26,5.558,5.558,0,0,1-1.495-.115,4.59,4.59,0,0,1-1.3-.511,2.8,2.8,0,0,1-1.153-1.079,1.748,1.748,0,0,1-.156-1.217,3.012,3.012,0,0,1,.684-1.272,6.937,6.937,0,0,1,1.4-1.228l-1.6-.922,1.593-.92,1.615.933q.721-.344,1.465-.627t1.479-.514q.731-.233,1.413-.415t1.256-.332Zm-5.354,2.542a.99.99,0,0,0,.588.11,4.5,4.5,0,0,0,.873-.186l-1.2-.694Q457.788,328.326,458.246,328.59Zm7.616,1.27a1.053,1.053,0,0,0-.625-.087,5.229,5.229,0,0,0-.931.2l1.171.677a1.348,1.348,0,0,0,.519-.482A.234.234,0,0,0,465.861,329.86Z" transform="translate(-438.512 -315.557)"/></g><g transform="translate(2.721 15.884)"><path class="c" d="M492.4,322.868H444.961v6.693h.009c0,.064-.009.125-.009.189,0,7.63,10.62,13.813,23.719,13.813S492.4,337.38,492.4,329.75c0-.064-.007-.125-.009-.189h.009Z" transform="translate(-444.961 -308.64)"/><g class="d" transform="translate(0.002 19.634)"><path class="r" d="M444.962,326.155v.191c0-.064.005-.127.007-.191Z" transform="translate(-444.962 -325.754)"/><path class="f" d="M468.679,339.74c-13.1,0-23.717-6.185-23.717-13.812v1.288h.007c0,.064-.007.125-.007.189,0,7.63,10.619,13.813,23.717,13.813S492.4,335.034,492.4,327.4c0-.064-.005-.125-.007-.189h.007v-1.288C492.4,333.556,481.778,339.74,468.679,339.74Z" transform="translate(-444.962 -325.928)"/><path class="s" d="M471.817,326.346v-.191h-.007C471.812,326.219,471.817,326.282,471.817,326.346Z" transform="translate(-424.382 -325.754)"/></g><g class="d" transform="translate(1.187 16.578)"><path class="h" d="M462.5,341.877c.224-.042.442-.1.664-.141V324.2H462.5Z" transform="translate(-432.703 -324.198)"/><path class="h" d="M464.187,341.174c.223-.062.449-.12.666-.187V324.2h-.666Z" transform="translate(-431.411 -324.198)"/><path class="h" d="M465.874,340.2c.23-.09.442-.193.666-.286V324.2h-.666Z" transform="translate(-430.118 -324.198)"/><path class="h" d="M460.814,342.307c.221-.023.445-.042.664-.069V324.2h-.664Z" transform="translate(-433.996 -324.198)"/><path class="h" d="M469.248,336.83c.226-.182.452-.362.664-.549V324.2h-.664Z" transform="translate(-427.531 -324.198)"/><path class="h" d="M470.934,333.617a10.433,10.433,0,0,0,.666-1.178V324.2h-.666Z" transform="translate(-426.239 -324.198)"/><path class="h" d="M467.561,338.8c.221-.12.45-.237.664-.362V324.2h-.664Z" transform="translate(-428.825 -324.198)"/><path class="h" d="M459.127,342.5c.223-.005.445-.009.666-.019V324.2h-.666Z" transform="translate(-435.29 -324.198)"/><path class="h" d="M457.44,342.494c.221.009.443.014.666.02V324.2h-.666Z" transform="translate(-436.583 -324.198)"/><path class="h" d="M454.067,341.8c.223.044.44.1.664.136V324.2h-.664Z" transform="translate(-439.168 -324.198)"/><path class="h" d="M455.754,342.275c.217.025.443.037.664.058V324.2h-.664Z" transform="translate(-437.875 -324.198)"/><path class="h" d="M452.38,341.07c.221.065.442.127.666.187V324.2h-.666Z" transform="translate(-440.461 -324.198)"/><path class="h" d="M445.633,333.031a10.894,10.894,0,0,0,.666,1.058V324.2h-.666Z" transform="translate(-445.633 -324.198)"/><path class="h" d="M447.32,336.544c.21.178.442.346.664.518V324.2h-.664Z" transform="translate(-444.34 -324.198)"/><path class="h" d="M450.694,340.04c.219.09.44.177.664.263V324.2h-.664Z" transform="translate(-441.754 -324.198)"/><path class="h" d="M449.007,338.6c.214.122.443.235.664.352V324.2h-.664Z" transform="translate(-443.047 -324.198)"/></g><ellipse class="i" cx="23.718" cy="13.812" rx="23.718" ry="13.812" transform="translate(0.001 0.512)"/><path class="t" d="M468.679,336.317c-12.821,0-23.239-5.928-23.677-13.332-.009.161-.04.318-.04.481,0,7.628,10.619,13.811,23.717,13.811s23.719-6.183,23.719-13.811c0-.163-.034-.32-.042-.481C491.918,330.389,481.5,336.317,468.679,336.317Z" transform="translate(-444.96 -308.55)"/><ellipse class="u" cx="17.73" cy="10.325" rx="17.73" ry="10.325" transform="translate(5.989 3.999)"/><path class="v" d="M466.417,317.851c9.47,0,17.185,4.328,17.681,9.771.018-.184.048-.366.048-.553,0-5.7-7.937-10.325-17.729-10.325s-17.731,4.623-17.731,10.325c0,.187.03.369.048.553C449.232,322.179,456.944,317.851,466.417,317.851Z" transform="translate(-442.106 -313.335)"/><path class="w" d="M466.082,318.186c9.47,0,17.185,4.328,17.683,9.771.016-.185.048-.367.048-.555,0-5.7-7.939-10.323-17.731-10.323S448.351,321.7,448.351,327.4c0,.187.032.369.049.555C448.9,322.514,456.611,318.186,466.082,318.186Z" transform="translate(-442.362 -313.078)"/><path class="x" d="M470.393,315.833c5.328,1.814,8.921,5.425,8.022,8.064s-5.946,3.309-11.276,1.495-8.923-5.425-8.024-8.064S465.064,314.021,470.393,315.833Z" transform="translate(-434.217 -314.814)"/><g class="d" transform="translate(14.863 8.644)"><path class="o" d="M463.6,322.145q-.66.124-1.367.314-.612.151-1.311.382c-.465.152-.91.322-1.336.505l1.426.823c.141-.058.3-.113.465-.17s.344-.115.523-.182q1.211-.427,2.284-.715a12.885,12.885,0,0,1,2.017-.387,6.525,6.525,0,0,1,1.8.049,4.909,4.909,0,0,1,1.643.6,2.581,2.581,0,0,1,1.184,1.154,1.618,1.618,0,0,1,0,1.242,3.626,3.626,0,0,1-.89,1.245,9.744,9.744,0,0,1-1.512,1.175l1.917,1.106-1.593.92-1.947-1.125a26.27,26.27,0,0,1-3.157,1.328,25.669,25.669,0,0,1-3.268.919l-1.033-2.53c.537-.1,1.09-.228,1.66-.373.482-.12,1.019-.276,1.609-.463a14.249,14.249,0,0,0,1.68-.652l-1.392-.8q-.745.284-1.537.539-1.187.395-2.159.617a10.073,10.073,0,0,1-1.779.26,5.563,5.563,0,0,1-1.495-.115,4.6,4.6,0,0,1-1.3-.51,2.809,2.809,0,0,1-1.153-1.079,1.748,1.748,0,0,1-.156-1.217,3.011,3.011,0,0,1,.684-1.272,6.936,6.936,0,0,1,1.4-1.228l-1.6-.924,1.593-.919,1.615.931q.721-.342,1.465-.625t1.479-.516q.731-.231,1.413-.413c.452-.122.871-.231,1.256-.332Zm-5.354,2.542a1,1,0,0,0,.588.11,4.511,4.511,0,0,0,.873-.185l-1.2-.694Q457.788,324.423,458.246,324.687Zm7.616,1.27a1.037,1.037,0,0,0-.625-.087,5.22,5.22,0,0,0-.931.2l1.171.677a1.348,1.348,0,0,0,.519-.482A.234.234,0,0,0,465.861,325.957Z" transform="translate(-453.375 -319.707)"/></g><g transform="translate(14.863 8.052)"><path class="y" d="M463.6,321.81c-.44.083-.9.189-1.367.314q-.612.154-1.311.382t-1.336.505l1.426.823c.141-.057.3-.113.465-.168s.344-.117.523-.182q1.211-.427,2.284-.715a12.684,12.684,0,0,1,2.017-.389,6.529,6.529,0,0,1,1.8.049,4.989,4.989,0,0,1,1.643.6,2.592,2.592,0,0,1,1.184,1.155,1.618,1.618,0,0,1,0,1.242,3.624,3.624,0,0,1-.89,1.245,9.842,9.842,0,0,1-1.512,1.173l1.917,1.108-1.593.919-1.947-1.124a26.842,26.842,0,0,1-3.157,1.329,25.947,25.947,0,0,1-3.268.917l-1.033-2.528c.537-.1,1.09-.228,1.66-.374q.723-.18,1.609-.463a14.245,14.245,0,0,0,1.68-.65l-1.392-.8q-.745.283-1.537.539-1.187.395-2.159.617a10.417,10.417,0,0,1-1.779.26,5.628,5.628,0,0,1-1.495-.117,4.641,4.641,0,0,1-1.3-.509,2.812,2.812,0,0,1-1.153-1.081,1.747,1.747,0,0,1-.156-1.217,3.032,3.032,0,0,1,.684-1.272,6.99,6.99,0,0,1,1.4-1.228l-1.6-.922,1.593-.92,1.615.933q.721-.345,1.465-.627c.5-.187.989-.36,1.479-.514s.959-.293,1.413-.413.871-.233,1.256-.334Zm-5.354,2.542a.989.989,0,0,0,.588.109,4.252,4.252,0,0,0,.873-.185l-1.2-.694Q457.788,324.088,458.246,324.352Zm7.616,1.27a1.04,1.04,0,0,0-.625-.085,5.207,5.207,0,0,0-.931.2l1.171.677a1.348,1.348,0,0,0,.519-.482A.234.234,0,0,0,465.861,325.622Z" transform="translate(-453.375 -319.372)"/></g><path class="z" d="M463.6,321.81c-.44.083-.9.189-1.367.314q-.612.154-1.311.382t-1.336.505l1.426.823c.141-.057.3-.113.465-.168s.344-.117.523-.182q1.211-.427,2.284-.715a12.684,12.684,0,0,1,2.017-.389,6.529,6.529,0,0,1,1.8.049,4.989,4.989,0,0,1,1.643.6,2.592,2.592,0,0,1,1.184,1.155,1.618,1.618,0,0,1,0,1.242,3.624,3.624,0,0,1-.89,1.245,9.842,9.842,0,0,1-1.512,1.173l1.917,1.108-1.593.919-1.947-1.124a26.842,26.842,0,0,1-3.157,1.329,25.947,25.947,0,0,1-3.268.917l-1.033-2.528c.537-.1,1.09-.228,1.66-.374q.723-.18,1.609-.463a14.245,14.245,0,0,0,1.68-.65l-1.392-.8q-.745.283-1.537.539-1.187.395-2.159.617a10.417,10.417,0,0,1-1.779.26,5.628,5.628,0,0,1-1.495-.117,4.641,4.641,0,0,1-1.3-.509,2.812,2.812,0,0,1-1.153-1.081,1.747,1.747,0,0,1-.156-1.217,3.032,3.032,0,0,1,.684-1.272,6.99,6.99,0,0,1,1.4-1.228l-1.6-.922,1.593-.92,1.615.933q.721-.345,1.465-.627c.5-.187.989-.36,1.479-.514s.959-.293,1.413-.413.871-.233,1.256-.334Zm-5.354,2.542a.989.989,0,0,0,.588.109,4.252,4.252,0,0,0,.873-.185l-1.2-.694Q457.788,324.088,458.246,324.352Zm7.616,1.27a1.04,1.04,0,0,0-.625-.085,5.207,5.207,0,0,0-.931.2l1.171.677a1.348,1.348,0,0,0,.519-.482A.234.234,0,0,0,465.861,325.622Z" transform="translate(-438.512 -311.32)"/></g><g transform="translate(2.721 8.004)"><path class="c" d="M492.4,318.408H444.961V325.1h.009c0,.064-.009.127-.009.191,0,7.628,10.62,13.811,23.719,13.811S492.4,332.918,492.4,325.29c0-.064-.007-.127-.009-.191h.009Z" transform="translate(-444.961 -304.179)"/><g class="d" transform="translate(0.002 19.633)"><path class="aa" d="M444.962,321.694v.191c0-.064.005-.127.007-.191Z" transform="translate(-444.962 -321.293)"/><path class="f" d="M468.679,335.28c-13.1,0-23.717-6.185-23.717-13.812v1.288h.007c0,.064-.007.127-.007.191,0,7.628,10.619,13.811,23.717,13.811s23.717-6.183,23.717-13.811c0-.064-.005-.127-.007-.191h.007v-1.288C492.4,329.095,481.778,335.28,468.679,335.28Z" transform="translate(-444.962 -321.467)"/><path class="ab" d="M471.817,321.885v-.191h-.007C471.812,321.758,471.817,321.821,471.817,321.885Z" transform="translate(-424.382 -321.293)"/></g><g class="d" transform="translate(1.187 16.577)"><path class="h" d="M462.5,337.416c.224-.042.442-.1.664-.141V319.737H462.5Z" transform="translate(-432.703 -319.737)"/><path class="h" d="M464.187,336.713c.223-.062.449-.12.666-.186V319.737h-.666Z" transform="translate(-431.411 -319.737)"/><path class="h" d="M465.874,335.736c.23-.088.442-.191.666-.286V319.737h-.666Z" transform="translate(-430.118 -319.737)"/><path class="h" d="M460.814,337.846c.221-.023.445-.041.664-.069v-18.04h-.664Z" transform="translate(-433.996 -319.737)"/><path class="h" d="M469.248,332.371c.226-.182.452-.364.664-.551V319.737h-.664Z" transform="translate(-427.531 -319.737)"/><path class="h" d="M470.934,329.156a10.579,10.579,0,0,0,.666-1.176v-8.243h-.666Z" transform="translate(-426.239 -319.737)"/><path class="h" d="M467.561,334.337c.221-.12.45-.237.664-.362V319.737h-.664Z" transform="translate(-428.825 -319.737)"/><path class="h" d="M459.127,338.045c.223-.007.445-.011.666-.019V319.737h-.666Z" transform="translate(-435.29 -319.737)"/><path class="h" d="M457.44,338.035c.221.009.443.014.666.018V319.737h-.666Z" transform="translate(-436.583 -319.737)"/><path class="h" d="M454.067,337.339c.223.044.44.1.664.136V319.737h-.664Z" transform="translate(-439.168 -319.737)"/><path class="h" d="M455.754,337.814c.217.025.443.037.664.058V319.737h-.664Z" transform="translate(-437.875 -319.737)"/><path class="h" d="M452.38,336.611c.221.064.442.125.666.186V319.737h-.666Z" transform="translate(-440.461 -319.737)"/><path class="h" d="M445.633,328.57a10.885,10.885,0,0,0,.666,1.058v-9.891h-.666Z" transform="translate(-445.633 -319.737)"/><path class="h" d="M447.32,332.083c.21.178.442.346.664.518V319.737h-.664Z" transform="translate(-444.34 -319.737)"/><path class="h" d="M450.694,335.579c.219.09.44.178.664.263V319.737h-.664Z" transform="translate(-441.754 -319.737)"/><path class="h" d="M449.007,334.143c.214.122.443.235.664.352V319.737h-.664Z" transform="translate(-443.047 -319.737)"/></g><ellipse class="i" cx="23.718" cy="13.812" rx="23.718" ry="13.812" transform="translate(0.001 0.512)"/><path class="ac" d="M468.679,331.856c-12.821,0-23.239-5.927-23.677-13.332-.009.161-.04.318-.04.48,0,7.628,10.619,13.812,23.717,13.812S492.4,326.632,492.4,319c0-.163-.034-.32-.042-.48C491.918,325.929,481.5,331.856,468.679,331.856Z" transform="translate(-444.96 -304.09)"/><path class="u" d="M483.812,322.941c0,5.7-7.939,10.325-17.731,10.325s-17.731-4.621-17.731-10.325,7.939-10.324,17.731-10.324S483.812,317.24,483.812,322.941Z" transform="translate(-442.362 -308.618)"/><path class="ad" d="M466.417,313.391c9.47,0,17.185,4.328,17.681,9.771.018-.185.048-.367.048-.555,0-5.7-7.937-10.325-17.729-10.325s-17.731,4.623-17.731,10.325c0,.187.03.369.048.555C449.232,317.719,456.944,313.391,466.417,313.391Z" transform="translate(-442.106 -308.874)"/><path class="ae" d="M466.082,313.725c9.47,0,17.185,4.328,17.683,9.771.016-.184.048-.367.048-.555,0-5.7-7.939-10.324-17.731-10.324s-17.731,4.623-17.731,10.324c0,.187.032.371.049.555C448.9,318.053,456.611,313.725,466.082,313.725Z" transform="translate(-442.362 -308.618)"/><path class="af" d="M470.393,311.374c5.328,1.814,8.921,5.425,8.022,8.064s-5.946,3.307-11.276,1.493-8.923-5.423-8.024-8.064S465.064,309.56,470.393,311.374Z" transform="translate(-434.217 -310.353)"/><g class="d" transform="translate(14.863 8.644)"><path class="o" d="M463.6,317.684c-.44.083-.9.189-1.367.314q-.612.151-1.311.382t-1.336.505l1.426.823c.141-.057.3-.113.465-.168s.344-.117.523-.182q1.211-.427,2.284-.717a12.865,12.865,0,0,1,2.017-.387,6.526,6.526,0,0,1,1.8.049,4.949,4.949,0,0,1,1.643.6,2.59,2.59,0,0,1,1.184,1.153,1.623,1.623,0,0,1,0,1.244,3.642,3.642,0,0,1-.89,1.245,9.842,9.842,0,0,1-1.512,1.173l1.917,1.106-1.593.92-1.947-1.124a26.543,26.543,0,0,1-3.157,1.327,25.654,25.654,0,0,1-3.268.919l-1.033-2.528q.806-.156,1.66-.375.723-.18,1.609-.463a14.224,14.224,0,0,0,1.68-.65l-1.392-.8q-.745.281-1.537.539c-.791.261-1.512.468-2.159.615a10.081,10.081,0,0,1-1.779.26,5.564,5.564,0,0,1-1.495-.115,4.641,4.641,0,0,1-1.3-.509,2.812,2.812,0,0,1-1.153-1.081,1.748,1.748,0,0,1-.156-1.217,3.01,3.01,0,0,1,.684-1.272,6.935,6.935,0,0,1,1.4-1.228l-1.6-.922,1.593-.92,1.615.933q.721-.345,1.465-.627t1.479-.514q.731-.233,1.413-.415t1.256-.332Zm-5.354,2.542a.989.989,0,0,0,.588.11,4.381,4.381,0,0,0,.873-.186l-1.2-.694Q457.788,319.962,458.246,320.226Zm7.616,1.27a1.04,1.04,0,0,0-.625-.085,5.058,5.058,0,0,0-.931.2l1.171.677A1.348,1.348,0,0,0,466,321.8.234.234,0,0,0,465.861,321.5Z" transform="translate(-453.375 -315.246)"/></g><g transform="translate(14.863 8.054)"><path class="ag" d="M463.6,317.348q-.66.127-1.367.314-.612.154-1.311.382t-1.336.505l1.426.823c.141-.057.3-.113.465-.168s.344-.117.523-.182q1.211-.427,2.284-.715a12.685,12.685,0,0,1,2.017-.389,6.6,6.6,0,0,1,1.8.05,4.952,4.952,0,0,1,1.643.606,2.581,2.581,0,0,1,1.184,1.154,1.618,1.618,0,0,1,0,1.242,3.625,3.625,0,0,1-.89,1.245,9.85,9.85,0,0,1-1.512,1.175l1.917,1.106-1.593.919L466.9,324.29a26.54,26.54,0,0,1-3.157,1.328,25.954,25.954,0,0,1-3.268.919l-1.033-2.53q.806-.154,1.66-.375.723-.18,1.609-.463a14.224,14.224,0,0,0,1.68-.65l-1.392-.8q-.745.283-1.537.539-1.187.395-2.159.617a10.073,10.073,0,0,1-1.779.26,5.631,5.631,0,0,1-1.495-.115,4.646,4.646,0,0,1-1.3-.511,2.809,2.809,0,0,1-1.153-1.079,1.749,1.749,0,0,1-.156-1.217,3.012,3.012,0,0,1,.684-1.272,6.937,6.937,0,0,1,1.4-1.228l-1.6-.924,1.593-.92,1.615.933q.721-.342,1.465-.625t1.479-.516q.731-.231,1.413-.413t1.256-.332Zm-5.354,2.544a1,1,0,0,0,.588.108,4.353,4.353,0,0,0,.873-.184l-1.2-.694C458.026,319.457,457.94,319.715,458.246,319.892Zm7.616,1.27a1.025,1.025,0,0,0-.625-.087,5.214,5.214,0,0,0-.931.2l1.171.677a1.347,1.347,0,0,0,.519-.482A.231.231,0,0,0,465.861,321.162Z" transform="translate(-453.375 -314.912)"/></g><path class="q" d="M463.6,317.348q-.66.127-1.367.314-.612.154-1.311.382t-1.336.505l1.426.823c.141-.057.3-.113.465-.168s.344-.117.523-.182q1.211-.427,2.284-.715a12.685,12.685,0,0,1,2.017-.389,6.6,6.6,0,0,1,1.8.05,4.952,4.952,0,0,1,1.643.606,2.581,2.581,0,0,1,1.184,1.154,1.618,1.618,0,0,1,0,1.242,3.625,3.625,0,0,1-.89,1.245,9.85,9.85,0,0,1-1.512,1.175l1.917,1.106-1.593.919L466.9,324.29a26.54,26.54,0,0,1-3.157,1.328,25.954,25.954,0,0,1-3.268.919l-1.033-2.53q.806-.154,1.66-.375.723-.18,1.609-.463a14.224,14.224,0,0,0,1.68-.65l-1.392-.8q-.745.283-1.537.539-1.187.395-2.159.617a10.073,10.073,0,0,1-1.779.26,5.631,5.631,0,0,1-1.495-.115,4.646,4.646,0,0,1-1.3-.511,2.809,2.809,0,0,1-1.153-1.079,1.749,1.749,0,0,1-.156-1.217,3.012,3.012,0,0,1,.684-1.272,6.937,6.937,0,0,1,1.4-1.228l-1.6-.924,1.593-.92,1.615.933q.721-.342,1.465-.625t1.479-.516q.731-.231,1.413-.413t1.256-.332Zm-5.354,2.544a1,1,0,0,0,.588.108,4.353,4.353,0,0,0,.873-.184l-1.2-.694C458.026,319.457,457.94,319.715,458.246,319.892Zm7.616,1.27a1.025,1.025,0,0,0-.625-.087,5.214,5.214,0,0,0-.931.2l1.171.677a1.347,1.347,0,0,0,.519-.482A.231.231,0,0,0,465.861,321.162Z" transform="translate(-438.512 -306.858)"/></g><g transform="translate(0)"><path class="c" d="M492.4,313.877H444.961v6.693h.009c0,.064-.009.126-.009.189,0,7.63,10.62,13.813,23.719,13.813s23.719-6.183,23.719-13.812c0-.064-.007-.125-.009-.189h.009Z" transform="translate(-442.24 -299.648)"/><g class="d" transform="translate(2.723 19.634)"><path class="ah" d="M444.962,317.164v.191c0-.064.005-.127.007-.191Z" transform="translate(-444.962 -316.763)"/><path class="f" d="M468.679,330.749c-13.1,0-23.717-6.185-23.717-13.812v1.288h.007c0,.064-.007.125-.007.189,0,7.628,10.619,13.812,23.717,13.812s23.717-6.185,23.717-13.812c0-.064-.005-.125-.007-.189h.007v-1.288C492.4,324.565,481.778,330.749,468.679,330.749Z" transform="translate(-444.962 -316.937)"/><path class="ai" d="M471.817,317.355v-.191h-.007C471.812,317.228,471.817,317.291,471.817,317.355Z" transform="translate(-424.382 -316.763)"/></g><g class="d" transform="translate(3.908 16.578)"><path class="h" d="M462.5,332.886c.224-.042.442-.1.664-.141V315.207H462.5Z" transform="translate(-432.703 -315.207)"/><path class="h" d="M464.187,332.183c.223-.062.449-.12.666-.187V315.207h-.666Z" transform="translate(-431.411 -315.207)"/><path class="h" d="M465.874,331.206c.23-.09.442-.192.666-.286V315.207h-.666Z" transform="translate(-430.118 -315.207)"/><path class="h" d="M460.814,333.316c.221-.023.445-.042.664-.069v-18.04h-.664Z" transform="translate(-433.996 -315.207)"/><path class="h" d="M469.248,327.839c.226-.182.452-.362.664-.549V315.207h-.664Z" transform="translate(-427.531 -315.207)"/><path class="h" d="M470.934,324.626a10.449,10.449,0,0,0,.666-1.178v-8.241h-.666Z" transform="translate(-426.239 -315.207)"/><path class="h" d="M467.561,329.807c.221-.12.45-.237.664-.362V315.207h-.664Z" transform="translate(-428.825 -315.207)"/><path class="h" d="M459.127,333.514c.223-.007.445-.009.666-.02V315.207h-.666Z" transform="translate(-435.29 -315.207)"/><path class="h" d="M457.44,333.5c.221.009.443.014.666.019V315.207h-.666Z" transform="translate(-436.583 -315.207)"/><path class="h" d="M454.067,332.809c.223.044.44.1.664.136V315.207h-.664Z" transform="translate(-439.168 -315.207)"/><path class="h" d="M455.754,333.284c.217.025.443.037.664.058V315.207h-.664Z" transform="translate(-437.875 -315.207)"/><path class="h" d="M452.38,332.079c.221.065.442.127.666.187V315.207h-.666Z" transform="translate(-440.461 -315.207)"/><path class="h" d="M445.633,324.04a10.884,10.884,0,0,0,.666,1.058v-9.891h-.666Z" transform="translate(-445.633 -315.207)"/><path class="h" d="M447.32,327.553c.21.178.442.346.664.518V315.207h-.664Z" transform="translate(-444.34 -315.207)"/><path class="h" d="M450.694,331.049c.219.09.44.177.664.263V315.207h-.664Z" transform="translate(-441.754 -315.207)"/><path class="h" d="M449.007,329.613c.214.122.443.235.664.352V315.207h-.664Z" transform="translate(-443.047 -315.207)"/></g><ellipse class="i" cx="23.718" cy="13.812" rx="23.718" ry="13.812" transform="translate(2.722 0.513)"/><path class="t" d="M468.679,327.326c-12.821,0-23.239-5.928-23.677-13.332-.009.161-.04.318-.04.481,0,7.628,10.619,13.811,23.717,13.811S492.4,322.1,492.4,314.474c0-.162-.034-.32-.042-.481C491.918,321.4,481.5,327.326,468.679,327.326Z" transform="translate(-442.239 -299.559)"/><path class="u" d="M483.812,318.411c0,5.7-7.939,10.325-17.731,10.325s-17.731-4.623-17.731-10.325,7.939-10.324,17.731-10.324S483.812,312.708,483.812,318.411Z" transform="translate(-439.641 -304.086)"/><path class="v" d="M466.417,308.86c9.47,0,17.185,4.328,17.681,9.771.018-.184.048-.366.048-.553,0-5.7-7.937-10.325-17.729-10.325s-17.731,4.623-17.731,10.325c0,.187.03.369.048.553C449.232,313.188,456.944,308.86,466.417,308.86Z" transform="translate(-439.385 -304.343)"/><path class="aj" d="M466.082,309.2c9.47,0,17.185,4.328,17.683,9.771.016-.185.048-.367.048-.555,0-5.7-7.939-10.325-17.731-10.325s-17.731,4.623-17.731,10.325c0,.187.032.369.049.555C448.9,313.523,456.611,309.2,466.082,309.2Z" transform="translate(-439.641 -304.087)"/><ellipse class="ak" cx="14.905" cy="8.914" rx="14.905" ry="8.914" transform="translate(0 40.619) rotate(-74.814)"/><path class="al" d="M470.393,306.843c5.328,1.814,8.921,5.425,8.022,8.064s-5.946,3.309-11.276,1.495-8.923-5.425-8.024-8.064S465.064,305.029,470.393,306.843Z" transform="translate(-431.496 -305.822)"/><g class="d" transform="translate(17.584 8.645)"><path class="o" d="M463.6,313.154q-.66.124-1.367.313-.612.154-1.311.383c-.465.152-.91.322-1.336.505l1.426.823c.141-.058.3-.113.465-.17s.344-.115.523-.182q1.211-.427,2.284-.715a12.864,12.864,0,0,1,2.017-.387,6.526,6.526,0,0,1,1.8.049,4.908,4.908,0,0,1,1.643.6,2.581,2.581,0,0,1,1.184,1.154,1.618,1.618,0,0,1,0,1.242,3.624,3.624,0,0,1-.89,1.245,9.741,9.741,0,0,1-1.512,1.175l1.917,1.106-1.593.92-1.947-1.125a26.285,26.285,0,0,1-3.157,1.328,25.664,25.664,0,0,1-3.268.919l-1.033-2.53c.537-.1,1.09-.228,1.66-.373.482-.12,1.019-.276,1.609-.463a14.548,14.548,0,0,0,1.68-.652l-1.392-.8q-.745.283-1.537.539-1.187.395-2.159.616a10.067,10.067,0,0,1-1.779.26,5.564,5.564,0,0,1-1.495-.115,4.594,4.594,0,0,1-1.3-.511,2.809,2.809,0,0,1-1.153-1.079,1.748,1.748,0,0,1-.156-1.217,3.01,3.01,0,0,1,.684-1.272,6.929,6.929,0,0,1,1.4-1.228l-1.6-.924,1.593-.919,1.615.931q.721-.342,1.465-.625t1.479-.514q.731-.233,1.413-.415c.452-.122.871-.231,1.256-.332Zm-5.354,2.542a1,1,0,0,0,.588.109,4.505,4.505,0,0,0,.873-.185l-1.2-.694Q457.788,315.432,458.246,315.7Zm7.616,1.27a1.039,1.039,0,0,0-.625-.087,5.232,5.232,0,0,0-.931.2l1.171.676a1.335,1.335,0,0,0,.519-.484A.232.232,0,0,0,465.861,316.966Z" transform="translate(-453.375 -310.716)"/></g><g transform="translate(17.584 8.053)"><path class="y" d="M463.6,312.819c-.44.083-.9.189-1.367.314-.408.1-.844.23-1.311.382s-.91.322-1.336.505l1.426.823c.141-.057.3-.113.465-.168s.344-.117.523-.182q1.211-.427,2.284-.716a12.7,12.7,0,0,1,2.017-.389,6.529,6.529,0,0,1,1.8.049,4.986,4.986,0,0,1,1.643.6,2.592,2.592,0,0,1,1.184,1.155,1.618,1.618,0,0,1,0,1.242,3.625,3.625,0,0,1-.89,1.245,9.838,9.838,0,0,1-1.512,1.173l1.917,1.108-1.593.919-1.947-1.123a26.857,26.857,0,0,1-3.157,1.328,25.947,25.947,0,0,1-3.268.917l-1.033-2.528c.537-.1,1.09-.228,1.66-.375q.723-.18,1.609-.463a14.25,14.25,0,0,0,1.68-.65l-1.392-.8c-.5.189-1.009.367-1.537.539q-1.187.395-2.159.615a10.266,10.266,0,0,1-1.779.261,5.627,5.627,0,0,1-1.495-.117,4.643,4.643,0,0,1-1.3-.509,2.814,2.814,0,0,1-1.153-1.081,1.747,1.747,0,0,1-.156-1.217,3.032,3.032,0,0,1,.684-1.272,6.992,6.992,0,0,1,1.4-1.228l-1.6-.922,1.593-.92,1.615.933q.721-.345,1.465-.627t1.479-.514c.487-.154.959-.293,1.413-.415s.871-.231,1.256-.332Zm-5.354,2.542a.989.989,0,0,0,.588.11,4.245,4.245,0,0,0,.873-.186l-1.2-.694Q457.788,315.1,458.246,315.361Zm7.616,1.27a1.04,1.04,0,0,0-.625-.085,5.055,5.055,0,0,0-.931.2l1.171.677a1.347,1.347,0,0,0,.519-.482A.234.234,0,0,0,465.861,316.631Z" transform="translate(-453.375 -310.381)"/></g><path class="z" d="M463.6,312.819c-.44.083-.9.189-1.367.314-.408.1-.844.23-1.311.382s-.91.322-1.336.505l1.426.823c.141-.057.3-.113.465-.168s.344-.117.523-.182q1.211-.427,2.284-.716a12.7,12.7,0,0,1,2.017-.389,6.529,6.529,0,0,1,1.8.049,4.986,4.986,0,0,1,1.643.6,2.592,2.592,0,0,1,1.184,1.155,1.618,1.618,0,0,1,0,1.242,3.625,3.625,0,0,1-.89,1.245,9.838,9.838,0,0,1-1.512,1.173l1.917,1.108-1.593.919-1.947-1.123a26.857,26.857,0,0,1-3.157,1.328,25.947,25.947,0,0,1-3.268.917l-1.033-2.528c.537-.1,1.09-.228,1.66-.375q.723-.18,1.609-.463a14.25,14.25,0,0,0,1.68-.65l-1.392-.8c-.5.189-1.009.367-1.537.539q-1.187.395-2.159.615a10.266,10.266,0,0,1-1.779.261,5.627,5.627,0,0,1-1.495-.117,4.643,4.643,0,0,1-1.3-.509,2.814,2.814,0,0,1-1.153-1.081,1.747,1.747,0,0,1-.156-1.217,3.032,3.032,0,0,1,.684-1.272,6.992,6.992,0,0,1,1.4-1.228l-1.6-.922,1.593-.92,1.615.933q.721-.345,1.465-.627t1.479-.514c.487-.154.959-.293,1.413-.415s.871-.231,1.256-.332Zm-5.354,2.542a.989.989,0,0,0,.588.11,4.245,4.245,0,0,0,.873-.186l-1.2-.694Q457.788,315.1,458.246,315.361Zm7.616,1.27a1.04,1.04,0,0,0-.625-.085,5.055,5.055,0,0,0-.931.2l1.171.677a1.347,1.347,0,0,0,.519-.482A.234.234,0,0,0,465.861,316.631Z" transform="translate(-435.791 -302.328)"/></g><g transform="translate(40.343 33.257)"><path class="c" d="M513.695,332.7H466.258V339.4h.009c0,.064-.009.125-.009.189,0,7.628,10.619,13.812,23.717,13.812s23.719-6.185,23.719-13.812c0-.064-.007-.125-.009-.189h.009Z" transform="translate(-466.258 -318.474)"/><g class="d" transform="translate(0 19.634)"><path class="am" d="M466.258,335.99v.189c0-.063.007-.125.009-.189Z" transform="translate(-466.258 -335.589)"/><path class="c" d="M489.977,349.575c-13.1,0-23.719-6.185-23.719-13.812v1.288h.009c0,.064-.009.125-.009.189,0,7.628,10.619,13.812,23.719,13.812s23.717-6.185,23.717-13.812c0-.064-.007-.125-.009-.189h.009v-1.288C513.695,343.391,503.076,349.575,489.977,349.575Z" transform="translate(-466.258 -335.763)"/><path class="an" d="M493.115,336.179v-.189h-.009C493.108,336.054,493.115,336.115,493.115,336.179Z" transform="translate(-445.678 -335.589)"/></g><g class="d" transform="translate(1.187 16.578)"><path class="h" d="M483.8,351.712c.226-.042.442-.1.664-.141V334.033H483.8Z" transform="translate(-454.001 -334.033)"/><path class="h" d="M485.484,351.009c.223-.062.447-.12.664-.187V334.033h-.664Z" transform="translate(-452.708 -334.033)"/><path class="h" d="M487.171,350.032c.228-.09.442-.193.664-.286V334.033h-.664Z" transform="translate(-451.415 -334.033)"/><path class="h" d="M482.11,352.142c.223-.023.447-.042.666-.069v-18.04h-.666Z" transform="translate(-455.294 -334.033)"/><path class="h" d="M490.544,346.665c.226-.182.454-.362.664-.549V334.033h-.664Z" transform="translate(-448.829 -334.033)"/><path class="h" d="M492.231,343.45a10.216,10.216,0,0,0,.664-1.177v-8.241h-.664Z" transform="translate(-447.536 -334.033)"/><path class="h" d="M488.857,348.633c.223-.122.452-.237.666-.362V334.033h-.666Z" transform="translate(-450.122 -334.033)"/><path class="h" d="M480.424,352.34c.221-.007.445-.009.664-.019V334.033h-.664Z" transform="translate(-456.586 -334.033)"/><path class="h" d="M478.737,352.329c.221.009.442.014.664.019V334.033h-.664Z" transform="translate(-457.88 -334.033)"/><path class="h" d="M475.364,351.633c.223.046.438.1.664.138V334.033h-.664Z" transform="translate(-460.465 -334.033)"/><path class="h" d="M477.05,352.11c.219.025.445.037.666.058V334.033h-.666Z" transform="translate(-459.173 -334.033)"/><path class="h" d="M473.677,350.905c.219.065.44.127.664.187V334.033h-.664Z" transform="translate(-461.758 -334.033)"/><path class="h" d="M466.93,342.866a10.9,10.9,0,0,0,.664,1.058v-9.891h-.664Z" transform="translate(-466.93 -334.033)"/><path class="h" d="M468.617,346.379c.208.177.44.346.664.518V334.033h-.664Z" transform="translate(-465.637 -334.033)"/><path class="h" d="M471.99,349.875c.219.09.44.177.664.261v-16.1h-.664Z" transform="translate(-463.051 -334.033)"/><path class="h" d="M470.3,348.439c.215.122.443.235.666.352V334.033H470.3Z" transform="translate(-464.344 -334.033)"/></g><ellipse class="i" cx="23.718" cy="13.812" rx="23.718" ry="13.812" transform="translate(0 0.513)"/><path class="j" d="M489.975,346.152c-12.82,0-23.237-5.928-23.675-13.332-.011.161-.042.318-.042.481,0,7.628,10.619,13.811,23.717,13.811s23.719-6.183,23.719-13.811c0-.163-.032-.32-.042-.481C513.214,340.224,502.8,346.152,489.975,346.152Z" transform="translate(-466.258 -318.385)"/><path class="u" d="M505.107,337.237c0,5.7-7.937,10.325-17.731,10.325s-17.729-4.623-17.729-10.325,7.937-10.324,17.729-10.324S505.107,331.534,505.107,337.237Z" transform="translate(-463.659 -322.913)"/><path class="ao" d="M487.713,327.686c9.47,0,17.185,4.328,17.683,9.771.016-.184.048-.366.048-.553,0-5.7-7.939-10.325-17.731-10.325S469.982,331.2,469.982,336.9c0,.187.032.369.049.553C470.528,332.014,478.242,327.686,487.713,327.686Z" transform="translate(-463.403 -323.169)"/><path class="ap" d="M487.377,328.021c9.472,0,17.185,4.328,17.683,9.771.018-.186.048-.368.048-.555,0-5.7-7.939-10.324-17.731-10.324s-17.729,4.621-17.729,10.324c0,.187.03.369.048.555C470.192,332.349,477.907,328.021,487.377,328.021Z" transform="translate(-463.659 -322.913)"/><path class="aq" d="M491.689,325.669c5.33,1.814,8.921,5.425,8.024,8.064s-5.948,3.309-11.277,1.495-8.921-5.425-8.022-8.064S486.359,323.855,491.689,325.669Z" transform="translate(-455.514 -324.648)"/><g class="d" transform="translate(14.862 8.645)"><path class="o" d="M484.9,331.98q-.66.124-1.367.313-.612.154-1.309.383c-.466.152-.912.322-1.335.505l1.426.821c.14-.056.295-.111.465-.168s.343-.115.521-.182q1.213-.427,2.284-.715a12.917,12.917,0,0,1,2.017-.387,6.6,6.6,0,0,1,1.8.048,4.963,4.963,0,0,1,1.645.606,2.577,2.577,0,0,1,1.182,1.154,1.618,1.618,0,0,1,0,1.242,3.578,3.578,0,0,1-.89,1.245,9.752,9.752,0,0,1-1.51,1.175l1.915,1.106-1.593.92L488.2,338.92a26.512,26.512,0,0,1-3.155,1.328,25.748,25.748,0,0,1-3.268.919l-1.035-2.53c.539-.1,1.092-.228,1.662-.375.482-.118,1.017-.274,1.608-.461a14.717,14.717,0,0,0,1.682-.652l-1.394-.8c-.5.189-1.007.369-1.535.539q-1.19.395-2.159.617a10.1,10.1,0,0,1-1.781.26,5.565,5.565,0,0,1-1.495-.115,4.584,4.584,0,0,1-1.3-.511,2.8,2.8,0,0,1-1.153-1.079,1.749,1.749,0,0,1-.157-1.217,3.05,3.05,0,0,1,.684-1.272,6.892,6.892,0,0,1,1.4-1.228l-1.6-.924,1.592-.919,1.615.931c.48-.228.97-.436,1.464-.625s.989-.36,1.479-.516.961-.292,1.413-.413.873-.231,1.256-.332Zm-5.353,2.542a.994.994,0,0,0,.586.11,4.5,4.5,0,0,0,.874-.186l-1.2-.694C479.322,334.089,479.238,334.345,479.543,334.522Zm7.616,1.27a1.034,1.034,0,0,0-.627-.087,5.249,5.249,0,0,0-.931.2l1.173.675a1.342,1.342,0,0,0,.518-.482C487.341,335.974,487.3,335.871,487.159,335.792Z" transform="translate(-474.671 -329.542)"/></g><g transform="translate(14.862 8.053)"><path class="p" d="M484.9,331.645q-.66.125-1.367.314c-.408.1-.844.23-1.309.382s-.912.321-1.335.505l1.426.823c.14-.057.295-.113.465-.168s.343-.117.521-.182q1.213-.427,2.284-.717a12.9,12.9,0,0,1,2.017-.387,6.528,6.528,0,0,1,1.8.049,4.994,4.994,0,0,1,1.645.6,2.587,2.587,0,0,1,1.182,1.155,1.618,1.618,0,0,1,0,1.242,3.579,3.579,0,0,1-.89,1.245,9.744,9.744,0,0,1-1.51,1.173l1.915,1.106-1.593.92-1.947-1.124a26.813,26.813,0,0,1-3.155,1.328,26.049,26.049,0,0,1-3.268.917l-1.035-2.528c.539-.1,1.092-.228,1.662-.374q.723-.18,1.608-.463a14.707,14.707,0,0,0,1.682-.65l-1.394-.806c-.5.189-1.007.369-1.535.541q-1.19.395-2.159.615a10.278,10.278,0,0,1-1.781.261,5.633,5.633,0,0,1-1.495-.117,4.587,4.587,0,0,1-1.3-.511,2.788,2.788,0,0,1-1.153-1.079,1.749,1.749,0,0,1-.157-1.217,3.061,3.061,0,0,1,.684-1.272,6.953,6.953,0,0,1,1.4-1.228l-1.6-.922,1.592-.92,1.615.933c.48-.23.97-.438,1.464-.627s.989-.36,1.479-.514.961-.293,1.413-.413.873-.233,1.256-.334Zm-5.353,2.542a.98.98,0,0,0,.586.11,4.358,4.358,0,0,0,.874-.186l-1.2-.694C479.322,333.754,479.238,334.01,479.543,334.187Zm7.616,1.27a1.049,1.049,0,0,0-.627-.085,5.089,5.089,0,0,0-.931.2l1.173.677a1.355,1.355,0,0,0,.518-.482A.231.231,0,0,0,487.159,335.457Z" transform="translate(-474.671 -329.207)"/></g><path class="ar" d="M484.9,331.645q-.66.125-1.367.314c-.408.1-.844.23-1.309.382s-.912.321-1.335.505l1.426.823c.14-.057.295-.113.465-.168s.343-.117.521-.182q1.213-.427,2.284-.717a12.9,12.9,0,0,1,2.017-.387,6.528,6.528,0,0,1,1.8.049,4.994,4.994,0,0,1,1.645.6,2.587,2.587,0,0,1,1.182,1.155,1.618,1.618,0,0,1,0,1.242,3.579,3.579,0,0,1-.89,1.245,9.744,9.744,0,0,1-1.51,1.173l1.915,1.106-1.593.92-1.947-1.124a26.813,26.813,0,0,1-3.155,1.328,26.049,26.049,0,0,1-3.268.917l-1.035-2.528c.539-.1,1.092-.228,1.662-.374q.723-.18,1.608-.463a14.707,14.707,0,0,0,1.682-.65l-1.394-.806c-.5.189-1.007.369-1.535.541q-1.19.395-2.159.615a10.278,10.278,0,0,1-1.781.261,5.633,5.633,0,0,1-1.495-.117,4.587,4.587,0,0,1-1.3-.511,2.788,2.788,0,0,1-1.153-1.079,1.749,1.749,0,0,1-.157-1.217,3.061,3.061,0,0,1,.684-1.272,6.953,6.953,0,0,1,1.4-1.228l-1.6-.922,1.592-.92,1.615.933c.48-.23.97-.438,1.464-.627s.989-.36,1.479-.514.961-.293,1.413-.413.873-.233,1.256-.334Zm-5.353,2.542a.98.98,0,0,0,.586.11,4.358,4.358,0,0,0,.874-.186l-1.2-.694C479.322,333.754,479.238,334.01,479.543,334.187Zm7.616,1.27a1.049,1.049,0,0,0-.627-.085,5.089,5.089,0,0,0-.931.2l1.173.677a1.355,1.355,0,0,0,.518-.482A.231.231,0,0,0,487.159,335.457Z" transform="translate(-459.809 -321.154)"/></g><g transform="translate(40.343 25.771)"><path class="c" d="M513.695,328.466H466.258v6.692h.009c0,.064-.009.127-.009.191,0,7.628,10.619,13.811,23.717,13.811s23.719-6.183,23.719-13.811c0-.064-.007-.127-.009-.191h.009Z" transform="translate(-466.258 -314.237)"/><g class="d" transform="translate(0 19.633)"><path class="as" d="M466.258,331.752v.191c0-.064.007-.127.009-.191Z" transform="translate(-466.258 -331.351)"/><path class="c" d="M489.977,345.338c-13.1,0-23.719-6.185-23.719-13.812v1.288h.009c0,.064-.009.127-.009.191,0,7.628,10.619,13.811,23.719,13.811s23.717-6.183,23.717-13.811c0-.064-.007-.127-.009-.191h.009v-1.288C513.695,339.153,503.076,345.338,489.977,345.338Z" transform="translate(-466.258 -331.525)"/><path class="at" d="M493.115,331.943v-.191h-.009C493.108,331.816,493.115,331.879,493.115,331.943Z" transform="translate(-445.678 -331.351)"/></g><g class="d" transform="translate(1.187 16.577)"><path class="h" d="M483.8,347.474c.226-.042.442-.1.664-.141V329.8H483.8Z" transform="translate(-454.001 -329.795)"/><path class="h" d="M485.484,346.771c.223-.062.447-.12.664-.187V329.8h-.664Z" transform="translate(-452.708 -329.795)"/><path class="h" d="M487.171,345.794c.228-.09.442-.191.664-.286V329.8h-.664Z" transform="translate(-451.415 -329.795)"/><path class="h" d="M482.11,347.9c.223-.023.447-.042.666-.069V329.8h-.666Z" transform="translate(-455.294 -329.795)"/><path class="h" d="M490.544,342.428c.226-.18.454-.362.664-.549V329.8h-.664Z" transform="translate(-448.829 -329.795)"/><path class="h" d="M492.231,339.214a10.534,10.534,0,0,0,.664-1.177V329.8h-.664Z" transform="translate(-447.536 -329.795)"/><path class="h" d="M488.857,344.4c.223-.12.452-.237.666-.362V329.8h-.666Z" transform="translate(-450.122 -329.795)"/><path class="h" d="M480.424,348.1c.221-.005.445-.007.664-.019V329.8h-.664Z" transform="translate(-456.586 -329.795)"/><path class="h" d="M478.737,348.093c.221.007.442.012.664.018V329.8h-.664Z" transform="translate(-457.88 -329.795)"/><path class="h" d="M475.364,347.4c.223.044.438.1.664.136V329.8h-.664Z" transform="translate(-460.465 -329.795)"/><path class="h" d="M477.05,347.872c.219.025.445.037.666.058V329.8h-.666Z" transform="translate(-459.173 -329.795)"/><path class="h" d="M473.677,346.669c.219.064.44.125.664.185V329.8h-.664Z" transform="translate(-461.758 -329.795)"/><path class="h" d="M466.93,338.628a10.909,10.909,0,0,0,.664,1.058V329.8h-.664Z" transform="translate(-466.93 -329.795)"/><path class="h" d="M468.617,342.141c.208.178.44.346.664.518V329.8h-.664Z" transform="translate(-465.637 -329.795)"/><path class="h" d="M471.99,345.637c.219.09.44.177.664.263V329.8h-.664Z" transform="translate(-463.051 -329.795)"/><path class="h" d="M470.3,344.2c.215.122.443.235.666.351V329.8H470.3Z" transform="translate(-464.344 -329.795)"/></g><ellipse class="i" cx="23.718" cy="13.812" rx="23.718" ry="13.812" transform="translate(0 0.512)"/><path class="ac" d="M489.975,341.914c-12.82,0-23.237-5.929-23.675-13.332-.011.161-.042.318-.042.48,0,7.628,10.619,13.812,23.717,13.812s23.719-6.185,23.719-13.812c0-.163-.032-.32-.042-.48C513.214,335.986,502.8,341.914,489.975,341.914Z" transform="translate(-466.258 -314.148)"/><path class="u" d="M505.107,333c0,5.7-7.937,10.325-17.731,10.325S469.648,338.7,469.648,333s7.937-10.324,17.729-10.324S505.107,327.3,505.107,333Z" transform="translate(-463.659 -318.676)"/><path class="au" d="M487.713,323.449c9.47,0,17.185,4.326,17.683,9.769.016-.184.048-.366.048-.553,0-5.7-7.939-10.325-17.731-10.325s-17.731,4.623-17.731,10.325c0,.187.032.369.049.553C470.528,327.776,478.242,323.449,487.713,323.449Z" transform="translate(-463.403 -318.932)"/><path class="ap" d="M487.377,323.783c9.472,0,17.185,4.328,17.683,9.771.018-.184.048-.368.048-.555,0-5.7-7.939-10.324-17.731-10.324S469.648,327.3,469.648,333c0,.187.03.371.048.555C470.192,328.111,477.907,323.783,487.377,323.783Z" transform="translate(-463.659 -318.676)"/><path class="av" d="M491.689,321.432c5.33,1.814,8.921,5.423,8.024,8.062s-5.948,3.309-11.277,1.494-8.921-5.425-8.022-8.064S486.359,319.618,491.689,321.432Z" transform="translate(-455.514 -320.411)"/><g class="d" transform="translate(14.862 8.644)"><path class="o" d="M484.9,327.742q-.66.125-1.367.314-.612.151-1.309.382t-1.335.505l1.426.823c.14-.057.295-.113.465-.168s.343-.117.521-.184c.809-.283,1.57-.523,2.284-.715a12.911,12.911,0,0,1,2.017-.387,6.527,6.527,0,0,1,1.8.05,4.919,4.919,0,0,1,1.645.6,2.585,2.585,0,0,1,1.182,1.154,1.622,1.622,0,0,1,0,1.244,3.611,3.611,0,0,1-.89,1.245,9.744,9.744,0,0,1-1.51,1.173l1.915,1.106-1.593.92-1.947-1.125a26.238,26.238,0,0,1-3.155,1.328,25.744,25.744,0,0,1-3.268.919l-1.035-2.528c.539-.1,1.092-.228,1.662-.374.482-.12,1.017-.276,1.608-.463a14.7,14.7,0,0,0,1.682-.65l-1.394-.805c-.5.189-1.007.369-1.535.539q-1.19.395-2.159.617a10.1,10.1,0,0,1-1.781.26,5.561,5.561,0,0,1-1.495-.115,4.581,4.581,0,0,1-1.3-.511,2.8,2.8,0,0,1-1.153-1.079,1.749,1.749,0,0,1-.157-1.217,3.05,3.05,0,0,1,.684-1.272,6.892,6.892,0,0,1,1.4-1.228l-1.6-.924,1.592-.919,1.615.933c.48-.23.97-.438,1.464-.627s.989-.36,1.479-.514.961-.293,1.413-.415l1.256-.332Zm-5.353,2.542a.994.994,0,0,0,.586.11,4.484,4.484,0,0,0,.874-.186l-1.2-.694C479.322,329.851,479.238,330.107,479.543,330.284Zm7.616,1.27a1.062,1.062,0,0,0-.627-.086,5.245,5.245,0,0,0-.931.2l1.173.677a1.354,1.354,0,0,0,.518-.482A.231.231,0,0,0,487.159,331.554Z" transform="translate(-474.671 -325.304)"/></g><g transform="translate(14.862 8.054)"><path class="aw" d="M484.9,327.406q-.66.127-1.367.314-.612.154-1.309.382t-1.335.505l1.426.823c.14-.056.295-.113.465-.168s.343-.117.521-.182q1.213-.427,2.284-.715a12.729,12.729,0,0,1,2.017-.389,6.6,6.6,0,0,1,1.8.049,5,5,0,0,1,1.645.6,2.588,2.588,0,0,1,1.182,1.155,1.618,1.618,0,0,1,0,1.242,3.579,3.579,0,0,1-.89,1.245,9.748,9.748,0,0,1-1.51,1.175l1.915,1.106-1.593.919-1.947-1.123a26.522,26.522,0,0,1-3.155,1.328,25.733,25.733,0,0,1-3.268.919l-1.035-2.53c.539-.1,1.092-.228,1.662-.374q.723-.18,1.608-.463a14.4,14.4,0,0,0,1.682-.65l-1.394-.8c-.5.189-1.007.369-1.535.539q-1.19.395-2.159.617a10.265,10.265,0,0,1-1.781.26,5.706,5.706,0,0,1-1.495-.115,4.692,4.692,0,0,1-1.3-.51,2.791,2.791,0,0,1-1.153-1.081,1.744,1.744,0,0,1-.157-1.215,3.067,3.067,0,0,1,.684-1.274,6.9,6.9,0,0,1,1.4-1.226l-1.6-.924,1.592-.92,1.615.933c.48-.228.97-.436,1.464-.625s.989-.362,1.479-.516.961-.292,1.413-.413.873-.233,1.256-.332Zm-5.353,2.544a1,1,0,0,0,.586.108,4.347,4.347,0,0,0,.874-.184l-1.2-.7C479.322,329.515,479.238,329.773,479.543,329.95Zm7.616,1.268a1.048,1.048,0,0,0-.627-.085,5.239,5.239,0,0,0-.931.2l1.173.677a1.355,1.355,0,0,0,.518-.482A.231.231,0,0,0,487.159,331.218Z" transform="translate(-474.671 -324.97)"/></g><path class="ax" d="M484.9,327.406q-.66.127-1.367.314-.612.154-1.309.382t-1.335.505l1.426.823c.14-.056.295-.113.465-.168s.343-.117.521-.182q1.213-.427,2.284-.715a12.729,12.729,0,0,1,2.017-.389,6.6,6.6,0,0,1,1.8.049,5,5,0,0,1,1.645.6,2.588,2.588,0,0,1,1.182,1.155,1.618,1.618,0,0,1,0,1.242,3.579,3.579,0,0,1-.89,1.245,9.748,9.748,0,0,1-1.51,1.175l1.915,1.106-1.593.919-1.947-1.123a26.522,26.522,0,0,1-3.155,1.328,25.733,25.733,0,0,1-3.268.919l-1.035-2.53c.539-.1,1.092-.228,1.662-.374q.723-.18,1.608-.463a14.4,14.4,0,0,0,1.682-.65l-1.394-.8c-.5.189-1.007.369-1.535.539q-1.19.395-2.159.617a10.265,10.265,0,0,1-1.781.26,5.706,5.706,0,0,1-1.495-.115,4.692,4.692,0,0,1-1.3-.51,2.791,2.791,0,0,1-1.153-1.081,1.744,1.744,0,0,1-.157-1.215,3.067,3.067,0,0,1,.684-1.274,6.9,6.9,0,0,1,1.4-1.226l-1.6-.924,1.592-.92,1.615.933c.48-.228.97-.436,1.464-.625s.989-.362,1.479-.516.961-.292,1.413-.413.873-.233,1.256-.332Zm-5.353,2.544a1,1,0,0,0,.586.108,4.347,4.347,0,0,0,.874-.184l-1.2-.7C479.322,329.515,479.238,329.773,479.543,329.95Zm7.616,1.268a1.048,1.048,0,0,0-.627-.085,5.239,5.239,0,0,0-.931.2l1.173.677a1.355,1.355,0,0,0,.518-.482A.231.231,0,0,0,487.159,331.218Z" transform="translate(-459.809 -316.917)"/></g><g transform="translate(4.882 45.078)"><path class="c" d="M493.622,339.394H446.185v6.693h.007c0,.064-.007.125-.007.189,0,7.63,10.619,13.812,23.717,13.812s23.719-6.183,23.719-13.812c0-.064-.007-.125-.009-.189h.009Z" transform="translate(-446.184 -325.167)"/><g class="d" transform="translate(0.001 19.633)"><path class="ay" d="M446.185,342.681v.191c0-.064.005-.127.007-.191Z" transform="translate(-446.185 -342.28)"/><path class="f" d="M469.9,356.267c-13.1,0-23.717-6.185-23.717-13.812v1.288h.007c0,.063-.007.125-.007.189,0,7.63,10.619,13.812,23.717,13.812s23.717-6.183,23.717-13.812c0-.064-.005-.125-.007-.189h.007v-1.288C493.62,350.082,483,356.267,469.9,356.267Z" transform="translate(-446.185 -342.454)"/><path class="az" d="M473.04,342.872v-.191h-.007C473.035,342.745,473.04,342.808,473.04,342.872Z" transform="translate(-425.605 -342.28)"/></g><g class="d" transform="translate(1.186 16.577)"><path class="h" d="M463.724,358.4c.224-.042.442-.1.664-.141V340.724h-.664Z" transform="translate(-433.926 -340.724)"/><path class="h" d="M465.41,357.7c.223-.062.449-.12.666-.187V340.724h-.666Z" transform="translate(-432.634 -340.724)"/><path class="h" d="M467.1,356.723c.23-.09.442-.193.666-.286V340.724H467.1Z" transform="translate(-431.341 -340.724)"/><path class="h" d="M462.037,358.833c.221-.023.445-.042.664-.069v-18.04h-.664Z" transform="translate(-435.219 -340.724)"/><path class="h" d="M470.471,353.356c.226-.182.452-.362.664-.549V340.724h-.664Z" transform="translate(-428.754 -340.724)"/><path class="h" d="M472.157,350.143a10.434,10.434,0,0,0,.666-1.178v-8.241h-.666Z" transform="translate(-427.462 -340.724)"/><path class="h" d="M468.784,355.324c.221-.12.451-.237.664-.362V340.724h-.664Z" transform="translate(-430.047 -340.724)"/><path class="h" d="M460.35,359.031c.223-.005.445-.009.666-.019V340.724h-.666Z" transform="translate(-436.512 -340.724)"/><path class="h" d="M458.663,359.02c.221.009.443.014.666.019V340.724h-.666Z" transform="translate(-437.806 -340.724)"/><path class="h" d="M455.29,358.326c.223.044.44.1.664.136V340.724h-.664Z" transform="translate(-440.391 -340.724)"/><path class="h" d="M456.977,358.8c.217.025.443.037.664.058V340.724h-.664Z" transform="translate(-439.098 -340.724)"/><path class="h" d="M453.6,357.6c.221.065.442.127.666.187V340.724H453.6Z" transform="translate(-441.684 -340.724)"/><path class="h" d="M446.856,349.557a10.9,10.9,0,0,0,.666,1.058v-9.891h-.666Z" transform="translate(-446.856 -340.724)"/><path class="h" d="M448.543,353.07c.21.178.442.346.664.518V340.724h-.664Z" transform="translate(-445.563 -340.724)"/><path class="h" d="M451.917,356.566c.219.09.44.177.664.263V340.724h-.664Z" transform="translate(-442.977 -340.724)"/><path class="h" d="M450.23,355.13c.214.122.443.235.664.352V340.724h-.664Z" transform="translate(-444.27 -340.724)"/></g><ellipse class="i" cx="23.718" cy="13.812" rx="23.718" ry="13.812" transform="translate(0 0.512)"/><path class="t" d="M469.9,352.843c-12.821,0-23.239-5.928-23.677-13.332-.009.161-.041.318-.041.481,0,7.628,10.619,13.811,23.717,13.811s23.719-6.183,23.719-13.811c0-.162-.034-.32-.042-.481C493.141,346.915,482.724,352.843,469.9,352.843Z" transform="translate(-446.184 -325.077)"/><ellipse class="u" cx="17.73" cy="10.325" rx="17.73" ry="10.325" transform="translate(5.988 3.999)"/><path class="v" d="M467.64,334.377c9.47,0,17.185,4.328,17.681,9.771.018-.184.048-.366.048-.553,0-5.7-7.937-10.325-17.729-10.325s-17.731,4.623-17.731,10.325c0,.187.03.369.048.553C450.455,338.7,458.168,334.377,467.64,334.377Z" transform="translate(-443.33 -329.862)"/><path class="w" d="M467.3,334.712c9.47,0,17.185,4.328,17.683,9.771.016-.185.048-.368.048-.555,0-5.7-7.939-10.324-17.731-10.324s-17.731,4.621-17.731,10.324c0,.187.032.369.049.555C450.12,339.04,457.834,334.712,467.3,334.712Z" transform="translate(-443.587 -329.605)"/><path class="ba" d="M458.317,343.9c5.33,1.814,8.921,5.425,8.024,8.062s-5.948,3.309-11.278,1.494-8.921-5.423-8.024-8.062S452.988,342.089,458.317,343.9Z" transform="translate(-445.635 -322.493)"/><path class="bb" d="M471.616,332.361c5.328,1.812,8.921,5.423,8.022,8.062s-5.946,3.309-11.276,1.495-8.923-5.425-8.023-8.064S466.287,330.547,471.616,332.361Z" transform="translate(-435.441 -331.34)"/><g class="d" transform="translate(14.862 8.644)"><path class="o" d="M464.823,338.671q-.66.124-1.367.314-.612.151-1.311.382c-.465.152-.91.322-1.334.505l1.424.823c.141-.058.3-.113.465-.17s.344-.115.523-.182c.807-.284,1.57-.523,2.284-.715a12.871,12.871,0,0,1,2.017-.387,6.53,6.53,0,0,1,1.8.049,4.91,4.91,0,0,1,1.643.6,2.581,2.581,0,0,1,1.184,1.154,1.622,1.622,0,0,1,0,1.244,3.636,3.636,0,0,1-.89,1.244,9.74,9.74,0,0,1-1.512,1.175l1.917,1.106-1.593.92-1.947-1.125a26.277,26.277,0,0,1-3.157,1.328,25.69,25.69,0,0,1-3.268.918l-1.034-2.53c.537-.1,1.09-.228,1.661-.373q.723-.18,1.609-.463a14.262,14.262,0,0,0,1.68-.652l-1.392-.8q-.745.283-1.537.539-1.187.395-2.159.617a10.084,10.084,0,0,1-1.779.26,5.561,5.561,0,0,1-1.495-.115,4.6,4.6,0,0,1-1.3-.51,2.809,2.809,0,0,1-1.154-1.079,1.748,1.748,0,0,1-.155-1.217,3.011,3.011,0,0,1,.684-1.272,6.931,6.931,0,0,1,1.4-1.228l-1.6-.924,1.593-.919,1.615.931q.72-.342,1.464-.625t1.479-.514q.731-.233,1.413-.415t1.256-.332Zm-5.354,2.542a1,1,0,0,0,.588.11,4.512,4.512,0,0,0,.873-.186l-1.2-.694Q459.01,340.949,459.469,341.213Zm7.615,1.27a1.038,1.038,0,0,0-.625-.087,5.234,5.234,0,0,0-.931.2l1.171.677a1.348,1.348,0,0,0,.519-.482A.234.234,0,0,0,467.084,342.483Z" transform="translate(-454.598 -336.233)"/></g><g transform="translate(14.862 8.052)"><path class="y" d="M464.823,338.336c-.44.083-.9.189-1.367.314q-.612.154-1.311.382t-1.334.505l1.424.823c.141-.057.3-.113.465-.168s.344-.117.523-.182c.807-.285,1.57-.523,2.284-.715a12.688,12.688,0,0,1,2.017-.389,6.524,6.524,0,0,1,1.8.049,4.987,4.987,0,0,1,1.643.6,2.592,2.592,0,0,1,1.184,1.155,1.618,1.618,0,0,1,0,1.242,3.625,3.625,0,0,1-.89,1.245,9.845,9.845,0,0,1-1.512,1.173l1.917,1.108-1.593.919-1.947-1.124a26.828,26.828,0,0,1-3.157,1.328,25.644,25.644,0,0,1-3.268.917L460.666,345c.537-.1,1.09-.228,1.661-.375q.723-.18,1.609-.463a14.226,14.226,0,0,0,1.68-.65l-1.392-.8c-.5.189-1.009.367-1.537.539q-1.187.395-2.159.616a10.429,10.429,0,0,1-1.779.26,5.631,5.631,0,0,1-1.495-.117,4.643,4.643,0,0,1-1.3-.509,2.812,2.812,0,0,1-1.154-1.081,1.744,1.744,0,0,1-.155-1.215,3.028,3.028,0,0,1,.684-1.274,6.99,6.99,0,0,1,1.4-1.228l-1.6-.922,1.593-.92,1.615.933q.72-.345,1.464-.627c.5-.187.989-.36,1.479-.514s.959-.292,1.413-.413.871-.233,1.256-.334Zm-5.354,2.542a.988.988,0,0,0,.588.11,4.248,4.248,0,0,0,.873-.185l-1.2-.694Q459.01,340.614,459.469,340.878Zm7.615,1.27a1.04,1.04,0,0,0-.625-.085,5.2,5.2,0,0,0-.931.2l1.171.677a1.349,1.349,0,0,0,.519-.482A.234.234,0,0,0,467.084,342.148Z" transform="translate(-454.598 -335.898)"/></g><path class="bc" d="M464.823,338.336c-.44.083-.9.189-1.367.314q-.612.154-1.311.382t-1.334.505l1.424.823c.141-.057.3-.113.465-.168s.344-.117.523-.182c.807-.285,1.57-.523,2.284-.715a12.688,12.688,0,0,1,2.017-.389,6.524,6.524,0,0,1,1.8.049,4.987,4.987,0,0,1,1.643.6,2.592,2.592,0,0,1,1.184,1.155,1.618,1.618,0,0,1,0,1.242,3.625,3.625,0,0,1-.89,1.245,9.845,9.845,0,0,1-1.512,1.173l1.917,1.108-1.593.919-1.947-1.124a26.828,26.828,0,0,1-3.157,1.328,25.644,25.644,0,0,1-3.268.917L460.666,345c.537-.1,1.09-.228,1.661-.375q.723-.18,1.609-.463a14.226,14.226,0,0,0,1.68-.65l-1.392-.8c-.5.189-1.009.367-1.537.539q-1.187.395-2.159.616a10.429,10.429,0,0,1-1.779.26,5.631,5.631,0,0,1-1.495-.117,4.643,4.643,0,0,1-1.3-.509,2.812,2.812,0,0,1-1.154-1.081,1.744,1.744,0,0,1-.155-1.215,3.028,3.028,0,0,1,.684-1.274,6.99,6.99,0,0,1,1.4-1.228l-1.6-.922,1.593-.92,1.615.933q.72-.345,1.464-.627c.5-.187.989-.36,1.479-.514s.959-.292,1.413-.413.871-.233,1.256-.334Zm-5.354,2.542a.988.988,0,0,0,.588.11,4.248,4.248,0,0,0,.873-.185l-1.2-.694Q459.01,340.614,459.469,340.878Zm7.615,1.27a1.04,1.04,0,0,0-.625-.085,5.2,5.2,0,0,0-.931.2l1.171.677a1.349,1.349,0,0,0,.519-.482A.234.234,0,0,0,467.084,342.148Z" transform="translate(-439.736 -327.846)"/></g></g></g><g transform="translate(0 8.38)"><g transform="translate(48.572 24.62)"><path class="c" d="M492.4,313.877H444.961v6.693h.009c0,.064-.009.126-.009.189,0,7.63,10.62,13.813,23.719,13.813s23.719-6.183,23.719-13.812c0-.064-.007-.125-.009-.189h.009Z" transform="translate(-442.24 -299.648)"/><g class="d" transform="translate(2.723 19.634)"><path class="ah" d="M444.962,317.164v.191c0-.064.005-.127.007-.191Z" transform="translate(-444.962 -316.763)"/><path class="f" d="M468.679,330.749c-13.1,0-23.717-6.185-23.717-13.812v1.288h.007c0,.064-.007.125-.007.189,0,7.628,10.619,13.812,23.717,13.812s23.717-6.185,23.717-13.812c0-.064-.005-.125-.007-.189h.007v-1.288C492.4,324.565,481.778,330.749,468.679,330.749Z" transform="translate(-444.962 -316.937)"/><path class="ai" d="M471.817,317.355v-.191h-.007C471.812,317.228,471.817,317.291,471.817,317.355Z" transform="translate(-424.382 -316.763)"/></g><g class="d" transform="translate(3.908 16.578)"><path class="h" d="M462.5,332.886c.224-.042.442-.1.664-.141V315.207H462.5Z" transform="translate(-432.703 -315.207)"/><path class="h" d="M464.187,332.183c.223-.062.449-.12.666-.187V315.207h-.666Z" transform="translate(-431.411 -315.207)"/><path class="h" d="M465.874,331.206c.23-.09.442-.192.666-.286V315.207h-.666Z" transform="translate(-430.118 -315.207)"/><path class="h" d="M460.814,333.316c.221-.023.445-.042.664-.069v-18.04h-.664Z" transform="translate(-433.996 -315.207)"/><path class="h" d="M469.248,327.839c.226-.182.452-.362.664-.549V315.207h-.664Z" transform="translate(-427.531 -315.207)"/><path class="h" d="M470.934,324.626a10.449,10.449,0,0,0,.666-1.178v-8.241h-.666Z" transform="translate(-426.239 -315.207)"/><path class="h" d="M467.561,329.807c.221-.12.45-.237.664-.362V315.207h-.664Z" transform="translate(-428.825 -315.207)"/><path class="h" d="M459.127,333.514c.223-.007.445-.009.666-.02V315.207h-.666Z" transform="translate(-435.29 -315.207)"/><path class="h" d="M457.44,333.5c.221.009.443.014.666.019V315.207h-.666Z" transform="translate(-436.583 -315.207)"/><path class="h" d="M454.067,332.809c.223.044.44.1.664.136V315.207h-.664Z" transform="translate(-439.168 -315.207)"/><path class="h" d="M455.754,333.284c.217.025.443.037.664.058V315.207h-.664Z" transform="translate(-437.875 -315.207)"/><path class="h" d="M452.38,332.079c.221.065.442.127.666.187V315.207h-.666Z" transform="translate(-440.461 -315.207)"/><path class="h" d="M445.633,324.04a10.884,10.884,0,0,0,.666,1.058v-9.891h-.666Z" transform="translate(-445.633 -315.207)"/><path class="h" d="M447.32,327.553c.21.178.442.346.664.518V315.207h-.664Z" transform="translate(-444.34 -315.207)"/><path class="h" d="M450.694,331.049c.219.09.44.177.664.263V315.207h-.664Z" transform="translate(-441.754 -315.207)"/><path class="h" d="M449.007,329.613c.214.122.443.235.664.352V315.207h-.664Z" transform="translate(-443.047 -315.207)"/></g><ellipse class="i" cx="23.718" cy="13.812" rx="23.718" ry="13.812" transform="translate(2.722 0.513)"/><path class="t" d="M468.679,327.326c-12.821,0-23.239-5.928-23.677-13.332-.009.161-.04.318-.04.481,0,7.628,10.619,13.811,23.717,13.811S492.4,322.1,492.4,314.474c0-.162-.034-.32-.042-.481C491.918,321.4,481.5,327.326,468.679,327.326Z" transform="translate(-442.239 -299.559)"/><path class="u" d="M483.812,318.411c0,5.7-7.939,10.325-17.731,10.325s-17.731-4.623-17.731-10.325,7.939-10.324,17.731-10.324S483.812,312.708,483.812,318.411Z" transform="translate(-439.641 -304.086)"/><path class="v" d="M466.417,308.86c9.47,0,17.185,4.328,17.681,9.771.018-.184.048-.366.048-.553,0-5.7-7.937-10.325-17.729-10.325s-17.731,4.623-17.731,10.325c0,.187.03.369.048.553C449.232,313.188,456.944,308.86,466.417,308.86Z" transform="translate(-439.385 -304.343)"/><path class="aj" d="M466.082,309.2c9.47,0,17.185,4.328,17.683,9.771.016-.185.048-.367.048-.555,0-5.7-7.939-10.325-17.731-10.325s-17.731,4.623-17.731,10.325c0,.187.032.369.049.555C448.9,313.523,456.611,309.2,466.082,309.2Z" transform="translate(-439.641 -304.087)"/><ellipse class="ak" cx="14.905" cy="8.914" rx="14.905" ry="8.914" transform="translate(0 40.619) rotate(-74.814)"/><path class="al" d="M470.393,306.843c5.328,1.814,8.921,5.425,8.022,8.064s-5.946,3.309-11.276,1.495-8.923-5.425-8.024-8.064S465.064,305.029,470.393,306.843Z" transform="translate(-431.496 -305.822)"/><g class="d" transform="translate(17.584 8.645)"><path class="o" d="M463.6,313.154q-.66.124-1.367.313-.612.154-1.311.383c-.465.152-.91.322-1.336.505l1.426.823c.141-.058.3-.113.465-.17s.344-.115.523-.182q1.211-.427,2.284-.715a12.864,12.864,0,0,1,2.017-.387,6.526,6.526,0,0,1,1.8.049,4.908,4.908,0,0,1,1.643.6,2.581,2.581,0,0,1,1.184,1.154,1.618,1.618,0,0,1,0,1.242,3.624,3.624,0,0,1-.89,1.245,9.741,9.741,0,0,1-1.512,1.175l1.917,1.106-1.593.92-1.947-1.125a26.285,26.285,0,0,1-3.157,1.328,25.664,25.664,0,0,1-3.268.919l-1.033-2.53c.537-.1,1.09-.228,1.66-.373.482-.12,1.019-.276,1.609-.463a14.548,14.548,0,0,0,1.68-.652l-1.392-.8q-.745.283-1.537.539-1.187.395-2.159.616a10.067,10.067,0,0,1-1.779.26,5.564,5.564,0,0,1-1.495-.115,4.594,4.594,0,0,1-1.3-.511,2.809,2.809,0,0,1-1.153-1.079,1.748,1.748,0,0,1-.156-1.217,3.01,3.01,0,0,1,.684-1.272,6.929,6.929,0,0,1,1.4-1.228l-1.6-.924,1.593-.919,1.615.931q.721-.342,1.465-.625t1.479-.514q.731-.233,1.413-.415c.452-.122.871-.231,1.256-.332Zm-5.354,2.542a1,1,0,0,0,.588.109,4.505,4.505,0,0,0,.873-.185l-1.2-.694Q457.788,315.432,458.246,315.7Zm7.616,1.27a1.039,1.039,0,0,0-.625-.087,5.232,5.232,0,0,0-.931.2l1.171.676a1.335,1.335,0,0,0,.519-.484A.232.232,0,0,0,465.861,316.966Z" transform="translate(-453.375 -310.716)"/></g><g transform="translate(17.584 8.053)"><path class="y" d="M463.6,312.819c-.44.083-.9.189-1.367.314-.408.1-.844.23-1.311.382s-.91.322-1.336.505l1.426.823c.141-.057.3-.113.465-.168s.344-.117.523-.182q1.211-.427,2.284-.716a12.7,12.7,0,0,1,2.017-.389,6.529,6.529,0,0,1,1.8.049,4.986,4.986,0,0,1,1.643.6,2.592,2.592,0,0,1,1.184,1.155,1.618,1.618,0,0,1,0,1.242,3.625,3.625,0,0,1-.89,1.245,9.838,9.838,0,0,1-1.512,1.173l1.917,1.108-1.593.919-1.947-1.123a26.857,26.857,0,0,1-3.157,1.328,25.947,25.947,0,0,1-3.268.917l-1.033-2.528c.537-.1,1.09-.228,1.66-.375q.723-.18,1.609-.463a14.25,14.25,0,0,0,1.68-.65l-1.392-.8c-.5.189-1.009.367-1.537.539q-1.187.395-2.159.615a10.266,10.266,0,0,1-1.779.261,5.627,5.627,0,0,1-1.495-.117,4.643,4.643,0,0,1-1.3-.509,2.814,2.814,0,0,1-1.153-1.081,1.747,1.747,0,0,1-.156-1.217,3.032,3.032,0,0,1,.684-1.272,6.992,6.992,0,0,1,1.4-1.228l-1.6-.922,1.593-.92,1.615.933q.721-.345,1.465-.627t1.479-.514c.487-.154.959-.293,1.413-.415s.871-.231,1.256-.332Zm-5.354,2.542a.989.989,0,0,0,.588.11,4.245,4.245,0,0,0,.873-.186l-1.2-.694Q457.788,315.1,458.246,315.361Zm7.616,1.27a1.04,1.04,0,0,0-.625-.085,5.055,5.055,0,0,0-.931.2l1.171.677a1.347,1.347,0,0,0,.519-.482A.234.234,0,0,0,465.861,316.631Z" transform="translate(-453.375 -310.381)"/></g><path class="z" d="M463.6,312.819c-.44.083-.9.189-1.367.314-.408.1-.844.23-1.311.382s-.91.322-1.336.505l1.426.823c.141-.057.3-.113.465-.168s.344-.117.523-.182q1.211-.427,2.284-.716a12.7,12.7,0,0,1,2.017-.389,6.529,6.529,0,0,1,1.8.049,4.986,4.986,0,0,1,1.643.6,2.592,2.592,0,0,1,1.184,1.155,1.618,1.618,0,0,1,0,1.242,3.625,3.625,0,0,1-.89,1.245,9.838,9.838,0,0,1-1.512,1.173l1.917,1.108-1.593.919-1.947-1.123a26.857,26.857,0,0,1-3.157,1.328,25.947,25.947,0,0,1-3.268.917l-1.033-2.528c.537-.1,1.09-.228,1.66-.375q.723-.18,1.609-.463a14.25,14.25,0,0,0,1.68-.65l-1.392-.8c-.5.189-1.009.367-1.537.539q-1.187.395-2.159.615a10.266,10.266,0,0,1-1.779.261,5.627,5.627,0,0,1-1.495-.117,4.643,4.643,0,0,1-1.3-.509,2.814,2.814,0,0,1-1.153-1.081,1.747,1.747,0,0,1-.156-1.217,3.032,3.032,0,0,1,.684-1.272,6.992,6.992,0,0,1,1.4-1.228l-1.6-.922,1.593-.92,1.615.933q.721-.345,1.465-.627t1.479-.514c.487-.154.959-.293,1.413-.415s.871-.231,1.256-.332Zm-5.354,2.542a.989.989,0,0,0,.588.11,4.245,4.245,0,0,0,.873-.186l-1.2-.694Q457.788,315.1,458.246,315.361Zm7.616,1.27a1.04,1.04,0,0,0-.625-.085,5.055,5.055,0,0,0-.931.2l1.171.677a1.347,1.347,0,0,0,.519-.482A.234.234,0,0,0,465.861,316.631Z" transform="translate(-435.791 -302.328)"/></g><g transform="matrix(-0.545, 0.839, -0.839, -0.545, 65.301, 24.666)"><path class="c" d="M47.438,20.695H0V14H.009c0-.064-.009-.126-.009-.189C0,6.183,10.62,0,23.719,0S47.438,6.183,47.438,13.812c0,.064-.007.125-.009.189h.009Z" transform="translate(2.721 10.366)"/><g class="d" transform="translate(2.723 10.366)"><path class="bd" d="M0,.191V0C0,.064.005.127.007.191Z" transform="translate(0 14.698)"/><path class="f" d="M23.717,1.477C10.619,1.477,0,7.661,0,15.289V14H.007c0-.064-.007-.125-.007-.189C0,6.185,10.619,0,23.717,0S47.435,6.185,47.435,13.812c0,.064-.005.125-.007.189h.007v1.288C47.435,7.661,36.816,1.477,23.717,1.477Z"/><path class="be" d="M.007,0V.191H0C0,.127.007.064.007,0Z" transform="translate(47.428 14.697)"/></g><g class="d" transform="translate(3.908 10.396)"><path class="h" d="M0,0C.224.042.442.1.664.141V17.679H0Z" transform="translate(29.798 0.636)"/><path class="h" d="M0,0C.223.062.449.12.666.187V16.976H0Z" transform="translate(32.776 1.339)"/><path class="h" d="M0,0C.23.09.442.192.666.286V16H0Z" transform="translate(35.756 2.316)"/><path class="h" d="M0,0C.221.023.445.042.664.069v18.04H0Z" transform="translate(26.818 0.207)"/><path class="h" d="M0,0C.226.182.452.362.664.549V12.632H0Z" transform="translate(41.717 5.683)"/><path class="h" d="M0,0A10.449,10.449,0,0,1,.666,1.178V9.419H0Z" transform="translate(44.695 8.896)"/><path class="h" d="M0,0c.221.12.45.237.664.362V14.6H0Z" transform="translate(38.736 3.715)"/><path class="h" d="M0,0C.223.007.445.009.666.02V18.307H0Z" transform="translate(23.838 0.009)"/><path class="h" d="M0,.019C.221.011.443.005.666,0V18.315H0Z" transform="translate(20.857 0)"/><path class="h" d="M0,.136C.223.092.44.041.664,0V17.738H0Z" transform="translate(14.899 0.578)"/><path class="h" d="M0,.058C.217.033.444.021.664,0V18.135H0Z" transform="translate(17.879 0.18)"/><path class="h" d="M0,.187C.221.122.442.06.666,0V17.059H0Z" transform="translate(11.919 1.256)"/><path class="h" d="M0,1.058A10.879,10.879,0,0,1,.666,0V9.891H0Z" transform="translate(0 8.425)"/><path class="h" d="M0,.518C.21.339.442.171.664,0V12.864H0Z" transform="translate(2.98 5.451)"/><path class="h" d="M0,.263C.219.173.44.087.664,0V16.105H0Z" transform="translate(8.94 2.21)"/><path class="h" d="M0,.352C.214.23.443.117.664,0V14.758H0Z" transform="translate(5.96 3.558)"/></g><ellipse class="bf" cx="23.718" cy="13.812" rx="23.718" ry="13.812" transform="translate(2.722 17.153)"/><path class="bg" d="M23.717.959C10.9.959.479,6.888.04,14.291c-.009-.161-.04-.318-.04-.481C0,6.183,10.619,0,23.717,0S47.437,6.183,47.437,13.811c0,.162-.034.32-.042.481C46.956,6.888,36.539.959,23.717.959Z" transform="translate(2.723 16.563)"/><path class="bh" d="M35.461,10.325C35.461,4.623,27.522,0,17.731,0S0,4.623,0,10.325,7.939,20.649,17.731,20.649,35.461,16.027,35.461,10.325Z" transform="translate(8.709 20.64)"/><path class="bi" d="M17.731,9.771C27.2,9.771,34.915,5.443,35.412,0c.018.184.048.366.048.553,0,5.7-7.937,10.325-17.729,10.325S0,6.255,0,.553C0,.366.03.184.048,0,.546,5.443,8.258,9.771,17.731,9.771Z" transform="translate(9.301 31.002)"/><path class="bj" d="M17.731,9.771C27.2,9.771,34.915,5.443,35.414,0c.016.185.048.367.048.555,0,5.7-7.939,10.325-17.731,10.325S0,6.257,0,.555C0,.368.032.186.049,0,.546,5.443,8.26,9.771,17.731,9.771Z" transform="translate(8.709 30.41)"/><ellipse class="bk" cx="14.905" cy="8.914" rx="14.905" ry="8.914" transform="translate(17.205 0) rotate(74.814)"/><path class="bl" d="M11.415,10.579c5.328-1.814,8.921-5.425,8.022-8.064S13.491-.794,8.161,1.021-.761,6.446.138,9.085,6.086,12.393,11.415,10.579Z" transform="translate(27.482 33.69)"/><g class="d" transform="translate(17.584 25.019)"><path class="o" d="M10.225,9.188q-.66-.124-1.367-.313-.612-.154-1.311-.383c-.465-.152-.91-.322-1.336-.505l1.426-.823c.141.058.3.113.465.17s.344.115.523.182q1.211.427,2.284.715a12.864,12.864,0,0,0,2.017.387,6.526,6.526,0,0,0,1.8-.049,4.909,4.909,0,0,0,1.643-.6A2.581,2.581,0,0,0,17.551,6.81a1.618,1.618,0,0,0,0-1.242,3.624,3.624,0,0,0-.89-1.245A9.741,9.741,0,0,0,15.15,3.148l1.917-1.106-1.593-.92L13.527,2.247A26.285,26.285,0,0,0,10.37.919,25.664,25.664,0,0,0,7.1,0L6.069,2.53c.537.1,1.09.228,1.66.373.482.12,1.019.276,1.609.463a14.548,14.548,0,0,1,1.68.652l-1.392.8q-.745-.283-1.537-.539Q6.9,3.887,5.931,3.666a10.067,10.067,0,0,0-1.779-.26,5.564,5.564,0,0,0-1.494.115,4.594,4.594,0,0,0-1.3.511A2.809,2.809,0,0,0,.2,5.111,1.748,1.748,0,0,0,.046,6.328,3.01,3.01,0,0,0,.73,7.6a6.929,6.929,0,0,0,1.4,1.228l-1.6.924,1.593.919,1.615-.931q.721.342,1.465.625t1.479.514q.731.233,1.413.415c.452.122.871.231,1.256.332ZM4.871,6.646a1,1,0,0,1,.588-.109,4.505,4.505,0,0,1,.873.185l-1.2.694Q4.413,6.91,4.871,6.646Zm7.616-1.27a1.039,1.039,0,0,1-.625.087,5.232,5.232,0,0,1-.931-.2L12.1,4.586a1.335,1.335,0,0,1,.519.484A.232.232,0,0,1,12.486,5.376Z" transform="translate(0 0)"/></g><g transform="translate(17.584 25.611)"><path class="bm" d="M10.225,9.188C9.785,9.1,9.33,9,8.858,8.873c-.408-.1-.844-.23-1.311-.382s-.91-.322-1.336-.505l1.426-.823c.141.057.3.113.465.168s.344.117.523.182q1.211.427,2.284.716a12.7,12.7,0,0,0,2.017.389,6.529,6.529,0,0,0,1.8-.049,4.987,4.987,0,0,0,1.643-.6,2.592,2.592,0,0,0,1.184-1.155,1.618,1.618,0,0,0,0-1.242,3.625,3.625,0,0,0-.89-1.245A9.838,9.838,0,0,0,15.15,3.148L17.067,2.04l-1.593-.919L13.527,2.245A26.857,26.857,0,0,0,10.37.917,25.947,25.947,0,0,0,7.1,0L6.069,2.528c.537.1,1.09.228,1.66.374q.723.18,1.609.463a14.25,14.25,0,0,1,1.68.65l-1.392.8c-.5-.189-1.009-.367-1.537-.539Q6.9,3.885,5.931,3.666A10.266,10.266,0,0,0,4.152,3.4a5.626,5.626,0,0,0-1.494.117,4.643,4.643,0,0,0-1.3.509A2.814,2.814,0,0,0,.2,5.111,1.747,1.747,0,0,0,.046,6.328,3.032,3.032,0,0,0,.73,7.6a6.992,6.992,0,0,0,1.4,1.228l-1.6.922,1.593.92,1.615-.933q.721.345,1.465.627t1.479.514c.487.154.959.293,1.413.415s.871.231,1.256.332ZM4.871,6.646a.989.989,0,0,1,.588-.11,4.245,4.245,0,0,1,.873.186l-1.2.694Q4.413,6.91,4.871,6.646Zm7.616-1.27a1.04,1.04,0,0,1-.625.085,5.055,5.055,0,0,1-.931-.2L12.1,4.586a1.347,1.347,0,0,1,.519.482A.234.234,0,0,1,12.486,5.375Z" transform="translate(0 0)"/></g><path class="bn" d="M10.225,9.188C9.785,9.1,9.33,9,8.858,8.873c-.408-.1-.844-.23-1.311-.382s-.91-.322-1.336-.505l1.426-.823c.141.057.3.113.465.168s.344.117.523.182q1.211.427,2.284.716a12.7,12.7,0,0,0,2.017.389,6.529,6.529,0,0,0,1.8-.049,4.987,4.987,0,0,0,1.643-.6,2.592,2.592,0,0,0,1.184-1.155,1.618,1.618,0,0,0,0-1.242,3.625,3.625,0,0,0-.89-1.245A9.838,9.838,0,0,0,15.15,3.148L17.067,2.04l-1.593-.919L13.527,2.245A26.857,26.857,0,0,0,10.37.917,25.947,25.947,0,0,0,7.1,0L6.069,2.528c.537.1,1.09.228,1.66.374q.723.18,1.609.463a14.25,14.25,0,0,1,1.68.65l-1.392.8c-.5-.189-1.009-.367-1.537-.539Q6.9,3.885,5.931,3.666A10.266,10.266,0,0,0,4.152,3.4a5.626,5.626,0,0,0-1.494.117,4.643,4.643,0,0,0-1.3.509A2.814,2.814,0,0,0,.2,5.111,1.747,1.747,0,0,0,.046,6.328,3.032,3.032,0,0,0,.73,7.6a6.992,6.992,0,0,0,1.4,1.228l-1.6.922,1.593.92,1.615-.933q.721.345,1.465.627t1.479.514c.487.154.959.293,1.413.415s.871.231,1.256.332ZM4.871,6.646a.989.989,0,0,1,.588-.11,4.245,4.245,0,0,1,.873.186l-1.2.694Q4.413,6.91,4.871,6.646Zm7.616-1.27a1.04,1.04,0,0,1-.625.085,5.055,5.055,0,0,1-.931-.2L12.1,4.586a1.347,1.347,0,0,1,.519.482A.234.234,0,0,1,12.486,5.375Z" transform="translate(17.584 25.611)"/></g></g></g></svg>