<svg xmlns="http://www.w3.org/2000/svg" xmlns:xlink="http://www.w3.org/1999/xlink" width="81" height="39.986" viewBox="0 0 81 39.986"><defs><style>.a{fill:#fff;}.b{clip-path:url(#a);}.c{fill:url(#b);}.d{fill:url(#c);}.e{fill:url(#d);}.f{fill:url(#e);}.g{mix-blend-mode:multiply;isolation:isolate;fill:url(#f);}.h{fill:url(#g);}</style><clipPath id="a"><path class="a" d="M0,0H81V30L27.08,39.986,22.5,30H0Z" transform="translate(595 4961)"/></clipPath><linearGradient id="b" x1="-2.945" y1="2.661" x2="-3.07" y2="0.974" gradientUnits="objectBoundingBox"><stop offset="0" stop-color="#d4d1d8"/><stop offset="1" stop-color="#fff"/></linearGradient><linearGradient id="c" x1="0.219" y1="1.878" x2="0.143" y2="-0.137" gradientUnits="objectBoundingBox"><stop offset="0" stop-color="#fff"/><stop offset="1" stop-color="#e6e6e6"/></linearGradient><linearGradient id="d" x1="-3.512" y1="0.262" x2="-2.858" y2="1.645" xlink:href="#b"/><linearGradient id="e" x1="-3.365" y1="2.93" x2="-3.004" y2="2.563" xlink:href="#b"/><linearGradient id="f" x1="-3.022" y1="5.186" x2="-3.012" y2="3.721" gradientUnits="objectBoundingBox"><stop offset="0" stop-color="#fff"/><stop offset="1" stop-color="#bebebe"/></linearGradient><linearGradient id="g" x1="0.236" y1="0.96" x2="0.218" y2="0.192" xlink:href="#b"/></defs><g class="b" transform="translate(-595 -4961)"><g transform="translate(601.842 4972.445) rotate(-14)"><g transform="translate(0 0)"><path class="c" d="M50.7,6.35,3.7,0,0,13.232Z" transform="translate(4 9.053)"/><path class="d" d="M50.7,6.35,3.7,0,0,13.232Z" transform="translate(4 9.053)"/><path class="e" d="M54.7,15.4l-47-6.35L1.428,5.585,0,0Z" transform="translate(0 0)"/><path class="f" d="M50.7,0,7.97,2.052,0,6.882Z" transform="translate(4 15.402)"/><path class="g" d="M50.7,0,7.97,2.052,0,6.882Z" transform="translate(4 15.402)"/><path class="h" d="M42.733,0,0,2.052l1.315,7.961,1.267,5.894Z" transform="translate(11.97 15.402)"/><path class="a" d="M14.592,31.313l-1.306-5.9L11.97,17.454,4,22.285,7.7,9.053,1.428,5.585,0,0,1.624,5.571l6.2,3.507-3.5,12.767,7.639-4.391,1.47,7.757Z" transform="translate(0 0)"/></g></g></g></svg>