<svg xmlns="http://www.w3.org/2000/svg" xmlns:xlink="http://www.w3.org/1999/xlink" width="139.427" height="126.505" viewBox="0 0 139.427 126.505"><defs><style>.a{fill:url(#a);}.b{fill:url(#b);}.c{fill:url(#c);}.d{fill:url(#d);}.e{mix-blend-mode:multiply;isolation:isolate;fill:url(#e);}.f{fill:url(#f);}.g{fill:#fff;}</style><linearGradient id="a" x1="-2.945" y1="2.661" x2="-3.07" y2="0.974" gradientUnits="objectBoundingBox"><stop offset="0" stop-color="#d4d1d8"/><stop offset="1" stop-color="#fff"/></linearGradient><linearGradient id="b" x1="0.219" y1="1.878" x2="0.143" y2="-0.137" gradientUnits="objectBoundingBox"><stop offset="0" stop-color="#fff"/><stop offset="1" stop-color="#e6e6e6"/></linearGradient><linearGradient id="c" x1="-3.512" y1="0.262" x2="-2.858" y2="1.645" xlink:href="#a"/><linearGradient id="d" x1="-3.365" y1="2.93" x2="-3.004" y2="2.563" xlink:href="#a"/><linearGradient id="e" x1="-3.022" y1="5.186" x2="-3.012" y2="3.721" gradientUnits="objectBoundingBox"><stop offset="0" stop-color="#fff"/><stop offset="1" stop-color="#bebebe"/></linearGradient><linearGradient id="f" x1="0.236" y1="0.96" x2="0.218" y2="0.192" xlink:href="#a"/></defs><g transform="matrix(0.819, -0.574, 0.574, 0.819, 0, 69.85)"><g transform="translate(0 0)"><path class="a" d="M112.874,14.136,8.233,0,0,29.457Z" transform="translate(8.905 20.153)"/><path class="b" d="M112.874,14.136,8.233,0,0,29.457Z" transform="translate(8.905 20.153)"/><path class="c" d="M121.779,34.289,17.138,20.153,3.179,12.434,0,0Z" transform="translate(0 0)"/><path class="d" d="M112.874,0,17.742,4.568,0,15.321Z" transform="translate(8.905 34.289)"/><path class="e" d="M112.874,0,17.742,4.568,0,15.321Z" transform="translate(8.905 34.289)"/><path class="f" d="M95.131,0,0,4.568,2.928,22.291l9.519,12.584Z" transform="translate(26.648 34.289)"/><path class="g" d="M39.095,69.164,29.576,56.58,26.648,38.857,8.905,49.61l8.233-29.457L3.179,12.434,0,0,3.615,12.4l13.811,7.806L9.641,48.632l17.007-9.775,3.273,17.27Z" transform="translate(0 0)"/></g></g></svg>