<svg xmlns="http://www.w3.org/2000/svg" xmlns:xlink="http://www.w3.org/1999/xlink" width="113.309" height="118.745" viewBox="0 0 113.309 118.745"><defs><style>.a,.ah,.ai,.aj,.ak,.al,.am,.an,.ao,.ap,.aq,.ar,.as,.k{mix-blend-mode:multiply;}.a,.ac,.ah,.ai,.aj,.ak,.al,.am,.an,.ao,.ap,.aq,.ar,.as,.av,.ay,.az,.c,.k,.m,.n,.o,.p,.q,.r,.s,.u,.v,.w,.x,.y{isolation:isolate;}.a{fill:url(#a);}.b{fill:url(#b);}.ac,.av,.ay,.az,.c,.m,.n,.o,.p,.q,.r{mix-blend-mode:color-dodge;}.c{fill:url(#c);}.d{fill:url(#d);}.e{fill:url(#e);}.f{fill:url(#f);}.g{fill:url(#g);}.h{fill:url(#h);}.i{fill:url(#i);}.j{fill:url(#j);}.k{fill:#d1d3d4;}.l{fill:url(#k);}.m{fill:url(#l);}.n{fill:url(#m);}.o{fill:url(#n);}.p{fill:url(#o);}.q{fill:url(#p);}.r{fill:url(#q);}.s,.u,.v,.w,.x,.y{mix-blend-mode:screen;}.t,.u,.v,.w,.x,.z{fill:#27043d;}.t{opacity:0.8;}.u{opacity:0.6;}.as,.v{opacity:0.2;}.w,.y{opacity:0.5;}.x{opacity:0.3;}.aa{fill:url(#r);}.ab{fill:url(#s);}.ac{fill:url(#t);}.ad{fill:url(#u);}.ae{fill:url(#v);}.af{fill:url(#w);}.ag{fill:url(#x);}.ah{opacity:0.1;fill:url(#y);}.ai{opacity:0.109;fill:url(#z);}.aj{opacity:0.118;fill:url(#aa);}.ak{opacity:0.127;fill:url(#ab);}.al{opacity:0.136;fill:url(#ac);}.am{opacity:0.145;fill:url(#ad);}.an{opacity:0.155;fill:url(#ae);}.ao{opacity:0.164;fill:url(#af);}.ap{opacity:0.173;fill:url(#ag);}.aq{opacity:0.182;fill:url(#ah);}.ar{opacity:0.191;fill:url(#ai);}.as{fill:#231f20;}.at{fill:url(#aj);}.au{fill:url(#ak);}.av{fill:url(#al);}.aw{fill:url(#am);}.ax{fill:url(#an);}.ay{fill:url(#ao);}.az{fill:url(#ap);}</style><radialGradient id="a" cx="0.5" cy="0.5" r="1.202" gradientTransform="matrix(-0.416, 0, 0, 0.416, -2.744, -46.511)" gradientUnits="objectBoundingBox"><stop offset="0.192" stop-color="#5f5c5d"/><stop offset="1" stop-color="#fff"/></radialGradient><linearGradient id="b" x1="52.952" y1="19.294" x2="54.174" y2="18.47" gradientUnits="objectBoundingBox"><stop offset="0.056" stop-color="#200041"/><stop offset="0.233" stop-color="#210143"/><stop offset="0.32" stop-color="#25084a"/><stop offset="0.388" stop-color="#2c1357"/><stop offset="0.419" stop-color="#311b61"/><stop offset="0.474" stop-color="#351f65"/><stop offset="0.535" stop-color="#422c72"/><stop offset="0.597" stop-color="#574188"/><stop offset="0.661" stop-color="#755fa6"/><stop offset="0.692" stop-color="#8770b8"/><stop offset="0.7" stop-color="#7d66ae"/><stop offset="0.732" stop-color="#5c458c"/><stop offset="0.762" stop-color="#442e74"/><stop offset="0.79" stop-color="#351f66"/><stop offset="0.813" stop-color="#311b61"/><stop offset="0.859" stop-color="#2a1054"/><stop offset="0.936" stop-color="#220446"/><stop offset="1" stop-color="#200041"/></linearGradient><radialGradient id="c" cx="0.234" cy="0.367" r="0.395" gradientTransform="matrix(-1.446, 0.707, 1.446, 0.707, -51.83, 45.222)" gradientUnits="objectBoundingBox"><stop offset="0" stop-color="#fff"/><stop offset="0.066" stop-color="#d8d8d8"/><stop offset="0.162" stop-color="#a5a5a5"/><stop offset="0.262" stop-color="#797979"/><stop offset="0.366" stop-color="#545454"/><stop offset="0.473" stop-color="#353535"/><stop offset="0.585" stop-color="#1d1d1d"/><stop offset="0.704" stop-color="#0d0d0d"/><stop offset="0.835" stop-color="#030303"/><stop offset="1"/></radialGradient><linearGradient id="d" x1="-5.033" y1="-30.968" x2="-5.807" y2="-31.154" gradientUnits="objectBoundingBox"><stop offset="0" stop-color="#311b61"/><stop offset="0.203" stop-color="#290e52"/><stop offset="0.495" stop-color="#200041"/><stop offset="1" stop-color="#0f001f"/></linearGradient><radialGradient id="e" cx="0.5" cy="0.5" r="0.707" gradientTransform="matrix(-0.291, -0.863, -0.748, 0.757, -4.314, -10.56)" gradientUnits="objectBoundingBox"><stop offset="0" stop-color="#ff63ce"/><stop offset="0.409" stop-color="#9f19ab"/><stop offset="0.617" stop-color="#8f1ab8"/><stop offset="0.823" stop-color="#7c1dc9"/><stop offset="0.986" stop-color="#6c23d4"/><stop offset="1" stop-color="#6b24d6"/></radialGradient><linearGradient id="f" x1="-7.559" y1="-38.418" x2="-5.551" y2="-37.638" gradientUnits="objectBoundingBox"><stop offset="0" stop-color="#d4d1d8"/><stop offset="1" stop-color="#eeebf2"/></linearGradient><radialGradient id="g" cx="0.5" r="0.707" gradientTransform="matrix(-0.291, -0.863, -0.748, 0.757, -6.447, -15.005)" xlink:href="#e"/><linearGradient id="h" x1="-11.098" y1="-57.686" x2="-9.089" y2="-56.906" xlink:href="#f"/><radialGradient id="i" cx="0.5" r="0.707" gradientTransform="matrix(-0.291, -0.863, -0.748, 0.757, -11.425, -25.377)" xlink:href="#e"/><linearGradient id="j" x1="-21.713" y1="-115.491" x2="-19.704" y2="-114.711" xlink:href="#f"/><linearGradient id="k" x1="-0.881" y1="0.449" x2="1.639" y2="0.542" gradientUnits="objectBoundingBox"><stop offset="0.035" stop-color="#9f19ab"/><stop offset="0.244" stop-color="#ae24b0"/><stop offset="0.645" stop-color="#d643bf"/><stop offset="1" stop-color="#ff63ce"/></linearGradient><radialGradient id="l" cx="0.5" cy="0.543" r="0.397" gradientTransform="matrix(-1.345, 0.707, 1.345, 0.707, -30.809, 14.295)" xlink:href="#c"/><radialGradient id="m" cx="0.498" cy="0.543" r="0.397" gradientTransform="matrix(-1.338, 0.707, 1.338, 0.707, -43.015, 20.059)" xlink:href="#c"/><radialGradient id="n" cx="0.5" cy="0.543" r="0.397" gradientTransform="matrix(-1.339, 0.707, 1.339, 0.707, -71.95, 33.509)" xlink:href="#c"/><radialGradient id="o" cx="0.498" cy="0.541" r="0.397" gradientTransform="matrix(-1.316, 0.707, 1.316, 0.707, -209.507, 99.215)" xlink:href="#c"/><radialGradient id="p" cx="0.5" cy="0.5" r="0.5" gradientTransform="matrix(0, -1, -1, 0, 238.631, -409.822)" gradientUnits="objectBoundingBox"><stop offset="0" stop-color="#972a74"/><stop offset="0.041" stop-color="#8a266a"/><stop offset="0.194" stop-color="#601a49"/><stop offset="0.35" stop-color="#3d112f"/><stop offset="0.507" stop-color="#22091a"/><stop offset="0.667" stop-color="#0f040b"/><stop offset="0.829" stop-color="#030102"/><stop offset="1"/></radialGradient><radialGradient id="q" cx="0.5" cy="0.5" r="0.5" gradientTransform="matrix(0, -1, -1, 0, -147.369, -286.812)" gradientUnits="objectBoundingBox"><stop offset="0" stop-color="#9c2b77"/><stop offset="0.056" stop-color="#8a2669"/><stop offset="0.207" stop-color="#601a49"/><stop offset="0.36" stop-color="#3d102e"/><stop offset="0.515" stop-color="#22091a"/><stop offset="0.672" stop-color="#0f040b"/><stop offset="0.832" stop-color="#030102"/><stop offset="1"/></radialGradient><linearGradient id="r" x1="82.19" y1="870.116" x2="82.232" y2="869.87" gradientUnits="objectBoundingBox"><stop offset="0.035" stop-color="#f7aa90"/><stop offset="0.232" stop-color="#f9b996"/><stop offset="0.61" stop-color="#fee1a6"/><stop offset="0.631" stop-color="#ffe4a7"/><stop offset="0.874" stop-color="#f7aa90"/></linearGradient><linearGradient id="s" x1="0.49" y1="1.319" x2="0.509" y2="-0.055" gradientUnits="objectBoundingBox"><stop offset="0.035" stop-color="#ffa98c"/><stop offset="0.317" stop-color="#feb892"/><stop offset="0.86" stop-color="#fee0a3"/><stop offset="1" stop-color="#feeca8"/></linearGradient><radialGradient id="t" cx="0.754" cy="0.349" r="0.786" gradientTransform="matrix(-0.504, 0, 0, 1, 1.008, 0)" xlink:href="#c"/><linearGradient id="u" x1="36.157" y1="314.647" x2="36.256" y2="314.177" gradientUnits="objectBoundingBox"><stop offset="0.01" stop-color="#f9b595"/><stop offset="0.131" stop-color="#fbc59c"/><stop offset="0.176" stop-color="#f9ba97"/><stop offset="0.253" stop-color="#f7ae91"/><stop offset="0.328" stop-color="#f7aa90"/><stop offset="0.43" stop-color="#f8b293"/><stop offset="0.594" stop-color="#fbca9d"/><stop offset="0.732" stop-color="#ffe4a7"/><stop offset="0.97" stop-color="#f7aa90"/></linearGradient><linearGradient id="v" x1="-222.102" y1="-1233.165" x2="-221.393" y2="-1233.165" xlink:href="#s"/><linearGradient id="w" x1="14.203" y1="139.956" x2="14.233" y2="139.791" gradientUnits="objectBoundingBox"><stop offset="0.035" stop-color="#1e1f21"/><stop offset="0.117" stop-color="#2c2d30"/><stop offset="0.141" stop-color="#323336"/><stop offset="0.268" stop-color="#0e0e0f"/><stop offset="0.352" stop-color="#131314"/><stop offset="0.464" stop-color="#222325"/><stop offset="0.592" stop-color="#3b3d41"/><stop offset="0.73" stop-color="#5e6167"/><stop offset="0.768" stop-color="#696c73"/><stop offset="1" stop-color="#37383c"/></linearGradient><linearGradient id="x" x1="1.599" y1="1.115" x2="-0.084" y2="0.173" gradientUnits="objectBoundingBox"><stop offset="0.035" stop-color="#1e1f21"/><stop offset="0.31" stop-color="#2c2d30"/><stop offset="0.84" stop-color="#505358"/><stop offset="1" stop-color="#5d6066"/></linearGradient><linearGradient id="y" x1="-10.171" y1="-8.343" x2="-11.056" y2="-9.518" gradientUnits="objectBoundingBox"><stop offset="0" stop-color="#fff"/><stop offset="1" stop-color="#4d4d4d"/></linearGradient><linearGradient id="z" x1="-9.411" y1="-8.004" x2="-10.302" y2="-9.186" gradientUnits="objectBoundingBox"><stop offset="0" stop-color="#ebebeb"/><stop offset="1" stop-color="#494949"/></linearGradient><linearGradient id="aa" x1="-8.616" y1="-7.599" x2="-9.513" y2="-8.79" gradientUnits="objectBoundingBox"><stop offset="0" stop-color="#d7d6d6"/><stop offset="1" stop-color="#454545"/></linearGradient><linearGradient id="ab" x1="-7.785" y1="-7.123" x2="-8.687" y2="-8.322" gradientUnits="objectBoundingBox"><stop offset="0" stop-color="#c3c2c2"/><stop offset="1" stop-color="#424041"/></linearGradient><linearGradient id="ac" x1="-6.914" y1="-6.567" x2="-7.821" y2="-7.773" gradientUnits="objectBoundingBox"><stop offset="0" stop-color="#afaeae"/><stop offset="1" stop-color="#3e3c3d"/></linearGradient><linearGradient id="ad" x1="-6.001" y1="-5.921" x2="-6.913" y2="-7.133" gradientUnits="objectBoundingBox"><stop offset="0" stop-color="#9b999a"/><stop offset="1" stop-color="#3a3839"/></linearGradient><linearGradient id="ae" x1="-5.043" y1="-5.173" x2="-5.958" y2="-6.392" gradientUnits="objectBoundingBox"><stop offset="0" stop-color="#878585"/><stop offset="1" stop-color="#363434"/></linearGradient><linearGradient id="af" x1="-4.033" y1="-4.311" x2="-4.953" y2="-5.535" gradientUnits="objectBoundingBox"><stop offset="0" stop-color="#737071"/><stop offset="1" stop-color="#323030"/></linearGradient><linearGradient id="ag" x1="-2.967" y1="-3.316" x2="-3.89" y2="-4.546" gradientUnits="objectBoundingBox"><stop offset="0" stop-color="#5f5c5d"/><stop offset="1" stop-color="#2e2c2c"/></linearGradient><linearGradient id="ah" x1="-1.838" y1="-2.169" x2="-2.764" y2="-3.405" gradientUnits="objectBoundingBox"><stop offset="0" stop-color="#4b4849"/><stop offset="1" stop-color="#2b2728"/></linearGradient><linearGradient id="ai" x1="-0.635" y1="-0.844" x2="-1.564" y2="-2.086" gradientUnits="objectBoundingBox"><stop offset="0" stop-color="#373334"/><stop offset="1" stop-color="#272324"/></linearGradient><linearGradient id="aj" x1="0.639" y1="0.416" x2="0.788" y2="0.017" xlink:href="#s"/><linearGradient id="ak" x1="34.546" y1="171.608" x2="32.582" y2="170.693" xlink:href="#s"/><radialGradient id="al" cx="0.785" cy="0.225" r="0.499" gradientTransform="matrix(-0.643, 0, 0, 1, 1.188, 0)" xlink:href="#c"/><linearGradient id="am" x1="0.693" y1="1.091" x2="0.571" y2="0.67" xlink:href="#s"/><linearGradient id="an" x1="0.423" y1="-0.036" x2="0.628" y2="1.328" xlink:href="#s"/><radialGradient id="ao" cx="1.047" cy="0.577" r="0.622" gradientTransform="matrix(-0.421, 0, 0, 1, 1.171, 0)" xlink:href="#c"/><radialGradient id="ap" cx="0.5" r="1.846" gradientTransform="matrix(-0.271, 0.249, 0.008, 0.105, -5.108, -401.938)" xlink:href="#p"/></defs><g transform="translate(10.723 8.125)"><ellipse class="a" cx="21.446" cy="8.923" rx="21.446" ry="8.923" transform="translate(11.52 84.475)"/><g transform="translate(12.248 -18.104) rotate(16)"><g transform="translate(9.277 7.721)"><path class="b" d="M21.9,97.758c8.467,8.467,17.386,11.542,25.039,9.7.23-.056,3.584-.852,3.812-.916,7.706-2.179-1.726-5.289,1.446-17.128C58.578,65.582,49.7,32.215,32.368,14.881,23.8,6.31,31.651-1.684,23.936.308c-.215.055-4.67,1.654-4.883,1.717-7.6,2.26-13.843,9.488-16.982,21.2C-4.314,47.056,4.562,80.424,21.9,97.758Z" transform="translate(0 0)"/><path class="c" d="M2.07,21.011C5.131,9.589,11.146,2.446,18.486,0,12.649,3.285,7.942,9.9,5.352,19.567-1.033,43.394,7.843,76.762,25.177,94.1c9.025,9.025,18.559,11.911,26.531,9.254-8.545,4.81-19.513,2.489-29.812-7.81C4.562,78.206-4.314,44.838,2.07,21.011Z" transform="translate(2.751 1.49)"/></g><ellipse class="d" cx="54.709" cy="31.585" rx="54.709" ry="31.585" transform="matrix(-0.254, -0.967, 0.967, -0.254, 30.121, 121.859)"/><ellipse class="e" cx="52.222" cy="30.149" rx="52.222" ry="30.149" transform="matrix(-0.254, -0.967, 0.967, -0.254, 30.879, 119.09)"/><ellipse class="f" cx="44.762" cy="25.842" rx="44.762" ry="25.842" transform="translate(33.154 110.781) rotate(-104.689)"/><ellipse class="g" cx="37.301" cy="21.535" rx="37.301" ry="21.535" transform="matrix(-0.254, -0.967, 0.967, -0.254, 35.428, 102.473)"/><ellipse class="h" cx="29.841" cy="17.228" rx="29.841" ry="17.228" transform="translate(37.703 94.164) rotate(-104.689)"/><ellipse class="i" cx="22.381" cy="12.921" rx="22.381" ry="12.921" transform="matrix(-0.254, -0.967, 0.967, -0.254, 39.977, 85.855)"/><ellipse class="j" cx="14.92" cy="8.614" rx="14.92" ry="8.614" transform="matrix(-0.254, -0.967, 0.967, -0.254, 42.252, 77.547)"/><path class="k" d="M27.582,66.668c5.24-19.558-2.046-46.946-16.274-61.174A33.872,33.872,0,0,0,4.273,0a33.185,33.185,0,0,1,7.67,5.846C26.17,20.074,33.456,47.462,28.216,67.02,23.83,83.387,12.062,89.08,0,82.164,11.838,88.525,23.273,82.748,27.582,66.668Z" transform="translate(44.347 19.671)"/><path class="k" d="M18.4,44.313C21.9,31.274,17.041,13.015,7.556,3.53A22.859,22.859,0,0,0,3.095,0a22.089,22.089,0,0,1,5.1,3.882c9.486,9.486,14.343,27.744,10.849,40.783C16.088,55.68,8.121,59.444,0,54.629,7.9,58.884,15.53,55.04,18.4,44.313Z" transform="translate(44.936 33.439)"/><path class="k" d="M8.977,22.1C10.724,15.579,8.295,6.45,3.553,1.707A11.49,11.49,0,0,0,1.413,0,10.821,10.821,0,0,1,4.186,2.06C8.929,6.8,11.358,15.932,9.611,22.451,8.124,28,4.092,29.866,0,27.375,3.868,29.311,7.567,27.36,8.977,22.1Z" transform="translate(45.777 47.066)"/><ellipse class="l" cx="7.46" cy="4.307" rx="7.46" ry="4.307" transform="matrix(-0.254, -0.967, 0.967, -0.254, 44.526, 69.238)"/><path class="m" d="M1.983,17.574C4.188,9.34,8,3.423,12.742,0,8.259,3.477,4.664,9.246,2.546,17.151c-6.113,22.817,2.386,54.771,18.986,71.37C32.141,99.13,43.491,100.9,51.9,94.835c-8.458,6.56-20.081,4.957-30.929-5.892C4.369,72.344-4.131,40.391,1.983,17.574Z" transform="translate(14.763 13.301)"/><path class="n" d="M1.416,12.525C2.988,6.659,5.7,2.448,9.08,0,5.963,2.5,3.464,6.565,1.98,12.1c-4.367,16.3,1.7,39.122,13.561,50.978,7.589,7.589,15.705,8.836,21.712,4.483C31.2,72.417,22.805,71.331,14.977,63.5,3.121,51.647-2.951,28.823,1.416,12.525Z" transform="translate(23.916 26.937)"/><path class="o" d="M.85,7.647C1.821,4.022,3.518,1.447,5.63,0A13.622,13.622,0,0,0,1.413,7.224C-1.207,17,2.436,30.7,9.55,37.811c4.476,4.477,9.26,5.278,12.845,2.822-3.637,2.953-8.693,2.317-13.409-2.4C1.872,31.121-1.77,17.426.85,7.647Z" transform="translate(33.07 40.401)"/><path class="p" d="M.283,2.656A4.167,4.167,0,0,1,2.06,0,4.749,4.749,0,0,0,.847,2.233a11.659,11.659,0,0,0,2.712,10.2c1.418,1.418,2.926,1.723,4.1,1.048-1.222,1.175-3,1.032-4.662-.625A11.66,11.66,0,0,1,.283,2.656Z" transform="translate(42.224 53.98)"/><ellipse class="q" cx="11.392" cy="8.897" rx="11.392" ry="8.897" transform="translate(22.45 54.058) rotate(-170.174)"/><ellipse class="r" cx="7.81" cy="7.987" rx="7.81" ry="7.987" transform="translate(31.962 118.633) rotate(-112.656)"/></g><g transform="translate(16.804 58.457)"><g class="s" transform="translate(9.898 16.4)"><path class="t" d="M434.94,255.693l-1.086-.627c8.69-4.879,21.976-5.435,31.629-1.65l-.884.728C455.538,250.594,443.106,251.115,434.94,255.693Z" transform="translate(-433.854 -250.939)"/></g><path class="u" d="M496.325,244.069l-.008,1.556a39.462,39.462,0,0,0-16.3,3.45l-1.725-1.188A43.505,43.505,0,0,1,496.325,244.069Zm-16.285,4.673a39.5,39.5,0,0,1,15.99-3.4l.005-.979a43.8,43.8,0,0,0-17.167,3.574Z" transform="translate(-469.213 -229.898)"/><path class="v" d="M435.574,226.292l-2.479-4.534c.621-.126,1.233-.27,1.862-.379l2.573,4.524C436.871,226.015,436.225,226.156,435.574,226.292Zm-3.291.8L429,222.735c.595-.164,1.184-.335,1.788-.481l3.374,4.332C433.523,226.736,432.9,226.917,432.283,227.091Zm24.328-1.222,2.624-4.534c.626.107,1.239.248,1.857.372l-2.528,4.542C457.915,226.117,457.27,225.978,456.611,225.869Zm3.365.67,3.421-4.344c.6.145,1.19.314,1.784.476l-3.335,4.368C461.226,226.866,460.61,226.687,459.977,226.539Zm-20.986-.844-1.644-4.662c.64-.088,1.275-.188,1.92-.259l1.741,4.659C440.33,225.5,439.661,225.6,438.991,225.695Zm3.5-.389-.789-4.74c.652-.049,1.3-.1,1.957-.132l.886,4.739C443.858,225.2,443.176,225.252,442.492,225.306Zm7.114-.143.936-4.742c.654.029,1.3.078,1.957.125l-.842,4.743C450.974,225.238,450.292,225.191,449.606,225.163Zm3.534.247,1.791-4.665c.645.068,1.279.166,1.918.252l-1.694,4.668C454.485,225.573,453.817,225.48,453.14,225.41Zm-30.117-.682,4.865,3.826c-.566.224-1.12.464-1.668.709l-4.785-3.859C421.958,225.172,422.485,224.944,423.023,224.728Zm23.02.4.074-4.768c.657-.01,1.312-.011,1.97,0l.022,4.767C447.418,225.114,446.732,225.115,446.043,225.129Zm-19.251-1.755,4.142,4.1c-.6.189-1.193.4-1.781.61l-4.06-4.13C425.657,223.756,426.218,223.555,426.792,223.373Z" transform="translate(-419.625 -213.876)"/><path class="w" d="M481.586,225.448l-.789-4.74c.652-.049,1.3-.1,1.957-.132l.886,4.739C482.953,225.345,482.27,225.393,481.586,225.448Zm7.114-.143.936-4.742c.654.029,1.3.078,1.957.125l-.842,4.743C490.069,225.38,489.386,225.333,488.7,225.305Zm-26.583-.435,4.864,3.826c-.566.224-1.12.464-1.668.709l-4.785-3.859C461.052,225.314,461.579,225.086,462.117,224.87Z" transform="translate(-458.719 -214.018)"/><path class="x" d="M424.721,227.966l-3.287-4.356c.595-.164,1.184-.335,1.788-.481l3.374,4.332C425.961,227.611,425.343,227.792,424.721,227.966Zm27.694-.553,3.421-4.344c.6.145,1.19.314,1.784.476l-3.336,4.368C453.664,227.74,453.048,227.562,452.414,227.413Zm-20.986-.844-1.644-4.662c.64-.088,1.275-.188,1.92-.259l1.741,4.659C432.768,226.379,432.1,226.475,431.428,226.57Z" transform="translate(-412.063 -214.751)"/><path class="v" d="M439.155,201.2c.561-.075,1.115-.176,1.68-.24l1.249,3.344q-.881.1-1.757.219Zm2.529,2.86-1.04-2.786c-.253.033-.507.072-.755.11l-.345.052.976,2.77C440.928,204.155,441.313,204.107,441.684,204.063Zm-7.918-1.963c.545-.109,1.083-.234,1.633-.332l1.844,3.239q-.859.152-1.71.322Zm3.024,2.695-1.541-2.706c-.267.051-.535.108-.8.163l-.246.052,1.477,2.7C436.044,204.933,436.413,204.863,436.789,204.795Zm7.882-4.162c.573-.041,1.142-.093,1.716-.124l.634,3.4q-.895.046-1.787.11Zm2.006,3-.527-2.823c-.29.018-.581.041-.865.063l-.277.022.468,2.812C445.865,203.682,446.262,203.658,446.678,203.635Zm-23.066,1.2c.5-.172.988-.348,1.491-.51l2.958,2.929q-.785.252-1.556.523Zm3.909,2.291-2.5-2.472c-.3.1-.6.2-.887.3l2.445,2.487C426.9,207.338,427.215,207.232,427.52,207.131Zm1.046-3.815c.523-.141,1.039-.292,1.569-.422l2.415,3.1q-.827.2-1.644.423Zm3.483,2.5-2.027-2.6c-.287.074-.574.153-.853.23l-.117.032,1.967,2.606C431.352,206,431.693,205.911,432.049,205.821Zm23.136-1.93.672-3.4c.574.029,1.142.079,1.714.118l-.6,3.384Q456.08,203.933,455.185,203.891Zm1.792-3.035c-.29-.022-.588-.044-.885-.062l-.558,2.825c.415.021.811.044,1.2.07l.5-2.814Zm7.977,4.1,1.879-3.246c.549.1,1.084.22,1.629.326l-1.8,3.236Q465.811,205.1,464.954,204.957Zm2.806-2.769c-.255-.053-.517-.108-.779-.157l-1.571,2.713c.372.067.74.135,1.1.205l1.507-2.707Zm-7.64,2.087,1.286-3.349c.564.063,1.116.16,1.676.234l-1.207,3.328Q461,204.373,460.12,204.275Zm2.229-2.929c-.247-.037-.5-.075-.755-.107l-1.071,2.79c.368.042.751.089,1.159.142l1.007-2.775ZM450.206,203.8l.053-3.408q.52-.006,1.039-.006l.688,0L452,203.8q-.376,0-.751,0Q450.729,203.8,450.206,203.8Zm1.492-3.124h-.4l-.755,0-.043,2.83q.376,0,.751,0h.461Z" transform="translate(-423.611 -200.39)"/><path class="v" d="M461.252,200.882c.573-.041,1.142-.093,1.716-.124l.634,3.4q-.895.046-1.787.11Zm2.006,3-.527-2.823c-.29.018-.581.041-.865.063l-.277.022.468,2.812C462.446,203.931,462.843,203.906,463.259,203.884Zm-23.066,1.2c.5-.172.988-.348,1.491-.51l2.958,2.929q-.785.252-1.556.523Zm3.909,2.291-2.5-2.472c-.3.1-.6.2-.887.3l2.445,2.487C443.484,207.586,443.8,207.481,444.1,207.38Zm1.046-3.815c.523-.141,1.039-.292,1.569-.422l2.415,3.1q-.827.2-1.644.423Zm3.483,2.5-2.027-2.6c-.287.074-.574.153-.853.23l-.117.032,1.967,2.606C447.933,206.248,448.274,206.16,448.63,206.07Zm28.071-1.547,1.286-3.349c.564.063,1.116.16,1.676.234l-1.207,3.328Q477.581,204.621,476.7,204.523Zm2.229-2.929c-.247-.037-.5-.075-.755-.107l-1.071,2.79c.368.042.751.089,1.159.142l1.007-2.775Z" transform="translate(-440.192 -200.639)"/><path class="w" d="M494.342,244.154a44.468,44.468,0,0,1,16.858-5.069l.385,1.285a40.038,40.038,0,0,0-16.4,5.22C494.9,245.117,494.619,244.639,494.342,244.154Z" transform="translate(-489.683 -226.531)"/><g class="y" transform="translate(0.746 4.429)"><path class="z" d="M461.363,219.768c-.007.2-.021.394-.03.591a69.826,69.826,0,0,0-20.054-2.827,66.566,66.566,0,0,0-26.236,5.054q-.113-.265-.225-.532a67.155,67.155,0,0,1,26.461-5.1A70.473,70.473,0,0,1,461.363,219.768Z" transform="translate(-414.406 -216.01)"/><path class="z" d="M461.727,216.735c0,.1,0,.2-.005.3a73.461,73.461,0,0,0-20.091-2.7,70.052,70.052,0,0,0-26.776,5.008l-.109-.267a70.355,70.355,0,0,1,26.885-5.029A73.8,73.8,0,0,1,461.727,216.735Z" transform="translate(-414.746 -214.043)"/></g><path class="w" d="M442.133,241.747c-.1.51-.2,1.018-.31,1.519a44.887,44.887,0,0,0-19.09-3.932c-1.669,0-3.307.087-4.9.241l-.386-1.285a52.615,52.615,0,0,1,16.341.844A43.006,43.006,0,0,1,442.133,241.747Z" transform="translate(-395.281 -225.804)"/><path class="w" d="M437.059,249.98a37.539,37.539,0,0,0-18.088-4.358l.008-1.556a42.606,42.606,0,0,1,18.57,4.053c-.023.1-.046.191-.07.286a42.317,42.317,0,0,0-18.213-4.049l-.005.979a37.87,37.87,0,0,1,17.877,4.37C437.112,249.8,437.086,249.89,437.059,249.98Z" transform="translate(-391.194 -229.897)"/></g><g transform="translate(39.469 30.124)"><g transform="translate(0 0)"><path class="aa" d="M459.908,181.237l-6.554,2.033,6.824-1.514Z" transform="translate(-452.214 -160.243)"/><path class="ab" d="M318.323,134.846l1.945-2.551a1.61,1.61,0,0,0-2.078-2.375l-16.045,9.156Z" transform="translate(-257.493 -127.502)"/><path class="ac" d="M318.016,134.848l1.945-2.551a1.6,1.6,0,0,0-.5-2.389,1.61,1.61,0,0,1,.812,2.521l-1.945,2.551-16.178,4.231.688-.392Z" transform="translate(-257.495 -127.636)"/><g transform="translate(7.011 15.998)"><path class="ad" d="M413.358,173.537a.156.156,0,0,0,.144.055,20.533,20.533,0,0,0,7.622-.818c6.76-1.8,7.612-2.319,7.615-2.32.177-.05-.04-.121.033-.392a1.954,1.954,0,0,0-.455-1.709c-.2-.2-.016-.38-.193-.334,0,0-.98.011-7.745,1.818a19.9,19.9,0,0,0-7.037,3.152.159.159,0,0,0-.1.122A.488.488,0,0,0,413.358,173.537Z" transform="translate(-413.233 -167.839)"/><ellipse class="ae" cx="1.25" cy="0.722" rx="1.25" ry="0.722" transform="matrix(-0.254, -0.967, 0.967, -0.254, 14.836, 2.785)"/></g><g transform="translate(21.624 5.599)"><path class="af" d="M305.7,151.7a.6.6,0,0,0,.548.212l39.268-10.547c.168-.048-.038-.116.031-.375a1.865,1.865,0,0,0-.434-1.632c-.188-.187-.016-.363-.185-.319l-39.291,10.565a.6.6,0,0,0-.372.464A1.865,1.865,0,0,0,305.7,151.7Z" transform="translate(-305.218 -139.034)"/><path class="ag" d="M304.655,141.142c.38.379.8.264.94-.257a1.867,1.867,0,0,0-.434-1.632c-.379-.379-.8-.264-.94.258A1.866,1.866,0,0,0,304.655,141.142Z" transform="translate(-264.889 -139.029)"/></g><g transform="translate(0 22.101)"><path class="ah" d="M409.849,189.246l4.155,4.6a.119.119,0,0,1,.064.036,19.888,19.888,0,0,1,5.819,5.059c4.483,5.379,20.043,22.226,20.047,22.23a.089.089,0,0,1,.026.055.613.613,0,0,1,.017.548c-.185.5-2.26,3.5-2.792,3.593a.606.606,0,0,1-.569-.137.158.158,0,0,1-.039-.035s-14.566-18.966-19.042-24.343a20.522,20.522,0,0,1-3.947-6.571.156.156,0,0,1-.01-.154Z" transform="translate(-409.849 -189.246)"/><path class="ai" d="M412.193,190.147l3.94,4.362a.116.116,0,0,1,.061.034,19.3,19.3,0,0,1,5.5,4.817c4.25,5.1,19.453,21.652,19.456,21.656a.087.087,0,0,1,.025.052.582.582,0,0,1,.016.519c-.175.477-2.084,3.221-2.588,3.308a.575.575,0,0,1-.54-.13.151.151,0,0,1-.037-.034s-14.258-18.481-18.5-23.579a20.193,20.193,0,0,1-3.783-6.232.149.149,0,0,1-.01-.146Z" transform="translate(-411.912 -189.818)"/><path class="aj" d="M414.537,191.048l3.724,4.123a.107.107,0,0,1,.058.032,18.723,18.723,0,0,1,5.176,4.575c4.018,4.821,18.863,21.078,18.865,21.081a.078.078,0,0,1,.024.049.548.548,0,0,1,.015.491c-.165.452-1.908,2.941-2.385,3.024a.545.545,0,0,1-.51-.123.143.143,0,0,1-.035-.032s-13.951-18-17.963-22.815a19.917,19.917,0,0,1-3.618-5.893.139.139,0,0,1-.009-.138Z" transform="translate(-413.975 -190.391)"/><path class="ak" d="M416.881,191.949l3.509,3.884a.1.1,0,0,1,.054.03A18.194,18.194,0,0,1,425.3,200.2c3.785,4.541,18.273,20.5,18.275,20.507a.076.076,0,0,1,.022.046.518.518,0,0,1,.014.462c-.156.425-1.733,2.662-2.182,2.74a.512.512,0,0,1-.48-.115.136.136,0,0,1-.034-.03s-13.643-17.513-17.422-22.052a19.71,19.71,0,0,1-3.454-5.554.133.133,0,0,1-.009-.13Z" transform="translate(-416.037 -190.963)"/><path class="al" d="M419.224,192.85l3.293,3.645a.1.1,0,0,1,.051.028,17.7,17.7,0,0,1,4.533,4.091c3.553,4.262,17.682,19.93,17.684,19.933a.071.071,0,0,1,.021.043.486.486,0,0,1,.014.434c-.147.4-1.557,2.381-1.979,2.455a.479.479,0,0,1-.451-.108.123.123,0,0,1-.031-.028s-13.335-17.028-16.882-21.289a19.59,19.59,0,0,1-3.289-5.215.124.124,0,0,1-.008-.122Z" transform="translate(-418.1 -191.535)"/><path class="am" d="M421.568,193.75l3.077,3.407a.086.086,0,0,1,.047.027,17.258,17.258,0,0,1,4.212,3.849c3.32,3.983,17.091,19.355,17.094,19.358a.066.066,0,0,1,.02.04.455.455,0,0,1,.012.406c-.137.373-1.382,2.1-1.776,2.17a.448.448,0,0,1-.421-.1.11.11,0,0,1-.029-.026s-13.027-16.544-16.342-20.525a19.584,19.584,0,0,1-3.125-4.876.117.117,0,0,1-.008-.114Z" transform="translate(-420.162 -192.107)"/><path class="an" d="M423.911,194.651l2.862,3.168a.085.085,0,0,1,.044.025,16.923,16.923,0,0,1,3.89,3.607c3.087,3.7,16.5,18.781,16.5,18.784a.062.062,0,0,1,.018.038.421.421,0,0,1,.012.377c-.127.347-1.207,1.822-1.573,1.886a.418.418,0,0,1-.392-.094.116.116,0,0,1-.027-.024s-12.72-16.059-15.8-19.762a19.757,19.757,0,0,1-2.96-4.536.107.107,0,0,1-.007-.106Z" transform="translate(-422.225 -192.68)"/><path class="ao" d="M426.255,195.552l2.646,2.929a.078.078,0,0,1,.041.023,16.7,16.7,0,0,1,3.569,3.365c2.855,3.425,15.91,18.207,15.912,18.21a.056.056,0,0,1,.017.035.389.389,0,0,1,.011.349c-.117.321-1.031,1.542-1.37,1.6a.386.386,0,0,1-.362-.087.109.109,0,0,1-.025-.023s-12.412-15.575-15.262-19a20.2,20.2,0,0,1-2.8-4.2.1.1,0,0,1-.007-.1Z" transform="translate(-424.287 -193.252)"/><path class="ap" d="M428.6,196.453l2.43,2.691a.071.071,0,0,1,.038.021,16.687,16.687,0,0,1,3.248,3.123c2.622,3.146,15.32,17.633,15.322,17.635a.054.054,0,0,1,.016.032.359.359,0,0,1,.009.32c-.108.295-.855,1.263-1.166,1.317a.354.354,0,0,1-.333-.08.09.09,0,0,1-.023-.02s-12.1-15.09-14.722-18.235a21.075,21.075,0,0,1-2.631-3.858.091.091,0,0,1-.006-.09Z" transform="translate(-426.349 -193.824)"/><path class="aq" d="M430.942,197.354l2.215,2.452a.066.066,0,0,1,.034.019,16.98,16.98,0,0,1,2.926,2.881c2.39,2.867,14.729,17.059,14.731,17.061a.047.047,0,0,1,.014.029.327.327,0,0,1,.009.292c-.1.268-.68.983-.963,1.033a.323.323,0,0,1-.3-.073.084.084,0,0,1-.021-.019s-11.8-14.606-14.182-17.471a22.675,22.675,0,0,1-2.467-3.519.083.083,0,0,1-.005-.082Z" transform="translate(-428.412 -194.397)"/><path class="ar" d="M433.286,198.255l2,2.213a.056.056,0,0,1,.031.017,17.911,17.911,0,0,1,2.605,2.639c2.157,2.588,14.139,16.485,14.141,16.487a.043.043,0,0,1,.013.026.3.3,0,0,1,.008.264,1.518,1.518,0,0,1-.76.748.292.292,0,0,1-.274-.066.082.082,0,0,1-.019-.017s-11.489-14.121-13.642-16.708a25.822,25.822,0,0,1-2.3-3.18.076.076,0,0,1-.005-.074Z" transform="translate(-430.474 -194.969)"/><path class="as" d="M435.63,199.156l1.784,1.974a.054.054,0,0,1,.028.015,20.238,20.238,0,0,1,2.284,2.4c1.924,2.309,13.549,15.911,13.55,15.912a.038.038,0,0,1,.011.024.263.263,0,0,1,.007.235.8.8,0,0,1-.557.463.261.261,0,0,1-.244-.058.073.073,0,0,1-.017-.015s-11.181-13.637-13.1-15.944a32.853,32.853,0,0,1-2.138-2.841.066.066,0,0,1,0-.066Z" transform="translate(-432.537 -195.541)"/></g><path class="at" d="M326.076,129.822l-16.427,4.418,7.468-8.8a4.975,4.975,0,0,1,8.728,2.586Z" transform="translate(-265.697 -123.678)"/><path class="au" d="M326.619,130.184,310.192,134.6l7.468-8.8a4.975,4.975,0,0,1,8.728,2.586Z" transform="translate(-266.438 -123.908)"/><path class="av" d="M326.3,128.608a4.975,4.975,0,0,0-8.728-2.586l-7.252,8.546-.128.035,7.468-8.8a4.975,4.975,0,0,1,8.728,2.586l.231,1.8-.112.03Z" transform="translate(-266.437 -123.908)"/><path class="aw" d="M321.112,145.686l.664,1.175a4.161,4.161,0,0,1-4.525,6.108L304.778,150.2Z" transform="translate(-260.169 -137.659)"/><path class="ax" d="M321.916,145.767l.664,1.175a4.161,4.161,0,0,1-4.525,6.108l-12.472-2.772Z" transform="translate(-261.267 -137.71)"/><path class="ay" d="M317.813,152.983a4.161,4.161,0,0,0,4.525-6.108l-.6-1.06.177-.049.664,1.176a4.161,4.161,0,0,1-4.525,6.108l-12.473-2.772.025-.007Z" transform="translate(-261.267 -137.71)"/><path class="az" d="M388.524,168.47c.164.636,5.035-.069,10.879-1.575s10.449-3.242,10.286-3.878-5.035.069-10.879,1.575S388.36,167.834,388.524,168.47Z" transform="translate(-378.081 -148.52)"/></g></g></g></svg>