<svg xmlns="http://www.w3.org/2000/svg" xmlns:xlink="http://www.w3.org/1999/xlink" width="113.309" height="118.744" viewBox="0 0 113.309 118.744">
  <defs>
    <radialGradient id="radial-gradient" cx="0.5" cy="0.5" r="1.202" gradientTransform="matrix(-0.416, 0, 0, 0.416, -2.744, -46.511)" gradientUnits="objectBoundingBox">
      <stop offset="0.192" stop-color="#5f5c5d"/>
      <stop offset="1" stop-color="#fff"/>
    </radialGradient>
    <linearGradient id="linear-gradient" x1="52.952" y1="19.294" x2="54.174" y2="18.47" gradientUnits="objectBoundingBox">
      <stop offset="0.056" stop-color="#200041"/>
      <stop offset="0.233" stop-color="#210143"/>
      <stop offset="0.32" stop-color="#25084a"/>
      <stop offset="0.388" stop-color="#2c1357"/>
      <stop offset="0.419" stop-color="#311b61"/>
      <stop offset="0.474" stop-color="#351f65"/>
      <stop offset="0.535" stop-color="#422c72"/>
      <stop offset="0.597" stop-color="#574188"/>
      <stop offset="0.661" stop-color="#755fa6"/>
      <stop offset="0.692" stop-color="#8770b8"/>
      <stop offset="0.7" stop-color="#7d66ae"/>
      <stop offset="0.732" stop-color="#5c458c"/>
      <stop offset="0.762" stop-color="#442e74"/>
      <stop offset="0.79" stop-color="#351f66"/>
      <stop offset="0.813" stop-color="#311b61"/>
      <stop offset="0.859" stop-color="#2a1054"/>
      <stop offset="0.936" stop-color="#220446"/>
      <stop offset="1" stop-color="#200041"/>
    </linearGradient>
    <radialGradient id="radial-gradient-2" cx="0.234" cy="0.367" r="0.395" gradientTransform="matrix(-1.446, 0.707, 1.446, 0.707, -51.83, 45.222)" gradientUnits="objectBoundingBox">
      <stop offset="0" stop-color="#fff"/>
      <stop offset="0.066" stop-color="#d8d8d8"/>
      <stop offset="0.162" stop-color="#a5a5a5"/>
      <stop offset="0.262" stop-color="#797979"/>
      <stop offset="0.366" stop-color="#545454"/>
      <stop offset="0.473" stop-color="#353535"/>
      <stop offset="0.585" stop-color="#1d1d1d"/>
      <stop offset="0.704" stop-color="#0d0d0d"/>
      <stop offset="0.835" stop-color="#030303"/>
      <stop offset="1"/>
    </radialGradient>
    <linearGradient id="linear-gradient-2" x1="-5.033" y1="-30.968" x2="-5.807" y2="-31.154" gradientUnits="objectBoundingBox">
      <stop offset="0" stop-color="#311b61"/>
      <stop offset="0.203" stop-color="#290e52"/>
      <stop offset="0.495" stop-color="#200041"/>
      <stop offset="1" stop-color="#0f001f"/>
    </linearGradient>
    <radialGradient id="radial-gradient-3" cx="0.5" cy="0.5" r="0.707" gradientTransform="matrix(-0.291, -0.863, -0.748, 0.757, -4.314, -10.56)" gradientUnits="objectBoundingBox">
      <stop offset="0" stop-color="#ff63ce"/>
      <stop offset="0.409" stop-color="#9f19ab"/>
      <stop offset="0.617" stop-color="#8f1ab8"/>
      <stop offset="0.823" stop-color="#7c1dc9"/>
      <stop offset="0.986" stop-color="#6c23d4"/>
      <stop offset="1" stop-color="#6b24d6"/>
    </radialGradient>
    <linearGradient id="linear-gradient-3" x1="-7.559" y1="-38.418" x2="-5.551" y2="-37.638" gradientUnits="objectBoundingBox">
      <stop offset="0" stop-color="#d4d1d8"/>
      <stop offset="1" stop-color="#eeebf2"/>
    </linearGradient>
    <radialGradient id="radial-gradient-4" cx="0.5" r="0.707" gradientTransform="matrix(-0.291, -0.863, -0.748, 0.757, -6.447, -15.005)" xlink:href="#radial-gradient-3"/>
    <linearGradient id="linear-gradient-4" x1="-11.098" y1="-57.686" x2="-9.089" y2="-56.906" xlink:href="#linear-gradient-3"/>
    <radialGradient id="radial-gradient-5" cx="0.5" r="0.707" gradientTransform="matrix(-0.291, -0.863, -0.748, 0.757, -11.425, -25.377)" xlink:href="#radial-gradient-3"/>
    <linearGradient id="linear-gradient-5" x1="-21.713" y1="-115.491" x2="-19.704" y2="-114.711" xlink:href="#linear-gradient-3"/>
    <linearGradient id="linear-gradient-6" x1="-0.881" y1="0.449" x2="1.639" y2="0.542" gradientUnits="objectBoundingBox">
      <stop offset="0.035" stop-color="#9f19ab"/>
      <stop offset="0.244" stop-color="#ae24b0"/>
      <stop offset="0.645" stop-color="#d643bf"/>
      <stop offset="1" stop-color="#ff63ce"/>
    </linearGradient>
    <radialGradient id="radial-gradient-6" cx="0.5" cy="0.543" r="0.397" gradientTransform="matrix(-1.345, 0.707, 1.345, 0.707, -30.809, 14.295)" xlink:href="#radial-gradient-2"/>
    <radialGradient id="radial-gradient-7" cx="0.498" cy="0.543" r="0.397" gradientTransform="matrix(-1.338, 0.707, 1.338, 0.707, -43.015, 20.059)" xlink:href="#radial-gradient-2"/>
    <radialGradient id="radial-gradient-8" cx="0.5" cy="0.543" r="0.397" gradientTransform="matrix(-1.339, 0.707, 1.339, 0.707, -71.95, 33.509)" xlink:href="#radial-gradient-2"/>
    <radialGradient id="radial-gradient-9" cx="0.498" cy="0.541" r="0.397" gradientTransform="matrix(-1.316, 0.707, 1.316, 0.707, -209.507, 99.215)" xlink:href="#radial-gradient-2"/>
    <linearGradient id="linear-gradient-7" x1="82.19" y1="870.116" x2="82.232" y2="869.87" gradientUnits="objectBoundingBox">
      <stop offset="0.035" stop-color="#f7aa90"/>
      <stop offset="0.232" stop-color="#f9b996"/>
      <stop offset="0.61" stop-color="#fee1a6"/>
      <stop offset="0.631" stop-color="#ffe4a7"/>
      <stop offset="0.874" stop-color="#f7aa90"/>
    </linearGradient>
    <linearGradient id="linear-gradient-8" x1="0.49" y1="1.319" x2="0.509" y2="-0.055" gradientUnits="objectBoundingBox">
      <stop offset="0.035" stop-color="#ffa98c"/>
      <stop offset="0.317" stop-color="#feb892"/>
      <stop offset="0.86" stop-color="#fee0a3"/>
      <stop offset="1" stop-color="#feeca8"/>
    </linearGradient>
    <radialGradient id="radial-gradient-10" cx="0.754" cy="0.349" r="0.786" gradientTransform="matrix(-0.504, 0, 0, 1, 1.008, 0)" xlink:href="#radial-gradient-2"/>
    <linearGradient id="linear-gradient-9" x1="36.157" y1="314.647" x2="36.256" y2="314.177" gradientUnits="objectBoundingBox">
      <stop offset="0.01" stop-color="#f9b595"/>
      <stop offset="0.131" stop-color="#fbc59c"/>
      <stop offset="0.176" stop-color="#f9ba97"/>
      <stop offset="0.253" stop-color="#f7ae91"/>
      <stop offset="0.328" stop-color="#f7aa90"/>
      <stop offset="0.43" stop-color="#f8b293"/>
      <stop offset="0.594" stop-color="#fbca9d"/>
      <stop offset="0.732" stop-color="#ffe4a7"/>
      <stop offset="0.97" stop-color="#f7aa90"/>
    </linearGradient>
    <linearGradient id="linear-gradient-10" x1="-222.102" y1="-1233.165" x2="-221.393" y2="-1233.165" xlink:href="#linear-gradient-8"/>
    <linearGradient id="linear-gradient-11" x1="14.203" y1="139.956" x2="14.233" y2="139.791" gradientUnits="objectBoundingBox">
      <stop offset="0.035" stop-color="#1e1f21"/>
      <stop offset="0.117" stop-color="#2c2d30"/>
      <stop offset="0.141" stop-color="#323336"/>
      <stop offset="0.268" stop-color="#0e0e0f"/>
      <stop offset="0.352" stop-color="#131314"/>
      <stop offset="0.464" stop-color="#222325"/>
      <stop offset="0.592" stop-color="#3b3d41"/>
      <stop offset="0.73" stop-color="#5e6167"/>
      <stop offset="0.768" stop-color="#696c73"/>
      <stop offset="1" stop-color="#37383c"/>
    </linearGradient>
    <linearGradient id="linear-gradient-12" x1="1.599" y1="1.115" x2="-0.084" y2="0.173" gradientUnits="objectBoundingBox">
      <stop offset="0.035" stop-color="#1e1f21"/>
      <stop offset="0.31" stop-color="#2c2d30"/>
      <stop offset="0.84" stop-color="#505358"/>
      <stop offset="1" stop-color="#5d6066"/>
    </linearGradient>
    <linearGradient id="linear-gradient-13" x1="-10.171" y1="-8.343" x2="-11.056" y2="-9.518" gradientUnits="objectBoundingBox">
      <stop offset="0" stop-color="#fff"/>
      <stop offset="1" stop-color="#4d4d4d"/>
    </linearGradient>
    <linearGradient id="linear-gradient-14" x1="-9.411" y1="-8.004" x2="-10.302" y2="-9.186" gradientUnits="objectBoundingBox">
      <stop offset="0" stop-color="#ebebeb"/>
      <stop offset="1" stop-color="#494949"/>
    </linearGradient>
    <linearGradient id="linear-gradient-15" x1="-8.616" y1="-7.599" x2="-9.513" y2="-8.79" gradientUnits="objectBoundingBox">
      <stop offset="0" stop-color="#d7d6d6"/>
      <stop offset="1" stop-color="#454545"/>
    </linearGradient>
    <linearGradient id="linear-gradient-16" x1="-7.785" y1="-7.123" x2="-8.687" y2="-8.322" gradientUnits="objectBoundingBox">
      <stop offset="0" stop-color="#c3c2c2"/>
      <stop offset="1" stop-color="#424041"/>
    </linearGradient>
    <linearGradient id="linear-gradient-17" x1="-6.914" y1="-6.567" x2="-7.821" y2="-7.773" gradientUnits="objectBoundingBox">
      <stop offset="0" stop-color="#afaeae"/>
      <stop offset="1" stop-color="#3e3c3d"/>
    </linearGradient>
    <linearGradient id="linear-gradient-18" x1="-6.001" y1="-5.921" x2="-6.913" y2="-7.133" gradientUnits="objectBoundingBox">
      <stop offset="0" stop-color="#9b999a"/>
      <stop offset="1" stop-color="#3a3839"/>
    </linearGradient>
    <linearGradient id="linear-gradient-19" x1="-5.043" y1="-5.173" x2="-5.958" y2="-6.392" gradientUnits="objectBoundingBox">
      <stop offset="0" stop-color="#878585"/>
      <stop offset="1" stop-color="#363434"/>
    </linearGradient>
    <linearGradient id="linear-gradient-20" x1="-4.033" y1="-4.311" x2="-4.953" y2="-5.535" gradientUnits="objectBoundingBox">
      <stop offset="0" stop-color="#737071"/>
      <stop offset="1" stop-color="#323030"/>
    </linearGradient>
    <linearGradient id="linear-gradient-21" x1="-2.967" y1="-3.316" x2="-3.89" y2="-4.546" gradientUnits="objectBoundingBox">
      <stop offset="0" stop-color="#5f5c5d"/>
      <stop offset="1" stop-color="#2e2c2c"/>
    </linearGradient>
    <linearGradient id="linear-gradient-22" x1="-1.838" y1="-2.169" x2="-2.764" y2="-3.405" gradientUnits="objectBoundingBox">
      <stop offset="0" stop-color="#4b4849"/>
      <stop offset="1" stop-color="#2b2728"/>
    </linearGradient>
    <linearGradient id="linear-gradient-23" x1="-0.635" y1="-0.844" x2="-1.564" y2="-2.086" gradientUnits="objectBoundingBox">
      <stop offset="0" stop-color="#373334"/>
      <stop offset="1" stop-color="#272324"/>
    </linearGradient>
    <linearGradient id="linear-gradient-24" x1="0.639" y1="0.416" x2="0.788" y2="0.017" xlink:href="#linear-gradient-8"/>
    <linearGradient id="linear-gradient-25" x1="34.546" y1="171.608" x2="32.582" y2="170.693" xlink:href="#linear-gradient-8"/>
    <radialGradient id="radial-gradient-11" cx="0.785" cy="0.225" r="0.499" gradientTransform="matrix(-0.643, 0, 0, 1, 1.188, 0)" xlink:href="#radial-gradient-2"/>
    <linearGradient id="linear-gradient-26" x1="0.693" y1="1.091" x2="0.571" y2="0.67" xlink:href="#linear-gradient-8"/>
    <linearGradient id="linear-gradient-27" x1="0.423" y1="-0.036" x2="0.628" y2="1.328" xlink:href="#linear-gradient-8"/>
    <radialGradient id="radial-gradient-12" cx="1.047" cy="0.577" r="0.622" gradientTransform="matrix(-0.421, 0, 0, 1, 1.171, 0)" xlink:href="#radial-gradient-2"/>
    <radialGradient id="radial-gradient-13" cx="0.5" cy="0.5" r="1.846" gradientTransform="matrix(-0.271, 0.249, 0.008, 0.105, -5.108, -401.938)" gradientUnits="objectBoundingBox">
      <stop offset="0" stop-color="#972a74"/>
      <stop offset="0.041" stop-color="#8a266a"/>
      <stop offset="0.194" stop-color="#601a49"/>
      <stop offset="0.35" stop-color="#3d112f"/>
      <stop offset="0.507" stop-color="#22091a"/>
      <stop offset="0.667" stop-color="#0f040b"/>
      <stop offset="0.829" stop-color="#030102"/>
      <stop offset="1"/>
    </radialGradient>
  </defs>
  <g id="Group_4443" data-name="Group 4443" transform="translate(10.723 8.125)">
    <ellipse id="Ellipse_42" data-name="Ellipse 42" cx="21.446" cy="8.923" rx="21.446" ry="8.923" transform="translate(11.52 84.475)" fill="url(#radial-gradient)" style="mix-blend-mode: multiply;isolation: isolate"/>
    <g id="Group_3757" data-name="Group 3757" transform="translate(12.248 -18.104) rotate(16)">
      <g id="Group_3756" data-name="Group 3756" transform="translate(9.277 7.721)">
        <path id="Path_976" data-name="Path 976" d="M21.9,97.758c8.467,8.467,17.386,11.542,25.039,9.7.23-.056,3.584-.852,3.812-.916,7.706-2.179-1.726-5.289,1.446-17.128C58.578,65.582,49.7,32.215,32.368,14.881,23.8,6.31,31.651-1.684,23.936.308c-.215.055-4.67,1.654-4.883,1.717-7.6,2.26-13.843,9.488-16.982,21.2C-4.314,47.056,4.562,80.424,21.9,97.758Z" transform="translate(0 0)" fill="url(#linear-gradient)"/>
        <path id="Path_977" data-name="Path 977" d="M2.07,21.011C5.131,9.589,11.146,2.446,18.486,0,12.649,3.285,7.942,9.9,5.352,19.567-1.033,43.394,7.843,76.762,25.177,94.1c9.025,9.025,18.559,11.911,26.531,9.254-8.545,4.81-19.513,2.489-29.812-7.81C4.562,78.206-4.314,44.838,2.07,21.011Z" transform="translate(2.751 1.49)" fill="url(#radial-gradient-2)" style="mix-blend-mode: color-dodge;isolation: isolate"/>
      </g>
      <ellipse id="Ellipse_43" data-name="Ellipse 43" cx="54.709" cy="31.585" rx="54.709" ry="31.585" transform="matrix(-0.254, -0.967, 0.967, -0.254, 30.121, 121.859)" fill="url(#linear-gradient-2)"/>
      <ellipse id="Ellipse_44" data-name="Ellipse 44" cx="52.222" cy="30.149" rx="52.222" ry="30.149" transform="matrix(-0.254, -0.967, 0.967, -0.254, 30.879, 119.09)" fill="url(#radial-gradient-3)"/>
      <ellipse id="Ellipse_45" data-name="Ellipse 45" cx="44.762" cy="25.842" rx="44.762" ry="25.842" transform="translate(33.154 110.781) rotate(-104.689)" fill="url(#linear-gradient-3)"/>
      <ellipse id="Ellipse_46" data-name="Ellipse 46" cx="37.301" cy="21.535" rx="37.301" ry="21.535" transform="matrix(-0.254, -0.967, 0.967, -0.254, 35.428, 102.473)" fill="url(#radial-gradient-4)"/>
      <ellipse id="Ellipse_47" data-name="Ellipse 47" cx="29.841" cy="17.228" rx="29.841" ry="17.228" transform="translate(37.703 94.164) rotate(-104.689)" fill="url(#linear-gradient-4)"/>
      <ellipse id="Ellipse_48" data-name="Ellipse 48" cx="22.381" cy="12.921" rx="22.381" ry="12.921" transform="matrix(-0.254, -0.967, 0.967, -0.254, 39.977, 85.855)" fill="url(#radial-gradient-5)"/>
      <ellipse id="Ellipse_49" data-name="Ellipse 49" cx="14.92" cy="8.614" rx="14.92" ry="8.614" transform="matrix(-0.254, -0.967, 0.967, -0.254, 42.252, 77.547)" fill="url(#linear-gradient-5)"/>
      <path id="Path_978" data-name="Path 978" d="M27.582,66.668c5.24-19.558-2.046-46.946-16.274-61.174A33.872,33.872,0,0,0,4.273,0a33.185,33.185,0,0,1,7.67,5.846C26.17,20.074,33.456,47.462,28.216,67.02,23.83,83.387,12.062,89.08,0,82.164,11.838,88.525,23.273,82.748,27.582,66.668Z" transform="translate(44.347 19.671)" fill="#d1d3d4" style="mix-blend-mode: multiply;isolation: isolate"/>
      <path id="Path_979" data-name="Path 979" d="M18.4,44.313C21.9,31.274,17.041,13.015,7.556,3.53A22.859,22.859,0,0,0,3.095,0a22.089,22.089,0,0,1,5.1,3.882c9.486,9.486,14.343,27.744,10.849,40.783C16.088,55.68,8.121,59.444,0,54.629,7.9,58.884,15.53,55.04,18.4,44.313Z" transform="translate(44.936 33.439)" fill="#d1d3d4" style="mix-blend-mode: multiply;isolation: isolate"/>
      <path id="Path_980" data-name="Path 980" d="M8.977,22.1C10.724,15.579,8.295,6.45,3.553,1.707A11.49,11.49,0,0,0,1.413,0,10.821,10.821,0,0,1,4.186,2.06C8.929,6.8,11.358,15.932,9.611,22.451,8.124,28,4.092,29.866,0,27.375,3.868,29.311,7.567,27.36,8.977,22.1Z" transform="translate(45.777 47.066)" fill="#d1d3d4" style="mix-blend-mode: multiply;isolation: isolate"/>
      <ellipse id="Ellipse_50" data-name="Ellipse 50" cx="7.46" cy="4.307" rx="7.46" ry="4.307" transform="matrix(-0.254, -0.967, 0.967, -0.254, 44.526, 69.238)" fill="url(#linear-gradient-6)"/>
      <path id="Path_981" data-name="Path 981" d="M1.983,17.574C4.188,9.34,8,3.423,12.742,0,8.259,3.477,4.664,9.246,2.546,17.151c-6.113,22.817,2.386,54.771,18.986,71.37C32.141,99.13,43.491,100.9,51.9,94.835c-8.458,6.56-20.081,4.957-30.929-5.892C4.369,72.344-4.131,40.391,1.983,17.574Z" transform="translate(14.763 13.301)" fill="url(#radial-gradient-6)" style="mix-blend-mode: color-dodge;isolation: isolate"/>
      <path id="Path_982" data-name="Path 982" d="M1.416,12.525C2.988,6.659,5.7,2.448,9.08,0,5.963,2.5,3.464,6.565,1.98,12.1c-4.367,16.3,1.7,39.122,13.561,50.978,7.589,7.589,15.705,8.836,21.712,4.483C31.2,72.417,22.805,71.331,14.977,63.5,3.121,51.647-2.951,28.823,1.416,12.525Z" transform="translate(23.916 26.937)" fill="url(#radial-gradient-7)" style="mix-blend-mode: color-dodge;isolation: isolate"/>
      <path id="Path_983" data-name="Path 983" d="M.85,7.647C1.821,4.022,3.518,1.447,5.63,0A13.622,13.622,0,0,0,1.413,7.224C-1.207,17,2.436,30.7,9.55,37.811c4.476,4.477,9.26,5.278,12.845,2.822-3.637,2.953-8.693,2.317-13.409-2.4C1.872,31.121-1.77,17.426.85,7.647Z" transform="translate(33.07 40.401)" fill="url(#radial-gradient-8)" style="mix-blend-mode: color-dodge;isolation: isolate"/>
      <path id="Path_984" data-name="Path 984" d="M.283,2.656A4.167,4.167,0,0,1,2.06,0,4.749,4.749,0,0,0,.847,2.233a11.659,11.659,0,0,0,2.712,10.2c1.418,1.418,2.926,1.723,4.1,1.048-1.222,1.175-3,1.032-4.662-.625A11.66,11.66,0,0,1,.283,2.656Z" transform="translate(42.224 53.98)" fill="url(#radial-gradient-9)" style="mix-blend-mode: color-dodge;isolation: isolate"/>
    </g>
    <g id="Group_3766" data-name="Group 3766" transform="translate(39.469 30.124)">
      <g id="Group_3765" data-name="Group 3765" transform="translate(0 0)">
        <path id="Path_1009" data-name="Path 1009" d="M459.908,181.237l-6.554,2.033,6.824-1.514Z" transform="translate(-452.214 -160.243)" fill="url(#linear-gradient-7)"/>
        <path id="Path_1010" data-name="Path 1010" d="M318.323,134.846l1.945-2.551a1.61,1.61,0,0,0-2.078-2.375l-16.045,9.156Z" transform="translate(-257.493 -127.502)" fill="url(#linear-gradient-8)"/>
        <path id="Path_1011" data-name="Path 1011" d="M318.016,134.848l1.945-2.551a1.6,1.6,0,0,0-.5-2.389,1.61,1.61,0,0,1,.812,2.521l-1.945,2.551-16.178,4.231.688-.392Z" transform="translate(-257.495 -127.636)" fill="url(#radial-gradient-10)" style="mix-blend-mode: color-dodge;isolation: isolate"/>
        <g id="Group_3762" data-name="Group 3762" transform="translate(7.011 15.998)">
          <path id="Path_1012" data-name="Path 1012" d="M413.358,173.537a.156.156,0,0,0,.144.055,20.533,20.533,0,0,0,7.622-.818c6.76-1.8,7.612-2.319,7.615-2.32.177-.05-.04-.121.033-.392a1.954,1.954,0,0,0-.455-1.709c-.2-.2-.016-.38-.193-.334,0,0-.98.011-7.745,1.818a19.9,19.9,0,0,0-7.037,3.152.159.159,0,0,0-.1.122A.488.488,0,0,0,413.358,173.537Z" transform="translate(-413.233 -167.839)" fill="url(#linear-gradient-9)"/>
          <ellipse id="Ellipse_53" data-name="Ellipse 53" cx="1.25" cy="0.722" rx="1.25" ry="0.722" transform="matrix(-0.254, -0.967, 0.967, -0.254, 14.836, 2.785)" fill="url(#linear-gradient-10)"/>
        </g>
        <g id="Group_3763" data-name="Group 3763" transform="translate(21.624 5.599)">
          <path id="Path_1013" data-name="Path 1013" d="M305.7,151.7a.6.6,0,0,0,.548.212l39.268-10.547c.168-.048-.038-.116.031-.375a1.865,1.865,0,0,0-.434-1.632c-.188-.187-.016-.363-.185-.319l-39.291,10.565a.6.6,0,0,0-.372.464A1.865,1.865,0,0,0,305.7,151.7Z" transform="translate(-305.218 -139.034)" fill="url(#linear-gradient-11)"/>
          <path id="Path_1014" data-name="Path 1014" d="M304.655,141.142c.38.379.8.264.94-.257a1.867,1.867,0,0,0-.434-1.632c-.379-.379-.8-.264-.94.258A1.866,1.866,0,0,0,304.655,141.142Z" transform="translate(-264.889 -139.029)" fill="url(#linear-gradient-12)"/>
        </g>
        <g id="Group_3764" data-name="Group 3764" transform="translate(0 22.101)">
          <path id="Path_1015" data-name="Path 1015" d="M409.849,189.246l4.155,4.6a.119.119,0,0,1,.064.036,19.888,19.888,0,0,1,5.819,5.059c4.483,5.379,20.043,22.226,20.047,22.23a.089.089,0,0,1,.026.055.613.613,0,0,1,.017.548c-.185.5-2.26,3.5-2.792,3.593a.606.606,0,0,1-.569-.137.158.158,0,0,1-.039-.035s-14.566-18.966-19.042-24.343a20.522,20.522,0,0,1-3.947-6.571.156.156,0,0,1-.01-.154Z" transform="translate(-409.849 -189.246)" opacity="0.1" fill="url(#linear-gradient-13)" style="mix-blend-mode: multiply;isolation: isolate"/>
          <path id="Path_1016" data-name="Path 1016" d="M412.193,190.147l3.94,4.362a.116.116,0,0,1,.061.034,19.3,19.3,0,0,1,5.5,4.817c4.25,5.1,19.453,21.652,19.456,21.656a.087.087,0,0,1,.025.052.582.582,0,0,1,.016.519c-.175.477-2.084,3.221-2.588,3.308a.575.575,0,0,1-.54-.13.151.151,0,0,1-.037-.034s-14.258-18.481-18.5-23.579a20.193,20.193,0,0,1-3.783-6.232.149.149,0,0,1-.01-.146Z" transform="translate(-411.912 -189.818)" opacity="0.109" fill="url(#linear-gradient-14)" style="mix-blend-mode: multiply;isolation: isolate"/>
          <path id="Path_1017" data-name="Path 1017" d="M414.537,191.048l3.724,4.123a.107.107,0,0,1,.058.032,18.723,18.723,0,0,1,5.176,4.575c4.018,4.821,18.863,21.078,18.865,21.081a.078.078,0,0,1,.024.049.548.548,0,0,1,.015.491c-.165.452-1.908,2.941-2.385,3.024a.545.545,0,0,1-.51-.123.143.143,0,0,1-.035-.032s-13.951-18-17.963-22.815a19.917,19.917,0,0,1-3.618-5.893.139.139,0,0,1-.009-.138Z" transform="translate(-413.975 -190.391)" opacity="0.118" fill="url(#linear-gradient-15)" style="mix-blend-mode: multiply;isolation: isolate"/>
          <path id="Path_1018" data-name="Path 1018" d="M416.881,191.949l3.509,3.884a.1.1,0,0,1,.054.03A18.194,18.194,0,0,1,425.3,200.2c3.785,4.541,18.273,20.5,18.275,20.507a.076.076,0,0,1,.022.046.518.518,0,0,1,.014.462c-.156.425-1.733,2.662-2.182,2.74a.512.512,0,0,1-.48-.115.136.136,0,0,1-.034-.03s-13.643-17.513-17.422-22.052a19.71,19.71,0,0,1-3.454-5.554.133.133,0,0,1-.009-.13Z" transform="translate(-416.037 -190.963)" opacity="0.127" fill="url(#linear-gradient-16)" style="mix-blend-mode: multiply;isolation: isolate"/>
          <path id="Path_1019" data-name="Path 1019" d="M419.224,192.85l3.293,3.645a.1.1,0,0,1,.051.028,17.7,17.7,0,0,1,4.533,4.091c3.553,4.262,17.682,19.93,17.684,19.933a.071.071,0,0,1,.021.043.486.486,0,0,1,.014.434c-.147.4-1.557,2.381-1.979,2.455a.479.479,0,0,1-.451-.108.123.123,0,0,1-.031-.028s-13.335-17.028-16.882-21.289a19.59,19.59,0,0,1-3.289-5.215.124.124,0,0,1-.008-.122Z" transform="translate(-418.1 -191.535)" opacity="0.136" fill="url(#linear-gradient-17)" style="mix-blend-mode: multiply;isolation: isolate"/>
          <path id="Path_1020" data-name="Path 1020" d="M421.568,193.75l3.077,3.407a.086.086,0,0,1,.047.027,17.258,17.258,0,0,1,4.212,3.849c3.32,3.983,17.091,19.355,17.094,19.358a.066.066,0,0,1,.02.04.455.455,0,0,1,.012.406c-.137.373-1.382,2.1-1.776,2.17a.448.448,0,0,1-.421-.1.11.11,0,0,1-.029-.026s-13.027-16.544-16.342-20.525a19.584,19.584,0,0,1-3.125-4.876.117.117,0,0,1-.008-.114Z" transform="translate(-420.162 -192.107)" opacity="0.145" fill="url(#linear-gradient-18)" style="mix-blend-mode: multiply;isolation: isolate"/>
          <path id="Path_1021" data-name="Path 1021" d="M423.911,194.651l2.862,3.168a.085.085,0,0,1,.044.025,16.923,16.923,0,0,1,3.89,3.607c3.087,3.7,16.5,18.781,16.5,18.784a.062.062,0,0,1,.018.038.421.421,0,0,1,.012.377c-.127.347-1.207,1.822-1.573,1.886a.418.418,0,0,1-.392-.094.116.116,0,0,1-.027-.024s-12.72-16.059-15.8-19.762a19.757,19.757,0,0,1-2.96-4.536.107.107,0,0,1-.007-.106Z" transform="translate(-422.225 -192.68)" opacity="0.155" fill="url(#linear-gradient-19)" style="mix-blend-mode: multiply;isolation: isolate"/>
          <path id="Path_1022" data-name="Path 1022" d="M426.255,195.552l2.646,2.929a.078.078,0,0,1,.041.023,16.7,16.7,0,0,1,3.569,3.365c2.855,3.425,15.91,18.207,15.912,18.21a.056.056,0,0,1,.017.035.389.389,0,0,1,.011.349c-.117.321-1.031,1.542-1.37,1.6a.386.386,0,0,1-.362-.087.109.109,0,0,1-.025-.023s-12.412-15.575-15.262-19a20.2,20.2,0,0,1-2.8-4.2.1.1,0,0,1-.007-.1Z" transform="translate(-424.287 -193.252)" opacity="0.164" fill="url(#linear-gradient-20)" style="mix-blend-mode: multiply;isolation: isolate"/>
          <path id="Path_1023" data-name="Path 1023" d="M428.6,196.453l2.43,2.691a.071.071,0,0,1,.038.021,16.687,16.687,0,0,1,3.248,3.123c2.622,3.146,15.32,17.633,15.322,17.635a.054.054,0,0,1,.016.032.359.359,0,0,1,.009.32c-.108.295-.855,1.263-1.166,1.317a.354.354,0,0,1-.333-.08.09.09,0,0,1-.023-.02s-12.1-15.09-14.722-18.235a21.075,21.075,0,0,1-2.631-3.858.091.091,0,0,1-.006-.09Z" transform="translate(-426.349 -193.824)" opacity="0.173" fill="url(#linear-gradient-21)" style="mix-blend-mode: multiply;isolation: isolate"/>
          <path id="Path_1024" data-name="Path 1024" d="M430.942,197.354l2.215,2.452a.066.066,0,0,1,.034.019,16.98,16.98,0,0,1,2.926,2.881c2.39,2.867,14.729,17.059,14.731,17.061a.047.047,0,0,1,.014.029.327.327,0,0,1,.009.292c-.1.268-.68.983-.963,1.033a.323.323,0,0,1-.3-.073.084.084,0,0,1-.021-.019s-11.8-14.606-14.182-17.471a22.675,22.675,0,0,1-2.467-3.519.083.083,0,0,1-.005-.082Z" transform="translate(-428.412 -194.397)" opacity="0.182" fill="url(#linear-gradient-22)" style="mix-blend-mode: multiply;isolation: isolate"/>
          <path id="Path_1025" data-name="Path 1025" d="M433.286,198.255l2,2.213a.056.056,0,0,1,.031.017,17.911,17.911,0,0,1,2.605,2.639c2.157,2.588,14.139,16.485,14.141,16.487a.043.043,0,0,1,.013.026.3.3,0,0,1,.008.264,1.518,1.518,0,0,1-.76.748.292.292,0,0,1-.274-.066.082.082,0,0,1-.019-.017s-11.489-14.121-13.642-16.708a25.822,25.822,0,0,1-2.3-3.18.076.076,0,0,1-.005-.074Z" transform="translate(-430.474 -194.969)" opacity="0.191" fill="url(#linear-gradient-23)" style="mix-blend-mode: multiply;isolation: isolate"/>
          <path id="Path_1026" data-name="Path 1026" d="M435.63,199.156l1.784,1.974a.054.054,0,0,1,.028.015,20.238,20.238,0,0,1,2.284,2.4c1.924,2.309,13.549,15.911,13.55,15.912a.038.038,0,0,1,.011.024.263.263,0,0,1,.007.235.8.8,0,0,1-.557.463.261.261,0,0,1-.244-.058.073.073,0,0,1-.017-.015s-11.181-13.637-13.1-15.944a32.853,32.853,0,0,1-2.138-2.841.066.066,0,0,1,0-.066Z" transform="translate(-432.537 -195.541)" fill="#231f20" opacity="0.2" style="mix-blend-mode: multiply;isolation: isolate"/>
        </g>
        <path id="Path_1027" data-name="Path 1027" d="M326.076,129.822l-16.427,4.418,7.468-8.8a4.975,4.975,0,0,1,8.728,2.586Z" transform="translate(-265.697 -123.678)" fill="url(#linear-gradient-24)"/>
        <path id="Path_1028" data-name="Path 1028" d="M326.619,130.184,310.192,134.6l7.468-8.8a4.975,4.975,0,0,1,8.728,2.586Z" transform="translate(-266.438 -123.908)" fill="url(#linear-gradient-25)"/>
        <path id="Path_1029" data-name="Path 1029" d="M326.3,128.608a4.975,4.975,0,0,0-8.728-2.586l-7.252,8.546-.128.035,7.468-8.8a4.975,4.975,0,0,1,8.728,2.586l.231,1.8-.112.03Z" transform="translate(-266.437 -123.908)" fill="url(#radial-gradient-11)" style="mix-blend-mode: color-dodge;isolation: isolate"/>
        <path id="Path_1030" data-name="Path 1030" d="M321.112,145.686l.664,1.175a4.161,4.161,0,0,1-4.525,6.108L304.778,150.2Z" transform="translate(-260.169 -137.659)" fill="url(#linear-gradient-26)"/>
        <path id="Path_1031" data-name="Path 1031" d="M321.916,145.767l.664,1.175a4.161,4.161,0,0,1-4.525,6.108l-12.472-2.772Z" transform="translate(-261.267 -137.71)" fill="url(#linear-gradient-27)"/>
        <path id="Path_1032" data-name="Path 1032" d="M317.813,152.983a4.161,4.161,0,0,0,4.525-6.108l-.6-1.06.177-.049.664,1.176a4.161,4.161,0,0,1-4.525,6.108l-12.473-2.772.025-.007Z" transform="translate(-261.267 -137.71)" fill="url(#radial-gradient-12)" style="mix-blend-mode: color-dodge;isolation: isolate"/>
        <path id="Path_1033" data-name="Path 1033" d="M388.524,168.47c.164.636,5.035-.069,10.879-1.575s10.449-3.242,10.286-3.878-5.035.069-10.879,1.575S388.36,167.834,388.524,168.47Z" transform="translate(-378.081 -148.52)" fill="url(#radial-gradient-13)" style="mix-blend-mode: color-dodge;isolation: isolate"/>
      </g>
    </g>
  </g>
</svg>
