<svg xmlns="http://www.w3.org/2000/svg" width="21.173" height="18.058" viewBox="0 0 21.173 18.058"><g transform="translate(-1248.827 -469.942)"><path d="M5.466,76.863l-5.23-5.23a.8.8,0,0,1,0-1.138l1.138-1.138a.8.8,0,0,1,1.138,0L6.035,72.88l7.546-7.546a.8.8,0,0,1,1.138,0l1.138,1.138a.8.8,0,0,1,0,1.138L6.6,76.863a.8.8,0,0,1-1.138,0Z" transform="translate(1253.908 404.902)" fill="#e8306e"/><path d="M190.382,18.058h-4.65a.367.367,0,0,1-.367-.367V16.2a.367.367,0,0,1,.367-.367h3.65a.859.859,0,0,0,.859-.859V3.084a.859.859,0,0,0-.859-.859h-11.89a.859.859,0,0,0-.859.859v2.6a.367.367,0,0,1-.367.367h-1.49a.367.367,0,0,1-.367-.367v-3.6A2.081,2.081,0,0,1,176.492,0h13.89a2.083,2.083,0,0,1,2.084,2.084v13.89A2.083,2.083,0,0,1,190.382,18.058Z" transform="translate(1441.293 488) rotate(180)" fill="#e8306e"/></g></svg>