<svg xmlns="http://www.w3.org/2000/svg" width="148.899" height="40" viewBox="0 0 148.899 40"><defs><style>.a{fill:#fff;}</style></defs><g transform="translate(0.033)"><path class="a" d="M35.474,40H29.6a.813.813,0,0,1-.813-.813V38.1a.813.813,0,0,1,.813-.813h5.869a1.9,1.9,0,0,0,1.9-1.9V4.616a1.9,1.9,0,0,0-1.9-1.9H4.706a1.9,1.9,0,0,0-1.9,1.9v5.757a.813.813,0,0,1-.813.813H.9a.813.813,0,0,1-.813-.813V4.616A4.615,4.615,0,0,1,4.706,0H35.474A4.615,4.615,0,0,1,40.09,4.616V35.384A4.615,4.615,0,0,1,35.474,40Z" transform="translate(-0.09)"/></g><g transform="translate(0 16.347)"><g transform="translate(0.033)"><path class="a" d="M12.065,58.594l-.769-.769a.819.819,0,0,1,0-1.153l9.889-9.889A1.9,1.9,0,0,0,19.84,43.54H.9a.813.813,0,0,1-.813-.813V41.643A.813.813,0,0,1,.9,40.83H19.772a4.675,4.675,0,0,1,4.316,2.807,4.547,4.547,0,0,1-.981,5.073L13.218,58.6A.823.823,0,0,1,12.065,58.594Z" transform="translate(-0.09 -40.83)"/></g><g transform="translate(0 5.648)"><path class="a" d="M22.829,72.943H4.705A4.675,4.675,0,0,1,.389,70.136a4.547,4.547,0,0,1,.981-5.073l9.889-9.889a.819.819,0,0,1,1.153,0l.769.769a.819.819,0,0,1,0,1.153L3.288,66.985a1.9,1.9,0,0,0,1.345,3.243h18.2a.813.813,0,0,1,.813.813v1.085A.814.814,0,0,1,22.829,72.943Z" transform="translate(-0.008 -54.938)"/></g></g><g transform="translate(22.946 5.729)"><path class="a" d="M59.234,17.024H58.121a.8.8,0,0,1-.8-.8V15.111a.8.8,0,0,1,.8-.8h1.113a.8.8,0,0,1,.8.8v1.113A.8.8,0,0,1,59.234,17.024Z" transform="translate(-57.32 -14.31)"/><path class="a" d="M70.4,17.024H69.291a.8.8,0,0,1-.8-.8V15.111a.8.8,0,0,1,.8-.8H70.4a.8.8,0,0,1,.8.8v1.113A.8.8,0,0,1,70.4,17.024Z" transform="translate(-64.018 -14.31)"/><path class="a" d="M81.564,17.024H80.451a.8.8,0,0,1-.8-.8V15.111a.8.8,0,0,1,.8-.8h1.113a.8.8,0,0,1,.8.8v1.113A.8.8,0,0,1,81.564,17.024Z" transform="translate(-70.71 -14.31)"/></g><g transform="translate(52 6.902)"><path class="a" d="M149.566,17.24v2.991l-15.422,19.89h15.494v2.919H130V40.121l15.494-19.962H130.973V17.24Z" transform="translate(-130 -17.24)"/><path class="a" d="M201.405,53.941h-3.351l-3.783-14.557L190.7,53.941h-3.315L182.02,35.42h3.243l3.819,14.413,3.531-14.413h3.6l3.639,14.413,3.675-14.413h3.315Z" transform="translate(-161.15 -28.141)"/><path class="a" d="M266.42,50.861v2.378a6.22,6.22,0,0,1-1.91.432q-2.883,0-3.135-2.63-1.982,2.7-6.306,2.7a6.284,6.284,0,0,1-4.648-1.657,5.023,5.023,0,0,1-1.441-3.711,4.737,4.737,0,0,1,1.838-4,12.879,12.879,0,0,1,4.36-1.549l6.053-1.369.036-1.549q0-2.774-4.18-2.774-4,0-4.288,3.243h-2.991a6.01,6.01,0,0,1,1.225-3.747q1.91-2.2,6.2-2.2,6.954,0,6.954,5.045V49.816q0,1.369,1.189,1.369a3.513,3.513,0,0,0,.757-.216A2.654,2.654,0,0,0,266.42,50.861Zm-5.153-6.99L256.511,45.1A11.279,11.279,0,0,0,253,46.429a2.218,2.218,0,0,0-.957,1.91q0,2.847,3.675,2.847a6.181,6.181,0,0,0,4.4-1.694,3.142,3.142,0,0,0,1.153-2.378Z" transform="translate(-201.301 -27.548)"/><path class="a" d="M315.56,50.861v2.378a6.219,6.219,0,0,1-1.91.432q-2.883,0-3.135-2.63-1.982,2.7-6.306,2.7a6.284,6.284,0,0,1-4.648-1.657,5.023,5.023,0,0,1-1.441-3.711,4.737,4.737,0,0,1,1.838-4,12.879,12.879,0,0,1,4.36-1.549l6.053-1.369.036-1.549q0-2.774-4.18-2.774-4,0-4.288,3.243h-2.991a6.01,6.01,0,0,1,1.225-3.747q1.91-2.2,6.2-2.2,6.954,0,6.954,5.045V49.816q0,1.369,1.189,1.369a3.512,3.512,0,0,0,.757-.216A2.649,2.649,0,0,0,315.56,50.861Zm-5.153-6.99L305.651,45.1a11.279,11.279,0,0,0-3.511,1.333,2.218,2.218,0,0,0-.957,1.91q0,2.847,3.675,2.847a6.181,6.181,0,0,0,4.4-1.694,3.142,3.142,0,0,0,1.153-2.378Z" transform="translate(-230.768 -27.548)"/><path class="a" d="M349.69,34.772h2.738v3.387q1.621-3.819,5.117-3.819a6.161,6.161,0,0,1,1.045.108v3.027a7.249,7.249,0,0,0-3.964.829q-1.982,1.441-1.982,5.369v9.621H349.69V34.772Z" transform="translate(-261.691 -27.494)"/></g></svg>