<svg xmlns="http://www.w3.org/2000/svg" width="98.556" height="18.08" viewBox="0 0 98.556 18.08"><defs><style>.a{fill:#fff;}</style></defs><g transform="translate(0)"><g transform="translate(0 0)"><path class="a" d="M29.628,31,22,48.909l3.1.017,1.775-4.3,8.14.017,1.743,4.3,3.2.017L32.426,31.017ZM28.013,41.848l2.974-7.11,2.958,7.127Z" transform="translate(-2.246 -30.878)"/><path class="a" d="M3.05,36.176l9.6,12.765,2.563.017.049-17.925H12.247l-.032,12.383L2.887,31H.049L0,48.908l3.017.017Z" transform="translate(0 -30.878)"/><path class="a" d="M62.028,48.958,62.06,31.05l-3.235-.017-5.3,8.455L48.283,31H45.032L45,48.908l2.994.017.032-12.8,5.392,8.4h.1l5.5-8.421L58.97,48.958Z" transform="translate(-4.594 -30.878)"/><path class="a" d="M0,0H17.651V3.163H0Z" transform="translate(95.346 17.651) rotate(-89.849)"/><path class="a" d="M98.317,38.473l-8.251-.017L90.082,31H87.048L87,48.908l3.05.017.016-7.556L98.3,41.4l-.016,7.539,3.033.017.048-17.925H98.333Z" transform="translate(-8.882 -30.878)"/><path class="a" d="M74.881,38.592c-3.327-.811-4.118-1.411-4.118-2.774,0-1.168,1.05-2.093,2.842-2.093a7.922,7.922,0,0,1,4.716,1.8l1.647-2.32A9.551,9.551,0,0,0,73.67,31c-3.456-.016-5.943,2.028-5.943,5.078-.016,3.244,2.067,4.347,5.765,5.256,3.23.762,3.924,1.427,3.924,2.709,0,1.346-1.2,2.222-3.084,2.206a7.944,7.944,0,0,1-5.491-2.287L67,46.152a10.623,10.623,0,0,0,7.251,2.806c3.65.016,6.218-1.93,6.218-5.224C80.469,40.814,78.547,39.5,74.881,38.592Z" transform="translate(-6.84 -30.878)"/></g></g></svg>