<svg xmlns="http://www.w3.org/2000/svg" width="94.671" height="30.694" viewBox="0 0 94.671 30.694"><defs><style>.a{fill:#fff;fill-rule:evenodd;}</style></defs><g transform="translate(0 0)"><g transform="translate(0 0)"><path class="a" d="M0,16.075C0,24.3,6.993,30.694,15.125,30.694A15.355,15.355,0,0,0,30.535,15.442,15.654,15.654,0,0,0,24.65,3.354l-2.564,4.43a10.181,10.181,0,0,1,3.576,7.722,10.522,10.522,0,0,1-21.043-.158,11.068,11.068,0,0,1,.19-2.057L0,16.074ZM19.871.759A11.4,11.4,0,0,0,15.822,0a12.612,12.612,0,0,0-2.468.253l-3.291,5.7a8.912,8.912,0,0,1,4.43-1.076,10.2,10.2,0,0,1,2.784.38L19.871.759Z" transform="translate(0 0)"/></g><path class="a" d="M47.565,11.193a4.644,4.644,0,0,0-3.074,1.1l-.24-.843H42.193V21.937h2.622v-5.7a2.346,2.346,0,0,1,2.38-2.458c1.223,0,1.953.861,1.953,2.3v5.857h2.623V15.885c0-2.894-1.612-4.692-4.206-4.692M80.9,16.448a2.628,2.628,0,1,1-5.227,0,2.628,2.628,0,1,1,5.227,0m-2.613-5.487a5.327,5.327,0,0,0-5.276,5.487,5.279,5.279,0,1,0,10.55,0,5.327,5.327,0,0,0-5.276-5.487M65.245,16.448a2.628,2.628,0,1,1-5.227,0,2.628,2.628,0,1,1,5.227,0m-2.613-5.487a5.327,5.327,0,0,0-5.276,5.487,5.279,5.279,0,1,0,10.549,0,5.327,5.327,0,0,0-5.275-5.487m31.883.232a4.646,4.646,0,0,0-3.074,1.1l-.239-.843h-2.06V21.937h2.623v-5.7a2.346,2.346,0,0,1,2.38-2.458c1.223,0,1.953.861,1.953,2.3v5.857h2.623V15.885c0-2.894-1.612-4.692-4.207-4.692" transform="translate(-4.051 -1.071)"/></g></svg>