<svg xmlns="http://www.w3.org/2000/svg" width="62.735" height="16.574" viewBox="0 0 62.735 16.574"><defs><style>.a{fill:#fff;}</style></defs><g transform="translate(0 0)"><g transform="translate(0 0)"><g transform="translate(24.373 0.042)"><path class="a" d="M72.66,3.645,70.965,0H65.2l3.561,7.333Z" transform="translate(-61.936)"/><path class="a" d="M81.916,0h-10.3L57.5,16.531h5.6l3.688-4.408,2.077,4.408h9.665l1.314-7.376,1.187,4.069,3.518-4.239ZM73.989,15.217,70.556,7.927,76.49,1.06Z" transform="translate(-57.5)"/><path class="a" d="M123.01,0,113.6,14.285h4.705l3.6-5.6-1.4,7.842h4.79L128.182,0Z" transform="translate(-89.82)"/></g><path class="a" d="M17.337.593a10.641,10.641,0,0,0-.085,2.331,2.322,2.322,0,0,0,1.7,1.992,1.988,1.988,0,0,0,1.017.17.82.82,0,0,0,.381-.212,2.315,2.315,0,0,1,1.1-.424,4.9,4.9,0,0,1,1.823.212,7.677,7.677,0,0,1,1.484.551,1.587,1.587,0,0,1,.509.551c.212.339.3.933.763,1.06A6.077,6.077,0,0,0,26.069,5.3a7.415,7.415,0,0,1,.212-1.4,14.01,14.01,0,0,1,.509-1.907c.042-.085.127-.593.3-.509.085.042.042.212.042.339a8.95,8.95,0,0,1-.085,1.1,11.428,11.428,0,0,0,.085,2.967,5.173,5.173,0,0,1,.17,1.441,1.615,1.615,0,0,1-.127.424c-.042.127,0,.212-.042.339a2.532,2.532,0,0,1-.254.466.69.69,0,0,0-.127.254c-.042.085-.127.127-.127.254,0,.17.3.466.466.509a4.82,4.82,0,0,1,1.823.678,1.52,1.52,0,0,1,.466.975,1.839,1.839,0,0,1-.212.975c-.085.212-.17.763-.339.848-.127.085-.3.042-.466.127-.042.212-.127.339-.17.551-.127.17-.3.254-.424.424.042.339-.17.466-.466.466-.89.721-2.628.254-3.391-.254-.381.254-.805.466-.721,1.187a5.256,5.256,0,0,0,.975.509c.509.17,1.144.085,1.441.381l.085.085h2.543l7.206-8.35L31.452,0H17.379A2.607,2.607,0,0,1,17.337.593Z" transform="translate(-9.919 0.042)"/><path class="a" d="M.805,16.347a6.075,6.075,0,0,1,1.738-1.1,6.2,6.2,0,0,0,1.4-.721c.17-.127.3-.3.509-.339a4.3,4.3,0,0,1,1.1.17,2.031,2.031,0,0,0,1.865-.678,2.456,2.456,0,0,0,.593-.721A3.336,3.336,0,0,0,8.1,11.642c0-.933.339-1.611.381-2.5,0-.466-.085-.89-.042-1.356a4.895,4.895,0,0,1-1.4-.89,2.393,2.393,0,0,1-.678-1.823,3.351,3.351,0,0,1-.551-1.7,6.951,6.951,0,0,1,.381-1.865c.17-.551.3-1.1.466-1.611H3.561L0,16.431H.763C.763,16.389.805,16.389.805,16.347Z" transform="translate(0 0.1)"/></g></g></svg>